G04 #@! TF.GenerationSoftware,KiCad,Pcbnew,(5.1.12)-1*
G04 #@! TF.CreationDate,2023-01-21T13:53:20-07:00*
G04 #@! TF.ProjectId,keyboard,6b657962-6f61-4726-942e-6b696361645f,rev?*
G04 #@! TF.SameCoordinates,Original*
G04 #@! TF.FileFunction,Legend,Bot*
G04 #@! TF.FilePolarity,Positive*
%FSLAX46Y46*%
G04 Gerber Fmt 4.6, Leading zero omitted, Abs format (unit mm)*
G04 Created by KiCad (PCBNEW (5.1.12)-1) date 2023-01-21 13:53:20*
%MOMM*%
%LPD*%
G01*
G04 APERTURE LIST*
%ADD10C,0.100000*%
%ADD11C,0.120000*%
%ADD12C,0.150000*%
G04 APERTURE END LIST*
D10*
X258061000Y-8636000D02*
G75*
G03*
X258061000Y-8636000I-50000J0D01*
G01*
D11*
X290838836Y-2815000D02*
X290623164Y-2815000D01*
X290838836Y-3535000D02*
X290623164Y-3535000D01*
X23050000Y-28467000D02*
X23050000Y-24567000D01*
X21050000Y-28467000D02*
X21050000Y-24567000D01*
X23050000Y-28467000D02*
X21050000Y-28467000D01*
X61150000Y-28467000D02*
X61150000Y-24567000D01*
X59150000Y-28467000D02*
X59150000Y-24567000D01*
X61150000Y-28467000D02*
X59150000Y-28467000D01*
X80200000Y-28467000D02*
X80200000Y-24567000D01*
X78200000Y-28467000D02*
X78200000Y-24567000D01*
X80200000Y-28467000D02*
X78200000Y-28467000D01*
X99250000Y-28467000D02*
X99250000Y-24567000D01*
X97250000Y-28467000D02*
X97250000Y-24567000D01*
X99250000Y-28467000D02*
X97250000Y-28467000D01*
X118300000Y-28467000D02*
X118300000Y-24567000D01*
X116300000Y-28467000D02*
X116300000Y-24567000D01*
X118300000Y-28467000D02*
X116300000Y-28467000D01*
X146875000Y-28467000D02*
X146875000Y-24567000D01*
X144875000Y-28467000D02*
X144875000Y-24567000D01*
X146875000Y-28467000D02*
X144875000Y-28467000D01*
X165925000Y-28467000D02*
X165925000Y-24567000D01*
X163925000Y-28467000D02*
X163925000Y-24567000D01*
X165925000Y-28467000D02*
X163925000Y-28467000D01*
X184975000Y-28467000D02*
X184975000Y-24567000D01*
X182975000Y-28467000D02*
X182975000Y-24567000D01*
X184975000Y-28467000D02*
X182975000Y-28467000D01*
X204025000Y-28467000D02*
X204025000Y-24567000D01*
X202025000Y-28467000D02*
X202025000Y-24567000D01*
X204025000Y-28467000D02*
X202025000Y-28467000D01*
X232600000Y-28467000D02*
X232600000Y-24567000D01*
X230600000Y-28467000D02*
X230600000Y-24567000D01*
X232600000Y-28467000D02*
X230600000Y-28467000D01*
X251650000Y-28467000D02*
X251650000Y-24567000D01*
X249650000Y-28467000D02*
X249650000Y-24567000D01*
X251650000Y-28467000D02*
X249650000Y-28467000D01*
X270700000Y-28467000D02*
X270700000Y-24567000D01*
X268700000Y-28467000D02*
X268700000Y-24567000D01*
X270700000Y-28467000D02*
X268700000Y-28467000D01*
X289750000Y-28467000D02*
X289750000Y-24567000D01*
X287750000Y-28467000D02*
X287750000Y-24567000D01*
X289750000Y-28467000D02*
X287750000Y-28467000D01*
X313562500Y-28467000D02*
X313562500Y-24567000D01*
X311562500Y-28467000D02*
X311562500Y-24567000D01*
X313562500Y-28467000D02*
X311562500Y-28467000D01*
X332612500Y-28467000D02*
X332612500Y-24567000D01*
X330612500Y-28467000D02*
X330612500Y-24567000D01*
X332612500Y-28467000D02*
X330612500Y-28467000D01*
X351662500Y-28467000D02*
X351662500Y-24567000D01*
X349662500Y-28467000D02*
X349662500Y-24567000D01*
X351662500Y-28467000D02*
X349662500Y-28467000D01*
X23050000Y-47517000D02*
X23050000Y-43617000D01*
X21050000Y-47517000D02*
X21050000Y-43617000D01*
X23050000Y-47517000D02*
X21050000Y-47517000D01*
X42100000Y-47517000D02*
X42100000Y-43617000D01*
X40100000Y-47517000D02*
X40100000Y-43617000D01*
X42100000Y-47517000D02*
X40100000Y-47517000D01*
X61150000Y-47517000D02*
X61150000Y-43617000D01*
X59150000Y-47517000D02*
X59150000Y-43617000D01*
X61150000Y-47517000D02*
X59150000Y-47517000D01*
X80200000Y-47517000D02*
X80200000Y-43617000D01*
X78200000Y-47517000D02*
X78200000Y-43617000D01*
X80200000Y-47517000D02*
X78200000Y-47517000D01*
X99250000Y-47517000D02*
X99250000Y-43617000D01*
X97250000Y-47517000D02*
X97250000Y-43617000D01*
X99250000Y-47517000D02*
X97250000Y-47517000D01*
X118300000Y-47517000D02*
X118300000Y-43617000D01*
X116300000Y-47517000D02*
X116300000Y-43617000D01*
X118300000Y-47517000D02*
X116300000Y-47517000D01*
X137350000Y-47517000D02*
X137350000Y-43617000D01*
X135350000Y-47517000D02*
X135350000Y-43617000D01*
X137350000Y-47517000D02*
X135350000Y-47517000D01*
X156400000Y-47517000D02*
X156400000Y-43617000D01*
X154400000Y-47517000D02*
X154400000Y-43617000D01*
X156400000Y-47517000D02*
X154400000Y-47517000D01*
X175450000Y-47517000D02*
X175450000Y-43617000D01*
X173450000Y-47517000D02*
X173450000Y-43617000D01*
X175450000Y-47517000D02*
X173450000Y-47517000D01*
X194500000Y-47517000D02*
X194500000Y-43617000D01*
X192500000Y-47517000D02*
X192500000Y-43617000D01*
X194500000Y-47517000D02*
X192500000Y-47517000D01*
X213550000Y-47517000D02*
X213550000Y-43617000D01*
X211550000Y-47517000D02*
X211550000Y-43617000D01*
X213550000Y-47517000D02*
X211550000Y-47517000D01*
X232600000Y-47517000D02*
X232600000Y-43617000D01*
X230600000Y-47517000D02*
X230600000Y-43617000D01*
X232600000Y-47517000D02*
X230600000Y-47517000D01*
X251650000Y-47517000D02*
X251650000Y-43617000D01*
X249650000Y-47517000D02*
X249650000Y-43617000D01*
X251650000Y-47517000D02*
X249650000Y-47517000D01*
X289750000Y-47517000D02*
X289750000Y-43617000D01*
X287750000Y-47517000D02*
X287750000Y-43617000D01*
X289750000Y-47517000D02*
X287750000Y-47517000D01*
X313562500Y-47517000D02*
X313562500Y-43617000D01*
X311562500Y-47517000D02*
X311562500Y-43617000D01*
X313562500Y-47517000D02*
X311562500Y-47517000D01*
X332612500Y-47517000D02*
X332612500Y-43617000D01*
X330612500Y-47517000D02*
X330612500Y-43617000D01*
X332612500Y-47517000D02*
X330612500Y-47517000D01*
X351662500Y-47517000D02*
X351662500Y-43617000D01*
X349662500Y-47517000D02*
X349662500Y-43617000D01*
X351662500Y-47517000D02*
X349662500Y-47517000D01*
X32575000Y-66567000D02*
X32575000Y-62667000D01*
X30575000Y-66567000D02*
X30575000Y-62667000D01*
X32575000Y-66567000D02*
X30575000Y-66567000D01*
X51625000Y-66567000D02*
X51625000Y-62667000D01*
X49625000Y-66567000D02*
X49625000Y-62667000D01*
X51625000Y-66567000D02*
X49625000Y-66567000D01*
X70675000Y-66567000D02*
X70675000Y-62667000D01*
X68675000Y-66567000D02*
X68675000Y-62667000D01*
X70675000Y-66567000D02*
X68675000Y-66567000D01*
X89725000Y-66567000D02*
X89725000Y-62667000D01*
X87725000Y-66567000D02*
X87725000Y-62667000D01*
X89725000Y-66567000D02*
X87725000Y-66567000D01*
X108775000Y-66567000D02*
X108775000Y-62667000D01*
X106775000Y-66567000D02*
X106775000Y-62667000D01*
X108775000Y-66567000D02*
X106775000Y-66567000D01*
X127825000Y-66567000D02*
X127825000Y-62667000D01*
X125825000Y-66567000D02*
X125825000Y-62667000D01*
X127825000Y-66567000D02*
X125825000Y-66567000D01*
X146875000Y-66567000D02*
X146875000Y-62667000D01*
X144875000Y-66567000D02*
X144875000Y-62667000D01*
X146875000Y-66567000D02*
X144875000Y-66567000D01*
X165925000Y-66567000D02*
X165925000Y-62667000D01*
X163925000Y-66567000D02*
X163925000Y-62667000D01*
X165925000Y-66567000D02*
X163925000Y-66567000D01*
X184975000Y-66567000D02*
X184975000Y-62667000D01*
X182975000Y-66567000D02*
X182975000Y-62667000D01*
X184975000Y-66567000D02*
X182975000Y-66567000D01*
X204025000Y-66567000D02*
X204025000Y-62667000D01*
X202025000Y-66567000D02*
X202025000Y-62667000D01*
X204025000Y-66567000D02*
X202025000Y-66567000D01*
X223075000Y-66567000D02*
X223075000Y-62667000D01*
X221075000Y-66567000D02*
X221075000Y-62667000D01*
X223075000Y-66567000D02*
X221075000Y-66567000D01*
X242125000Y-66567000D02*
X242125000Y-62667000D01*
X240125000Y-66567000D02*
X240125000Y-62667000D01*
X242125000Y-66567000D02*
X240125000Y-66567000D01*
X261175000Y-66567000D02*
X261175000Y-62667000D01*
X259175000Y-66567000D02*
X259175000Y-62667000D01*
X261175000Y-66567000D02*
X259175000Y-66567000D01*
X289750000Y-66567000D02*
X289750000Y-62667000D01*
X287750000Y-66567000D02*
X287750000Y-62667000D01*
X289750000Y-66567000D02*
X287750000Y-66567000D01*
X313562500Y-66567000D02*
X313562500Y-62667000D01*
X311562500Y-66567000D02*
X311562500Y-62667000D01*
X313562500Y-66567000D02*
X311562500Y-66567000D01*
X332612500Y-66567000D02*
X332612500Y-62667000D01*
X330612500Y-66567000D02*
X330612500Y-62667000D01*
X332612500Y-66567000D02*
X330612500Y-66567000D01*
X351662500Y-66567000D02*
X351662500Y-62667000D01*
X349662500Y-66567000D02*
X349662500Y-62667000D01*
X351662500Y-66567000D02*
X349662500Y-66567000D01*
X37337500Y-85617000D02*
X37337500Y-81717000D01*
X35337500Y-85617000D02*
X35337500Y-81717000D01*
X37337500Y-85617000D02*
X35337500Y-85617000D01*
X56387500Y-85617000D02*
X56387500Y-81717000D01*
X54387500Y-85617000D02*
X54387500Y-81717000D01*
X56387500Y-85617000D02*
X54387500Y-85617000D01*
X75437500Y-85617000D02*
X75437500Y-81717000D01*
X73437500Y-85617000D02*
X73437500Y-81717000D01*
X75437500Y-85617000D02*
X73437500Y-85617000D01*
X94487500Y-85617000D02*
X94487500Y-81717000D01*
X92487500Y-85617000D02*
X92487500Y-81717000D01*
X94487500Y-85617000D02*
X92487500Y-85617000D01*
X113537500Y-85617000D02*
X113537500Y-81717000D01*
X111537500Y-85617000D02*
X111537500Y-81717000D01*
X113537500Y-85617000D02*
X111537500Y-85617000D01*
X132587500Y-85617000D02*
X132587500Y-81717000D01*
X130587500Y-85617000D02*
X130587500Y-81717000D01*
X132587500Y-85617000D02*
X130587500Y-85617000D01*
X151637500Y-85617000D02*
X151637500Y-81717000D01*
X149637500Y-85617000D02*
X149637500Y-81717000D01*
X151637500Y-85617000D02*
X149637500Y-85617000D01*
X170687500Y-85617000D02*
X170687500Y-81717000D01*
X168687500Y-85617000D02*
X168687500Y-81717000D01*
X170687500Y-85617000D02*
X168687500Y-85617000D01*
X189737500Y-85617000D02*
X189737500Y-81717000D01*
X187737500Y-85617000D02*
X187737500Y-81717000D01*
X189737500Y-85617000D02*
X187737500Y-85617000D01*
X208787500Y-85617000D02*
X208787500Y-81717000D01*
X206787500Y-85617000D02*
X206787500Y-81717000D01*
X208787500Y-85617000D02*
X206787500Y-85617000D01*
X227837500Y-85617000D02*
X227837500Y-81717000D01*
X225837500Y-85617000D02*
X225837500Y-81717000D01*
X227837500Y-85617000D02*
X225837500Y-85617000D01*
X246887500Y-85617000D02*
X246887500Y-81717000D01*
X244887500Y-85617000D02*
X244887500Y-81717000D01*
X246887500Y-85617000D02*
X244887500Y-85617000D01*
X289750000Y-85617000D02*
X289750000Y-81717000D01*
X287750000Y-85617000D02*
X287750000Y-81717000D01*
X289750000Y-85617000D02*
X287750000Y-85617000D01*
X46862500Y-104667000D02*
X46862500Y-100767000D01*
X44862500Y-104667000D02*
X44862500Y-100767000D01*
X46862500Y-104667000D02*
X44862500Y-104667000D01*
X65912500Y-104667000D02*
X65912500Y-100767000D01*
X63912500Y-104667000D02*
X63912500Y-100767000D01*
X65912500Y-104667000D02*
X63912500Y-104667000D01*
X84962500Y-104667000D02*
X84962500Y-100767000D01*
X82962500Y-104667000D02*
X82962500Y-100767000D01*
X84962500Y-104667000D02*
X82962500Y-104667000D01*
X104012500Y-104667000D02*
X104012500Y-100767000D01*
X102012500Y-104667000D02*
X102012500Y-100767000D01*
X104012500Y-104667000D02*
X102012500Y-104667000D01*
X123062500Y-104667000D02*
X123062500Y-100767000D01*
X121062500Y-104667000D02*
X121062500Y-100767000D01*
X123062500Y-104667000D02*
X121062500Y-104667000D01*
X142112500Y-104667000D02*
X142112500Y-100767000D01*
X140112500Y-104667000D02*
X140112500Y-100767000D01*
X142112500Y-104667000D02*
X140112500Y-104667000D01*
X161162500Y-104667000D02*
X161162500Y-100767000D01*
X159162500Y-104667000D02*
X159162500Y-100767000D01*
X161162500Y-104667000D02*
X159162500Y-104667000D01*
X180212500Y-104667000D02*
X180212500Y-100767000D01*
X178212500Y-104667000D02*
X178212500Y-100767000D01*
X180212500Y-104667000D02*
X178212500Y-104667000D01*
X199262500Y-104667000D02*
X199262500Y-100767000D01*
X197262500Y-104667000D02*
X197262500Y-100767000D01*
X199262500Y-104667000D02*
X197262500Y-104667000D01*
X218312500Y-104667000D02*
X218312500Y-100767000D01*
X216312500Y-104667000D02*
X216312500Y-100767000D01*
X218312500Y-104667000D02*
X216312500Y-104667000D01*
X237362500Y-104667000D02*
X237362500Y-100767000D01*
X235362500Y-104667000D02*
X235362500Y-100767000D01*
X237362500Y-104667000D02*
X235362500Y-104667000D01*
X289750000Y-104667000D02*
X289750000Y-100767000D01*
X287750000Y-104667000D02*
X287750000Y-100767000D01*
X289750000Y-104667000D02*
X287750000Y-104667000D01*
X332612500Y-104667000D02*
X332612500Y-100767000D01*
X330612500Y-104667000D02*
X330612500Y-100767000D01*
X332612500Y-104667000D02*
X330612500Y-104667000D01*
X27812500Y-123717000D02*
X27812500Y-119817000D01*
X25812500Y-123717000D02*
X25812500Y-119817000D01*
X27812500Y-123717000D02*
X25812500Y-123717000D01*
X51625000Y-123717000D02*
X51625000Y-119817000D01*
X49625000Y-123717000D02*
X49625000Y-119817000D01*
X51625000Y-123717000D02*
X49625000Y-123717000D01*
X75437500Y-123717000D02*
X75437500Y-119817000D01*
X73437500Y-123717000D02*
X73437500Y-119817000D01*
X75437500Y-123717000D02*
X73437500Y-123717000D01*
X194500000Y-123717000D02*
X194500000Y-119817000D01*
X192500000Y-123717000D02*
X192500000Y-119817000D01*
X194500000Y-123717000D02*
X192500000Y-123717000D01*
X218312500Y-123717000D02*
X218312500Y-119817000D01*
X216312500Y-123717000D02*
X216312500Y-119817000D01*
X218312500Y-123717000D02*
X216312500Y-123717000D01*
X242125000Y-123717000D02*
X242125000Y-119817000D01*
X240125000Y-123717000D02*
X240125000Y-119817000D01*
X242125000Y-123717000D02*
X240125000Y-123717000D01*
X265937500Y-123717000D02*
X265937500Y-119817000D01*
X263937500Y-123717000D02*
X263937500Y-119817000D01*
X265937500Y-123717000D02*
X263937500Y-123717000D01*
X289750000Y-123717000D02*
X289750000Y-119817000D01*
X287750000Y-123717000D02*
X287750000Y-119817000D01*
X289750000Y-123717000D02*
X287750000Y-123717000D01*
X313562500Y-123717000D02*
X313562500Y-119817000D01*
X311562500Y-123717000D02*
X311562500Y-119817000D01*
X313562500Y-123717000D02*
X311562500Y-123717000D01*
X332612500Y-123717000D02*
X332612500Y-119817000D01*
X330612500Y-123717000D02*
X330612500Y-119817000D01*
X332612500Y-123717000D02*
X330612500Y-123717000D01*
X351662500Y-123717000D02*
X351662500Y-119817000D01*
X349662500Y-123717000D02*
X349662500Y-119817000D01*
X351662500Y-123717000D02*
X349662500Y-123717000D01*
D12*
X258135285Y-7918380D02*
X258135285Y-6918380D01*
X257897190Y-6918380D01*
X257754333Y-6966000D01*
X257659095Y-7061238D01*
X257611476Y-7156476D01*
X257563857Y-7346952D01*
X257563857Y-7489809D01*
X257611476Y-7680285D01*
X257659095Y-7775523D01*
X257754333Y-7870761D01*
X257897190Y-7918380D01*
X258135285Y-7918380D01*
X256992428Y-7346952D02*
X257087666Y-7299333D01*
X257135285Y-7251714D01*
X257182904Y-7156476D01*
X257182904Y-7108857D01*
X257135285Y-7013619D01*
X257087666Y-6966000D01*
X256992428Y-6918380D01*
X256801952Y-6918380D01*
X256706714Y-6966000D01*
X256659095Y-7013619D01*
X256611476Y-7108857D01*
X256611476Y-7156476D01*
X256659095Y-7251714D01*
X256706714Y-7299333D01*
X256801952Y-7346952D01*
X256992428Y-7346952D01*
X257087666Y-7394571D01*
X257135285Y-7442190D01*
X257182904Y-7537428D01*
X257182904Y-7727904D01*
X257135285Y-7823142D01*
X257087666Y-7870761D01*
X256992428Y-7918380D01*
X256801952Y-7918380D01*
X256706714Y-7870761D01*
X256659095Y-7823142D01*
X256611476Y-7727904D01*
X256611476Y-7537428D01*
X256659095Y-7442190D01*
X256706714Y-7394571D01*
X256801952Y-7346952D01*
X256135285Y-7918380D02*
X255944809Y-7918380D01*
X255849571Y-7870761D01*
X255801952Y-7823142D01*
X255706714Y-7680285D01*
X255659095Y-7489809D01*
X255659095Y-7108857D01*
X255706714Y-7013619D01*
X255754333Y-6966000D01*
X255849571Y-6918380D01*
X256040047Y-6918380D01*
X256135285Y-6966000D01*
X256182904Y-7013619D01*
X256230523Y-7108857D01*
X256230523Y-7346952D01*
X256182904Y-7442190D01*
X256135285Y-7489809D01*
X256040047Y-7537428D01*
X255849571Y-7537428D01*
X255754333Y-7489809D01*
X255706714Y-7442190D01*
X255659095Y-7346952D01*
X290897666Y-2372142D02*
X290945285Y-2419761D01*
X291088142Y-2467380D01*
X291183380Y-2467380D01*
X291326238Y-2419761D01*
X291421476Y-2324523D01*
X291469095Y-2229285D01*
X291516714Y-2038809D01*
X291516714Y-1895952D01*
X291469095Y-1705476D01*
X291421476Y-1610238D01*
X291326238Y-1515000D01*
X291183380Y-1467380D01*
X291088142Y-1467380D01*
X290945285Y-1515000D01*
X290897666Y-1562619D01*
X290326238Y-1895952D02*
X290421476Y-1848333D01*
X290469095Y-1800714D01*
X290516714Y-1705476D01*
X290516714Y-1657857D01*
X290469095Y-1562619D01*
X290421476Y-1515000D01*
X290326238Y-1467380D01*
X290135761Y-1467380D01*
X290040523Y-1515000D01*
X289992904Y-1562619D01*
X289945285Y-1657857D01*
X289945285Y-1705476D01*
X289992904Y-1800714D01*
X290040523Y-1848333D01*
X290135761Y-1895952D01*
X290326238Y-1895952D01*
X290421476Y-1943571D01*
X290469095Y-1991190D01*
X290516714Y-2086428D01*
X290516714Y-2276904D01*
X290469095Y-2372142D01*
X290421476Y-2419761D01*
X290326238Y-2467380D01*
X290135761Y-2467380D01*
X290040523Y-2419761D01*
X289992904Y-2372142D01*
X289945285Y-2276904D01*
X289945285Y-2086428D01*
X289992904Y-1991190D01*
X290040523Y-1943571D01*
X290135761Y-1895952D01*
X24502380Y-25097952D02*
X23502380Y-25097952D01*
X23502380Y-25336047D01*
X23550000Y-25478904D01*
X23645238Y-25574142D01*
X23740476Y-25621761D01*
X23930952Y-25669380D01*
X24073809Y-25669380D01*
X24264285Y-25621761D01*
X24359523Y-25574142D01*
X24454761Y-25478904D01*
X24502380Y-25336047D01*
X24502380Y-25097952D01*
X24597619Y-25859857D02*
X24597619Y-26621761D01*
X23502380Y-27050333D02*
X23502380Y-27145571D01*
X23550000Y-27240809D01*
X23597619Y-27288428D01*
X23692857Y-27336047D01*
X23883333Y-27383666D01*
X24121428Y-27383666D01*
X24311904Y-27336047D01*
X24407142Y-27288428D01*
X24454761Y-27240809D01*
X24502380Y-27145571D01*
X24502380Y-27050333D01*
X24454761Y-26955095D01*
X24407142Y-26907476D01*
X24311904Y-26859857D01*
X24121428Y-26812238D01*
X23883333Y-26812238D01*
X23692857Y-26859857D01*
X23597619Y-26907476D01*
X23550000Y-26955095D01*
X23502380Y-27050333D01*
X62602380Y-25097952D02*
X61602380Y-25097952D01*
X61602380Y-25336047D01*
X61650000Y-25478904D01*
X61745238Y-25574142D01*
X61840476Y-25621761D01*
X62030952Y-25669380D01*
X62173809Y-25669380D01*
X62364285Y-25621761D01*
X62459523Y-25574142D01*
X62554761Y-25478904D01*
X62602380Y-25336047D01*
X62602380Y-25097952D01*
X62697619Y-25859857D02*
X62697619Y-26621761D01*
X62602380Y-27383666D02*
X62602380Y-26812238D01*
X62602380Y-27097952D02*
X61602380Y-27097952D01*
X61745238Y-27002714D01*
X61840476Y-26907476D01*
X61888095Y-26812238D01*
X81652380Y-25097952D02*
X80652380Y-25097952D01*
X80652380Y-25336047D01*
X80700000Y-25478904D01*
X80795238Y-25574142D01*
X80890476Y-25621761D01*
X81080952Y-25669380D01*
X81223809Y-25669380D01*
X81414285Y-25621761D01*
X81509523Y-25574142D01*
X81604761Y-25478904D01*
X81652380Y-25336047D01*
X81652380Y-25097952D01*
X81747619Y-25859857D02*
X81747619Y-26621761D01*
X80747619Y-26812238D02*
X80700000Y-26859857D01*
X80652380Y-26955095D01*
X80652380Y-27193190D01*
X80700000Y-27288428D01*
X80747619Y-27336047D01*
X80842857Y-27383666D01*
X80938095Y-27383666D01*
X81080952Y-27336047D01*
X81652380Y-26764619D01*
X81652380Y-27383666D01*
X100702380Y-25097952D02*
X99702380Y-25097952D01*
X99702380Y-25336047D01*
X99750000Y-25478904D01*
X99845238Y-25574142D01*
X99940476Y-25621761D01*
X100130952Y-25669380D01*
X100273809Y-25669380D01*
X100464285Y-25621761D01*
X100559523Y-25574142D01*
X100654761Y-25478904D01*
X100702380Y-25336047D01*
X100702380Y-25097952D01*
X100797619Y-25859857D02*
X100797619Y-26621761D01*
X99702380Y-26764619D02*
X99702380Y-27383666D01*
X100083333Y-27050333D01*
X100083333Y-27193190D01*
X100130952Y-27288428D01*
X100178571Y-27336047D01*
X100273809Y-27383666D01*
X100511904Y-27383666D01*
X100607142Y-27336047D01*
X100654761Y-27288428D01*
X100702380Y-27193190D01*
X100702380Y-26907476D01*
X100654761Y-26812238D01*
X100607142Y-26764619D01*
X119752380Y-25097952D02*
X118752380Y-25097952D01*
X118752380Y-25336047D01*
X118800000Y-25478904D01*
X118895238Y-25574142D01*
X118990476Y-25621761D01*
X119180952Y-25669380D01*
X119323809Y-25669380D01*
X119514285Y-25621761D01*
X119609523Y-25574142D01*
X119704761Y-25478904D01*
X119752380Y-25336047D01*
X119752380Y-25097952D01*
X119847619Y-25859857D02*
X119847619Y-26621761D01*
X119085714Y-27288428D02*
X119752380Y-27288428D01*
X118704761Y-27050333D02*
X119419047Y-26812238D01*
X119419047Y-27431285D01*
X148327380Y-25097952D02*
X147327380Y-25097952D01*
X147327380Y-25336047D01*
X147375000Y-25478904D01*
X147470238Y-25574142D01*
X147565476Y-25621761D01*
X147755952Y-25669380D01*
X147898809Y-25669380D01*
X148089285Y-25621761D01*
X148184523Y-25574142D01*
X148279761Y-25478904D01*
X148327380Y-25336047D01*
X148327380Y-25097952D01*
X148422619Y-25859857D02*
X148422619Y-26621761D01*
X147327380Y-27336047D02*
X147327380Y-26859857D01*
X147803571Y-26812238D01*
X147755952Y-26859857D01*
X147708333Y-26955095D01*
X147708333Y-27193190D01*
X147755952Y-27288428D01*
X147803571Y-27336047D01*
X147898809Y-27383666D01*
X148136904Y-27383666D01*
X148232142Y-27336047D01*
X148279761Y-27288428D01*
X148327380Y-27193190D01*
X148327380Y-26955095D01*
X148279761Y-26859857D01*
X148232142Y-26812238D01*
X167377380Y-25097952D02*
X166377380Y-25097952D01*
X166377380Y-25336047D01*
X166425000Y-25478904D01*
X166520238Y-25574142D01*
X166615476Y-25621761D01*
X166805952Y-25669380D01*
X166948809Y-25669380D01*
X167139285Y-25621761D01*
X167234523Y-25574142D01*
X167329761Y-25478904D01*
X167377380Y-25336047D01*
X167377380Y-25097952D01*
X167472619Y-25859857D02*
X167472619Y-26621761D01*
X166377380Y-27288428D02*
X166377380Y-27097952D01*
X166425000Y-27002714D01*
X166472619Y-26955095D01*
X166615476Y-26859857D01*
X166805952Y-26812238D01*
X167186904Y-26812238D01*
X167282142Y-26859857D01*
X167329761Y-26907476D01*
X167377380Y-27002714D01*
X167377380Y-27193190D01*
X167329761Y-27288428D01*
X167282142Y-27336047D01*
X167186904Y-27383666D01*
X166948809Y-27383666D01*
X166853571Y-27336047D01*
X166805952Y-27288428D01*
X166758333Y-27193190D01*
X166758333Y-27002714D01*
X166805952Y-26907476D01*
X166853571Y-26859857D01*
X166948809Y-26812238D01*
X186427380Y-25097952D02*
X185427380Y-25097952D01*
X185427380Y-25336047D01*
X185475000Y-25478904D01*
X185570238Y-25574142D01*
X185665476Y-25621761D01*
X185855952Y-25669380D01*
X185998809Y-25669380D01*
X186189285Y-25621761D01*
X186284523Y-25574142D01*
X186379761Y-25478904D01*
X186427380Y-25336047D01*
X186427380Y-25097952D01*
X186522619Y-25859857D02*
X186522619Y-26621761D01*
X185427380Y-26764619D02*
X185427380Y-27431285D01*
X186427380Y-27002714D01*
X205477380Y-25097952D02*
X204477380Y-25097952D01*
X204477380Y-25336047D01*
X204525000Y-25478904D01*
X204620238Y-25574142D01*
X204715476Y-25621761D01*
X204905952Y-25669380D01*
X205048809Y-25669380D01*
X205239285Y-25621761D01*
X205334523Y-25574142D01*
X205429761Y-25478904D01*
X205477380Y-25336047D01*
X205477380Y-25097952D01*
X205572619Y-25859857D02*
X205572619Y-26621761D01*
X204905952Y-27002714D02*
X204858333Y-26907476D01*
X204810714Y-26859857D01*
X204715476Y-26812238D01*
X204667857Y-26812238D01*
X204572619Y-26859857D01*
X204525000Y-26907476D01*
X204477380Y-27002714D01*
X204477380Y-27193190D01*
X204525000Y-27288428D01*
X204572619Y-27336047D01*
X204667857Y-27383666D01*
X204715476Y-27383666D01*
X204810714Y-27336047D01*
X204858333Y-27288428D01*
X204905952Y-27193190D01*
X204905952Y-27002714D01*
X204953571Y-26907476D01*
X205001190Y-26859857D01*
X205096428Y-26812238D01*
X205286904Y-26812238D01*
X205382142Y-26859857D01*
X205429761Y-26907476D01*
X205477380Y-27002714D01*
X205477380Y-27193190D01*
X205429761Y-27288428D01*
X205382142Y-27336047D01*
X205286904Y-27383666D01*
X205096428Y-27383666D01*
X205001190Y-27336047D01*
X204953571Y-27288428D01*
X204905952Y-27193190D01*
X234052380Y-25097952D02*
X233052380Y-25097952D01*
X233052380Y-25336047D01*
X233100000Y-25478904D01*
X233195238Y-25574142D01*
X233290476Y-25621761D01*
X233480952Y-25669380D01*
X233623809Y-25669380D01*
X233814285Y-25621761D01*
X233909523Y-25574142D01*
X234004761Y-25478904D01*
X234052380Y-25336047D01*
X234052380Y-25097952D01*
X234147619Y-25859857D02*
X234147619Y-26621761D01*
X234052380Y-26907476D02*
X234052380Y-27097952D01*
X234004761Y-27193190D01*
X233957142Y-27240809D01*
X233814285Y-27336047D01*
X233623809Y-27383666D01*
X233242857Y-27383666D01*
X233147619Y-27336047D01*
X233100000Y-27288428D01*
X233052380Y-27193190D01*
X233052380Y-27002714D01*
X233100000Y-26907476D01*
X233147619Y-26859857D01*
X233242857Y-26812238D01*
X233480952Y-26812238D01*
X233576190Y-26859857D01*
X233623809Y-26907476D01*
X233671428Y-27002714D01*
X233671428Y-27193190D01*
X233623809Y-27288428D01*
X233576190Y-27336047D01*
X233480952Y-27383666D01*
X253102380Y-24621761D02*
X252102380Y-24621761D01*
X252102380Y-24859857D01*
X252150000Y-25002714D01*
X252245238Y-25097952D01*
X252340476Y-25145571D01*
X252530952Y-25193190D01*
X252673809Y-25193190D01*
X252864285Y-25145571D01*
X252959523Y-25097952D01*
X253054761Y-25002714D01*
X253102380Y-24859857D01*
X253102380Y-24621761D01*
X253197619Y-25383666D02*
X253197619Y-26145571D01*
X253102380Y-26907476D02*
X253102380Y-26336047D01*
X253102380Y-26621761D02*
X252102380Y-26621761D01*
X252245238Y-26526523D01*
X252340476Y-26431285D01*
X252388095Y-26336047D01*
X252102380Y-27526523D02*
X252102380Y-27621761D01*
X252150000Y-27717000D01*
X252197619Y-27764619D01*
X252292857Y-27812238D01*
X252483333Y-27859857D01*
X252721428Y-27859857D01*
X252911904Y-27812238D01*
X253007142Y-27764619D01*
X253054761Y-27717000D01*
X253102380Y-27621761D01*
X253102380Y-27526523D01*
X253054761Y-27431285D01*
X253007142Y-27383666D01*
X252911904Y-27336047D01*
X252721428Y-27288428D01*
X252483333Y-27288428D01*
X252292857Y-27336047D01*
X252197619Y-27383666D01*
X252150000Y-27431285D01*
X252102380Y-27526523D01*
X272152380Y-24621761D02*
X271152380Y-24621761D01*
X271152380Y-24859857D01*
X271200000Y-25002714D01*
X271295238Y-25097952D01*
X271390476Y-25145571D01*
X271580952Y-25193190D01*
X271723809Y-25193190D01*
X271914285Y-25145571D01*
X272009523Y-25097952D01*
X272104761Y-25002714D01*
X272152380Y-24859857D01*
X272152380Y-24621761D01*
X272247619Y-25383666D02*
X272247619Y-26145571D01*
X272152380Y-26907476D02*
X272152380Y-26336047D01*
X272152380Y-26621761D02*
X271152380Y-26621761D01*
X271295238Y-26526523D01*
X271390476Y-26431285D01*
X271438095Y-26336047D01*
X272152380Y-27859857D02*
X272152380Y-27288428D01*
X272152380Y-27574142D02*
X271152380Y-27574142D01*
X271295238Y-27478904D01*
X271390476Y-27383666D01*
X271438095Y-27288428D01*
X291202380Y-24621761D02*
X290202380Y-24621761D01*
X290202380Y-24859857D01*
X290250000Y-25002714D01*
X290345238Y-25097952D01*
X290440476Y-25145571D01*
X290630952Y-25193190D01*
X290773809Y-25193190D01*
X290964285Y-25145571D01*
X291059523Y-25097952D01*
X291154761Y-25002714D01*
X291202380Y-24859857D01*
X291202380Y-24621761D01*
X291297619Y-25383666D02*
X291297619Y-26145571D01*
X291202380Y-26907476D02*
X291202380Y-26336047D01*
X291202380Y-26621761D02*
X290202380Y-26621761D01*
X290345238Y-26526523D01*
X290440476Y-26431285D01*
X290488095Y-26336047D01*
X290297619Y-27288428D02*
X290250000Y-27336047D01*
X290202380Y-27431285D01*
X290202380Y-27669380D01*
X290250000Y-27764619D01*
X290297619Y-27812238D01*
X290392857Y-27859857D01*
X290488095Y-27859857D01*
X290630952Y-27812238D01*
X291202380Y-27240809D01*
X291202380Y-27859857D01*
X315014880Y-24621761D02*
X314014880Y-24621761D01*
X314014880Y-24859857D01*
X314062500Y-25002714D01*
X314157738Y-25097952D01*
X314252976Y-25145571D01*
X314443452Y-25193190D01*
X314586309Y-25193190D01*
X314776785Y-25145571D01*
X314872023Y-25097952D01*
X314967261Y-25002714D01*
X315014880Y-24859857D01*
X315014880Y-24621761D01*
X315110119Y-25383666D02*
X315110119Y-26145571D01*
X315014880Y-26907476D02*
X315014880Y-26336047D01*
X315014880Y-26621761D02*
X314014880Y-26621761D01*
X314157738Y-26526523D01*
X314252976Y-26431285D01*
X314300595Y-26336047D01*
X314014880Y-27240809D02*
X314014880Y-27859857D01*
X314395833Y-27526523D01*
X314395833Y-27669380D01*
X314443452Y-27764619D01*
X314491071Y-27812238D01*
X314586309Y-27859857D01*
X314824404Y-27859857D01*
X314919642Y-27812238D01*
X314967261Y-27764619D01*
X315014880Y-27669380D01*
X315014880Y-27383666D01*
X314967261Y-27288428D01*
X314919642Y-27240809D01*
X334064880Y-24621761D02*
X333064880Y-24621761D01*
X333064880Y-24859857D01*
X333112500Y-25002714D01*
X333207738Y-25097952D01*
X333302976Y-25145571D01*
X333493452Y-25193190D01*
X333636309Y-25193190D01*
X333826785Y-25145571D01*
X333922023Y-25097952D01*
X334017261Y-25002714D01*
X334064880Y-24859857D01*
X334064880Y-24621761D01*
X334160119Y-25383666D02*
X334160119Y-26145571D01*
X334064880Y-26907476D02*
X334064880Y-26336047D01*
X334064880Y-26621761D02*
X333064880Y-26621761D01*
X333207738Y-26526523D01*
X333302976Y-26431285D01*
X333350595Y-26336047D01*
X333398214Y-27764619D02*
X334064880Y-27764619D01*
X333017261Y-27526523D02*
X333731547Y-27288428D01*
X333731547Y-27907476D01*
X353114880Y-24621761D02*
X352114880Y-24621761D01*
X352114880Y-24859857D01*
X352162500Y-25002714D01*
X352257738Y-25097952D01*
X352352976Y-25145571D01*
X352543452Y-25193190D01*
X352686309Y-25193190D01*
X352876785Y-25145571D01*
X352972023Y-25097952D01*
X353067261Y-25002714D01*
X353114880Y-24859857D01*
X353114880Y-24621761D01*
X353210119Y-25383666D02*
X353210119Y-26145571D01*
X353114880Y-26907476D02*
X353114880Y-26336047D01*
X353114880Y-26621761D02*
X352114880Y-26621761D01*
X352257738Y-26526523D01*
X352352976Y-26431285D01*
X352400595Y-26336047D01*
X352114880Y-27812238D02*
X352114880Y-27336047D01*
X352591071Y-27288428D01*
X352543452Y-27336047D01*
X352495833Y-27431285D01*
X352495833Y-27669380D01*
X352543452Y-27764619D01*
X352591071Y-27812238D01*
X352686309Y-27859857D01*
X352924404Y-27859857D01*
X353019642Y-27812238D01*
X353067261Y-27764619D01*
X353114880Y-27669380D01*
X353114880Y-27431285D01*
X353067261Y-27336047D01*
X353019642Y-27288428D01*
X24502380Y-43671761D02*
X23502380Y-43671761D01*
X23502380Y-43909857D01*
X23550000Y-44052714D01*
X23645238Y-44147952D01*
X23740476Y-44195571D01*
X23930952Y-44243190D01*
X24073809Y-44243190D01*
X24264285Y-44195571D01*
X24359523Y-44147952D01*
X24454761Y-44052714D01*
X24502380Y-43909857D01*
X24502380Y-43671761D01*
X24597619Y-44433666D02*
X24597619Y-45195571D01*
X24502380Y-45957476D02*
X24502380Y-45386047D01*
X24502380Y-45671761D02*
X23502380Y-45671761D01*
X23645238Y-45576523D01*
X23740476Y-45481285D01*
X23788095Y-45386047D01*
X23502380Y-46814619D02*
X23502380Y-46624142D01*
X23550000Y-46528904D01*
X23597619Y-46481285D01*
X23740476Y-46386047D01*
X23930952Y-46338428D01*
X24311904Y-46338428D01*
X24407142Y-46386047D01*
X24454761Y-46433666D01*
X24502380Y-46528904D01*
X24502380Y-46719380D01*
X24454761Y-46814619D01*
X24407142Y-46862238D01*
X24311904Y-46909857D01*
X24073809Y-46909857D01*
X23978571Y-46862238D01*
X23930952Y-46814619D01*
X23883333Y-46719380D01*
X23883333Y-46528904D01*
X23930952Y-46433666D01*
X23978571Y-46386047D01*
X24073809Y-46338428D01*
X43552380Y-43671761D02*
X42552380Y-43671761D01*
X42552380Y-43909857D01*
X42600000Y-44052714D01*
X42695238Y-44147952D01*
X42790476Y-44195571D01*
X42980952Y-44243190D01*
X43123809Y-44243190D01*
X43314285Y-44195571D01*
X43409523Y-44147952D01*
X43504761Y-44052714D01*
X43552380Y-43909857D01*
X43552380Y-43671761D01*
X43647619Y-44433666D02*
X43647619Y-45195571D01*
X43552380Y-45957476D02*
X43552380Y-45386047D01*
X43552380Y-45671761D02*
X42552380Y-45671761D01*
X42695238Y-45576523D01*
X42790476Y-45481285D01*
X42838095Y-45386047D01*
X42552380Y-46290809D02*
X42552380Y-46957476D01*
X43552380Y-46528904D01*
X62602380Y-43671761D02*
X61602380Y-43671761D01*
X61602380Y-43909857D01*
X61650000Y-44052714D01*
X61745238Y-44147952D01*
X61840476Y-44195571D01*
X62030952Y-44243190D01*
X62173809Y-44243190D01*
X62364285Y-44195571D01*
X62459523Y-44147952D01*
X62554761Y-44052714D01*
X62602380Y-43909857D01*
X62602380Y-43671761D01*
X62697619Y-44433666D02*
X62697619Y-45195571D01*
X62602380Y-45957476D02*
X62602380Y-45386047D01*
X62602380Y-45671761D02*
X61602380Y-45671761D01*
X61745238Y-45576523D01*
X61840476Y-45481285D01*
X61888095Y-45386047D01*
X62030952Y-46528904D02*
X61983333Y-46433666D01*
X61935714Y-46386047D01*
X61840476Y-46338428D01*
X61792857Y-46338428D01*
X61697619Y-46386047D01*
X61650000Y-46433666D01*
X61602380Y-46528904D01*
X61602380Y-46719380D01*
X61650000Y-46814619D01*
X61697619Y-46862238D01*
X61792857Y-46909857D01*
X61840476Y-46909857D01*
X61935714Y-46862238D01*
X61983333Y-46814619D01*
X62030952Y-46719380D01*
X62030952Y-46528904D01*
X62078571Y-46433666D01*
X62126190Y-46386047D01*
X62221428Y-46338428D01*
X62411904Y-46338428D01*
X62507142Y-46386047D01*
X62554761Y-46433666D01*
X62602380Y-46528904D01*
X62602380Y-46719380D01*
X62554761Y-46814619D01*
X62507142Y-46862238D01*
X62411904Y-46909857D01*
X62221428Y-46909857D01*
X62126190Y-46862238D01*
X62078571Y-46814619D01*
X62030952Y-46719380D01*
X81652380Y-43671761D02*
X80652380Y-43671761D01*
X80652380Y-43909857D01*
X80700000Y-44052714D01*
X80795238Y-44147952D01*
X80890476Y-44195571D01*
X81080952Y-44243190D01*
X81223809Y-44243190D01*
X81414285Y-44195571D01*
X81509523Y-44147952D01*
X81604761Y-44052714D01*
X81652380Y-43909857D01*
X81652380Y-43671761D01*
X81747619Y-44433666D02*
X81747619Y-45195571D01*
X81652380Y-45957476D02*
X81652380Y-45386047D01*
X81652380Y-45671761D02*
X80652380Y-45671761D01*
X80795238Y-45576523D01*
X80890476Y-45481285D01*
X80938095Y-45386047D01*
X81652380Y-46433666D02*
X81652380Y-46624142D01*
X81604761Y-46719380D01*
X81557142Y-46767000D01*
X81414285Y-46862238D01*
X81223809Y-46909857D01*
X80842857Y-46909857D01*
X80747619Y-46862238D01*
X80700000Y-46814619D01*
X80652380Y-46719380D01*
X80652380Y-46528904D01*
X80700000Y-46433666D01*
X80747619Y-46386047D01*
X80842857Y-46338428D01*
X81080952Y-46338428D01*
X81176190Y-46386047D01*
X81223809Y-46433666D01*
X81271428Y-46528904D01*
X81271428Y-46719380D01*
X81223809Y-46814619D01*
X81176190Y-46862238D01*
X81080952Y-46909857D01*
X100702380Y-43671761D02*
X99702380Y-43671761D01*
X99702380Y-43909857D01*
X99750000Y-44052714D01*
X99845238Y-44147952D01*
X99940476Y-44195571D01*
X100130952Y-44243190D01*
X100273809Y-44243190D01*
X100464285Y-44195571D01*
X100559523Y-44147952D01*
X100654761Y-44052714D01*
X100702380Y-43909857D01*
X100702380Y-43671761D01*
X100797619Y-44433666D02*
X100797619Y-45195571D01*
X99797619Y-45386047D02*
X99750000Y-45433666D01*
X99702380Y-45528904D01*
X99702380Y-45767000D01*
X99750000Y-45862238D01*
X99797619Y-45909857D01*
X99892857Y-45957476D01*
X99988095Y-45957476D01*
X100130952Y-45909857D01*
X100702380Y-45338428D01*
X100702380Y-45957476D01*
X99702380Y-46576523D02*
X99702380Y-46671761D01*
X99750000Y-46767000D01*
X99797619Y-46814619D01*
X99892857Y-46862238D01*
X100083333Y-46909857D01*
X100321428Y-46909857D01*
X100511904Y-46862238D01*
X100607142Y-46814619D01*
X100654761Y-46767000D01*
X100702380Y-46671761D01*
X100702380Y-46576523D01*
X100654761Y-46481285D01*
X100607142Y-46433666D01*
X100511904Y-46386047D01*
X100321428Y-46338428D01*
X100083333Y-46338428D01*
X99892857Y-46386047D01*
X99797619Y-46433666D01*
X99750000Y-46481285D01*
X99702380Y-46576523D01*
X119752380Y-43671761D02*
X118752380Y-43671761D01*
X118752380Y-43909857D01*
X118800000Y-44052714D01*
X118895238Y-44147952D01*
X118990476Y-44195571D01*
X119180952Y-44243190D01*
X119323809Y-44243190D01*
X119514285Y-44195571D01*
X119609523Y-44147952D01*
X119704761Y-44052714D01*
X119752380Y-43909857D01*
X119752380Y-43671761D01*
X119847619Y-44433666D02*
X119847619Y-45195571D01*
X118847619Y-45386047D02*
X118800000Y-45433666D01*
X118752380Y-45528904D01*
X118752380Y-45767000D01*
X118800000Y-45862238D01*
X118847619Y-45909857D01*
X118942857Y-45957476D01*
X119038095Y-45957476D01*
X119180952Y-45909857D01*
X119752380Y-45338428D01*
X119752380Y-45957476D01*
X119752380Y-46909857D02*
X119752380Y-46338428D01*
X119752380Y-46624142D02*
X118752380Y-46624142D01*
X118895238Y-46528904D01*
X118990476Y-46433666D01*
X119038095Y-46338428D01*
X138802380Y-43671761D02*
X137802380Y-43671761D01*
X137802380Y-43909857D01*
X137850000Y-44052714D01*
X137945238Y-44147952D01*
X138040476Y-44195571D01*
X138230952Y-44243190D01*
X138373809Y-44243190D01*
X138564285Y-44195571D01*
X138659523Y-44147952D01*
X138754761Y-44052714D01*
X138802380Y-43909857D01*
X138802380Y-43671761D01*
X138897619Y-44433666D02*
X138897619Y-45195571D01*
X137897619Y-45386047D02*
X137850000Y-45433666D01*
X137802380Y-45528904D01*
X137802380Y-45767000D01*
X137850000Y-45862238D01*
X137897619Y-45909857D01*
X137992857Y-45957476D01*
X138088095Y-45957476D01*
X138230952Y-45909857D01*
X138802380Y-45338428D01*
X138802380Y-45957476D01*
X137897619Y-46338428D02*
X137850000Y-46386047D01*
X137802380Y-46481285D01*
X137802380Y-46719380D01*
X137850000Y-46814619D01*
X137897619Y-46862238D01*
X137992857Y-46909857D01*
X138088095Y-46909857D01*
X138230952Y-46862238D01*
X138802380Y-46290809D01*
X138802380Y-46909857D01*
X157852380Y-43671761D02*
X156852380Y-43671761D01*
X156852380Y-43909857D01*
X156900000Y-44052714D01*
X156995238Y-44147952D01*
X157090476Y-44195571D01*
X157280952Y-44243190D01*
X157423809Y-44243190D01*
X157614285Y-44195571D01*
X157709523Y-44147952D01*
X157804761Y-44052714D01*
X157852380Y-43909857D01*
X157852380Y-43671761D01*
X157947619Y-44433666D02*
X157947619Y-45195571D01*
X156947619Y-45386047D02*
X156900000Y-45433666D01*
X156852380Y-45528904D01*
X156852380Y-45767000D01*
X156900000Y-45862238D01*
X156947619Y-45909857D01*
X157042857Y-45957476D01*
X157138095Y-45957476D01*
X157280952Y-45909857D01*
X157852380Y-45338428D01*
X157852380Y-45957476D01*
X156852380Y-46290809D02*
X156852380Y-46909857D01*
X157233333Y-46576523D01*
X157233333Y-46719380D01*
X157280952Y-46814619D01*
X157328571Y-46862238D01*
X157423809Y-46909857D01*
X157661904Y-46909857D01*
X157757142Y-46862238D01*
X157804761Y-46814619D01*
X157852380Y-46719380D01*
X157852380Y-46433666D01*
X157804761Y-46338428D01*
X157757142Y-46290809D01*
X176902380Y-43671761D02*
X175902380Y-43671761D01*
X175902380Y-43909857D01*
X175950000Y-44052714D01*
X176045238Y-44147952D01*
X176140476Y-44195571D01*
X176330952Y-44243190D01*
X176473809Y-44243190D01*
X176664285Y-44195571D01*
X176759523Y-44147952D01*
X176854761Y-44052714D01*
X176902380Y-43909857D01*
X176902380Y-43671761D01*
X176997619Y-44433666D02*
X176997619Y-45195571D01*
X175997619Y-45386047D02*
X175950000Y-45433666D01*
X175902380Y-45528904D01*
X175902380Y-45767000D01*
X175950000Y-45862238D01*
X175997619Y-45909857D01*
X176092857Y-45957476D01*
X176188095Y-45957476D01*
X176330952Y-45909857D01*
X176902380Y-45338428D01*
X176902380Y-45957476D01*
X176235714Y-46814619D02*
X176902380Y-46814619D01*
X175854761Y-46576523D02*
X176569047Y-46338428D01*
X176569047Y-46957476D01*
X195952380Y-43671761D02*
X194952380Y-43671761D01*
X194952380Y-43909857D01*
X195000000Y-44052714D01*
X195095238Y-44147952D01*
X195190476Y-44195571D01*
X195380952Y-44243190D01*
X195523809Y-44243190D01*
X195714285Y-44195571D01*
X195809523Y-44147952D01*
X195904761Y-44052714D01*
X195952380Y-43909857D01*
X195952380Y-43671761D01*
X196047619Y-44433666D02*
X196047619Y-45195571D01*
X195047619Y-45386047D02*
X195000000Y-45433666D01*
X194952380Y-45528904D01*
X194952380Y-45767000D01*
X195000000Y-45862238D01*
X195047619Y-45909857D01*
X195142857Y-45957476D01*
X195238095Y-45957476D01*
X195380952Y-45909857D01*
X195952380Y-45338428D01*
X195952380Y-45957476D01*
X194952380Y-46862238D02*
X194952380Y-46386047D01*
X195428571Y-46338428D01*
X195380952Y-46386047D01*
X195333333Y-46481285D01*
X195333333Y-46719380D01*
X195380952Y-46814619D01*
X195428571Y-46862238D01*
X195523809Y-46909857D01*
X195761904Y-46909857D01*
X195857142Y-46862238D01*
X195904761Y-46814619D01*
X195952380Y-46719380D01*
X195952380Y-46481285D01*
X195904761Y-46386047D01*
X195857142Y-46338428D01*
X215002380Y-43671761D02*
X214002380Y-43671761D01*
X214002380Y-43909857D01*
X214050000Y-44052714D01*
X214145238Y-44147952D01*
X214240476Y-44195571D01*
X214430952Y-44243190D01*
X214573809Y-44243190D01*
X214764285Y-44195571D01*
X214859523Y-44147952D01*
X214954761Y-44052714D01*
X215002380Y-43909857D01*
X215002380Y-43671761D01*
X215097619Y-44433666D02*
X215097619Y-45195571D01*
X214097619Y-45386047D02*
X214050000Y-45433666D01*
X214002380Y-45528904D01*
X214002380Y-45767000D01*
X214050000Y-45862238D01*
X214097619Y-45909857D01*
X214192857Y-45957476D01*
X214288095Y-45957476D01*
X214430952Y-45909857D01*
X215002380Y-45338428D01*
X215002380Y-45957476D01*
X214002380Y-46814619D02*
X214002380Y-46624142D01*
X214050000Y-46528904D01*
X214097619Y-46481285D01*
X214240476Y-46386047D01*
X214430952Y-46338428D01*
X214811904Y-46338428D01*
X214907142Y-46386047D01*
X214954761Y-46433666D01*
X215002380Y-46528904D01*
X215002380Y-46719380D01*
X214954761Y-46814619D01*
X214907142Y-46862238D01*
X214811904Y-46909857D01*
X214573809Y-46909857D01*
X214478571Y-46862238D01*
X214430952Y-46814619D01*
X214383333Y-46719380D01*
X214383333Y-46528904D01*
X214430952Y-46433666D01*
X214478571Y-46386047D01*
X214573809Y-46338428D01*
X234052380Y-43671761D02*
X233052380Y-43671761D01*
X233052380Y-43909857D01*
X233100000Y-44052714D01*
X233195238Y-44147952D01*
X233290476Y-44195571D01*
X233480952Y-44243190D01*
X233623809Y-44243190D01*
X233814285Y-44195571D01*
X233909523Y-44147952D01*
X234004761Y-44052714D01*
X234052380Y-43909857D01*
X234052380Y-43671761D01*
X234147619Y-44433666D02*
X234147619Y-45195571D01*
X233147619Y-45386047D02*
X233100000Y-45433666D01*
X233052380Y-45528904D01*
X233052380Y-45767000D01*
X233100000Y-45862238D01*
X233147619Y-45909857D01*
X233242857Y-45957476D01*
X233338095Y-45957476D01*
X233480952Y-45909857D01*
X234052380Y-45338428D01*
X234052380Y-45957476D01*
X233052380Y-46290809D02*
X233052380Y-46957476D01*
X234052380Y-46528904D01*
X253102380Y-43671761D02*
X252102380Y-43671761D01*
X252102380Y-43909857D01*
X252150000Y-44052714D01*
X252245238Y-44147952D01*
X252340476Y-44195571D01*
X252530952Y-44243190D01*
X252673809Y-44243190D01*
X252864285Y-44195571D01*
X252959523Y-44147952D01*
X253054761Y-44052714D01*
X253102380Y-43909857D01*
X253102380Y-43671761D01*
X253197619Y-44433666D02*
X253197619Y-45195571D01*
X252197619Y-45386047D02*
X252150000Y-45433666D01*
X252102380Y-45528904D01*
X252102380Y-45767000D01*
X252150000Y-45862238D01*
X252197619Y-45909857D01*
X252292857Y-45957476D01*
X252388095Y-45957476D01*
X252530952Y-45909857D01*
X253102380Y-45338428D01*
X253102380Y-45957476D01*
X252530952Y-46528904D02*
X252483333Y-46433666D01*
X252435714Y-46386047D01*
X252340476Y-46338428D01*
X252292857Y-46338428D01*
X252197619Y-46386047D01*
X252150000Y-46433666D01*
X252102380Y-46528904D01*
X252102380Y-46719380D01*
X252150000Y-46814619D01*
X252197619Y-46862238D01*
X252292857Y-46909857D01*
X252340476Y-46909857D01*
X252435714Y-46862238D01*
X252483333Y-46814619D01*
X252530952Y-46719380D01*
X252530952Y-46528904D01*
X252578571Y-46433666D01*
X252626190Y-46386047D01*
X252721428Y-46338428D01*
X252911904Y-46338428D01*
X253007142Y-46386047D01*
X253054761Y-46433666D01*
X253102380Y-46528904D01*
X253102380Y-46719380D01*
X253054761Y-46814619D01*
X253007142Y-46862238D01*
X252911904Y-46909857D01*
X252721428Y-46909857D01*
X252626190Y-46862238D01*
X252578571Y-46814619D01*
X252530952Y-46719380D01*
X291202380Y-43671761D02*
X290202380Y-43671761D01*
X290202380Y-43909857D01*
X290250000Y-44052714D01*
X290345238Y-44147952D01*
X290440476Y-44195571D01*
X290630952Y-44243190D01*
X290773809Y-44243190D01*
X290964285Y-44195571D01*
X291059523Y-44147952D01*
X291154761Y-44052714D01*
X291202380Y-43909857D01*
X291202380Y-43671761D01*
X291297619Y-44433666D02*
X291297619Y-45195571D01*
X290297619Y-45386047D02*
X290250000Y-45433666D01*
X290202380Y-45528904D01*
X290202380Y-45767000D01*
X290250000Y-45862238D01*
X290297619Y-45909857D01*
X290392857Y-45957476D01*
X290488095Y-45957476D01*
X290630952Y-45909857D01*
X291202380Y-45338428D01*
X291202380Y-45957476D01*
X291202380Y-46433666D02*
X291202380Y-46624142D01*
X291154761Y-46719380D01*
X291107142Y-46767000D01*
X290964285Y-46862238D01*
X290773809Y-46909857D01*
X290392857Y-46909857D01*
X290297619Y-46862238D01*
X290250000Y-46814619D01*
X290202380Y-46719380D01*
X290202380Y-46528904D01*
X290250000Y-46433666D01*
X290297619Y-46386047D01*
X290392857Y-46338428D01*
X290630952Y-46338428D01*
X290726190Y-46386047D01*
X290773809Y-46433666D01*
X290821428Y-46528904D01*
X290821428Y-46719380D01*
X290773809Y-46814619D01*
X290726190Y-46862238D01*
X290630952Y-46909857D01*
X315014880Y-43671761D02*
X314014880Y-43671761D01*
X314014880Y-43909857D01*
X314062500Y-44052714D01*
X314157738Y-44147952D01*
X314252976Y-44195571D01*
X314443452Y-44243190D01*
X314586309Y-44243190D01*
X314776785Y-44195571D01*
X314872023Y-44147952D01*
X314967261Y-44052714D01*
X315014880Y-43909857D01*
X315014880Y-43671761D01*
X315110119Y-44433666D02*
X315110119Y-45195571D01*
X314014880Y-45338428D02*
X314014880Y-45957476D01*
X314395833Y-45624142D01*
X314395833Y-45767000D01*
X314443452Y-45862238D01*
X314491071Y-45909857D01*
X314586309Y-45957476D01*
X314824404Y-45957476D01*
X314919642Y-45909857D01*
X314967261Y-45862238D01*
X315014880Y-45767000D01*
X315014880Y-45481285D01*
X314967261Y-45386047D01*
X314919642Y-45338428D01*
X314014880Y-46576523D02*
X314014880Y-46671761D01*
X314062500Y-46767000D01*
X314110119Y-46814619D01*
X314205357Y-46862238D01*
X314395833Y-46909857D01*
X314633928Y-46909857D01*
X314824404Y-46862238D01*
X314919642Y-46814619D01*
X314967261Y-46767000D01*
X315014880Y-46671761D01*
X315014880Y-46576523D01*
X314967261Y-46481285D01*
X314919642Y-46433666D01*
X314824404Y-46386047D01*
X314633928Y-46338428D01*
X314395833Y-46338428D01*
X314205357Y-46386047D01*
X314110119Y-46433666D01*
X314062500Y-46481285D01*
X314014880Y-46576523D01*
X334064880Y-43671761D02*
X333064880Y-43671761D01*
X333064880Y-43909857D01*
X333112500Y-44052714D01*
X333207738Y-44147952D01*
X333302976Y-44195571D01*
X333493452Y-44243190D01*
X333636309Y-44243190D01*
X333826785Y-44195571D01*
X333922023Y-44147952D01*
X334017261Y-44052714D01*
X334064880Y-43909857D01*
X334064880Y-43671761D01*
X334160119Y-44433666D02*
X334160119Y-45195571D01*
X333064880Y-45338428D02*
X333064880Y-45957476D01*
X333445833Y-45624142D01*
X333445833Y-45767000D01*
X333493452Y-45862238D01*
X333541071Y-45909857D01*
X333636309Y-45957476D01*
X333874404Y-45957476D01*
X333969642Y-45909857D01*
X334017261Y-45862238D01*
X334064880Y-45767000D01*
X334064880Y-45481285D01*
X334017261Y-45386047D01*
X333969642Y-45338428D01*
X334064880Y-46909857D02*
X334064880Y-46338428D01*
X334064880Y-46624142D02*
X333064880Y-46624142D01*
X333207738Y-46528904D01*
X333302976Y-46433666D01*
X333350595Y-46338428D01*
X353114880Y-43671761D02*
X352114880Y-43671761D01*
X352114880Y-43909857D01*
X352162500Y-44052714D01*
X352257738Y-44147952D01*
X352352976Y-44195571D01*
X352543452Y-44243190D01*
X352686309Y-44243190D01*
X352876785Y-44195571D01*
X352972023Y-44147952D01*
X353067261Y-44052714D01*
X353114880Y-43909857D01*
X353114880Y-43671761D01*
X353210119Y-44433666D02*
X353210119Y-45195571D01*
X352114880Y-45338428D02*
X352114880Y-45957476D01*
X352495833Y-45624142D01*
X352495833Y-45767000D01*
X352543452Y-45862238D01*
X352591071Y-45909857D01*
X352686309Y-45957476D01*
X352924404Y-45957476D01*
X353019642Y-45909857D01*
X353067261Y-45862238D01*
X353114880Y-45767000D01*
X353114880Y-45481285D01*
X353067261Y-45386047D01*
X353019642Y-45338428D01*
X352210119Y-46338428D02*
X352162500Y-46386047D01*
X352114880Y-46481285D01*
X352114880Y-46719380D01*
X352162500Y-46814619D01*
X352210119Y-46862238D01*
X352305357Y-46909857D01*
X352400595Y-46909857D01*
X352543452Y-46862238D01*
X353114880Y-46290809D01*
X353114880Y-46909857D01*
X34027380Y-62721761D02*
X33027380Y-62721761D01*
X33027380Y-62959857D01*
X33075000Y-63102714D01*
X33170238Y-63197952D01*
X33265476Y-63245571D01*
X33455952Y-63293190D01*
X33598809Y-63293190D01*
X33789285Y-63245571D01*
X33884523Y-63197952D01*
X33979761Y-63102714D01*
X34027380Y-62959857D01*
X34027380Y-62721761D01*
X34122619Y-63483666D02*
X34122619Y-64245571D01*
X33027380Y-64388428D02*
X33027380Y-65007476D01*
X33408333Y-64674142D01*
X33408333Y-64817000D01*
X33455952Y-64912238D01*
X33503571Y-64959857D01*
X33598809Y-65007476D01*
X33836904Y-65007476D01*
X33932142Y-64959857D01*
X33979761Y-64912238D01*
X34027380Y-64817000D01*
X34027380Y-64531285D01*
X33979761Y-64436047D01*
X33932142Y-64388428D01*
X33027380Y-65340809D02*
X33027380Y-65959857D01*
X33408333Y-65626523D01*
X33408333Y-65769380D01*
X33455952Y-65864619D01*
X33503571Y-65912238D01*
X33598809Y-65959857D01*
X33836904Y-65959857D01*
X33932142Y-65912238D01*
X33979761Y-65864619D01*
X34027380Y-65769380D01*
X34027380Y-65483666D01*
X33979761Y-65388428D01*
X33932142Y-65340809D01*
X53077380Y-62721761D02*
X52077380Y-62721761D01*
X52077380Y-62959857D01*
X52125000Y-63102714D01*
X52220238Y-63197952D01*
X52315476Y-63245571D01*
X52505952Y-63293190D01*
X52648809Y-63293190D01*
X52839285Y-63245571D01*
X52934523Y-63197952D01*
X53029761Y-63102714D01*
X53077380Y-62959857D01*
X53077380Y-62721761D01*
X53172619Y-63483666D02*
X53172619Y-64245571D01*
X52077380Y-64388428D02*
X52077380Y-65007476D01*
X52458333Y-64674142D01*
X52458333Y-64817000D01*
X52505952Y-64912238D01*
X52553571Y-64959857D01*
X52648809Y-65007476D01*
X52886904Y-65007476D01*
X52982142Y-64959857D01*
X53029761Y-64912238D01*
X53077380Y-64817000D01*
X53077380Y-64531285D01*
X53029761Y-64436047D01*
X52982142Y-64388428D01*
X52410714Y-65864619D02*
X53077380Y-65864619D01*
X52029761Y-65626523D02*
X52744047Y-65388428D01*
X52744047Y-66007476D01*
X72127380Y-62721761D02*
X71127380Y-62721761D01*
X71127380Y-62959857D01*
X71175000Y-63102714D01*
X71270238Y-63197952D01*
X71365476Y-63245571D01*
X71555952Y-63293190D01*
X71698809Y-63293190D01*
X71889285Y-63245571D01*
X71984523Y-63197952D01*
X72079761Y-63102714D01*
X72127380Y-62959857D01*
X72127380Y-62721761D01*
X72222619Y-63483666D02*
X72222619Y-64245571D01*
X71127380Y-64388428D02*
X71127380Y-65007476D01*
X71508333Y-64674142D01*
X71508333Y-64817000D01*
X71555952Y-64912238D01*
X71603571Y-64959857D01*
X71698809Y-65007476D01*
X71936904Y-65007476D01*
X72032142Y-64959857D01*
X72079761Y-64912238D01*
X72127380Y-64817000D01*
X72127380Y-64531285D01*
X72079761Y-64436047D01*
X72032142Y-64388428D01*
X71127380Y-65912238D02*
X71127380Y-65436047D01*
X71603571Y-65388428D01*
X71555952Y-65436047D01*
X71508333Y-65531285D01*
X71508333Y-65769380D01*
X71555952Y-65864619D01*
X71603571Y-65912238D01*
X71698809Y-65959857D01*
X71936904Y-65959857D01*
X72032142Y-65912238D01*
X72079761Y-65864619D01*
X72127380Y-65769380D01*
X72127380Y-65531285D01*
X72079761Y-65436047D01*
X72032142Y-65388428D01*
X91177380Y-62721761D02*
X90177380Y-62721761D01*
X90177380Y-62959857D01*
X90225000Y-63102714D01*
X90320238Y-63197952D01*
X90415476Y-63245571D01*
X90605952Y-63293190D01*
X90748809Y-63293190D01*
X90939285Y-63245571D01*
X91034523Y-63197952D01*
X91129761Y-63102714D01*
X91177380Y-62959857D01*
X91177380Y-62721761D01*
X91272619Y-63483666D02*
X91272619Y-64245571D01*
X90177380Y-64388428D02*
X90177380Y-65007476D01*
X90558333Y-64674142D01*
X90558333Y-64817000D01*
X90605952Y-64912238D01*
X90653571Y-64959857D01*
X90748809Y-65007476D01*
X90986904Y-65007476D01*
X91082142Y-64959857D01*
X91129761Y-64912238D01*
X91177380Y-64817000D01*
X91177380Y-64531285D01*
X91129761Y-64436047D01*
X91082142Y-64388428D01*
X90177380Y-65864619D02*
X90177380Y-65674142D01*
X90225000Y-65578904D01*
X90272619Y-65531285D01*
X90415476Y-65436047D01*
X90605952Y-65388428D01*
X90986904Y-65388428D01*
X91082142Y-65436047D01*
X91129761Y-65483666D01*
X91177380Y-65578904D01*
X91177380Y-65769380D01*
X91129761Y-65864619D01*
X91082142Y-65912238D01*
X90986904Y-65959857D01*
X90748809Y-65959857D01*
X90653571Y-65912238D01*
X90605952Y-65864619D01*
X90558333Y-65769380D01*
X90558333Y-65578904D01*
X90605952Y-65483666D01*
X90653571Y-65436047D01*
X90748809Y-65388428D01*
X110227380Y-62721761D02*
X109227380Y-62721761D01*
X109227380Y-62959857D01*
X109275000Y-63102714D01*
X109370238Y-63197952D01*
X109465476Y-63245571D01*
X109655952Y-63293190D01*
X109798809Y-63293190D01*
X109989285Y-63245571D01*
X110084523Y-63197952D01*
X110179761Y-63102714D01*
X110227380Y-62959857D01*
X110227380Y-62721761D01*
X110322619Y-63483666D02*
X110322619Y-64245571D01*
X109227380Y-64388428D02*
X109227380Y-65007476D01*
X109608333Y-64674142D01*
X109608333Y-64817000D01*
X109655952Y-64912238D01*
X109703571Y-64959857D01*
X109798809Y-65007476D01*
X110036904Y-65007476D01*
X110132142Y-64959857D01*
X110179761Y-64912238D01*
X110227380Y-64817000D01*
X110227380Y-64531285D01*
X110179761Y-64436047D01*
X110132142Y-64388428D01*
X109227380Y-65340809D02*
X109227380Y-66007476D01*
X110227380Y-65578904D01*
X129277380Y-62721761D02*
X128277380Y-62721761D01*
X128277380Y-62959857D01*
X128325000Y-63102714D01*
X128420238Y-63197952D01*
X128515476Y-63245571D01*
X128705952Y-63293190D01*
X128848809Y-63293190D01*
X129039285Y-63245571D01*
X129134523Y-63197952D01*
X129229761Y-63102714D01*
X129277380Y-62959857D01*
X129277380Y-62721761D01*
X129372619Y-63483666D02*
X129372619Y-64245571D01*
X128277380Y-64388428D02*
X128277380Y-65007476D01*
X128658333Y-64674142D01*
X128658333Y-64817000D01*
X128705952Y-64912238D01*
X128753571Y-64959857D01*
X128848809Y-65007476D01*
X129086904Y-65007476D01*
X129182142Y-64959857D01*
X129229761Y-64912238D01*
X129277380Y-64817000D01*
X129277380Y-64531285D01*
X129229761Y-64436047D01*
X129182142Y-64388428D01*
X128705952Y-65578904D02*
X128658333Y-65483666D01*
X128610714Y-65436047D01*
X128515476Y-65388428D01*
X128467857Y-65388428D01*
X128372619Y-65436047D01*
X128325000Y-65483666D01*
X128277380Y-65578904D01*
X128277380Y-65769380D01*
X128325000Y-65864619D01*
X128372619Y-65912238D01*
X128467857Y-65959857D01*
X128515476Y-65959857D01*
X128610714Y-65912238D01*
X128658333Y-65864619D01*
X128705952Y-65769380D01*
X128705952Y-65578904D01*
X128753571Y-65483666D01*
X128801190Y-65436047D01*
X128896428Y-65388428D01*
X129086904Y-65388428D01*
X129182142Y-65436047D01*
X129229761Y-65483666D01*
X129277380Y-65578904D01*
X129277380Y-65769380D01*
X129229761Y-65864619D01*
X129182142Y-65912238D01*
X129086904Y-65959857D01*
X128896428Y-65959857D01*
X128801190Y-65912238D01*
X128753571Y-65864619D01*
X128705952Y-65769380D01*
X148327380Y-62721761D02*
X147327380Y-62721761D01*
X147327380Y-62959857D01*
X147375000Y-63102714D01*
X147470238Y-63197952D01*
X147565476Y-63245571D01*
X147755952Y-63293190D01*
X147898809Y-63293190D01*
X148089285Y-63245571D01*
X148184523Y-63197952D01*
X148279761Y-63102714D01*
X148327380Y-62959857D01*
X148327380Y-62721761D01*
X148422619Y-63483666D02*
X148422619Y-64245571D01*
X147327380Y-64388428D02*
X147327380Y-65007476D01*
X147708333Y-64674142D01*
X147708333Y-64817000D01*
X147755952Y-64912238D01*
X147803571Y-64959857D01*
X147898809Y-65007476D01*
X148136904Y-65007476D01*
X148232142Y-64959857D01*
X148279761Y-64912238D01*
X148327380Y-64817000D01*
X148327380Y-64531285D01*
X148279761Y-64436047D01*
X148232142Y-64388428D01*
X148327380Y-65483666D02*
X148327380Y-65674142D01*
X148279761Y-65769380D01*
X148232142Y-65817000D01*
X148089285Y-65912238D01*
X147898809Y-65959857D01*
X147517857Y-65959857D01*
X147422619Y-65912238D01*
X147375000Y-65864619D01*
X147327380Y-65769380D01*
X147327380Y-65578904D01*
X147375000Y-65483666D01*
X147422619Y-65436047D01*
X147517857Y-65388428D01*
X147755952Y-65388428D01*
X147851190Y-65436047D01*
X147898809Y-65483666D01*
X147946428Y-65578904D01*
X147946428Y-65769380D01*
X147898809Y-65864619D01*
X147851190Y-65912238D01*
X147755952Y-65959857D01*
X167377380Y-62721761D02*
X166377380Y-62721761D01*
X166377380Y-62959857D01*
X166425000Y-63102714D01*
X166520238Y-63197952D01*
X166615476Y-63245571D01*
X166805952Y-63293190D01*
X166948809Y-63293190D01*
X167139285Y-63245571D01*
X167234523Y-63197952D01*
X167329761Y-63102714D01*
X167377380Y-62959857D01*
X167377380Y-62721761D01*
X167472619Y-63483666D02*
X167472619Y-64245571D01*
X166710714Y-64912238D02*
X167377380Y-64912238D01*
X166329761Y-64674142D02*
X167044047Y-64436047D01*
X167044047Y-65055095D01*
X166377380Y-65626523D02*
X166377380Y-65721761D01*
X166425000Y-65817000D01*
X166472619Y-65864619D01*
X166567857Y-65912238D01*
X166758333Y-65959857D01*
X166996428Y-65959857D01*
X167186904Y-65912238D01*
X167282142Y-65864619D01*
X167329761Y-65817000D01*
X167377380Y-65721761D01*
X167377380Y-65626523D01*
X167329761Y-65531285D01*
X167282142Y-65483666D01*
X167186904Y-65436047D01*
X166996428Y-65388428D01*
X166758333Y-65388428D01*
X166567857Y-65436047D01*
X166472619Y-65483666D01*
X166425000Y-65531285D01*
X166377380Y-65626523D01*
X186427380Y-62721761D02*
X185427380Y-62721761D01*
X185427380Y-62959857D01*
X185475000Y-63102714D01*
X185570238Y-63197952D01*
X185665476Y-63245571D01*
X185855952Y-63293190D01*
X185998809Y-63293190D01*
X186189285Y-63245571D01*
X186284523Y-63197952D01*
X186379761Y-63102714D01*
X186427380Y-62959857D01*
X186427380Y-62721761D01*
X186522619Y-63483666D02*
X186522619Y-64245571D01*
X185760714Y-64912238D02*
X186427380Y-64912238D01*
X185379761Y-64674142D02*
X186094047Y-64436047D01*
X186094047Y-65055095D01*
X186427380Y-65959857D02*
X186427380Y-65388428D01*
X186427380Y-65674142D02*
X185427380Y-65674142D01*
X185570238Y-65578904D01*
X185665476Y-65483666D01*
X185713095Y-65388428D01*
X205477380Y-62721761D02*
X204477380Y-62721761D01*
X204477380Y-62959857D01*
X204525000Y-63102714D01*
X204620238Y-63197952D01*
X204715476Y-63245571D01*
X204905952Y-63293190D01*
X205048809Y-63293190D01*
X205239285Y-63245571D01*
X205334523Y-63197952D01*
X205429761Y-63102714D01*
X205477380Y-62959857D01*
X205477380Y-62721761D01*
X205572619Y-63483666D02*
X205572619Y-64245571D01*
X204810714Y-64912238D02*
X205477380Y-64912238D01*
X204429761Y-64674142D02*
X205144047Y-64436047D01*
X205144047Y-65055095D01*
X204572619Y-65388428D02*
X204525000Y-65436047D01*
X204477380Y-65531285D01*
X204477380Y-65769380D01*
X204525000Y-65864619D01*
X204572619Y-65912238D01*
X204667857Y-65959857D01*
X204763095Y-65959857D01*
X204905952Y-65912238D01*
X205477380Y-65340809D01*
X205477380Y-65959857D01*
X224527380Y-62721761D02*
X223527380Y-62721761D01*
X223527380Y-62959857D01*
X223575000Y-63102714D01*
X223670238Y-63197952D01*
X223765476Y-63245571D01*
X223955952Y-63293190D01*
X224098809Y-63293190D01*
X224289285Y-63245571D01*
X224384523Y-63197952D01*
X224479761Y-63102714D01*
X224527380Y-62959857D01*
X224527380Y-62721761D01*
X224622619Y-63483666D02*
X224622619Y-64245571D01*
X223860714Y-64912238D02*
X224527380Y-64912238D01*
X223479761Y-64674142D02*
X224194047Y-64436047D01*
X224194047Y-65055095D01*
X223527380Y-65340809D02*
X223527380Y-65959857D01*
X223908333Y-65626523D01*
X223908333Y-65769380D01*
X223955952Y-65864619D01*
X224003571Y-65912238D01*
X224098809Y-65959857D01*
X224336904Y-65959857D01*
X224432142Y-65912238D01*
X224479761Y-65864619D01*
X224527380Y-65769380D01*
X224527380Y-65483666D01*
X224479761Y-65388428D01*
X224432142Y-65340809D01*
X243577380Y-62721761D02*
X242577380Y-62721761D01*
X242577380Y-62959857D01*
X242625000Y-63102714D01*
X242720238Y-63197952D01*
X242815476Y-63245571D01*
X243005952Y-63293190D01*
X243148809Y-63293190D01*
X243339285Y-63245571D01*
X243434523Y-63197952D01*
X243529761Y-63102714D01*
X243577380Y-62959857D01*
X243577380Y-62721761D01*
X243672619Y-63483666D02*
X243672619Y-64245571D01*
X242910714Y-64912238D02*
X243577380Y-64912238D01*
X242529761Y-64674142D02*
X243244047Y-64436047D01*
X243244047Y-65055095D01*
X242910714Y-65864619D02*
X243577380Y-65864619D01*
X242529761Y-65626523D02*
X243244047Y-65388428D01*
X243244047Y-66007476D01*
X262627380Y-62721761D02*
X261627380Y-62721761D01*
X261627380Y-62959857D01*
X261675000Y-63102714D01*
X261770238Y-63197952D01*
X261865476Y-63245571D01*
X262055952Y-63293190D01*
X262198809Y-63293190D01*
X262389285Y-63245571D01*
X262484523Y-63197952D01*
X262579761Y-63102714D01*
X262627380Y-62959857D01*
X262627380Y-62721761D01*
X262722619Y-63483666D02*
X262722619Y-64245571D01*
X261960714Y-64912238D02*
X262627380Y-64912238D01*
X261579761Y-64674142D02*
X262294047Y-64436047D01*
X262294047Y-65055095D01*
X261627380Y-65912238D02*
X261627380Y-65436047D01*
X262103571Y-65388428D01*
X262055952Y-65436047D01*
X262008333Y-65531285D01*
X262008333Y-65769380D01*
X262055952Y-65864619D01*
X262103571Y-65912238D01*
X262198809Y-65959857D01*
X262436904Y-65959857D01*
X262532142Y-65912238D01*
X262579761Y-65864619D01*
X262627380Y-65769380D01*
X262627380Y-65531285D01*
X262579761Y-65436047D01*
X262532142Y-65388428D01*
X291202380Y-62721761D02*
X290202380Y-62721761D01*
X290202380Y-62959857D01*
X290250000Y-63102714D01*
X290345238Y-63197952D01*
X290440476Y-63245571D01*
X290630952Y-63293190D01*
X290773809Y-63293190D01*
X290964285Y-63245571D01*
X291059523Y-63197952D01*
X291154761Y-63102714D01*
X291202380Y-62959857D01*
X291202380Y-62721761D01*
X291297619Y-63483666D02*
X291297619Y-64245571D01*
X290535714Y-64912238D02*
X291202380Y-64912238D01*
X290154761Y-64674142D02*
X290869047Y-64436047D01*
X290869047Y-65055095D01*
X290202380Y-65864619D02*
X290202380Y-65674142D01*
X290250000Y-65578904D01*
X290297619Y-65531285D01*
X290440476Y-65436047D01*
X290630952Y-65388428D01*
X291011904Y-65388428D01*
X291107142Y-65436047D01*
X291154761Y-65483666D01*
X291202380Y-65578904D01*
X291202380Y-65769380D01*
X291154761Y-65864619D01*
X291107142Y-65912238D01*
X291011904Y-65959857D01*
X290773809Y-65959857D01*
X290678571Y-65912238D01*
X290630952Y-65864619D01*
X290583333Y-65769380D01*
X290583333Y-65578904D01*
X290630952Y-65483666D01*
X290678571Y-65436047D01*
X290773809Y-65388428D01*
X315014880Y-62721761D02*
X314014880Y-62721761D01*
X314014880Y-62959857D01*
X314062500Y-63102714D01*
X314157738Y-63197952D01*
X314252976Y-63245571D01*
X314443452Y-63293190D01*
X314586309Y-63293190D01*
X314776785Y-63245571D01*
X314872023Y-63197952D01*
X314967261Y-63102714D01*
X315014880Y-62959857D01*
X315014880Y-62721761D01*
X315110119Y-63483666D02*
X315110119Y-64245571D01*
X314348214Y-64912238D02*
X315014880Y-64912238D01*
X313967261Y-64674142D02*
X314681547Y-64436047D01*
X314681547Y-65055095D01*
X314014880Y-65340809D02*
X314014880Y-66007476D01*
X315014880Y-65578904D01*
X334064880Y-62721761D02*
X333064880Y-62721761D01*
X333064880Y-62959857D01*
X333112500Y-63102714D01*
X333207738Y-63197952D01*
X333302976Y-63245571D01*
X333493452Y-63293190D01*
X333636309Y-63293190D01*
X333826785Y-63245571D01*
X333922023Y-63197952D01*
X334017261Y-63102714D01*
X334064880Y-62959857D01*
X334064880Y-62721761D01*
X334160119Y-63483666D02*
X334160119Y-64245571D01*
X333398214Y-64912238D02*
X334064880Y-64912238D01*
X333017261Y-64674142D02*
X333731547Y-64436047D01*
X333731547Y-65055095D01*
X333493452Y-65578904D02*
X333445833Y-65483666D01*
X333398214Y-65436047D01*
X333302976Y-65388428D01*
X333255357Y-65388428D01*
X333160119Y-65436047D01*
X333112500Y-65483666D01*
X333064880Y-65578904D01*
X333064880Y-65769380D01*
X333112500Y-65864619D01*
X333160119Y-65912238D01*
X333255357Y-65959857D01*
X333302976Y-65959857D01*
X333398214Y-65912238D01*
X333445833Y-65864619D01*
X333493452Y-65769380D01*
X333493452Y-65578904D01*
X333541071Y-65483666D01*
X333588690Y-65436047D01*
X333683928Y-65388428D01*
X333874404Y-65388428D01*
X333969642Y-65436047D01*
X334017261Y-65483666D01*
X334064880Y-65578904D01*
X334064880Y-65769380D01*
X334017261Y-65864619D01*
X333969642Y-65912238D01*
X333874404Y-65959857D01*
X333683928Y-65959857D01*
X333588690Y-65912238D01*
X333541071Y-65864619D01*
X333493452Y-65769380D01*
X353114880Y-62721761D02*
X352114880Y-62721761D01*
X352114880Y-62959857D01*
X352162500Y-63102714D01*
X352257738Y-63197952D01*
X352352976Y-63245571D01*
X352543452Y-63293190D01*
X352686309Y-63293190D01*
X352876785Y-63245571D01*
X352972023Y-63197952D01*
X353067261Y-63102714D01*
X353114880Y-62959857D01*
X353114880Y-62721761D01*
X353210119Y-63483666D02*
X353210119Y-64245571D01*
X352448214Y-64912238D02*
X353114880Y-64912238D01*
X352067261Y-64674142D02*
X352781547Y-64436047D01*
X352781547Y-65055095D01*
X353114880Y-65483666D02*
X353114880Y-65674142D01*
X353067261Y-65769380D01*
X353019642Y-65817000D01*
X352876785Y-65912238D01*
X352686309Y-65959857D01*
X352305357Y-65959857D01*
X352210119Y-65912238D01*
X352162500Y-65864619D01*
X352114880Y-65769380D01*
X352114880Y-65578904D01*
X352162500Y-65483666D01*
X352210119Y-65436047D01*
X352305357Y-65388428D01*
X352543452Y-65388428D01*
X352638690Y-65436047D01*
X352686309Y-65483666D01*
X352733928Y-65578904D01*
X352733928Y-65769380D01*
X352686309Y-65864619D01*
X352638690Y-65912238D01*
X352543452Y-65959857D01*
X38789880Y-81771761D02*
X37789880Y-81771761D01*
X37789880Y-82009857D01*
X37837500Y-82152714D01*
X37932738Y-82247952D01*
X38027976Y-82295571D01*
X38218452Y-82343190D01*
X38361309Y-82343190D01*
X38551785Y-82295571D01*
X38647023Y-82247952D01*
X38742261Y-82152714D01*
X38789880Y-82009857D01*
X38789880Y-81771761D01*
X38885119Y-82533666D02*
X38885119Y-83295571D01*
X37789880Y-84009857D02*
X37789880Y-83533666D01*
X38266071Y-83486047D01*
X38218452Y-83533666D01*
X38170833Y-83628904D01*
X38170833Y-83867000D01*
X38218452Y-83962238D01*
X38266071Y-84009857D01*
X38361309Y-84057476D01*
X38599404Y-84057476D01*
X38694642Y-84009857D01*
X38742261Y-83962238D01*
X38789880Y-83867000D01*
X38789880Y-83628904D01*
X38742261Y-83533666D01*
X38694642Y-83486047D01*
X37789880Y-84676523D02*
X37789880Y-84771761D01*
X37837500Y-84867000D01*
X37885119Y-84914619D01*
X37980357Y-84962238D01*
X38170833Y-85009857D01*
X38408928Y-85009857D01*
X38599404Y-84962238D01*
X38694642Y-84914619D01*
X38742261Y-84867000D01*
X38789880Y-84771761D01*
X38789880Y-84676523D01*
X38742261Y-84581285D01*
X38694642Y-84533666D01*
X38599404Y-84486047D01*
X38408928Y-84438428D01*
X38170833Y-84438428D01*
X37980357Y-84486047D01*
X37885119Y-84533666D01*
X37837500Y-84581285D01*
X37789880Y-84676523D01*
X57839880Y-81771761D02*
X56839880Y-81771761D01*
X56839880Y-82009857D01*
X56887500Y-82152714D01*
X56982738Y-82247952D01*
X57077976Y-82295571D01*
X57268452Y-82343190D01*
X57411309Y-82343190D01*
X57601785Y-82295571D01*
X57697023Y-82247952D01*
X57792261Y-82152714D01*
X57839880Y-82009857D01*
X57839880Y-81771761D01*
X57935119Y-82533666D02*
X57935119Y-83295571D01*
X56839880Y-84009857D02*
X56839880Y-83533666D01*
X57316071Y-83486047D01*
X57268452Y-83533666D01*
X57220833Y-83628904D01*
X57220833Y-83867000D01*
X57268452Y-83962238D01*
X57316071Y-84009857D01*
X57411309Y-84057476D01*
X57649404Y-84057476D01*
X57744642Y-84009857D01*
X57792261Y-83962238D01*
X57839880Y-83867000D01*
X57839880Y-83628904D01*
X57792261Y-83533666D01*
X57744642Y-83486047D01*
X57839880Y-85009857D02*
X57839880Y-84438428D01*
X57839880Y-84724142D02*
X56839880Y-84724142D01*
X56982738Y-84628904D01*
X57077976Y-84533666D01*
X57125595Y-84438428D01*
X76889880Y-81771761D02*
X75889880Y-81771761D01*
X75889880Y-82009857D01*
X75937500Y-82152714D01*
X76032738Y-82247952D01*
X76127976Y-82295571D01*
X76318452Y-82343190D01*
X76461309Y-82343190D01*
X76651785Y-82295571D01*
X76747023Y-82247952D01*
X76842261Y-82152714D01*
X76889880Y-82009857D01*
X76889880Y-81771761D01*
X76985119Y-82533666D02*
X76985119Y-83295571D01*
X75889880Y-84009857D02*
X75889880Y-83533666D01*
X76366071Y-83486047D01*
X76318452Y-83533666D01*
X76270833Y-83628904D01*
X76270833Y-83867000D01*
X76318452Y-83962238D01*
X76366071Y-84009857D01*
X76461309Y-84057476D01*
X76699404Y-84057476D01*
X76794642Y-84009857D01*
X76842261Y-83962238D01*
X76889880Y-83867000D01*
X76889880Y-83628904D01*
X76842261Y-83533666D01*
X76794642Y-83486047D01*
X75985119Y-84438428D02*
X75937500Y-84486047D01*
X75889880Y-84581285D01*
X75889880Y-84819380D01*
X75937500Y-84914619D01*
X75985119Y-84962238D01*
X76080357Y-85009857D01*
X76175595Y-85009857D01*
X76318452Y-84962238D01*
X76889880Y-84390809D01*
X76889880Y-85009857D01*
X95939880Y-81771761D02*
X94939880Y-81771761D01*
X94939880Y-82009857D01*
X94987500Y-82152714D01*
X95082738Y-82247952D01*
X95177976Y-82295571D01*
X95368452Y-82343190D01*
X95511309Y-82343190D01*
X95701785Y-82295571D01*
X95797023Y-82247952D01*
X95892261Y-82152714D01*
X95939880Y-82009857D01*
X95939880Y-81771761D01*
X96035119Y-82533666D02*
X96035119Y-83295571D01*
X94939880Y-84009857D02*
X94939880Y-83533666D01*
X95416071Y-83486047D01*
X95368452Y-83533666D01*
X95320833Y-83628904D01*
X95320833Y-83867000D01*
X95368452Y-83962238D01*
X95416071Y-84009857D01*
X95511309Y-84057476D01*
X95749404Y-84057476D01*
X95844642Y-84009857D01*
X95892261Y-83962238D01*
X95939880Y-83867000D01*
X95939880Y-83628904D01*
X95892261Y-83533666D01*
X95844642Y-83486047D01*
X94939880Y-84390809D02*
X94939880Y-85009857D01*
X95320833Y-84676523D01*
X95320833Y-84819380D01*
X95368452Y-84914619D01*
X95416071Y-84962238D01*
X95511309Y-85009857D01*
X95749404Y-85009857D01*
X95844642Y-84962238D01*
X95892261Y-84914619D01*
X95939880Y-84819380D01*
X95939880Y-84533666D01*
X95892261Y-84438428D01*
X95844642Y-84390809D01*
X114989880Y-81771761D02*
X113989880Y-81771761D01*
X113989880Y-82009857D01*
X114037500Y-82152714D01*
X114132738Y-82247952D01*
X114227976Y-82295571D01*
X114418452Y-82343190D01*
X114561309Y-82343190D01*
X114751785Y-82295571D01*
X114847023Y-82247952D01*
X114942261Y-82152714D01*
X114989880Y-82009857D01*
X114989880Y-81771761D01*
X115085119Y-82533666D02*
X115085119Y-83295571D01*
X113989880Y-84009857D02*
X113989880Y-83533666D01*
X114466071Y-83486047D01*
X114418452Y-83533666D01*
X114370833Y-83628904D01*
X114370833Y-83867000D01*
X114418452Y-83962238D01*
X114466071Y-84009857D01*
X114561309Y-84057476D01*
X114799404Y-84057476D01*
X114894642Y-84009857D01*
X114942261Y-83962238D01*
X114989880Y-83867000D01*
X114989880Y-83628904D01*
X114942261Y-83533666D01*
X114894642Y-83486047D01*
X114323214Y-84914619D02*
X114989880Y-84914619D01*
X113942261Y-84676523D02*
X114656547Y-84438428D01*
X114656547Y-85057476D01*
X134039880Y-81771761D02*
X133039880Y-81771761D01*
X133039880Y-82009857D01*
X133087500Y-82152714D01*
X133182738Y-82247952D01*
X133277976Y-82295571D01*
X133468452Y-82343190D01*
X133611309Y-82343190D01*
X133801785Y-82295571D01*
X133897023Y-82247952D01*
X133992261Y-82152714D01*
X134039880Y-82009857D01*
X134039880Y-81771761D01*
X134135119Y-82533666D02*
X134135119Y-83295571D01*
X133039880Y-84009857D02*
X133039880Y-83533666D01*
X133516071Y-83486047D01*
X133468452Y-83533666D01*
X133420833Y-83628904D01*
X133420833Y-83867000D01*
X133468452Y-83962238D01*
X133516071Y-84009857D01*
X133611309Y-84057476D01*
X133849404Y-84057476D01*
X133944642Y-84009857D01*
X133992261Y-83962238D01*
X134039880Y-83867000D01*
X134039880Y-83628904D01*
X133992261Y-83533666D01*
X133944642Y-83486047D01*
X133039880Y-84962238D02*
X133039880Y-84486047D01*
X133516071Y-84438428D01*
X133468452Y-84486047D01*
X133420833Y-84581285D01*
X133420833Y-84819380D01*
X133468452Y-84914619D01*
X133516071Y-84962238D01*
X133611309Y-85009857D01*
X133849404Y-85009857D01*
X133944642Y-84962238D01*
X133992261Y-84914619D01*
X134039880Y-84819380D01*
X134039880Y-84581285D01*
X133992261Y-84486047D01*
X133944642Y-84438428D01*
X153089880Y-81771761D02*
X152089880Y-81771761D01*
X152089880Y-82009857D01*
X152137500Y-82152714D01*
X152232738Y-82247952D01*
X152327976Y-82295571D01*
X152518452Y-82343190D01*
X152661309Y-82343190D01*
X152851785Y-82295571D01*
X152947023Y-82247952D01*
X153042261Y-82152714D01*
X153089880Y-82009857D01*
X153089880Y-81771761D01*
X153185119Y-82533666D02*
X153185119Y-83295571D01*
X152089880Y-84009857D02*
X152089880Y-83533666D01*
X152566071Y-83486047D01*
X152518452Y-83533666D01*
X152470833Y-83628904D01*
X152470833Y-83867000D01*
X152518452Y-83962238D01*
X152566071Y-84009857D01*
X152661309Y-84057476D01*
X152899404Y-84057476D01*
X152994642Y-84009857D01*
X153042261Y-83962238D01*
X153089880Y-83867000D01*
X153089880Y-83628904D01*
X153042261Y-83533666D01*
X152994642Y-83486047D01*
X152089880Y-84914619D02*
X152089880Y-84724142D01*
X152137500Y-84628904D01*
X152185119Y-84581285D01*
X152327976Y-84486047D01*
X152518452Y-84438428D01*
X152899404Y-84438428D01*
X152994642Y-84486047D01*
X153042261Y-84533666D01*
X153089880Y-84628904D01*
X153089880Y-84819380D01*
X153042261Y-84914619D01*
X152994642Y-84962238D01*
X152899404Y-85009857D01*
X152661309Y-85009857D01*
X152566071Y-84962238D01*
X152518452Y-84914619D01*
X152470833Y-84819380D01*
X152470833Y-84628904D01*
X152518452Y-84533666D01*
X152566071Y-84486047D01*
X152661309Y-84438428D01*
X172139880Y-81771761D02*
X171139880Y-81771761D01*
X171139880Y-82009857D01*
X171187500Y-82152714D01*
X171282738Y-82247952D01*
X171377976Y-82295571D01*
X171568452Y-82343190D01*
X171711309Y-82343190D01*
X171901785Y-82295571D01*
X171997023Y-82247952D01*
X172092261Y-82152714D01*
X172139880Y-82009857D01*
X172139880Y-81771761D01*
X172235119Y-82533666D02*
X172235119Y-83295571D01*
X171139880Y-84009857D02*
X171139880Y-83533666D01*
X171616071Y-83486047D01*
X171568452Y-83533666D01*
X171520833Y-83628904D01*
X171520833Y-83867000D01*
X171568452Y-83962238D01*
X171616071Y-84009857D01*
X171711309Y-84057476D01*
X171949404Y-84057476D01*
X172044642Y-84009857D01*
X172092261Y-83962238D01*
X172139880Y-83867000D01*
X172139880Y-83628904D01*
X172092261Y-83533666D01*
X172044642Y-83486047D01*
X171139880Y-84390809D02*
X171139880Y-85057476D01*
X172139880Y-84628904D01*
X191189880Y-81771761D02*
X190189880Y-81771761D01*
X190189880Y-82009857D01*
X190237500Y-82152714D01*
X190332738Y-82247952D01*
X190427976Y-82295571D01*
X190618452Y-82343190D01*
X190761309Y-82343190D01*
X190951785Y-82295571D01*
X191047023Y-82247952D01*
X191142261Y-82152714D01*
X191189880Y-82009857D01*
X191189880Y-81771761D01*
X191285119Y-82533666D02*
X191285119Y-83295571D01*
X190189880Y-84009857D02*
X190189880Y-83533666D01*
X190666071Y-83486047D01*
X190618452Y-83533666D01*
X190570833Y-83628904D01*
X190570833Y-83867000D01*
X190618452Y-83962238D01*
X190666071Y-84009857D01*
X190761309Y-84057476D01*
X190999404Y-84057476D01*
X191094642Y-84009857D01*
X191142261Y-83962238D01*
X191189880Y-83867000D01*
X191189880Y-83628904D01*
X191142261Y-83533666D01*
X191094642Y-83486047D01*
X190618452Y-84628904D02*
X190570833Y-84533666D01*
X190523214Y-84486047D01*
X190427976Y-84438428D01*
X190380357Y-84438428D01*
X190285119Y-84486047D01*
X190237500Y-84533666D01*
X190189880Y-84628904D01*
X190189880Y-84819380D01*
X190237500Y-84914619D01*
X190285119Y-84962238D01*
X190380357Y-85009857D01*
X190427976Y-85009857D01*
X190523214Y-84962238D01*
X190570833Y-84914619D01*
X190618452Y-84819380D01*
X190618452Y-84628904D01*
X190666071Y-84533666D01*
X190713690Y-84486047D01*
X190808928Y-84438428D01*
X190999404Y-84438428D01*
X191094642Y-84486047D01*
X191142261Y-84533666D01*
X191189880Y-84628904D01*
X191189880Y-84819380D01*
X191142261Y-84914619D01*
X191094642Y-84962238D01*
X190999404Y-85009857D01*
X190808928Y-85009857D01*
X190713690Y-84962238D01*
X190666071Y-84914619D01*
X190618452Y-84819380D01*
X210239880Y-81771761D02*
X209239880Y-81771761D01*
X209239880Y-82009857D01*
X209287500Y-82152714D01*
X209382738Y-82247952D01*
X209477976Y-82295571D01*
X209668452Y-82343190D01*
X209811309Y-82343190D01*
X210001785Y-82295571D01*
X210097023Y-82247952D01*
X210192261Y-82152714D01*
X210239880Y-82009857D01*
X210239880Y-81771761D01*
X210335119Y-82533666D02*
X210335119Y-83295571D01*
X209239880Y-84009857D02*
X209239880Y-83533666D01*
X209716071Y-83486047D01*
X209668452Y-83533666D01*
X209620833Y-83628904D01*
X209620833Y-83867000D01*
X209668452Y-83962238D01*
X209716071Y-84009857D01*
X209811309Y-84057476D01*
X210049404Y-84057476D01*
X210144642Y-84009857D01*
X210192261Y-83962238D01*
X210239880Y-83867000D01*
X210239880Y-83628904D01*
X210192261Y-83533666D01*
X210144642Y-83486047D01*
X210239880Y-84533666D02*
X210239880Y-84724142D01*
X210192261Y-84819380D01*
X210144642Y-84867000D01*
X210001785Y-84962238D01*
X209811309Y-85009857D01*
X209430357Y-85009857D01*
X209335119Y-84962238D01*
X209287500Y-84914619D01*
X209239880Y-84819380D01*
X209239880Y-84628904D01*
X209287500Y-84533666D01*
X209335119Y-84486047D01*
X209430357Y-84438428D01*
X209668452Y-84438428D01*
X209763690Y-84486047D01*
X209811309Y-84533666D01*
X209858928Y-84628904D01*
X209858928Y-84819380D01*
X209811309Y-84914619D01*
X209763690Y-84962238D01*
X209668452Y-85009857D01*
X229289880Y-81771761D02*
X228289880Y-81771761D01*
X228289880Y-82009857D01*
X228337500Y-82152714D01*
X228432738Y-82247952D01*
X228527976Y-82295571D01*
X228718452Y-82343190D01*
X228861309Y-82343190D01*
X229051785Y-82295571D01*
X229147023Y-82247952D01*
X229242261Y-82152714D01*
X229289880Y-82009857D01*
X229289880Y-81771761D01*
X229385119Y-82533666D02*
X229385119Y-83295571D01*
X228289880Y-83962238D02*
X228289880Y-83771761D01*
X228337500Y-83676523D01*
X228385119Y-83628904D01*
X228527976Y-83533666D01*
X228718452Y-83486047D01*
X229099404Y-83486047D01*
X229194642Y-83533666D01*
X229242261Y-83581285D01*
X229289880Y-83676523D01*
X229289880Y-83867000D01*
X229242261Y-83962238D01*
X229194642Y-84009857D01*
X229099404Y-84057476D01*
X228861309Y-84057476D01*
X228766071Y-84009857D01*
X228718452Y-83962238D01*
X228670833Y-83867000D01*
X228670833Y-83676523D01*
X228718452Y-83581285D01*
X228766071Y-83533666D01*
X228861309Y-83486047D01*
X228289880Y-84676523D02*
X228289880Y-84771761D01*
X228337500Y-84867000D01*
X228385119Y-84914619D01*
X228480357Y-84962238D01*
X228670833Y-85009857D01*
X228908928Y-85009857D01*
X229099404Y-84962238D01*
X229194642Y-84914619D01*
X229242261Y-84867000D01*
X229289880Y-84771761D01*
X229289880Y-84676523D01*
X229242261Y-84581285D01*
X229194642Y-84533666D01*
X229099404Y-84486047D01*
X228908928Y-84438428D01*
X228670833Y-84438428D01*
X228480357Y-84486047D01*
X228385119Y-84533666D01*
X228337500Y-84581285D01*
X228289880Y-84676523D01*
X248339880Y-81771761D02*
X247339880Y-81771761D01*
X247339880Y-82009857D01*
X247387500Y-82152714D01*
X247482738Y-82247952D01*
X247577976Y-82295571D01*
X247768452Y-82343190D01*
X247911309Y-82343190D01*
X248101785Y-82295571D01*
X248197023Y-82247952D01*
X248292261Y-82152714D01*
X248339880Y-82009857D01*
X248339880Y-81771761D01*
X248435119Y-82533666D02*
X248435119Y-83295571D01*
X247339880Y-83962238D02*
X247339880Y-83771761D01*
X247387500Y-83676523D01*
X247435119Y-83628904D01*
X247577976Y-83533666D01*
X247768452Y-83486047D01*
X248149404Y-83486047D01*
X248244642Y-83533666D01*
X248292261Y-83581285D01*
X248339880Y-83676523D01*
X248339880Y-83867000D01*
X248292261Y-83962238D01*
X248244642Y-84009857D01*
X248149404Y-84057476D01*
X247911309Y-84057476D01*
X247816071Y-84009857D01*
X247768452Y-83962238D01*
X247720833Y-83867000D01*
X247720833Y-83676523D01*
X247768452Y-83581285D01*
X247816071Y-83533666D01*
X247911309Y-83486047D01*
X248339880Y-85009857D02*
X248339880Y-84438428D01*
X248339880Y-84724142D02*
X247339880Y-84724142D01*
X247482738Y-84628904D01*
X247577976Y-84533666D01*
X247625595Y-84438428D01*
X291202380Y-81771761D02*
X290202380Y-81771761D01*
X290202380Y-82009857D01*
X290250000Y-82152714D01*
X290345238Y-82247952D01*
X290440476Y-82295571D01*
X290630952Y-82343190D01*
X290773809Y-82343190D01*
X290964285Y-82295571D01*
X291059523Y-82247952D01*
X291154761Y-82152714D01*
X291202380Y-82009857D01*
X291202380Y-81771761D01*
X291297619Y-82533666D02*
X291297619Y-83295571D01*
X290202380Y-83962238D02*
X290202380Y-83771761D01*
X290250000Y-83676523D01*
X290297619Y-83628904D01*
X290440476Y-83533666D01*
X290630952Y-83486047D01*
X291011904Y-83486047D01*
X291107142Y-83533666D01*
X291154761Y-83581285D01*
X291202380Y-83676523D01*
X291202380Y-83867000D01*
X291154761Y-83962238D01*
X291107142Y-84009857D01*
X291011904Y-84057476D01*
X290773809Y-84057476D01*
X290678571Y-84009857D01*
X290630952Y-83962238D01*
X290583333Y-83867000D01*
X290583333Y-83676523D01*
X290630952Y-83581285D01*
X290678571Y-83533666D01*
X290773809Y-83486047D01*
X290297619Y-84438428D02*
X290250000Y-84486047D01*
X290202380Y-84581285D01*
X290202380Y-84819380D01*
X290250000Y-84914619D01*
X290297619Y-84962238D01*
X290392857Y-85009857D01*
X290488095Y-85009857D01*
X290630952Y-84962238D01*
X291202380Y-84390809D01*
X291202380Y-85009857D01*
X48314880Y-100821761D02*
X47314880Y-100821761D01*
X47314880Y-101059857D01*
X47362500Y-101202714D01*
X47457738Y-101297952D01*
X47552976Y-101345571D01*
X47743452Y-101393190D01*
X47886309Y-101393190D01*
X48076785Y-101345571D01*
X48172023Y-101297952D01*
X48267261Y-101202714D01*
X48314880Y-101059857D01*
X48314880Y-100821761D01*
X48410119Y-101583666D02*
X48410119Y-102345571D01*
X47314880Y-103012238D02*
X47314880Y-102821761D01*
X47362500Y-102726523D01*
X47410119Y-102678904D01*
X47552976Y-102583666D01*
X47743452Y-102536047D01*
X48124404Y-102536047D01*
X48219642Y-102583666D01*
X48267261Y-102631285D01*
X48314880Y-102726523D01*
X48314880Y-102917000D01*
X48267261Y-103012238D01*
X48219642Y-103059857D01*
X48124404Y-103107476D01*
X47886309Y-103107476D01*
X47791071Y-103059857D01*
X47743452Y-103012238D01*
X47695833Y-102917000D01*
X47695833Y-102726523D01*
X47743452Y-102631285D01*
X47791071Y-102583666D01*
X47886309Y-102536047D01*
X47314880Y-103440809D02*
X47314880Y-104059857D01*
X47695833Y-103726523D01*
X47695833Y-103869380D01*
X47743452Y-103964619D01*
X47791071Y-104012238D01*
X47886309Y-104059857D01*
X48124404Y-104059857D01*
X48219642Y-104012238D01*
X48267261Y-103964619D01*
X48314880Y-103869380D01*
X48314880Y-103583666D01*
X48267261Y-103488428D01*
X48219642Y-103440809D01*
X67364880Y-100821761D02*
X66364880Y-100821761D01*
X66364880Y-101059857D01*
X66412500Y-101202714D01*
X66507738Y-101297952D01*
X66602976Y-101345571D01*
X66793452Y-101393190D01*
X66936309Y-101393190D01*
X67126785Y-101345571D01*
X67222023Y-101297952D01*
X67317261Y-101202714D01*
X67364880Y-101059857D01*
X67364880Y-100821761D01*
X67460119Y-101583666D02*
X67460119Y-102345571D01*
X66364880Y-103012238D02*
X66364880Y-102821761D01*
X66412500Y-102726523D01*
X66460119Y-102678904D01*
X66602976Y-102583666D01*
X66793452Y-102536047D01*
X67174404Y-102536047D01*
X67269642Y-102583666D01*
X67317261Y-102631285D01*
X67364880Y-102726523D01*
X67364880Y-102917000D01*
X67317261Y-103012238D01*
X67269642Y-103059857D01*
X67174404Y-103107476D01*
X66936309Y-103107476D01*
X66841071Y-103059857D01*
X66793452Y-103012238D01*
X66745833Y-102917000D01*
X66745833Y-102726523D01*
X66793452Y-102631285D01*
X66841071Y-102583666D01*
X66936309Y-102536047D01*
X66698214Y-103964619D02*
X67364880Y-103964619D01*
X66317261Y-103726523D02*
X67031547Y-103488428D01*
X67031547Y-104107476D01*
X86414880Y-100821761D02*
X85414880Y-100821761D01*
X85414880Y-101059857D01*
X85462500Y-101202714D01*
X85557738Y-101297952D01*
X85652976Y-101345571D01*
X85843452Y-101393190D01*
X85986309Y-101393190D01*
X86176785Y-101345571D01*
X86272023Y-101297952D01*
X86367261Y-101202714D01*
X86414880Y-101059857D01*
X86414880Y-100821761D01*
X86510119Y-101583666D02*
X86510119Y-102345571D01*
X85414880Y-103012238D02*
X85414880Y-102821761D01*
X85462500Y-102726523D01*
X85510119Y-102678904D01*
X85652976Y-102583666D01*
X85843452Y-102536047D01*
X86224404Y-102536047D01*
X86319642Y-102583666D01*
X86367261Y-102631285D01*
X86414880Y-102726523D01*
X86414880Y-102917000D01*
X86367261Y-103012238D01*
X86319642Y-103059857D01*
X86224404Y-103107476D01*
X85986309Y-103107476D01*
X85891071Y-103059857D01*
X85843452Y-103012238D01*
X85795833Y-102917000D01*
X85795833Y-102726523D01*
X85843452Y-102631285D01*
X85891071Y-102583666D01*
X85986309Y-102536047D01*
X85414880Y-104012238D02*
X85414880Y-103536047D01*
X85891071Y-103488428D01*
X85843452Y-103536047D01*
X85795833Y-103631285D01*
X85795833Y-103869380D01*
X85843452Y-103964619D01*
X85891071Y-104012238D01*
X85986309Y-104059857D01*
X86224404Y-104059857D01*
X86319642Y-104012238D01*
X86367261Y-103964619D01*
X86414880Y-103869380D01*
X86414880Y-103631285D01*
X86367261Y-103536047D01*
X86319642Y-103488428D01*
X105464880Y-100821761D02*
X104464880Y-100821761D01*
X104464880Y-101059857D01*
X104512500Y-101202714D01*
X104607738Y-101297952D01*
X104702976Y-101345571D01*
X104893452Y-101393190D01*
X105036309Y-101393190D01*
X105226785Y-101345571D01*
X105322023Y-101297952D01*
X105417261Y-101202714D01*
X105464880Y-101059857D01*
X105464880Y-100821761D01*
X105560119Y-101583666D02*
X105560119Y-102345571D01*
X104464880Y-103012238D02*
X104464880Y-102821761D01*
X104512500Y-102726523D01*
X104560119Y-102678904D01*
X104702976Y-102583666D01*
X104893452Y-102536047D01*
X105274404Y-102536047D01*
X105369642Y-102583666D01*
X105417261Y-102631285D01*
X105464880Y-102726523D01*
X105464880Y-102917000D01*
X105417261Y-103012238D01*
X105369642Y-103059857D01*
X105274404Y-103107476D01*
X105036309Y-103107476D01*
X104941071Y-103059857D01*
X104893452Y-103012238D01*
X104845833Y-102917000D01*
X104845833Y-102726523D01*
X104893452Y-102631285D01*
X104941071Y-102583666D01*
X105036309Y-102536047D01*
X104464880Y-103964619D02*
X104464880Y-103774142D01*
X104512500Y-103678904D01*
X104560119Y-103631285D01*
X104702976Y-103536047D01*
X104893452Y-103488428D01*
X105274404Y-103488428D01*
X105369642Y-103536047D01*
X105417261Y-103583666D01*
X105464880Y-103678904D01*
X105464880Y-103869380D01*
X105417261Y-103964619D01*
X105369642Y-104012238D01*
X105274404Y-104059857D01*
X105036309Y-104059857D01*
X104941071Y-104012238D01*
X104893452Y-103964619D01*
X104845833Y-103869380D01*
X104845833Y-103678904D01*
X104893452Y-103583666D01*
X104941071Y-103536047D01*
X105036309Y-103488428D01*
X124514880Y-100821761D02*
X123514880Y-100821761D01*
X123514880Y-101059857D01*
X123562500Y-101202714D01*
X123657738Y-101297952D01*
X123752976Y-101345571D01*
X123943452Y-101393190D01*
X124086309Y-101393190D01*
X124276785Y-101345571D01*
X124372023Y-101297952D01*
X124467261Y-101202714D01*
X124514880Y-101059857D01*
X124514880Y-100821761D01*
X124610119Y-101583666D02*
X124610119Y-102345571D01*
X123514880Y-103012238D02*
X123514880Y-102821761D01*
X123562500Y-102726523D01*
X123610119Y-102678904D01*
X123752976Y-102583666D01*
X123943452Y-102536047D01*
X124324404Y-102536047D01*
X124419642Y-102583666D01*
X124467261Y-102631285D01*
X124514880Y-102726523D01*
X124514880Y-102917000D01*
X124467261Y-103012238D01*
X124419642Y-103059857D01*
X124324404Y-103107476D01*
X124086309Y-103107476D01*
X123991071Y-103059857D01*
X123943452Y-103012238D01*
X123895833Y-102917000D01*
X123895833Y-102726523D01*
X123943452Y-102631285D01*
X123991071Y-102583666D01*
X124086309Y-102536047D01*
X123514880Y-103440809D02*
X123514880Y-104107476D01*
X124514880Y-103678904D01*
X143564880Y-100821761D02*
X142564880Y-100821761D01*
X142564880Y-101059857D01*
X142612500Y-101202714D01*
X142707738Y-101297952D01*
X142802976Y-101345571D01*
X142993452Y-101393190D01*
X143136309Y-101393190D01*
X143326785Y-101345571D01*
X143422023Y-101297952D01*
X143517261Y-101202714D01*
X143564880Y-101059857D01*
X143564880Y-100821761D01*
X143660119Y-101583666D02*
X143660119Y-102345571D01*
X142564880Y-103012238D02*
X142564880Y-102821761D01*
X142612500Y-102726523D01*
X142660119Y-102678904D01*
X142802976Y-102583666D01*
X142993452Y-102536047D01*
X143374404Y-102536047D01*
X143469642Y-102583666D01*
X143517261Y-102631285D01*
X143564880Y-102726523D01*
X143564880Y-102917000D01*
X143517261Y-103012238D01*
X143469642Y-103059857D01*
X143374404Y-103107476D01*
X143136309Y-103107476D01*
X143041071Y-103059857D01*
X142993452Y-103012238D01*
X142945833Y-102917000D01*
X142945833Y-102726523D01*
X142993452Y-102631285D01*
X143041071Y-102583666D01*
X143136309Y-102536047D01*
X142993452Y-103678904D02*
X142945833Y-103583666D01*
X142898214Y-103536047D01*
X142802976Y-103488428D01*
X142755357Y-103488428D01*
X142660119Y-103536047D01*
X142612500Y-103583666D01*
X142564880Y-103678904D01*
X142564880Y-103869380D01*
X142612500Y-103964619D01*
X142660119Y-104012238D01*
X142755357Y-104059857D01*
X142802976Y-104059857D01*
X142898214Y-104012238D01*
X142945833Y-103964619D01*
X142993452Y-103869380D01*
X142993452Y-103678904D01*
X143041071Y-103583666D01*
X143088690Y-103536047D01*
X143183928Y-103488428D01*
X143374404Y-103488428D01*
X143469642Y-103536047D01*
X143517261Y-103583666D01*
X143564880Y-103678904D01*
X143564880Y-103869380D01*
X143517261Y-103964619D01*
X143469642Y-104012238D01*
X143374404Y-104059857D01*
X143183928Y-104059857D01*
X143088690Y-104012238D01*
X143041071Y-103964619D01*
X142993452Y-103869380D01*
X162614880Y-100821761D02*
X161614880Y-100821761D01*
X161614880Y-101059857D01*
X161662500Y-101202714D01*
X161757738Y-101297952D01*
X161852976Y-101345571D01*
X162043452Y-101393190D01*
X162186309Y-101393190D01*
X162376785Y-101345571D01*
X162472023Y-101297952D01*
X162567261Y-101202714D01*
X162614880Y-101059857D01*
X162614880Y-100821761D01*
X162710119Y-101583666D02*
X162710119Y-102345571D01*
X161614880Y-103012238D02*
X161614880Y-102821761D01*
X161662500Y-102726523D01*
X161710119Y-102678904D01*
X161852976Y-102583666D01*
X162043452Y-102536047D01*
X162424404Y-102536047D01*
X162519642Y-102583666D01*
X162567261Y-102631285D01*
X162614880Y-102726523D01*
X162614880Y-102917000D01*
X162567261Y-103012238D01*
X162519642Y-103059857D01*
X162424404Y-103107476D01*
X162186309Y-103107476D01*
X162091071Y-103059857D01*
X162043452Y-103012238D01*
X161995833Y-102917000D01*
X161995833Y-102726523D01*
X162043452Y-102631285D01*
X162091071Y-102583666D01*
X162186309Y-102536047D01*
X162614880Y-103583666D02*
X162614880Y-103774142D01*
X162567261Y-103869380D01*
X162519642Y-103917000D01*
X162376785Y-104012238D01*
X162186309Y-104059857D01*
X161805357Y-104059857D01*
X161710119Y-104012238D01*
X161662500Y-103964619D01*
X161614880Y-103869380D01*
X161614880Y-103678904D01*
X161662500Y-103583666D01*
X161710119Y-103536047D01*
X161805357Y-103488428D01*
X162043452Y-103488428D01*
X162138690Y-103536047D01*
X162186309Y-103583666D01*
X162233928Y-103678904D01*
X162233928Y-103869380D01*
X162186309Y-103964619D01*
X162138690Y-104012238D01*
X162043452Y-104059857D01*
X181664880Y-100821761D02*
X180664880Y-100821761D01*
X180664880Y-101059857D01*
X180712500Y-101202714D01*
X180807738Y-101297952D01*
X180902976Y-101345571D01*
X181093452Y-101393190D01*
X181236309Y-101393190D01*
X181426785Y-101345571D01*
X181522023Y-101297952D01*
X181617261Y-101202714D01*
X181664880Y-101059857D01*
X181664880Y-100821761D01*
X181760119Y-101583666D02*
X181760119Y-102345571D01*
X180664880Y-102488428D02*
X180664880Y-103155095D01*
X181664880Y-102726523D01*
X180664880Y-103726523D02*
X180664880Y-103821761D01*
X180712500Y-103917000D01*
X180760119Y-103964619D01*
X180855357Y-104012238D01*
X181045833Y-104059857D01*
X181283928Y-104059857D01*
X181474404Y-104012238D01*
X181569642Y-103964619D01*
X181617261Y-103917000D01*
X181664880Y-103821761D01*
X181664880Y-103726523D01*
X181617261Y-103631285D01*
X181569642Y-103583666D01*
X181474404Y-103536047D01*
X181283928Y-103488428D01*
X181045833Y-103488428D01*
X180855357Y-103536047D01*
X180760119Y-103583666D01*
X180712500Y-103631285D01*
X180664880Y-103726523D01*
X200714880Y-100821761D02*
X199714880Y-100821761D01*
X199714880Y-101059857D01*
X199762500Y-101202714D01*
X199857738Y-101297952D01*
X199952976Y-101345571D01*
X200143452Y-101393190D01*
X200286309Y-101393190D01*
X200476785Y-101345571D01*
X200572023Y-101297952D01*
X200667261Y-101202714D01*
X200714880Y-101059857D01*
X200714880Y-100821761D01*
X200810119Y-101583666D02*
X200810119Y-102345571D01*
X199714880Y-102488428D02*
X199714880Y-103155095D01*
X200714880Y-102726523D01*
X200714880Y-104059857D02*
X200714880Y-103488428D01*
X200714880Y-103774142D02*
X199714880Y-103774142D01*
X199857738Y-103678904D01*
X199952976Y-103583666D01*
X200000595Y-103488428D01*
X219764880Y-100821761D02*
X218764880Y-100821761D01*
X218764880Y-101059857D01*
X218812500Y-101202714D01*
X218907738Y-101297952D01*
X219002976Y-101345571D01*
X219193452Y-101393190D01*
X219336309Y-101393190D01*
X219526785Y-101345571D01*
X219622023Y-101297952D01*
X219717261Y-101202714D01*
X219764880Y-101059857D01*
X219764880Y-100821761D01*
X219860119Y-101583666D02*
X219860119Y-102345571D01*
X218764880Y-102488428D02*
X218764880Y-103155095D01*
X219764880Y-102726523D01*
X218860119Y-103488428D02*
X218812500Y-103536047D01*
X218764880Y-103631285D01*
X218764880Y-103869380D01*
X218812500Y-103964619D01*
X218860119Y-104012238D01*
X218955357Y-104059857D01*
X219050595Y-104059857D01*
X219193452Y-104012238D01*
X219764880Y-103440809D01*
X219764880Y-104059857D01*
X238814880Y-100821761D02*
X237814880Y-100821761D01*
X237814880Y-101059857D01*
X237862500Y-101202714D01*
X237957738Y-101297952D01*
X238052976Y-101345571D01*
X238243452Y-101393190D01*
X238386309Y-101393190D01*
X238576785Y-101345571D01*
X238672023Y-101297952D01*
X238767261Y-101202714D01*
X238814880Y-101059857D01*
X238814880Y-100821761D01*
X238910119Y-101583666D02*
X238910119Y-102345571D01*
X237814880Y-102488428D02*
X237814880Y-103155095D01*
X238814880Y-102726523D01*
X237814880Y-103440809D02*
X237814880Y-104059857D01*
X238195833Y-103726523D01*
X238195833Y-103869380D01*
X238243452Y-103964619D01*
X238291071Y-104012238D01*
X238386309Y-104059857D01*
X238624404Y-104059857D01*
X238719642Y-104012238D01*
X238767261Y-103964619D01*
X238814880Y-103869380D01*
X238814880Y-103583666D01*
X238767261Y-103488428D01*
X238719642Y-103440809D01*
X291202380Y-100821761D02*
X290202380Y-100821761D01*
X290202380Y-101059857D01*
X290250000Y-101202714D01*
X290345238Y-101297952D01*
X290440476Y-101345571D01*
X290630952Y-101393190D01*
X290773809Y-101393190D01*
X290964285Y-101345571D01*
X291059523Y-101297952D01*
X291154761Y-101202714D01*
X291202380Y-101059857D01*
X291202380Y-100821761D01*
X291297619Y-101583666D02*
X291297619Y-102345571D01*
X290202380Y-102488428D02*
X290202380Y-103155095D01*
X291202380Y-102726523D01*
X290535714Y-103964619D02*
X291202380Y-103964619D01*
X290154761Y-103726523D02*
X290869047Y-103488428D01*
X290869047Y-104107476D01*
X334064880Y-100821761D02*
X333064880Y-100821761D01*
X333064880Y-101059857D01*
X333112500Y-101202714D01*
X333207738Y-101297952D01*
X333302976Y-101345571D01*
X333493452Y-101393190D01*
X333636309Y-101393190D01*
X333826785Y-101345571D01*
X333922023Y-101297952D01*
X334017261Y-101202714D01*
X334064880Y-101059857D01*
X334064880Y-100821761D01*
X334160119Y-101583666D02*
X334160119Y-102345571D01*
X333064880Y-102488428D02*
X333064880Y-103155095D01*
X334064880Y-102726523D01*
X333064880Y-104012238D02*
X333064880Y-103536047D01*
X333541071Y-103488428D01*
X333493452Y-103536047D01*
X333445833Y-103631285D01*
X333445833Y-103869380D01*
X333493452Y-103964619D01*
X333541071Y-104012238D01*
X333636309Y-104059857D01*
X333874404Y-104059857D01*
X333969642Y-104012238D01*
X334017261Y-103964619D01*
X334064880Y-103869380D01*
X334064880Y-103631285D01*
X334017261Y-103536047D01*
X333969642Y-103488428D01*
X29264880Y-119871761D02*
X28264880Y-119871761D01*
X28264880Y-120109857D01*
X28312500Y-120252714D01*
X28407738Y-120347952D01*
X28502976Y-120395571D01*
X28693452Y-120443190D01*
X28836309Y-120443190D01*
X29026785Y-120395571D01*
X29122023Y-120347952D01*
X29217261Y-120252714D01*
X29264880Y-120109857D01*
X29264880Y-119871761D01*
X29360119Y-120633666D02*
X29360119Y-121395571D01*
X28264880Y-121538428D02*
X28264880Y-122205095D01*
X29264880Y-121776523D01*
X28264880Y-123014619D02*
X28264880Y-122824142D01*
X28312500Y-122728904D01*
X28360119Y-122681285D01*
X28502976Y-122586047D01*
X28693452Y-122538428D01*
X29074404Y-122538428D01*
X29169642Y-122586047D01*
X29217261Y-122633666D01*
X29264880Y-122728904D01*
X29264880Y-122919380D01*
X29217261Y-123014619D01*
X29169642Y-123062238D01*
X29074404Y-123109857D01*
X28836309Y-123109857D01*
X28741071Y-123062238D01*
X28693452Y-123014619D01*
X28645833Y-122919380D01*
X28645833Y-122728904D01*
X28693452Y-122633666D01*
X28741071Y-122586047D01*
X28836309Y-122538428D01*
X53077380Y-119871761D02*
X52077380Y-119871761D01*
X52077380Y-120109857D01*
X52125000Y-120252714D01*
X52220238Y-120347952D01*
X52315476Y-120395571D01*
X52505952Y-120443190D01*
X52648809Y-120443190D01*
X52839285Y-120395571D01*
X52934523Y-120347952D01*
X53029761Y-120252714D01*
X53077380Y-120109857D01*
X53077380Y-119871761D01*
X53172619Y-120633666D02*
X53172619Y-121395571D01*
X52077380Y-121538428D02*
X52077380Y-122205095D01*
X53077380Y-121776523D01*
X52077380Y-122490809D02*
X52077380Y-123157476D01*
X53077380Y-122728904D01*
X76889880Y-119871761D02*
X75889880Y-119871761D01*
X75889880Y-120109857D01*
X75937500Y-120252714D01*
X76032738Y-120347952D01*
X76127976Y-120395571D01*
X76318452Y-120443190D01*
X76461309Y-120443190D01*
X76651785Y-120395571D01*
X76747023Y-120347952D01*
X76842261Y-120252714D01*
X76889880Y-120109857D01*
X76889880Y-119871761D01*
X76985119Y-120633666D02*
X76985119Y-121395571D01*
X75889880Y-121538428D02*
X75889880Y-122205095D01*
X76889880Y-121776523D01*
X76318452Y-122728904D02*
X76270833Y-122633666D01*
X76223214Y-122586047D01*
X76127976Y-122538428D01*
X76080357Y-122538428D01*
X75985119Y-122586047D01*
X75937500Y-122633666D01*
X75889880Y-122728904D01*
X75889880Y-122919380D01*
X75937500Y-123014619D01*
X75985119Y-123062238D01*
X76080357Y-123109857D01*
X76127976Y-123109857D01*
X76223214Y-123062238D01*
X76270833Y-123014619D01*
X76318452Y-122919380D01*
X76318452Y-122728904D01*
X76366071Y-122633666D01*
X76413690Y-122586047D01*
X76508928Y-122538428D01*
X76699404Y-122538428D01*
X76794642Y-122586047D01*
X76842261Y-122633666D01*
X76889880Y-122728904D01*
X76889880Y-122919380D01*
X76842261Y-123014619D01*
X76794642Y-123062238D01*
X76699404Y-123109857D01*
X76508928Y-123109857D01*
X76413690Y-123062238D01*
X76366071Y-123014619D01*
X76318452Y-122919380D01*
X195952380Y-119871761D02*
X194952380Y-119871761D01*
X194952380Y-120109857D01*
X195000000Y-120252714D01*
X195095238Y-120347952D01*
X195190476Y-120395571D01*
X195380952Y-120443190D01*
X195523809Y-120443190D01*
X195714285Y-120395571D01*
X195809523Y-120347952D01*
X195904761Y-120252714D01*
X195952380Y-120109857D01*
X195952380Y-119871761D01*
X196047619Y-120633666D02*
X196047619Y-121395571D01*
X194952380Y-121538428D02*
X194952380Y-122205095D01*
X195952380Y-121776523D01*
X195952380Y-122633666D02*
X195952380Y-122824142D01*
X195904761Y-122919380D01*
X195857142Y-122967000D01*
X195714285Y-123062238D01*
X195523809Y-123109857D01*
X195142857Y-123109857D01*
X195047619Y-123062238D01*
X195000000Y-123014619D01*
X194952380Y-122919380D01*
X194952380Y-122728904D01*
X195000000Y-122633666D01*
X195047619Y-122586047D01*
X195142857Y-122538428D01*
X195380952Y-122538428D01*
X195476190Y-122586047D01*
X195523809Y-122633666D01*
X195571428Y-122728904D01*
X195571428Y-122919380D01*
X195523809Y-123014619D01*
X195476190Y-123062238D01*
X195380952Y-123109857D01*
X219764880Y-119871761D02*
X218764880Y-119871761D01*
X218764880Y-120109857D01*
X218812500Y-120252714D01*
X218907738Y-120347952D01*
X219002976Y-120395571D01*
X219193452Y-120443190D01*
X219336309Y-120443190D01*
X219526785Y-120395571D01*
X219622023Y-120347952D01*
X219717261Y-120252714D01*
X219764880Y-120109857D01*
X219764880Y-119871761D01*
X219860119Y-120633666D02*
X219860119Y-121395571D01*
X219193452Y-121776523D02*
X219145833Y-121681285D01*
X219098214Y-121633666D01*
X219002976Y-121586047D01*
X218955357Y-121586047D01*
X218860119Y-121633666D01*
X218812500Y-121681285D01*
X218764880Y-121776523D01*
X218764880Y-121967000D01*
X218812500Y-122062238D01*
X218860119Y-122109857D01*
X218955357Y-122157476D01*
X219002976Y-122157476D01*
X219098214Y-122109857D01*
X219145833Y-122062238D01*
X219193452Y-121967000D01*
X219193452Y-121776523D01*
X219241071Y-121681285D01*
X219288690Y-121633666D01*
X219383928Y-121586047D01*
X219574404Y-121586047D01*
X219669642Y-121633666D01*
X219717261Y-121681285D01*
X219764880Y-121776523D01*
X219764880Y-121967000D01*
X219717261Y-122062238D01*
X219669642Y-122109857D01*
X219574404Y-122157476D01*
X219383928Y-122157476D01*
X219288690Y-122109857D01*
X219241071Y-122062238D01*
X219193452Y-121967000D01*
X218764880Y-122776523D02*
X218764880Y-122871761D01*
X218812500Y-122967000D01*
X218860119Y-123014619D01*
X218955357Y-123062238D01*
X219145833Y-123109857D01*
X219383928Y-123109857D01*
X219574404Y-123062238D01*
X219669642Y-123014619D01*
X219717261Y-122967000D01*
X219764880Y-122871761D01*
X219764880Y-122776523D01*
X219717261Y-122681285D01*
X219669642Y-122633666D01*
X219574404Y-122586047D01*
X219383928Y-122538428D01*
X219145833Y-122538428D01*
X218955357Y-122586047D01*
X218860119Y-122633666D01*
X218812500Y-122681285D01*
X218764880Y-122776523D01*
X243577380Y-119871761D02*
X242577380Y-119871761D01*
X242577380Y-120109857D01*
X242625000Y-120252714D01*
X242720238Y-120347952D01*
X242815476Y-120395571D01*
X243005952Y-120443190D01*
X243148809Y-120443190D01*
X243339285Y-120395571D01*
X243434523Y-120347952D01*
X243529761Y-120252714D01*
X243577380Y-120109857D01*
X243577380Y-119871761D01*
X243672619Y-120633666D02*
X243672619Y-121395571D01*
X243005952Y-121776523D02*
X242958333Y-121681285D01*
X242910714Y-121633666D01*
X242815476Y-121586047D01*
X242767857Y-121586047D01*
X242672619Y-121633666D01*
X242625000Y-121681285D01*
X242577380Y-121776523D01*
X242577380Y-121967000D01*
X242625000Y-122062238D01*
X242672619Y-122109857D01*
X242767857Y-122157476D01*
X242815476Y-122157476D01*
X242910714Y-122109857D01*
X242958333Y-122062238D01*
X243005952Y-121967000D01*
X243005952Y-121776523D01*
X243053571Y-121681285D01*
X243101190Y-121633666D01*
X243196428Y-121586047D01*
X243386904Y-121586047D01*
X243482142Y-121633666D01*
X243529761Y-121681285D01*
X243577380Y-121776523D01*
X243577380Y-121967000D01*
X243529761Y-122062238D01*
X243482142Y-122109857D01*
X243386904Y-122157476D01*
X243196428Y-122157476D01*
X243101190Y-122109857D01*
X243053571Y-122062238D01*
X243005952Y-121967000D01*
X243577380Y-123109857D02*
X243577380Y-122538428D01*
X243577380Y-122824142D02*
X242577380Y-122824142D01*
X242720238Y-122728904D01*
X242815476Y-122633666D01*
X242863095Y-122538428D01*
X267389880Y-119871761D02*
X266389880Y-119871761D01*
X266389880Y-120109857D01*
X266437500Y-120252714D01*
X266532738Y-120347952D01*
X266627976Y-120395571D01*
X266818452Y-120443190D01*
X266961309Y-120443190D01*
X267151785Y-120395571D01*
X267247023Y-120347952D01*
X267342261Y-120252714D01*
X267389880Y-120109857D01*
X267389880Y-119871761D01*
X267485119Y-120633666D02*
X267485119Y-121395571D01*
X266818452Y-121776523D02*
X266770833Y-121681285D01*
X266723214Y-121633666D01*
X266627976Y-121586047D01*
X266580357Y-121586047D01*
X266485119Y-121633666D01*
X266437500Y-121681285D01*
X266389880Y-121776523D01*
X266389880Y-121967000D01*
X266437500Y-122062238D01*
X266485119Y-122109857D01*
X266580357Y-122157476D01*
X266627976Y-122157476D01*
X266723214Y-122109857D01*
X266770833Y-122062238D01*
X266818452Y-121967000D01*
X266818452Y-121776523D01*
X266866071Y-121681285D01*
X266913690Y-121633666D01*
X267008928Y-121586047D01*
X267199404Y-121586047D01*
X267294642Y-121633666D01*
X267342261Y-121681285D01*
X267389880Y-121776523D01*
X267389880Y-121967000D01*
X267342261Y-122062238D01*
X267294642Y-122109857D01*
X267199404Y-122157476D01*
X267008928Y-122157476D01*
X266913690Y-122109857D01*
X266866071Y-122062238D01*
X266818452Y-121967000D01*
X266485119Y-122538428D02*
X266437500Y-122586047D01*
X266389880Y-122681285D01*
X266389880Y-122919380D01*
X266437500Y-123014619D01*
X266485119Y-123062238D01*
X266580357Y-123109857D01*
X266675595Y-123109857D01*
X266818452Y-123062238D01*
X267389880Y-122490809D01*
X267389880Y-123109857D01*
X291202380Y-119871761D02*
X290202380Y-119871761D01*
X290202380Y-120109857D01*
X290250000Y-120252714D01*
X290345238Y-120347952D01*
X290440476Y-120395571D01*
X290630952Y-120443190D01*
X290773809Y-120443190D01*
X290964285Y-120395571D01*
X291059523Y-120347952D01*
X291154761Y-120252714D01*
X291202380Y-120109857D01*
X291202380Y-119871761D01*
X291297619Y-120633666D02*
X291297619Y-121395571D01*
X290630952Y-121776523D02*
X290583333Y-121681285D01*
X290535714Y-121633666D01*
X290440476Y-121586047D01*
X290392857Y-121586047D01*
X290297619Y-121633666D01*
X290250000Y-121681285D01*
X290202380Y-121776523D01*
X290202380Y-121967000D01*
X290250000Y-122062238D01*
X290297619Y-122109857D01*
X290392857Y-122157476D01*
X290440476Y-122157476D01*
X290535714Y-122109857D01*
X290583333Y-122062238D01*
X290630952Y-121967000D01*
X290630952Y-121776523D01*
X290678571Y-121681285D01*
X290726190Y-121633666D01*
X290821428Y-121586047D01*
X291011904Y-121586047D01*
X291107142Y-121633666D01*
X291154761Y-121681285D01*
X291202380Y-121776523D01*
X291202380Y-121967000D01*
X291154761Y-122062238D01*
X291107142Y-122109857D01*
X291011904Y-122157476D01*
X290821428Y-122157476D01*
X290726190Y-122109857D01*
X290678571Y-122062238D01*
X290630952Y-121967000D01*
X290202380Y-122490809D02*
X290202380Y-123109857D01*
X290583333Y-122776523D01*
X290583333Y-122919380D01*
X290630952Y-123014619D01*
X290678571Y-123062238D01*
X290773809Y-123109857D01*
X291011904Y-123109857D01*
X291107142Y-123062238D01*
X291154761Y-123014619D01*
X291202380Y-122919380D01*
X291202380Y-122633666D01*
X291154761Y-122538428D01*
X291107142Y-122490809D01*
X315014880Y-119871761D02*
X314014880Y-119871761D01*
X314014880Y-120109857D01*
X314062500Y-120252714D01*
X314157738Y-120347952D01*
X314252976Y-120395571D01*
X314443452Y-120443190D01*
X314586309Y-120443190D01*
X314776785Y-120395571D01*
X314872023Y-120347952D01*
X314967261Y-120252714D01*
X315014880Y-120109857D01*
X315014880Y-119871761D01*
X315110119Y-120633666D02*
X315110119Y-121395571D01*
X314443452Y-121776523D02*
X314395833Y-121681285D01*
X314348214Y-121633666D01*
X314252976Y-121586047D01*
X314205357Y-121586047D01*
X314110119Y-121633666D01*
X314062500Y-121681285D01*
X314014880Y-121776523D01*
X314014880Y-121967000D01*
X314062500Y-122062238D01*
X314110119Y-122109857D01*
X314205357Y-122157476D01*
X314252976Y-122157476D01*
X314348214Y-122109857D01*
X314395833Y-122062238D01*
X314443452Y-121967000D01*
X314443452Y-121776523D01*
X314491071Y-121681285D01*
X314538690Y-121633666D01*
X314633928Y-121586047D01*
X314824404Y-121586047D01*
X314919642Y-121633666D01*
X314967261Y-121681285D01*
X315014880Y-121776523D01*
X315014880Y-121967000D01*
X314967261Y-122062238D01*
X314919642Y-122109857D01*
X314824404Y-122157476D01*
X314633928Y-122157476D01*
X314538690Y-122109857D01*
X314491071Y-122062238D01*
X314443452Y-121967000D01*
X314348214Y-123014619D02*
X315014880Y-123014619D01*
X313967261Y-122776523D02*
X314681547Y-122538428D01*
X314681547Y-123157476D01*
X334064880Y-119871761D02*
X333064880Y-119871761D01*
X333064880Y-120109857D01*
X333112500Y-120252714D01*
X333207738Y-120347952D01*
X333302976Y-120395571D01*
X333493452Y-120443190D01*
X333636309Y-120443190D01*
X333826785Y-120395571D01*
X333922023Y-120347952D01*
X334017261Y-120252714D01*
X334064880Y-120109857D01*
X334064880Y-119871761D01*
X334160119Y-120633666D02*
X334160119Y-121395571D01*
X333493452Y-121776523D02*
X333445833Y-121681285D01*
X333398214Y-121633666D01*
X333302976Y-121586047D01*
X333255357Y-121586047D01*
X333160119Y-121633666D01*
X333112500Y-121681285D01*
X333064880Y-121776523D01*
X333064880Y-121967000D01*
X333112500Y-122062238D01*
X333160119Y-122109857D01*
X333255357Y-122157476D01*
X333302976Y-122157476D01*
X333398214Y-122109857D01*
X333445833Y-122062238D01*
X333493452Y-121967000D01*
X333493452Y-121776523D01*
X333541071Y-121681285D01*
X333588690Y-121633666D01*
X333683928Y-121586047D01*
X333874404Y-121586047D01*
X333969642Y-121633666D01*
X334017261Y-121681285D01*
X334064880Y-121776523D01*
X334064880Y-121967000D01*
X334017261Y-122062238D01*
X333969642Y-122109857D01*
X333874404Y-122157476D01*
X333683928Y-122157476D01*
X333588690Y-122109857D01*
X333541071Y-122062238D01*
X333493452Y-121967000D01*
X333064880Y-123062238D02*
X333064880Y-122586047D01*
X333541071Y-122538428D01*
X333493452Y-122586047D01*
X333445833Y-122681285D01*
X333445833Y-122919380D01*
X333493452Y-123014619D01*
X333541071Y-123062238D01*
X333636309Y-123109857D01*
X333874404Y-123109857D01*
X333969642Y-123062238D01*
X334017261Y-123014619D01*
X334064880Y-122919380D01*
X334064880Y-122681285D01*
X334017261Y-122586047D01*
X333969642Y-122538428D01*
X353114880Y-119871761D02*
X352114880Y-119871761D01*
X352114880Y-120109857D01*
X352162500Y-120252714D01*
X352257738Y-120347952D01*
X352352976Y-120395571D01*
X352543452Y-120443190D01*
X352686309Y-120443190D01*
X352876785Y-120395571D01*
X352972023Y-120347952D01*
X353067261Y-120252714D01*
X353114880Y-120109857D01*
X353114880Y-119871761D01*
X353210119Y-120633666D02*
X353210119Y-121395571D01*
X352543452Y-121776523D02*
X352495833Y-121681285D01*
X352448214Y-121633666D01*
X352352976Y-121586047D01*
X352305357Y-121586047D01*
X352210119Y-121633666D01*
X352162500Y-121681285D01*
X352114880Y-121776523D01*
X352114880Y-121967000D01*
X352162500Y-122062238D01*
X352210119Y-122109857D01*
X352305357Y-122157476D01*
X352352976Y-122157476D01*
X352448214Y-122109857D01*
X352495833Y-122062238D01*
X352543452Y-121967000D01*
X352543452Y-121776523D01*
X352591071Y-121681285D01*
X352638690Y-121633666D01*
X352733928Y-121586047D01*
X352924404Y-121586047D01*
X353019642Y-121633666D01*
X353067261Y-121681285D01*
X353114880Y-121776523D01*
X353114880Y-121967000D01*
X353067261Y-122062238D01*
X353019642Y-122109857D01*
X352924404Y-122157476D01*
X352733928Y-122157476D01*
X352638690Y-122109857D01*
X352591071Y-122062238D01*
X352543452Y-121967000D01*
X352114880Y-123014619D02*
X352114880Y-122824142D01*
X352162500Y-122728904D01*
X352210119Y-122681285D01*
X352352976Y-122586047D01*
X352543452Y-122538428D01*
X352924404Y-122538428D01*
X353019642Y-122586047D01*
X353067261Y-122633666D01*
X353114880Y-122728904D01*
X353114880Y-122919380D01*
X353067261Y-123014619D01*
X353019642Y-123062238D01*
X352924404Y-123109857D01*
X352686309Y-123109857D01*
X352591071Y-123062238D01*
X352543452Y-123014619D01*
X352495833Y-122919380D01*
X352495833Y-122728904D01*
X352543452Y-122633666D01*
X352591071Y-122586047D01*
X352686309Y-122538428D01*
M02*
