G04 #@! TF.GenerationSoftware,KiCad,Pcbnew,(5.1.12)-1*
G04 #@! TF.CreationDate,2023-01-21T13:53:20-07:00*
G04 #@! TF.ProjectId,keyboard,6b657962-6f61-4726-942e-6b696361645f,rev?*
G04 #@! TF.SameCoordinates,Original*
G04 #@! TF.FileFunction,Soldermask,Bot*
G04 #@! TF.FilePolarity,Negative*
%FSLAX46Y46*%
G04 Gerber Fmt 4.6, Leading zero omitted, Abs format (unit mm)*
G04 Created by KiCad (PCBNEW (5.1.12)-1) date 2023-01-21 13:53:20*
%MOMM*%
%LPD*%
G01*
G04 APERTURE LIST*
%ADD10O,1.700000X1.700000*%
%ADD11R,1.700000X1.700000*%
%ADD12C,2.200000*%
%ADD13C,1.524000*%
%ADD14C,1.750000*%
%ADD15C,2.250000*%
%ADD16C,3.987800*%
%ADD17C,3.048000*%
%ADD18O,1.050000X1.450000*%
%ADD19O,1.300000X1.800000*%
%ADD20R,1.200000X0.900000*%
G04 APERTURE END LIST*
D10*
X165989000Y-6096000D03*
X165989000Y-8636000D03*
X165989000Y-11176000D03*
D11*
X165989000Y-13716000D03*
D10*
X224663000Y-3175000D03*
X222123000Y-3175000D03*
X219583000Y-3175000D03*
X217043000Y-3175000D03*
X214503000Y-3175000D03*
X211963000Y-3175000D03*
D11*
X209423000Y-3175000D03*
G36*
G01*
X256731000Y-8463500D02*
X256731000Y-8808500D01*
G75*
G02*
X256583500Y-8956000I-147500J0D01*
G01*
X256288500Y-8956000D01*
G75*
G02*
X256141000Y-8808500I0J147500D01*
G01*
X256141000Y-8463500D01*
G75*
G02*
X256288500Y-8316000I147500J0D01*
G01*
X256583500Y-8316000D01*
G75*
G02*
X256731000Y-8463500I0J-147500D01*
G01*
G37*
G36*
G01*
X257701000Y-8463500D02*
X257701000Y-8808500D01*
G75*
G02*
X257553500Y-8956000I-147500J0D01*
G01*
X257258500Y-8956000D01*
G75*
G02*
X257111000Y-8808500I0J147500D01*
G01*
X257111000Y-8463500D01*
G75*
G02*
X257258500Y-8316000I147500J0D01*
G01*
X257553500Y-8316000D01*
G75*
G02*
X257701000Y-8463500I0J-147500D01*
G01*
G37*
G36*
G01*
X290531000Y-3005000D02*
X290531000Y-3345000D01*
G75*
G02*
X290391000Y-3485000I-140000J0D01*
G01*
X290111000Y-3485000D01*
G75*
G02*
X289971000Y-3345000I0J140000D01*
G01*
X289971000Y-3005000D01*
G75*
G02*
X290111000Y-2865000I140000J0D01*
G01*
X290391000Y-2865000D01*
G75*
G02*
X290531000Y-3005000I0J-140000D01*
G01*
G37*
G36*
G01*
X291491000Y-3005000D02*
X291491000Y-3345000D01*
G75*
G02*
X291351000Y-3485000I-140000J0D01*
G01*
X291071000Y-3485000D01*
G75*
G02*
X290931000Y-3345000I0J140000D01*
G01*
X290931000Y-3005000D01*
G75*
G02*
X291071000Y-2865000I140000J0D01*
G01*
X291351000Y-2865000D01*
G75*
G02*
X291491000Y-3005000I0J-140000D01*
G01*
G37*
D12*
X181718000Y-5500000D03*
X195218000Y-5500000D03*
X188468000Y-4700000D03*
D13*
X191868000Y-11000000D03*
X189368000Y-11000000D03*
X187568000Y-11000000D03*
X185068000Y-11000000D03*
X191868000Y-8500000D03*
X189368000Y-8500000D03*
X187568000Y-8500000D03*
X185068000Y-8500000D03*
D14*
X51942500Y-82867000D03*
X41782500Y-82867000D03*
D15*
X44362500Y-78867000D03*
D16*
X46862500Y-82867000D03*
G36*
G01*
X42301188Y-81164350D02*
X42301183Y-81164345D01*
G75*
G02*
X42215155Y-79575683I751317J837345D01*
G01*
X43525157Y-78115683D01*
G75*
G02*
X45113819Y-78029655I837345J-751317D01*
G01*
X45113819Y-78029655D01*
G75*
G02*
X45199847Y-79618317I-751317J-837345D01*
G01*
X43889845Y-81078317D01*
G75*
G02*
X42301183Y-81164345I-837345J751317D01*
G01*
G37*
D15*
X49402500Y-77787000D03*
G36*
G01*
X49285983Y-79489395D02*
X49285097Y-79489334D01*
G75*
G02*
X48240166Y-78289597I77403J1122334D01*
G01*
X48280166Y-77709597D01*
G75*
G02*
X49479903Y-76664666I1122334J-77403D01*
G01*
X49479903Y-76664666D01*
G75*
G02*
X50524834Y-77864403I-77403J-1122334D01*
G01*
X50484834Y-78444403D01*
G75*
G02*
X49285097Y-79489334I-1122334J77403D01*
G01*
G37*
D16*
X184968650Y-129222000D03*
X84968850Y-129222000D03*
D17*
X184968650Y-113982000D03*
X84968850Y-113982000D03*
D14*
X140048750Y-120967000D03*
X129888750Y-120967000D03*
D15*
X132468750Y-116967000D03*
D16*
X134968750Y-120967000D03*
G36*
G01*
X130407438Y-119264350D02*
X130407433Y-119264345D01*
G75*
G02*
X130321405Y-117675683I751317J837345D01*
G01*
X131631407Y-116215683D01*
G75*
G02*
X133220069Y-116129655I837345J-751317D01*
G01*
X133220069Y-116129655D01*
G75*
G02*
X133306097Y-117718317I-751317J-837345D01*
G01*
X131996095Y-119178317D01*
G75*
G02*
X130407433Y-119264345I-837345J751317D01*
G01*
G37*
D15*
X137508750Y-115887000D03*
G36*
G01*
X137392233Y-117589395D02*
X137391347Y-117589334D01*
G75*
G02*
X136346416Y-116389597I77403J1122334D01*
G01*
X136386416Y-115809597D01*
G75*
G02*
X137586153Y-114764666I1122334J-77403D01*
G01*
X137586153Y-114764666D01*
G75*
G02*
X138631084Y-115964403I-77403J-1122334D01*
G01*
X138591084Y-116544403D01*
G75*
G02*
X137391347Y-117589334I-1122334J77403D01*
G01*
G37*
D14*
X259111250Y-120967000D03*
X248951250Y-120967000D03*
D15*
X251531250Y-116967000D03*
D16*
X254031250Y-120967000D03*
G36*
G01*
X249469938Y-119264350D02*
X249469933Y-119264345D01*
G75*
G02*
X249383905Y-117675683I751317J837345D01*
G01*
X250693907Y-116215683D01*
G75*
G02*
X252282569Y-116129655I837345J-751317D01*
G01*
X252282569Y-116129655D01*
G75*
G02*
X252368597Y-117718317I-751317J-837345D01*
G01*
X251058595Y-119178317D01*
G75*
G02*
X249469933Y-119264345I-837345J751317D01*
G01*
G37*
D15*
X256571250Y-115887000D03*
G36*
G01*
X256454733Y-117589395D02*
X256453847Y-117589334D01*
G75*
G02*
X255408916Y-116389597I77403J1122334D01*
G01*
X255448916Y-115809597D01*
G75*
G02*
X256648653Y-114764666I1122334J-77403D01*
G01*
X256648653Y-114764666D01*
G75*
G02*
X257693584Y-115964403I-77403J-1122334D01*
G01*
X257653584Y-116544403D01*
G75*
G02*
X256453847Y-117589334I-1122334J77403D01*
G01*
G37*
D14*
X18605000Y-25717000D03*
X8445000Y-25717000D03*
D15*
X11025000Y-21717000D03*
D16*
X13525000Y-25717000D03*
G36*
G01*
X8963688Y-24014350D02*
X8963683Y-24014345D01*
G75*
G02*
X8877655Y-22425683I751317J837345D01*
G01*
X10187657Y-20965683D01*
G75*
G02*
X11776319Y-20879655I837345J-751317D01*
G01*
X11776319Y-20879655D01*
G75*
G02*
X11862347Y-22468317I-751317J-837345D01*
G01*
X10552345Y-23928317D01*
G75*
G02*
X8963683Y-24014345I-837345J751317D01*
G01*
G37*
D15*
X16065000Y-20637000D03*
G36*
G01*
X15948483Y-22339395D02*
X15947597Y-22339334D01*
G75*
G02*
X14902666Y-21139597I77403J1122334D01*
G01*
X14942666Y-20559597D01*
G75*
G02*
X16142403Y-19514666I1122334J-77403D01*
G01*
X16142403Y-19514666D01*
G75*
G02*
X17187334Y-20714403I-77403J-1122334D01*
G01*
X17147334Y-21294403D01*
G75*
G02*
X15947597Y-22339334I-1122334J77403D01*
G01*
G37*
D14*
X56705000Y-25717000D03*
X46545000Y-25717000D03*
D15*
X49125000Y-21717000D03*
D16*
X51625000Y-25717000D03*
G36*
G01*
X47063688Y-24014350D02*
X47063683Y-24014345D01*
G75*
G02*
X46977655Y-22425683I751317J837345D01*
G01*
X48287657Y-20965683D01*
G75*
G02*
X49876319Y-20879655I837345J-751317D01*
G01*
X49876319Y-20879655D01*
G75*
G02*
X49962347Y-22468317I-751317J-837345D01*
G01*
X48652345Y-23928317D01*
G75*
G02*
X47063683Y-24014345I-837345J751317D01*
G01*
G37*
D15*
X54165000Y-20637000D03*
G36*
G01*
X54048483Y-22339395D02*
X54047597Y-22339334D01*
G75*
G02*
X53002666Y-21139597I77403J1122334D01*
G01*
X53042666Y-20559597D01*
G75*
G02*
X54242403Y-19514666I1122334J-77403D01*
G01*
X54242403Y-19514666D01*
G75*
G02*
X55287334Y-20714403I-77403J-1122334D01*
G01*
X55247334Y-21294403D01*
G75*
G02*
X54047597Y-22339334I-1122334J77403D01*
G01*
G37*
D14*
X75755000Y-25717000D03*
X65595000Y-25717000D03*
D15*
X68175000Y-21717000D03*
D16*
X70675000Y-25717000D03*
G36*
G01*
X66113688Y-24014350D02*
X66113683Y-24014345D01*
G75*
G02*
X66027655Y-22425683I751317J837345D01*
G01*
X67337657Y-20965683D01*
G75*
G02*
X68926319Y-20879655I837345J-751317D01*
G01*
X68926319Y-20879655D01*
G75*
G02*
X69012347Y-22468317I-751317J-837345D01*
G01*
X67702345Y-23928317D01*
G75*
G02*
X66113683Y-24014345I-837345J751317D01*
G01*
G37*
D15*
X73215000Y-20637000D03*
G36*
G01*
X73098483Y-22339395D02*
X73097597Y-22339334D01*
G75*
G02*
X72052666Y-21139597I77403J1122334D01*
G01*
X72092666Y-20559597D01*
G75*
G02*
X73292403Y-19514666I1122334J-77403D01*
G01*
X73292403Y-19514666D01*
G75*
G02*
X74337334Y-20714403I-77403J-1122334D01*
G01*
X74297334Y-21294403D01*
G75*
G02*
X73097597Y-22339334I-1122334J77403D01*
G01*
G37*
D14*
X94805000Y-25717000D03*
X84645000Y-25717000D03*
D15*
X87225000Y-21717000D03*
D16*
X89725000Y-25717000D03*
G36*
G01*
X85163688Y-24014350D02*
X85163683Y-24014345D01*
G75*
G02*
X85077655Y-22425683I751317J837345D01*
G01*
X86387657Y-20965683D01*
G75*
G02*
X87976319Y-20879655I837345J-751317D01*
G01*
X87976319Y-20879655D01*
G75*
G02*
X88062347Y-22468317I-751317J-837345D01*
G01*
X86752345Y-23928317D01*
G75*
G02*
X85163683Y-24014345I-837345J751317D01*
G01*
G37*
D15*
X92265000Y-20637000D03*
G36*
G01*
X92148483Y-22339395D02*
X92147597Y-22339334D01*
G75*
G02*
X91102666Y-21139597I77403J1122334D01*
G01*
X91142666Y-20559597D01*
G75*
G02*
X92342403Y-19514666I1122334J-77403D01*
G01*
X92342403Y-19514666D01*
G75*
G02*
X93387334Y-20714403I-77403J-1122334D01*
G01*
X93347334Y-21294403D01*
G75*
G02*
X92147597Y-22339334I-1122334J77403D01*
G01*
G37*
D14*
X113855000Y-25717000D03*
X103695000Y-25717000D03*
D15*
X106275000Y-21717000D03*
D16*
X108775000Y-25717000D03*
G36*
G01*
X104213688Y-24014350D02*
X104213683Y-24014345D01*
G75*
G02*
X104127655Y-22425683I751317J837345D01*
G01*
X105437657Y-20965683D01*
G75*
G02*
X107026319Y-20879655I837345J-751317D01*
G01*
X107026319Y-20879655D01*
G75*
G02*
X107112347Y-22468317I-751317J-837345D01*
G01*
X105802345Y-23928317D01*
G75*
G02*
X104213683Y-24014345I-837345J751317D01*
G01*
G37*
D15*
X111315000Y-20637000D03*
G36*
G01*
X111198483Y-22339395D02*
X111197597Y-22339334D01*
G75*
G02*
X110152666Y-21139597I77403J1122334D01*
G01*
X110192666Y-20559597D01*
G75*
G02*
X111392403Y-19514666I1122334J-77403D01*
G01*
X111392403Y-19514666D01*
G75*
G02*
X112437334Y-20714403I-77403J-1122334D01*
G01*
X112397334Y-21294403D01*
G75*
G02*
X111197597Y-22339334I-1122334J77403D01*
G01*
G37*
D14*
X142430000Y-25717000D03*
X132270000Y-25717000D03*
D15*
X134850000Y-21717000D03*
D16*
X137350000Y-25717000D03*
G36*
G01*
X132788688Y-24014350D02*
X132788683Y-24014345D01*
G75*
G02*
X132702655Y-22425683I751317J837345D01*
G01*
X134012657Y-20965683D01*
G75*
G02*
X135601319Y-20879655I837345J-751317D01*
G01*
X135601319Y-20879655D01*
G75*
G02*
X135687347Y-22468317I-751317J-837345D01*
G01*
X134377345Y-23928317D01*
G75*
G02*
X132788683Y-24014345I-837345J751317D01*
G01*
G37*
D15*
X139890000Y-20637000D03*
G36*
G01*
X139773483Y-22339395D02*
X139772597Y-22339334D01*
G75*
G02*
X138727666Y-21139597I77403J1122334D01*
G01*
X138767666Y-20559597D01*
G75*
G02*
X139967403Y-19514666I1122334J-77403D01*
G01*
X139967403Y-19514666D01*
G75*
G02*
X141012334Y-20714403I-77403J-1122334D01*
G01*
X140972334Y-21294403D01*
G75*
G02*
X139772597Y-22339334I-1122334J77403D01*
G01*
G37*
D14*
X161480000Y-25717000D03*
X151320000Y-25717000D03*
D15*
X153900000Y-21717000D03*
D16*
X156400000Y-25717000D03*
G36*
G01*
X151838688Y-24014350D02*
X151838683Y-24014345D01*
G75*
G02*
X151752655Y-22425683I751317J837345D01*
G01*
X153062657Y-20965683D01*
G75*
G02*
X154651319Y-20879655I837345J-751317D01*
G01*
X154651319Y-20879655D01*
G75*
G02*
X154737347Y-22468317I-751317J-837345D01*
G01*
X153427345Y-23928317D01*
G75*
G02*
X151838683Y-24014345I-837345J751317D01*
G01*
G37*
D15*
X158940000Y-20637000D03*
G36*
G01*
X158823483Y-22339395D02*
X158822597Y-22339334D01*
G75*
G02*
X157777666Y-21139597I77403J1122334D01*
G01*
X157817666Y-20559597D01*
G75*
G02*
X159017403Y-19514666I1122334J-77403D01*
G01*
X159017403Y-19514666D01*
G75*
G02*
X160062334Y-20714403I-77403J-1122334D01*
G01*
X160022334Y-21294403D01*
G75*
G02*
X158822597Y-22339334I-1122334J77403D01*
G01*
G37*
D14*
X180530000Y-25717000D03*
X170370000Y-25717000D03*
D15*
X172950000Y-21717000D03*
D16*
X175450000Y-25717000D03*
G36*
G01*
X170888688Y-24014350D02*
X170888683Y-24014345D01*
G75*
G02*
X170802655Y-22425683I751317J837345D01*
G01*
X172112657Y-20965683D01*
G75*
G02*
X173701319Y-20879655I837345J-751317D01*
G01*
X173701319Y-20879655D01*
G75*
G02*
X173787347Y-22468317I-751317J-837345D01*
G01*
X172477345Y-23928317D01*
G75*
G02*
X170888683Y-24014345I-837345J751317D01*
G01*
G37*
D15*
X177990000Y-20637000D03*
G36*
G01*
X177873483Y-22339395D02*
X177872597Y-22339334D01*
G75*
G02*
X176827666Y-21139597I77403J1122334D01*
G01*
X176867666Y-20559597D01*
G75*
G02*
X178067403Y-19514666I1122334J-77403D01*
G01*
X178067403Y-19514666D01*
G75*
G02*
X179112334Y-20714403I-77403J-1122334D01*
G01*
X179072334Y-21294403D01*
G75*
G02*
X177872597Y-22339334I-1122334J77403D01*
G01*
G37*
D14*
X199580000Y-25717000D03*
X189420000Y-25717000D03*
D15*
X192000000Y-21717000D03*
D16*
X194500000Y-25717000D03*
G36*
G01*
X189938688Y-24014350D02*
X189938683Y-24014345D01*
G75*
G02*
X189852655Y-22425683I751317J837345D01*
G01*
X191162657Y-20965683D01*
G75*
G02*
X192751319Y-20879655I837345J-751317D01*
G01*
X192751319Y-20879655D01*
G75*
G02*
X192837347Y-22468317I-751317J-837345D01*
G01*
X191527345Y-23928317D01*
G75*
G02*
X189938683Y-24014345I-837345J751317D01*
G01*
G37*
D15*
X197040000Y-20637000D03*
G36*
G01*
X196923483Y-22339395D02*
X196922597Y-22339334D01*
G75*
G02*
X195877666Y-21139597I77403J1122334D01*
G01*
X195917666Y-20559597D01*
G75*
G02*
X197117403Y-19514666I1122334J-77403D01*
G01*
X197117403Y-19514666D01*
G75*
G02*
X198162334Y-20714403I-77403J-1122334D01*
G01*
X198122334Y-21294403D01*
G75*
G02*
X196922597Y-22339334I-1122334J77403D01*
G01*
G37*
D14*
X228155000Y-25717000D03*
X217995000Y-25717000D03*
D15*
X220575000Y-21717000D03*
D16*
X223075000Y-25717000D03*
G36*
G01*
X218513688Y-24014350D02*
X218513683Y-24014345D01*
G75*
G02*
X218427655Y-22425683I751317J837345D01*
G01*
X219737657Y-20965683D01*
G75*
G02*
X221326319Y-20879655I837345J-751317D01*
G01*
X221326319Y-20879655D01*
G75*
G02*
X221412347Y-22468317I-751317J-837345D01*
G01*
X220102345Y-23928317D01*
G75*
G02*
X218513683Y-24014345I-837345J751317D01*
G01*
G37*
D15*
X225615000Y-20637000D03*
G36*
G01*
X225498483Y-22339395D02*
X225497597Y-22339334D01*
G75*
G02*
X224452666Y-21139597I77403J1122334D01*
G01*
X224492666Y-20559597D01*
G75*
G02*
X225692403Y-19514666I1122334J-77403D01*
G01*
X225692403Y-19514666D01*
G75*
G02*
X226737334Y-20714403I-77403J-1122334D01*
G01*
X226697334Y-21294403D01*
G75*
G02*
X225497597Y-22339334I-1122334J77403D01*
G01*
G37*
D14*
X247205000Y-25717000D03*
X237045000Y-25717000D03*
D15*
X239625000Y-21717000D03*
D16*
X242125000Y-25717000D03*
G36*
G01*
X237563688Y-24014350D02*
X237563683Y-24014345D01*
G75*
G02*
X237477655Y-22425683I751317J837345D01*
G01*
X238787657Y-20965683D01*
G75*
G02*
X240376319Y-20879655I837345J-751317D01*
G01*
X240376319Y-20879655D01*
G75*
G02*
X240462347Y-22468317I-751317J-837345D01*
G01*
X239152345Y-23928317D01*
G75*
G02*
X237563683Y-24014345I-837345J751317D01*
G01*
G37*
D15*
X244665000Y-20637000D03*
G36*
G01*
X244548483Y-22339395D02*
X244547597Y-22339334D01*
G75*
G02*
X243502666Y-21139597I77403J1122334D01*
G01*
X243542666Y-20559597D01*
G75*
G02*
X244742403Y-19514666I1122334J-77403D01*
G01*
X244742403Y-19514666D01*
G75*
G02*
X245787334Y-20714403I-77403J-1122334D01*
G01*
X245747334Y-21294403D01*
G75*
G02*
X244547597Y-22339334I-1122334J77403D01*
G01*
G37*
D14*
X266255000Y-25717000D03*
X256095000Y-25717000D03*
D15*
X258675000Y-21717000D03*
D16*
X261175000Y-25717000D03*
G36*
G01*
X256613688Y-24014350D02*
X256613683Y-24014345D01*
G75*
G02*
X256527655Y-22425683I751317J837345D01*
G01*
X257837657Y-20965683D01*
G75*
G02*
X259426319Y-20879655I837345J-751317D01*
G01*
X259426319Y-20879655D01*
G75*
G02*
X259512347Y-22468317I-751317J-837345D01*
G01*
X258202345Y-23928317D01*
G75*
G02*
X256613683Y-24014345I-837345J751317D01*
G01*
G37*
D15*
X263715000Y-20637000D03*
G36*
G01*
X263598483Y-22339395D02*
X263597597Y-22339334D01*
G75*
G02*
X262552666Y-21139597I77403J1122334D01*
G01*
X262592666Y-20559597D01*
G75*
G02*
X263792403Y-19514666I1122334J-77403D01*
G01*
X263792403Y-19514666D01*
G75*
G02*
X264837334Y-20714403I-77403J-1122334D01*
G01*
X264797334Y-21294403D01*
G75*
G02*
X263597597Y-22339334I-1122334J77403D01*
G01*
G37*
D14*
X285305000Y-25717000D03*
X275145000Y-25717000D03*
D15*
X277725000Y-21717000D03*
D16*
X280225000Y-25717000D03*
G36*
G01*
X275663688Y-24014350D02*
X275663683Y-24014345D01*
G75*
G02*
X275577655Y-22425683I751317J837345D01*
G01*
X276887657Y-20965683D01*
G75*
G02*
X278476319Y-20879655I837345J-751317D01*
G01*
X278476319Y-20879655D01*
G75*
G02*
X278562347Y-22468317I-751317J-837345D01*
G01*
X277252345Y-23928317D01*
G75*
G02*
X275663683Y-24014345I-837345J751317D01*
G01*
G37*
D15*
X282765000Y-20637000D03*
G36*
G01*
X282648483Y-22339395D02*
X282647597Y-22339334D01*
G75*
G02*
X281602666Y-21139597I77403J1122334D01*
G01*
X281642666Y-20559597D01*
G75*
G02*
X282842403Y-19514666I1122334J-77403D01*
G01*
X282842403Y-19514666D01*
G75*
G02*
X283887334Y-20714403I-77403J-1122334D01*
G01*
X283847334Y-21294403D01*
G75*
G02*
X282647597Y-22339334I-1122334J77403D01*
G01*
G37*
D14*
X309117500Y-25717000D03*
X298957500Y-25717000D03*
D15*
X301537500Y-21717000D03*
D16*
X304037500Y-25717000D03*
G36*
G01*
X299476188Y-24014350D02*
X299476183Y-24014345D01*
G75*
G02*
X299390155Y-22425683I751317J837345D01*
G01*
X300700157Y-20965683D01*
G75*
G02*
X302288819Y-20879655I837345J-751317D01*
G01*
X302288819Y-20879655D01*
G75*
G02*
X302374847Y-22468317I-751317J-837345D01*
G01*
X301064845Y-23928317D01*
G75*
G02*
X299476183Y-24014345I-837345J751317D01*
G01*
G37*
D15*
X306577500Y-20637000D03*
G36*
G01*
X306460983Y-22339395D02*
X306460097Y-22339334D01*
G75*
G02*
X305415166Y-21139597I77403J1122334D01*
G01*
X305455166Y-20559597D01*
G75*
G02*
X306654903Y-19514666I1122334J-77403D01*
G01*
X306654903Y-19514666D01*
G75*
G02*
X307699834Y-20714403I-77403J-1122334D01*
G01*
X307659834Y-21294403D01*
G75*
G02*
X306460097Y-22339334I-1122334J77403D01*
G01*
G37*
D14*
X328167500Y-25717000D03*
X318007500Y-25717000D03*
D15*
X320587500Y-21717000D03*
D16*
X323087500Y-25717000D03*
G36*
G01*
X318526188Y-24014350D02*
X318526183Y-24014345D01*
G75*
G02*
X318440155Y-22425683I751317J837345D01*
G01*
X319750157Y-20965683D01*
G75*
G02*
X321338819Y-20879655I837345J-751317D01*
G01*
X321338819Y-20879655D01*
G75*
G02*
X321424847Y-22468317I-751317J-837345D01*
G01*
X320114845Y-23928317D01*
G75*
G02*
X318526183Y-24014345I-837345J751317D01*
G01*
G37*
D15*
X325627500Y-20637000D03*
G36*
G01*
X325510983Y-22339395D02*
X325510097Y-22339334D01*
G75*
G02*
X324465166Y-21139597I77403J1122334D01*
G01*
X324505166Y-20559597D01*
G75*
G02*
X325704903Y-19514666I1122334J-77403D01*
G01*
X325704903Y-19514666D01*
G75*
G02*
X326749834Y-20714403I-77403J-1122334D01*
G01*
X326709834Y-21294403D01*
G75*
G02*
X325510097Y-22339334I-1122334J77403D01*
G01*
G37*
D14*
X347217500Y-25717000D03*
X337057500Y-25717000D03*
D15*
X339637500Y-21717000D03*
D16*
X342137500Y-25717000D03*
G36*
G01*
X337576188Y-24014350D02*
X337576183Y-24014345D01*
G75*
G02*
X337490155Y-22425683I751317J837345D01*
G01*
X338800157Y-20965683D01*
G75*
G02*
X340388819Y-20879655I837345J-751317D01*
G01*
X340388819Y-20879655D01*
G75*
G02*
X340474847Y-22468317I-751317J-837345D01*
G01*
X339164845Y-23928317D01*
G75*
G02*
X337576183Y-24014345I-837345J751317D01*
G01*
G37*
D15*
X344677500Y-20637000D03*
G36*
G01*
X344560983Y-22339395D02*
X344560097Y-22339334D01*
G75*
G02*
X343515166Y-21139597I77403J1122334D01*
G01*
X343555166Y-20559597D01*
G75*
G02*
X344754903Y-19514666I1122334J-77403D01*
G01*
X344754903Y-19514666D01*
G75*
G02*
X345799834Y-20714403I-77403J-1122334D01*
G01*
X345759834Y-21294403D01*
G75*
G02*
X344560097Y-22339334I-1122334J77403D01*
G01*
G37*
D14*
X18605000Y-44767000D03*
X8445000Y-44767000D03*
D15*
X11025000Y-40767000D03*
D16*
X13525000Y-44767000D03*
G36*
G01*
X8963688Y-43064350D02*
X8963683Y-43064345D01*
G75*
G02*
X8877655Y-41475683I751317J837345D01*
G01*
X10187657Y-40015683D01*
G75*
G02*
X11776319Y-39929655I837345J-751317D01*
G01*
X11776319Y-39929655D01*
G75*
G02*
X11862347Y-41518317I-751317J-837345D01*
G01*
X10552345Y-42978317D01*
G75*
G02*
X8963683Y-43064345I-837345J751317D01*
G01*
G37*
D15*
X16065000Y-39687000D03*
G36*
G01*
X15948483Y-41389395D02*
X15947597Y-41389334D01*
G75*
G02*
X14902666Y-40189597I77403J1122334D01*
G01*
X14942666Y-39609597D01*
G75*
G02*
X16142403Y-38564666I1122334J-77403D01*
G01*
X16142403Y-38564666D01*
G75*
G02*
X17187334Y-39764403I-77403J-1122334D01*
G01*
X17147334Y-40344403D01*
G75*
G02*
X15947597Y-41389334I-1122334J77403D01*
G01*
G37*
D14*
X37655000Y-44767000D03*
X27495000Y-44767000D03*
D15*
X30075000Y-40767000D03*
D16*
X32575000Y-44767000D03*
G36*
G01*
X28013688Y-43064350D02*
X28013683Y-43064345D01*
G75*
G02*
X27927655Y-41475683I751317J837345D01*
G01*
X29237657Y-40015683D01*
G75*
G02*
X30826319Y-39929655I837345J-751317D01*
G01*
X30826319Y-39929655D01*
G75*
G02*
X30912347Y-41518317I-751317J-837345D01*
G01*
X29602345Y-42978317D01*
G75*
G02*
X28013683Y-43064345I-837345J751317D01*
G01*
G37*
D15*
X35115000Y-39687000D03*
G36*
G01*
X34998483Y-41389395D02*
X34997597Y-41389334D01*
G75*
G02*
X33952666Y-40189597I77403J1122334D01*
G01*
X33992666Y-39609597D01*
G75*
G02*
X35192403Y-38564666I1122334J-77403D01*
G01*
X35192403Y-38564666D01*
G75*
G02*
X36237334Y-39764403I-77403J-1122334D01*
G01*
X36197334Y-40344403D01*
G75*
G02*
X34997597Y-41389334I-1122334J77403D01*
G01*
G37*
D14*
X56705000Y-44767000D03*
X46545000Y-44767000D03*
D15*
X49125000Y-40767000D03*
D16*
X51625000Y-44767000D03*
G36*
G01*
X47063688Y-43064350D02*
X47063683Y-43064345D01*
G75*
G02*
X46977655Y-41475683I751317J837345D01*
G01*
X48287657Y-40015683D01*
G75*
G02*
X49876319Y-39929655I837345J-751317D01*
G01*
X49876319Y-39929655D01*
G75*
G02*
X49962347Y-41518317I-751317J-837345D01*
G01*
X48652345Y-42978317D01*
G75*
G02*
X47063683Y-43064345I-837345J751317D01*
G01*
G37*
D15*
X54165000Y-39687000D03*
G36*
G01*
X54048483Y-41389395D02*
X54047597Y-41389334D01*
G75*
G02*
X53002666Y-40189597I77403J1122334D01*
G01*
X53042666Y-39609597D01*
G75*
G02*
X54242403Y-38564666I1122334J-77403D01*
G01*
X54242403Y-38564666D01*
G75*
G02*
X55287334Y-39764403I-77403J-1122334D01*
G01*
X55247334Y-40344403D01*
G75*
G02*
X54047597Y-41389334I-1122334J77403D01*
G01*
G37*
D14*
X75755000Y-44767000D03*
X65595000Y-44767000D03*
D15*
X68175000Y-40767000D03*
D16*
X70675000Y-44767000D03*
G36*
G01*
X66113688Y-43064350D02*
X66113683Y-43064345D01*
G75*
G02*
X66027655Y-41475683I751317J837345D01*
G01*
X67337657Y-40015683D01*
G75*
G02*
X68926319Y-39929655I837345J-751317D01*
G01*
X68926319Y-39929655D01*
G75*
G02*
X69012347Y-41518317I-751317J-837345D01*
G01*
X67702345Y-42978317D01*
G75*
G02*
X66113683Y-43064345I-837345J751317D01*
G01*
G37*
D15*
X73215000Y-39687000D03*
G36*
G01*
X73098483Y-41389395D02*
X73097597Y-41389334D01*
G75*
G02*
X72052666Y-40189597I77403J1122334D01*
G01*
X72092666Y-39609597D01*
G75*
G02*
X73292403Y-38564666I1122334J-77403D01*
G01*
X73292403Y-38564666D01*
G75*
G02*
X74337334Y-39764403I-77403J-1122334D01*
G01*
X74297334Y-40344403D01*
G75*
G02*
X73097597Y-41389334I-1122334J77403D01*
G01*
G37*
D14*
X94805000Y-44767000D03*
X84645000Y-44767000D03*
D15*
X87225000Y-40767000D03*
D16*
X89725000Y-44767000D03*
G36*
G01*
X85163688Y-43064350D02*
X85163683Y-43064345D01*
G75*
G02*
X85077655Y-41475683I751317J837345D01*
G01*
X86387657Y-40015683D01*
G75*
G02*
X87976319Y-39929655I837345J-751317D01*
G01*
X87976319Y-39929655D01*
G75*
G02*
X88062347Y-41518317I-751317J-837345D01*
G01*
X86752345Y-42978317D01*
G75*
G02*
X85163683Y-43064345I-837345J751317D01*
G01*
G37*
D15*
X92265000Y-39687000D03*
G36*
G01*
X92148483Y-41389395D02*
X92147597Y-41389334D01*
G75*
G02*
X91102666Y-40189597I77403J1122334D01*
G01*
X91142666Y-39609597D01*
G75*
G02*
X92342403Y-38564666I1122334J-77403D01*
G01*
X92342403Y-38564666D01*
G75*
G02*
X93387334Y-39764403I-77403J-1122334D01*
G01*
X93347334Y-40344403D01*
G75*
G02*
X92147597Y-41389334I-1122334J77403D01*
G01*
G37*
D14*
X113855000Y-44767000D03*
X103695000Y-44767000D03*
D15*
X106275000Y-40767000D03*
D16*
X108775000Y-44767000D03*
G36*
G01*
X104213688Y-43064350D02*
X104213683Y-43064345D01*
G75*
G02*
X104127655Y-41475683I751317J837345D01*
G01*
X105437657Y-40015683D01*
G75*
G02*
X107026319Y-39929655I837345J-751317D01*
G01*
X107026319Y-39929655D01*
G75*
G02*
X107112347Y-41518317I-751317J-837345D01*
G01*
X105802345Y-42978317D01*
G75*
G02*
X104213683Y-43064345I-837345J751317D01*
G01*
G37*
D15*
X111315000Y-39687000D03*
G36*
G01*
X111198483Y-41389395D02*
X111197597Y-41389334D01*
G75*
G02*
X110152666Y-40189597I77403J1122334D01*
G01*
X110192666Y-39609597D01*
G75*
G02*
X111392403Y-38564666I1122334J-77403D01*
G01*
X111392403Y-38564666D01*
G75*
G02*
X112437334Y-39764403I-77403J-1122334D01*
G01*
X112397334Y-40344403D01*
G75*
G02*
X111197597Y-41389334I-1122334J77403D01*
G01*
G37*
D14*
X132905000Y-44767000D03*
X122745000Y-44767000D03*
D15*
X125325000Y-40767000D03*
D16*
X127825000Y-44767000D03*
G36*
G01*
X123263688Y-43064350D02*
X123263683Y-43064345D01*
G75*
G02*
X123177655Y-41475683I751317J837345D01*
G01*
X124487657Y-40015683D01*
G75*
G02*
X126076319Y-39929655I837345J-751317D01*
G01*
X126076319Y-39929655D01*
G75*
G02*
X126162347Y-41518317I-751317J-837345D01*
G01*
X124852345Y-42978317D01*
G75*
G02*
X123263683Y-43064345I-837345J751317D01*
G01*
G37*
D15*
X130365000Y-39687000D03*
G36*
G01*
X130248483Y-41389395D02*
X130247597Y-41389334D01*
G75*
G02*
X129202666Y-40189597I77403J1122334D01*
G01*
X129242666Y-39609597D01*
G75*
G02*
X130442403Y-38564666I1122334J-77403D01*
G01*
X130442403Y-38564666D01*
G75*
G02*
X131487334Y-39764403I-77403J-1122334D01*
G01*
X131447334Y-40344403D01*
G75*
G02*
X130247597Y-41389334I-1122334J77403D01*
G01*
G37*
D14*
X151955000Y-44767000D03*
X141795000Y-44767000D03*
D15*
X144375000Y-40767000D03*
D16*
X146875000Y-44767000D03*
G36*
G01*
X142313688Y-43064350D02*
X142313683Y-43064345D01*
G75*
G02*
X142227655Y-41475683I751317J837345D01*
G01*
X143537657Y-40015683D01*
G75*
G02*
X145126319Y-39929655I837345J-751317D01*
G01*
X145126319Y-39929655D01*
G75*
G02*
X145212347Y-41518317I-751317J-837345D01*
G01*
X143902345Y-42978317D01*
G75*
G02*
X142313683Y-43064345I-837345J751317D01*
G01*
G37*
D15*
X149415000Y-39687000D03*
G36*
G01*
X149298483Y-41389395D02*
X149297597Y-41389334D01*
G75*
G02*
X148252666Y-40189597I77403J1122334D01*
G01*
X148292666Y-39609597D01*
G75*
G02*
X149492403Y-38564666I1122334J-77403D01*
G01*
X149492403Y-38564666D01*
G75*
G02*
X150537334Y-39764403I-77403J-1122334D01*
G01*
X150497334Y-40344403D01*
G75*
G02*
X149297597Y-41389334I-1122334J77403D01*
G01*
G37*
D14*
X171005000Y-44767000D03*
X160845000Y-44767000D03*
D15*
X163425000Y-40767000D03*
D16*
X165925000Y-44767000D03*
G36*
G01*
X161363688Y-43064350D02*
X161363683Y-43064345D01*
G75*
G02*
X161277655Y-41475683I751317J837345D01*
G01*
X162587657Y-40015683D01*
G75*
G02*
X164176319Y-39929655I837345J-751317D01*
G01*
X164176319Y-39929655D01*
G75*
G02*
X164262347Y-41518317I-751317J-837345D01*
G01*
X162952345Y-42978317D01*
G75*
G02*
X161363683Y-43064345I-837345J751317D01*
G01*
G37*
D15*
X168465000Y-39687000D03*
G36*
G01*
X168348483Y-41389395D02*
X168347597Y-41389334D01*
G75*
G02*
X167302666Y-40189597I77403J1122334D01*
G01*
X167342666Y-39609597D01*
G75*
G02*
X168542403Y-38564666I1122334J-77403D01*
G01*
X168542403Y-38564666D01*
G75*
G02*
X169587334Y-39764403I-77403J-1122334D01*
G01*
X169547334Y-40344403D01*
G75*
G02*
X168347597Y-41389334I-1122334J77403D01*
G01*
G37*
D14*
X190055000Y-44767000D03*
X179895000Y-44767000D03*
D15*
X182475000Y-40767000D03*
D16*
X184975000Y-44767000D03*
G36*
G01*
X180413688Y-43064350D02*
X180413683Y-43064345D01*
G75*
G02*
X180327655Y-41475683I751317J837345D01*
G01*
X181637657Y-40015683D01*
G75*
G02*
X183226319Y-39929655I837345J-751317D01*
G01*
X183226319Y-39929655D01*
G75*
G02*
X183312347Y-41518317I-751317J-837345D01*
G01*
X182002345Y-42978317D01*
G75*
G02*
X180413683Y-43064345I-837345J751317D01*
G01*
G37*
D15*
X187515000Y-39687000D03*
G36*
G01*
X187398483Y-41389395D02*
X187397597Y-41389334D01*
G75*
G02*
X186352666Y-40189597I77403J1122334D01*
G01*
X186392666Y-39609597D01*
G75*
G02*
X187592403Y-38564666I1122334J-77403D01*
G01*
X187592403Y-38564666D01*
G75*
G02*
X188637334Y-39764403I-77403J-1122334D01*
G01*
X188597334Y-40344403D01*
G75*
G02*
X187397597Y-41389334I-1122334J77403D01*
G01*
G37*
D14*
X209105000Y-44767000D03*
X198945000Y-44767000D03*
D15*
X201525000Y-40767000D03*
D16*
X204025000Y-44767000D03*
G36*
G01*
X199463688Y-43064350D02*
X199463683Y-43064345D01*
G75*
G02*
X199377655Y-41475683I751317J837345D01*
G01*
X200687657Y-40015683D01*
G75*
G02*
X202276319Y-39929655I837345J-751317D01*
G01*
X202276319Y-39929655D01*
G75*
G02*
X202362347Y-41518317I-751317J-837345D01*
G01*
X201052345Y-42978317D01*
G75*
G02*
X199463683Y-43064345I-837345J751317D01*
G01*
G37*
D15*
X206565000Y-39687000D03*
G36*
G01*
X206448483Y-41389395D02*
X206447597Y-41389334D01*
G75*
G02*
X205402666Y-40189597I77403J1122334D01*
G01*
X205442666Y-39609597D01*
G75*
G02*
X206642403Y-38564666I1122334J-77403D01*
G01*
X206642403Y-38564666D01*
G75*
G02*
X207687334Y-39764403I-77403J-1122334D01*
G01*
X207647334Y-40344403D01*
G75*
G02*
X206447597Y-41389334I-1122334J77403D01*
G01*
G37*
D14*
X228155000Y-44767000D03*
X217995000Y-44767000D03*
D15*
X220575000Y-40767000D03*
D16*
X223075000Y-44767000D03*
G36*
G01*
X218513688Y-43064350D02*
X218513683Y-43064345D01*
G75*
G02*
X218427655Y-41475683I751317J837345D01*
G01*
X219737657Y-40015683D01*
G75*
G02*
X221326319Y-39929655I837345J-751317D01*
G01*
X221326319Y-39929655D01*
G75*
G02*
X221412347Y-41518317I-751317J-837345D01*
G01*
X220102345Y-42978317D01*
G75*
G02*
X218513683Y-43064345I-837345J751317D01*
G01*
G37*
D15*
X225615000Y-39687000D03*
G36*
G01*
X225498483Y-41389395D02*
X225497597Y-41389334D01*
G75*
G02*
X224452666Y-40189597I77403J1122334D01*
G01*
X224492666Y-39609597D01*
G75*
G02*
X225692403Y-38564666I1122334J-77403D01*
G01*
X225692403Y-38564666D01*
G75*
G02*
X226737334Y-39764403I-77403J-1122334D01*
G01*
X226697334Y-40344403D01*
G75*
G02*
X225497597Y-41389334I-1122334J77403D01*
G01*
G37*
D14*
X247205000Y-44767000D03*
X237045000Y-44767000D03*
D15*
X239625000Y-40767000D03*
D16*
X242125000Y-44767000D03*
G36*
G01*
X237563688Y-43064350D02*
X237563683Y-43064345D01*
G75*
G02*
X237477655Y-41475683I751317J837345D01*
G01*
X238787657Y-40015683D01*
G75*
G02*
X240376319Y-39929655I837345J-751317D01*
G01*
X240376319Y-39929655D01*
G75*
G02*
X240462347Y-41518317I-751317J-837345D01*
G01*
X239152345Y-42978317D01*
G75*
G02*
X237563683Y-43064345I-837345J751317D01*
G01*
G37*
D15*
X244665000Y-39687000D03*
G36*
G01*
X244548483Y-41389395D02*
X244547597Y-41389334D01*
G75*
G02*
X243502666Y-40189597I77403J1122334D01*
G01*
X243542666Y-39609597D01*
G75*
G02*
X244742403Y-38564666I1122334J-77403D01*
G01*
X244742403Y-38564666D01*
G75*
G02*
X245787334Y-39764403I-77403J-1122334D01*
G01*
X245747334Y-40344403D01*
G75*
G02*
X244547597Y-41389334I-1122334J77403D01*
G01*
G37*
D16*
X282638000Y-53022000D03*
X258762000Y-53022000D03*
D17*
X282638000Y-37782000D03*
X258762000Y-37782000D03*
D14*
X275780000Y-44767000D03*
X265620000Y-44767000D03*
D15*
X268200000Y-40767000D03*
D16*
X270700000Y-44767000D03*
G36*
G01*
X266138688Y-43064350D02*
X266138683Y-43064345D01*
G75*
G02*
X266052655Y-41475683I751317J837345D01*
G01*
X267362657Y-40015683D01*
G75*
G02*
X268951319Y-39929655I837345J-751317D01*
G01*
X268951319Y-39929655D01*
G75*
G02*
X269037347Y-41518317I-751317J-837345D01*
G01*
X267727345Y-42978317D01*
G75*
G02*
X266138683Y-43064345I-837345J751317D01*
G01*
G37*
D15*
X273240000Y-39687000D03*
G36*
G01*
X273123483Y-41389395D02*
X273122597Y-41389334D01*
G75*
G02*
X272077666Y-40189597I77403J1122334D01*
G01*
X272117666Y-39609597D01*
G75*
G02*
X273317403Y-38564666I1122334J-77403D01*
G01*
X273317403Y-38564666D01*
G75*
G02*
X274362334Y-39764403I-77403J-1122334D01*
G01*
X274322334Y-40344403D01*
G75*
G02*
X273122597Y-41389334I-1122334J77403D01*
G01*
G37*
D14*
X309117500Y-44767000D03*
X298957500Y-44767000D03*
D15*
X301537500Y-40767000D03*
D16*
X304037500Y-44767000D03*
G36*
G01*
X299476188Y-43064350D02*
X299476183Y-43064345D01*
G75*
G02*
X299390155Y-41475683I751317J837345D01*
G01*
X300700157Y-40015683D01*
G75*
G02*
X302288819Y-39929655I837345J-751317D01*
G01*
X302288819Y-39929655D01*
G75*
G02*
X302374847Y-41518317I-751317J-837345D01*
G01*
X301064845Y-42978317D01*
G75*
G02*
X299476183Y-43064345I-837345J751317D01*
G01*
G37*
D15*
X306577500Y-39687000D03*
G36*
G01*
X306460983Y-41389395D02*
X306460097Y-41389334D01*
G75*
G02*
X305415166Y-40189597I77403J1122334D01*
G01*
X305455166Y-39609597D01*
G75*
G02*
X306654903Y-38564666I1122334J-77403D01*
G01*
X306654903Y-38564666D01*
G75*
G02*
X307699834Y-39764403I-77403J-1122334D01*
G01*
X307659834Y-40344403D01*
G75*
G02*
X306460097Y-41389334I-1122334J77403D01*
G01*
G37*
D14*
X328167500Y-44767000D03*
X318007500Y-44767000D03*
D15*
X320587500Y-40767000D03*
D16*
X323087500Y-44767000D03*
G36*
G01*
X318526188Y-43064350D02*
X318526183Y-43064345D01*
G75*
G02*
X318440155Y-41475683I751317J837345D01*
G01*
X319750157Y-40015683D01*
G75*
G02*
X321338819Y-39929655I837345J-751317D01*
G01*
X321338819Y-39929655D01*
G75*
G02*
X321424847Y-41518317I-751317J-837345D01*
G01*
X320114845Y-42978317D01*
G75*
G02*
X318526183Y-43064345I-837345J751317D01*
G01*
G37*
D15*
X325627500Y-39687000D03*
G36*
G01*
X325510983Y-41389395D02*
X325510097Y-41389334D01*
G75*
G02*
X324465166Y-40189597I77403J1122334D01*
G01*
X324505166Y-39609597D01*
G75*
G02*
X325704903Y-38564666I1122334J-77403D01*
G01*
X325704903Y-38564666D01*
G75*
G02*
X326749834Y-39764403I-77403J-1122334D01*
G01*
X326709834Y-40344403D01*
G75*
G02*
X325510097Y-41389334I-1122334J77403D01*
G01*
G37*
D14*
X347217500Y-44767000D03*
X337057500Y-44767000D03*
D15*
X339637500Y-40767000D03*
D16*
X342137500Y-44767000D03*
G36*
G01*
X337576188Y-43064350D02*
X337576183Y-43064345D01*
G75*
G02*
X337490155Y-41475683I751317J837345D01*
G01*
X338800157Y-40015683D01*
G75*
G02*
X340388819Y-39929655I837345J-751317D01*
G01*
X340388819Y-39929655D01*
G75*
G02*
X340474847Y-41518317I-751317J-837345D01*
G01*
X339164845Y-42978317D01*
G75*
G02*
X337576183Y-43064345I-837345J751317D01*
G01*
G37*
D15*
X344677500Y-39687000D03*
G36*
G01*
X344560983Y-41389395D02*
X344560097Y-41389334D01*
G75*
G02*
X343515166Y-40189597I77403J1122334D01*
G01*
X343555166Y-39609597D01*
G75*
G02*
X344754903Y-38564666I1122334J-77403D01*
G01*
X344754903Y-38564666D01*
G75*
G02*
X345799834Y-39764403I-77403J-1122334D01*
G01*
X345759834Y-40344403D01*
G75*
G02*
X344560097Y-41389334I-1122334J77403D01*
G01*
G37*
D14*
X23367500Y-63817000D03*
X13207500Y-63817000D03*
D15*
X15787500Y-59817000D03*
D16*
X18287500Y-63817000D03*
G36*
G01*
X13726188Y-62114350D02*
X13726183Y-62114345D01*
G75*
G02*
X13640155Y-60525683I751317J837345D01*
G01*
X14950157Y-59065683D01*
G75*
G02*
X16538819Y-58979655I837345J-751317D01*
G01*
X16538819Y-58979655D01*
G75*
G02*
X16624847Y-60568317I-751317J-837345D01*
G01*
X15314845Y-62028317D01*
G75*
G02*
X13726183Y-62114345I-837345J751317D01*
G01*
G37*
D15*
X20827500Y-58737000D03*
G36*
G01*
X20710983Y-60439395D02*
X20710097Y-60439334D01*
G75*
G02*
X19665166Y-59239597I77403J1122334D01*
G01*
X19705166Y-58659597D01*
G75*
G02*
X20904903Y-57614666I1122334J-77403D01*
G01*
X20904903Y-57614666D01*
G75*
G02*
X21949834Y-58814403I-77403J-1122334D01*
G01*
X21909834Y-59394403D01*
G75*
G02*
X20710097Y-60439334I-1122334J77403D01*
G01*
G37*
D14*
X47180000Y-63817000D03*
X37020000Y-63817000D03*
D15*
X39600000Y-59817000D03*
D16*
X42100000Y-63817000D03*
G36*
G01*
X37538688Y-62114350D02*
X37538683Y-62114345D01*
G75*
G02*
X37452655Y-60525683I751317J837345D01*
G01*
X38762657Y-59065683D01*
G75*
G02*
X40351319Y-58979655I837345J-751317D01*
G01*
X40351319Y-58979655D01*
G75*
G02*
X40437347Y-60568317I-751317J-837345D01*
G01*
X39127345Y-62028317D01*
G75*
G02*
X37538683Y-62114345I-837345J751317D01*
G01*
G37*
D15*
X44640000Y-58737000D03*
G36*
G01*
X44523483Y-60439395D02*
X44522597Y-60439334D01*
G75*
G02*
X43477666Y-59239597I77403J1122334D01*
G01*
X43517666Y-58659597D01*
G75*
G02*
X44717403Y-57614666I1122334J-77403D01*
G01*
X44717403Y-57614666D01*
G75*
G02*
X45762334Y-58814403I-77403J-1122334D01*
G01*
X45722334Y-59394403D01*
G75*
G02*
X44522597Y-60439334I-1122334J77403D01*
G01*
G37*
D14*
X66230000Y-63817000D03*
X56070000Y-63817000D03*
D15*
X58650000Y-59817000D03*
D16*
X61150000Y-63817000D03*
G36*
G01*
X56588688Y-62114350D02*
X56588683Y-62114345D01*
G75*
G02*
X56502655Y-60525683I751317J837345D01*
G01*
X57812657Y-59065683D01*
G75*
G02*
X59401319Y-58979655I837345J-751317D01*
G01*
X59401319Y-58979655D01*
G75*
G02*
X59487347Y-60568317I-751317J-837345D01*
G01*
X58177345Y-62028317D01*
G75*
G02*
X56588683Y-62114345I-837345J751317D01*
G01*
G37*
D15*
X63690000Y-58737000D03*
G36*
G01*
X63573483Y-60439395D02*
X63572597Y-60439334D01*
G75*
G02*
X62527666Y-59239597I77403J1122334D01*
G01*
X62567666Y-58659597D01*
G75*
G02*
X63767403Y-57614666I1122334J-77403D01*
G01*
X63767403Y-57614666D01*
G75*
G02*
X64812334Y-58814403I-77403J-1122334D01*
G01*
X64772334Y-59394403D01*
G75*
G02*
X63572597Y-60439334I-1122334J77403D01*
G01*
G37*
D14*
X85280000Y-63817000D03*
X75120000Y-63817000D03*
D15*
X77700000Y-59817000D03*
D16*
X80200000Y-63817000D03*
G36*
G01*
X75638688Y-62114350D02*
X75638683Y-62114345D01*
G75*
G02*
X75552655Y-60525683I751317J837345D01*
G01*
X76862657Y-59065683D01*
G75*
G02*
X78451319Y-58979655I837345J-751317D01*
G01*
X78451319Y-58979655D01*
G75*
G02*
X78537347Y-60568317I-751317J-837345D01*
G01*
X77227345Y-62028317D01*
G75*
G02*
X75638683Y-62114345I-837345J751317D01*
G01*
G37*
D15*
X82740000Y-58737000D03*
G36*
G01*
X82623483Y-60439395D02*
X82622597Y-60439334D01*
G75*
G02*
X81577666Y-59239597I77403J1122334D01*
G01*
X81617666Y-58659597D01*
G75*
G02*
X82817403Y-57614666I1122334J-77403D01*
G01*
X82817403Y-57614666D01*
G75*
G02*
X83862334Y-58814403I-77403J-1122334D01*
G01*
X83822334Y-59394403D01*
G75*
G02*
X82622597Y-60439334I-1122334J77403D01*
G01*
G37*
D14*
X104330000Y-63817000D03*
X94170000Y-63817000D03*
D15*
X96750000Y-59817000D03*
D16*
X99250000Y-63817000D03*
G36*
G01*
X94688688Y-62114350D02*
X94688683Y-62114345D01*
G75*
G02*
X94602655Y-60525683I751317J837345D01*
G01*
X95912657Y-59065683D01*
G75*
G02*
X97501319Y-58979655I837345J-751317D01*
G01*
X97501319Y-58979655D01*
G75*
G02*
X97587347Y-60568317I-751317J-837345D01*
G01*
X96277345Y-62028317D01*
G75*
G02*
X94688683Y-62114345I-837345J751317D01*
G01*
G37*
D15*
X101790000Y-58737000D03*
G36*
G01*
X101673483Y-60439395D02*
X101672597Y-60439334D01*
G75*
G02*
X100627666Y-59239597I77403J1122334D01*
G01*
X100667666Y-58659597D01*
G75*
G02*
X101867403Y-57614666I1122334J-77403D01*
G01*
X101867403Y-57614666D01*
G75*
G02*
X102912334Y-58814403I-77403J-1122334D01*
G01*
X102872334Y-59394403D01*
G75*
G02*
X101672597Y-60439334I-1122334J77403D01*
G01*
G37*
D14*
X123380000Y-63817000D03*
X113220000Y-63817000D03*
D15*
X115800000Y-59817000D03*
D16*
X118300000Y-63817000D03*
G36*
G01*
X113738688Y-62114350D02*
X113738683Y-62114345D01*
G75*
G02*
X113652655Y-60525683I751317J837345D01*
G01*
X114962657Y-59065683D01*
G75*
G02*
X116551319Y-58979655I837345J-751317D01*
G01*
X116551319Y-58979655D01*
G75*
G02*
X116637347Y-60568317I-751317J-837345D01*
G01*
X115327345Y-62028317D01*
G75*
G02*
X113738683Y-62114345I-837345J751317D01*
G01*
G37*
D15*
X120840000Y-58737000D03*
G36*
G01*
X120723483Y-60439395D02*
X120722597Y-60439334D01*
G75*
G02*
X119677666Y-59239597I77403J1122334D01*
G01*
X119717666Y-58659597D01*
G75*
G02*
X120917403Y-57614666I1122334J-77403D01*
G01*
X120917403Y-57614666D01*
G75*
G02*
X121962334Y-58814403I-77403J-1122334D01*
G01*
X121922334Y-59394403D01*
G75*
G02*
X120722597Y-60439334I-1122334J77403D01*
G01*
G37*
D14*
X142430000Y-63817000D03*
X132270000Y-63817000D03*
D15*
X134850000Y-59817000D03*
D16*
X137350000Y-63817000D03*
G36*
G01*
X132788688Y-62114350D02*
X132788683Y-62114345D01*
G75*
G02*
X132702655Y-60525683I751317J837345D01*
G01*
X134012657Y-59065683D01*
G75*
G02*
X135601319Y-58979655I837345J-751317D01*
G01*
X135601319Y-58979655D01*
G75*
G02*
X135687347Y-60568317I-751317J-837345D01*
G01*
X134377345Y-62028317D01*
G75*
G02*
X132788683Y-62114345I-837345J751317D01*
G01*
G37*
D15*
X139890000Y-58737000D03*
G36*
G01*
X139773483Y-60439395D02*
X139772597Y-60439334D01*
G75*
G02*
X138727666Y-59239597I77403J1122334D01*
G01*
X138767666Y-58659597D01*
G75*
G02*
X139967403Y-57614666I1122334J-77403D01*
G01*
X139967403Y-57614666D01*
G75*
G02*
X141012334Y-58814403I-77403J-1122334D01*
G01*
X140972334Y-59394403D01*
G75*
G02*
X139772597Y-60439334I-1122334J77403D01*
G01*
G37*
D14*
X161480000Y-63817000D03*
X151320000Y-63817000D03*
D15*
X153900000Y-59817000D03*
D16*
X156400000Y-63817000D03*
G36*
G01*
X151838688Y-62114350D02*
X151838683Y-62114345D01*
G75*
G02*
X151752655Y-60525683I751317J837345D01*
G01*
X153062657Y-59065683D01*
G75*
G02*
X154651319Y-58979655I837345J-751317D01*
G01*
X154651319Y-58979655D01*
G75*
G02*
X154737347Y-60568317I-751317J-837345D01*
G01*
X153427345Y-62028317D01*
G75*
G02*
X151838683Y-62114345I-837345J751317D01*
G01*
G37*
D15*
X158940000Y-58737000D03*
G36*
G01*
X158823483Y-60439395D02*
X158822597Y-60439334D01*
G75*
G02*
X157777666Y-59239597I77403J1122334D01*
G01*
X157817666Y-58659597D01*
G75*
G02*
X159017403Y-57614666I1122334J-77403D01*
G01*
X159017403Y-57614666D01*
G75*
G02*
X160062334Y-58814403I-77403J-1122334D01*
G01*
X160022334Y-59394403D01*
G75*
G02*
X158822597Y-60439334I-1122334J77403D01*
G01*
G37*
D14*
X180530000Y-63817000D03*
X170370000Y-63817000D03*
D15*
X172950000Y-59817000D03*
D16*
X175450000Y-63817000D03*
G36*
G01*
X170888688Y-62114350D02*
X170888683Y-62114345D01*
G75*
G02*
X170802655Y-60525683I751317J837345D01*
G01*
X172112657Y-59065683D01*
G75*
G02*
X173701319Y-58979655I837345J-751317D01*
G01*
X173701319Y-58979655D01*
G75*
G02*
X173787347Y-60568317I-751317J-837345D01*
G01*
X172477345Y-62028317D01*
G75*
G02*
X170888683Y-62114345I-837345J751317D01*
G01*
G37*
D15*
X177990000Y-58737000D03*
G36*
G01*
X177873483Y-60439395D02*
X177872597Y-60439334D01*
G75*
G02*
X176827666Y-59239597I77403J1122334D01*
G01*
X176867666Y-58659597D01*
G75*
G02*
X178067403Y-57614666I1122334J-77403D01*
G01*
X178067403Y-57614666D01*
G75*
G02*
X179112334Y-58814403I-77403J-1122334D01*
G01*
X179072334Y-59394403D01*
G75*
G02*
X177872597Y-60439334I-1122334J77403D01*
G01*
G37*
D14*
X199580000Y-63817000D03*
X189420000Y-63817000D03*
D15*
X192000000Y-59817000D03*
D16*
X194500000Y-63817000D03*
G36*
G01*
X189938688Y-62114350D02*
X189938683Y-62114345D01*
G75*
G02*
X189852655Y-60525683I751317J837345D01*
G01*
X191162657Y-59065683D01*
G75*
G02*
X192751319Y-58979655I837345J-751317D01*
G01*
X192751319Y-58979655D01*
G75*
G02*
X192837347Y-60568317I-751317J-837345D01*
G01*
X191527345Y-62028317D01*
G75*
G02*
X189938683Y-62114345I-837345J751317D01*
G01*
G37*
D15*
X197040000Y-58737000D03*
G36*
G01*
X196923483Y-60439395D02*
X196922597Y-60439334D01*
G75*
G02*
X195877666Y-59239597I77403J1122334D01*
G01*
X195917666Y-58659597D01*
G75*
G02*
X197117403Y-57614666I1122334J-77403D01*
G01*
X197117403Y-57614666D01*
G75*
G02*
X198162334Y-58814403I-77403J-1122334D01*
G01*
X198122334Y-59394403D01*
G75*
G02*
X196922597Y-60439334I-1122334J77403D01*
G01*
G37*
D14*
X218630000Y-63817000D03*
X208470000Y-63817000D03*
D15*
X211050000Y-59817000D03*
D16*
X213550000Y-63817000D03*
G36*
G01*
X208988688Y-62114350D02*
X208988683Y-62114345D01*
G75*
G02*
X208902655Y-60525683I751317J837345D01*
G01*
X210212657Y-59065683D01*
G75*
G02*
X211801319Y-58979655I837345J-751317D01*
G01*
X211801319Y-58979655D01*
G75*
G02*
X211887347Y-60568317I-751317J-837345D01*
G01*
X210577345Y-62028317D01*
G75*
G02*
X208988683Y-62114345I-837345J751317D01*
G01*
G37*
D15*
X216090000Y-58737000D03*
G36*
G01*
X215973483Y-60439395D02*
X215972597Y-60439334D01*
G75*
G02*
X214927666Y-59239597I77403J1122334D01*
G01*
X214967666Y-58659597D01*
G75*
G02*
X216167403Y-57614666I1122334J-77403D01*
G01*
X216167403Y-57614666D01*
G75*
G02*
X217212334Y-58814403I-77403J-1122334D01*
G01*
X217172334Y-59394403D01*
G75*
G02*
X215972597Y-60439334I-1122334J77403D01*
G01*
G37*
D14*
X237680000Y-63817000D03*
X227520000Y-63817000D03*
D15*
X230100000Y-59817000D03*
D16*
X232600000Y-63817000D03*
G36*
G01*
X228038688Y-62114350D02*
X228038683Y-62114345D01*
G75*
G02*
X227952655Y-60525683I751317J837345D01*
G01*
X229262657Y-59065683D01*
G75*
G02*
X230851319Y-58979655I837345J-751317D01*
G01*
X230851319Y-58979655D01*
G75*
G02*
X230937347Y-60568317I-751317J-837345D01*
G01*
X229627345Y-62028317D01*
G75*
G02*
X228038683Y-62114345I-837345J751317D01*
G01*
G37*
D15*
X235140000Y-58737000D03*
G36*
G01*
X235023483Y-60439395D02*
X235022597Y-60439334D01*
G75*
G02*
X233977666Y-59239597I77403J1122334D01*
G01*
X234017666Y-58659597D01*
G75*
G02*
X235217403Y-57614666I1122334J-77403D01*
G01*
X235217403Y-57614666D01*
G75*
G02*
X236262334Y-58814403I-77403J-1122334D01*
G01*
X236222334Y-59394403D01*
G75*
G02*
X235022597Y-60439334I-1122334J77403D01*
G01*
G37*
D14*
X256730000Y-63817000D03*
X246570000Y-63817000D03*
D15*
X249150000Y-59817000D03*
D16*
X251650000Y-63817000D03*
G36*
G01*
X247088688Y-62114350D02*
X247088683Y-62114345D01*
G75*
G02*
X247002655Y-60525683I751317J837345D01*
G01*
X248312657Y-59065683D01*
G75*
G02*
X249901319Y-58979655I837345J-751317D01*
G01*
X249901319Y-58979655D01*
G75*
G02*
X249987347Y-60568317I-751317J-837345D01*
G01*
X248677345Y-62028317D01*
G75*
G02*
X247088683Y-62114345I-837345J751317D01*
G01*
G37*
D15*
X254190000Y-58737000D03*
G36*
G01*
X254073483Y-60439395D02*
X254072597Y-60439334D01*
G75*
G02*
X253027666Y-59239597I77403J1122334D01*
G01*
X253067666Y-58659597D01*
G75*
G02*
X254267403Y-57614666I1122334J-77403D01*
G01*
X254267403Y-57614666D01*
G75*
G02*
X255312334Y-58814403I-77403J-1122334D01*
G01*
X255272334Y-59394403D01*
G75*
G02*
X254072597Y-60439334I-1122334J77403D01*
G01*
G37*
D14*
X280542500Y-63817000D03*
X270382500Y-63817000D03*
D15*
X272962500Y-59817000D03*
D16*
X275462500Y-63817000D03*
G36*
G01*
X270901188Y-62114350D02*
X270901183Y-62114345D01*
G75*
G02*
X270815155Y-60525683I751317J837345D01*
G01*
X272125157Y-59065683D01*
G75*
G02*
X273713819Y-58979655I837345J-751317D01*
G01*
X273713819Y-58979655D01*
G75*
G02*
X273799847Y-60568317I-751317J-837345D01*
G01*
X272489845Y-62028317D01*
G75*
G02*
X270901183Y-62114345I-837345J751317D01*
G01*
G37*
D15*
X278002500Y-58737000D03*
G36*
G01*
X277885983Y-60439395D02*
X277885097Y-60439334D01*
G75*
G02*
X276840166Y-59239597I77403J1122334D01*
G01*
X276880166Y-58659597D01*
G75*
G02*
X278079903Y-57614666I1122334J-77403D01*
G01*
X278079903Y-57614666D01*
G75*
G02*
X279124834Y-58814403I-77403J-1122334D01*
G01*
X279084834Y-59394403D01*
G75*
G02*
X277885097Y-60439334I-1122334J77403D01*
G01*
G37*
D14*
X309117500Y-63817000D03*
X298957500Y-63817000D03*
D15*
X301537500Y-59817000D03*
D16*
X304037500Y-63817000D03*
G36*
G01*
X299476188Y-62114350D02*
X299476183Y-62114345D01*
G75*
G02*
X299390155Y-60525683I751317J837345D01*
G01*
X300700157Y-59065683D01*
G75*
G02*
X302288819Y-58979655I837345J-751317D01*
G01*
X302288819Y-58979655D01*
G75*
G02*
X302374847Y-60568317I-751317J-837345D01*
G01*
X301064845Y-62028317D01*
G75*
G02*
X299476183Y-62114345I-837345J751317D01*
G01*
G37*
D15*
X306577500Y-58737000D03*
G36*
G01*
X306460983Y-60439395D02*
X306460097Y-60439334D01*
G75*
G02*
X305415166Y-59239597I77403J1122334D01*
G01*
X305455166Y-58659597D01*
G75*
G02*
X306654903Y-57614666I1122334J-77403D01*
G01*
X306654903Y-57614666D01*
G75*
G02*
X307699834Y-58814403I-77403J-1122334D01*
G01*
X307659834Y-59394403D01*
G75*
G02*
X306460097Y-60439334I-1122334J77403D01*
G01*
G37*
D14*
X328167500Y-63817000D03*
X318007500Y-63817000D03*
D15*
X320587500Y-59817000D03*
D16*
X323087500Y-63817000D03*
G36*
G01*
X318526188Y-62114350D02*
X318526183Y-62114345D01*
G75*
G02*
X318440155Y-60525683I751317J837345D01*
G01*
X319750157Y-59065683D01*
G75*
G02*
X321338819Y-58979655I837345J-751317D01*
G01*
X321338819Y-58979655D01*
G75*
G02*
X321424847Y-60568317I-751317J-837345D01*
G01*
X320114845Y-62028317D01*
G75*
G02*
X318526183Y-62114345I-837345J751317D01*
G01*
G37*
D15*
X325627500Y-58737000D03*
G36*
G01*
X325510983Y-60439395D02*
X325510097Y-60439334D01*
G75*
G02*
X324465166Y-59239597I77403J1122334D01*
G01*
X324505166Y-58659597D01*
G75*
G02*
X325704903Y-57614666I1122334J-77403D01*
G01*
X325704903Y-57614666D01*
G75*
G02*
X326749834Y-58814403I-77403J-1122334D01*
G01*
X326709834Y-59394403D01*
G75*
G02*
X325510097Y-60439334I-1122334J77403D01*
G01*
G37*
D14*
X347217500Y-63817000D03*
X337057500Y-63817000D03*
D15*
X339637500Y-59817000D03*
D16*
X342137500Y-63817000D03*
G36*
G01*
X337576188Y-62114350D02*
X337576183Y-62114345D01*
G75*
G02*
X337490155Y-60525683I751317J837345D01*
G01*
X338800157Y-59065683D01*
G75*
G02*
X340388819Y-58979655I837345J-751317D01*
G01*
X340388819Y-58979655D01*
G75*
G02*
X340474847Y-60568317I-751317J-837345D01*
G01*
X339164845Y-62028317D01*
G75*
G02*
X337576183Y-62114345I-837345J751317D01*
G01*
G37*
D15*
X344677500Y-58737000D03*
G36*
G01*
X344560983Y-60439395D02*
X344560097Y-60439334D01*
G75*
G02*
X343515166Y-59239597I77403J1122334D01*
G01*
X343555166Y-58659597D01*
G75*
G02*
X344754903Y-57614666I1122334J-77403D01*
G01*
X344754903Y-57614666D01*
G75*
G02*
X345799834Y-58814403I-77403J-1122334D01*
G01*
X345759834Y-59394403D01*
G75*
G02*
X344560097Y-60439334I-1122334J77403D01*
G01*
G37*
D14*
X25748750Y-82867000D03*
X15588750Y-82867000D03*
D15*
X18168750Y-78867000D03*
D16*
X20668750Y-82867000D03*
G36*
G01*
X16107438Y-81164350D02*
X16107433Y-81164345D01*
G75*
G02*
X16021405Y-79575683I751317J837345D01*
G01*
X17331407Y-78115683D01*
G75*
G02*
X18920069Y-78029655I837345J-751317D01*
G01*
X18920069Y-78029655D01*
G75*
G02*
X19006097Y-79618317I-751317J-837345D01*
G01*
X17696095Y-81078317D01*
G75*
G02*
X16107433Y-81164345I-837345J751317D01*
G01*
G37*
D15*
X23208750Y-77787000D03*
G36*
G01*
X23092233Y-79489395D02*
X23091347Y-79489334D01*
G75*
G02*
X22046416Y-78289597I77403J1122334D01*
G01*
X22086416Y-77709597D01*
G75*
G02*
X23286153Y-76664666I1122334J-77403D01*
G01*
X23286153Y-76664666D01*
G75*
G02*
X24331084Y-77864403I-77403J-1122334D01*
G01*
X24291084Y-78444403D01*
G75*
G02*
X23091347Y-79489334I-1122334J77403D01*
G01*
G37*
D14*
X70992500Y-82867000D03*
X60832500Y-82867000D03*
D15*
X63412500Y-78867000D03*
D16*
X65912500Y-82867000D03*
G36*
G01*
X61351188Y-81164350D02*
X61351183Y-81164345D01*
G75*
G02*
X61265155Y-79575683I751317J837345D01*
G01*
X62575157Y-78115683D01*
G75*
G02*
X64163819Y-78029655I837345J-751317D01*
G01*
X64163819Y-78029655D01*
G75*
G02*
X64249847Y-79618317I-751317J-837345D01*
G01*
X62939845Y-81078317D01*
G75*
G02*
X61351183Y-81164345I-837345J751317D01*
G01*
G37*
D15*
X68452500Y-77787000D03*
G36*
G01*
X68335983Y-79489395D02*
X68335097Y-79489334D01*
G75*
G02*
X67290166Y-78289597I77403J1122334D01*
G01*
X67330166Y-77709597D01*
G75*
G02*
X68529903Y-76664666I1122334J-77403D01*
G01*
X68529903Y-76664666D01*
G75*
G02*
X69574834Y-77864403I-77403J-1122334D01*
G01*
X69534834Y-78444403D01*
G75*
G02*
X68335097Y-79489334I-1122334J77403D01*
G01*
G37*
D14*
X90042500Y-82867000D03*
X79882500Y-82867000D03*
D15*
X82462500Y-78867000D03*
D16*
X84962500Y-82867000D03*
G36*
G01*
X80401188Y-81164350D02*
X80401183Y-81164345D01*
G75*
G02*
X80315155Y-79575683I751317J837345D01*
G01*
X81625157Y-78115683D01*
G75*
G02*
X83213819Y-78029655I837345J-751317D01*
G01*
X83213819Y-78029655D01*
G75*
G02*
X83299847Y-79618317I-751317J-837345D01*
G01*
X81989845Y-81078317D01*
G75*
G02*
X80401183Y-81164345I-837345J751317D01*
G01*
G37*
D15*
X87502500Y-77787000D03*
G36*
G01*
X87385983Y-79489395D02*
X87385097Y-79489334D01*
G75*
G02*
X86340166Y-78289597I77403J1122334D01*
G01*
X86380166Y-77709597D01*
G75*
G02*
X87579903Y-76664666I1122334J-77403D01*
G01*
X87579903Y-76664666D01*
G75*
G02*
X88624834Y-77864403I-77403J-1122334D01*
G01*
X88584834Y-78444403D01*
G75*
G02*
X87385097Y-79489334I-1122334J77403D01*
G01*
G37*
D14*
X109092500Y-82867000D03*
X98932500Y-82867000D03*
D15*
X101512500Y-78867000D03*
D16*
X104012500Y-82867000D03*
G36*
G01*
X99451188Y-81164350D02*
X99451183Y-81164345D01*
G75*
G02*
X99365155Y-79575683I751317J837345D01*
G01*
X100675157Y-78115683D01*
G75*
G02*
X102263819Y-78029655I837345J-751317D01*
G01*
X102263819Y-78029655D01*
G75*
G02*
X102349847Y-79618317I-751317J-837345D01*
G01*
X101039845Y-81078317D01*
G75*
G02*
X99451183Y-81164345I-837345J751317D01*
G01*
G37*
D15*
X106552500Y-77787000D03*
G36*
G01*
X106435983Y-79489395D02*
X106435097Y-79489334D01*
G75*
G02*
X105390166Y-78289597I77403J1122334D01*
G01*
X105430166Y-77709597D01*
G75*
G02*
X106629903Y-76664666I1122334J-77403D01*
G01*
X106629903Y-76664666D01*
G75*
G02*
X107674834Y-77864403I-77403J-1122334D01*
G01*
X107634834Y-78444403D01*
G75*
G02*
X106435097Y-79489334I-1122334J77403D01*
G01*
G37*
D14*
X128142500Y-82867000D03*
X117982500Y-82867000D03*
D15*
X120562500Y-78867000D03*
D16*
X123062500Y-82867000D03*
G36*
G01*
X118501188Y-81164350D02*
X118501183Y-81164345D01*
G75*
G02*
X118415155Y-79575683I751317J837345D01*
G01*
X119725157Y-78115683D01*
G75*
G02*
X121313819Y-78029655I837345J-751317D01*
G01*
X121313819Y-78029655D01*
G75*
G02*
X121399847Y-79618317I-751317J-837345D01*
G01*
X120089845Y-81078317D01*
G75*
G02*
X118501183Y-81164345I-837345J751317D01*
G01*
G37*
D15*
X125602500Y-77787000D03*
G36*
G01*
X125485983Y-79489395D02*
X125485097Y-79489334D01*
G75*
G02*
X124440166Y-78289597I77403J1122334D01*
G01*
X124480166Y-77709597D01*
G75*
G02*
X125679903Y-76664666I1122334J-77403D01*
G01*
X125679903Y-76664666D01*
G75*
G02*
X126724834Y-77864403I-77403J-1122334D01*
G01*
X126684834Y-78444403D01*
G75*
G02*
X125485097Y-79489334I-1122334J77403D01*
G01*
G37*
D14*
X147192500Y-82867000D03*
X137032500Y-82867000D03*
D15*
X139612500Y-78867000D03*
D16*
X142112500Y-82867000D03*
G36*
G01*
X137551188Y-81164350D02*
X137551183Y-81164345D01*
G75*
G02*
X137465155Y-79575683I751317J837345D01*
G01*
X138775157Y-78115683D01*
G75*
G02*
X140363819Y-78029655I837345J-751317D01*
G01*
X140363819Y-78029655D01*
G75*
G02*
X140449847Y-79618317I-751317J-837345D01*
G01*
X139139845Y-81078317D01*
G75*
G02*
X137551183Y-81164345I-837345J751317D01*
G01*
G37*
D15*
X144652500Y-77787000D03*
G36*
G01*
X144535983Y-79489395D02*
X144535097Y-79489334D01*
G75*
G02*
X143490166Y-78289597I77403J1122334D01*
G01*
X143530166Y-77709597D01*
G75*
G02*
X144729903Y-76664666I1122334J-77403D01*
G01*
X144729903Y-76664666D01*
G75*
G02*
X145774834Y-77864403I-77403J-1122334D01*
G01*
X145734834Y-78444403D01*
G75*
G02*
X144535097Y-79489334I-1122334J77403D01*
G01*
G37*
D14*
X166242500Y-82867000D03*
X156082500Y-82867000D03*
D15*
X158662500Y-78867000D03*
D16*
X161162500Y-82867000D03*
G36*
G01*
X156601188Y-81164350D02*
X156601183Y-81164345D01*
G75*
G02*
X156515155Y-79575683I751317J837345D01*
G01*
X157825157Y-78115683D01*
G75*
G02*
X159413819Y-78029655I837345J-751317D01*
G01*
X159413819Y-78029655D01*
G75*
G02*
X159499847Y-79618317I-751317J-837345D01*
G01*
X158189845Y-81078317D01*
G75*
G02*
X156601183Y-81164345I-837345J751317D01*
G01*
G37*
D15*
X163702500Y-77787000D03*
G36*
G01*
X163585983Y-79489395D02*
X163585097Y-79489334D01*
G75*
G02*
X162540166Y-78289597I77403J1122334D01*
G01*
X162580166Y-77709597D01*
G75*
G02*
X163779903Y-76664666I1122334J-77403D01*
G01*
X163779903Y-76664666D01*
G75*
G02*
X164824834Y-77864403I-77403J-1122334D01*
G01*
X164784834Y-78444403D01*
G75*
G02*
X163585097Y-79489334I-1122334J77403D01*
G01*
G37*
D14*
X185292500Y-82867000D03*
X175132500Y-82867000D03*
D15*
X177712500Y-78867000D03*
D16*
X180212500Y-82867000D03*
G36*
G01*
X175651188Y-81164350D02*
X175651183Y-81164345D01*
G75*
G02*
X175565155Y-79575683I751317J837345D01*
G01*
X176875157Y-78115683D01*
G75*
G02*
X178463819Y-78029655I837345J-751317D01*
G01*
X178463819Y-78029655D01*
G75*
G02*
X178549847Y-79618317I-751317J-837345D01*
G01*
X177239845Y-81078317D01*
G75*
G02*
X175651183Y-81164345I-837345J751317D01*
G01*
G37*
D15*
X182752500Y-77787000D03*
G36*
G01*
X182635983Y-79489395D02*
X182635097Y-79489334D01*
G75*
G02*
X181590166Y-78289597I77403J1122334D01*
G01*
X181630166Y-77709597D01*
G75*
G02*
X182829903Y-76664666I1122334J-77403D01*
G01*
X182829903Y-76664666D01*
G75*
G02*
X183874834Y-77864403I-77403J-1122334D01*
G01*
X183834834Y-78444403D01*
G75*
G02*
X182635097Y-79489334I-1122334J77403D01*
G01*
G37*
D14*
X204342500Y-82867000D03*
X194182500Y-82867000D03*
D15*
X196762500Y-78867000D03*
D16*
X199262500Y-82867000D03*
G36*
G01*
X194701188Y-81164350D02*
X194701183Y-81164345D01*
G75*
G02*
X194615155Y-79575683I751317J837345D01*
G01*
X195925157Y-78115683D01*
G75*
G02*
X197513819Y-78029655I837345J-751317D01*
G01*
X197513819Y-78029655D01*
G75*
G02*
X197599847Y-79618317I-751317J-837345D01*
G01*
X196289845Y-81078317D01*
G75*
G02*
X194701183Y-81164345I-837345J751317D01*
G01*
G37*
D15*
X201802500Y-77787000D03*
G36*
G01*
X201685983Y-79489395D02*
X201685097Y-79489334D01*
G75*
G02*
X200640166Y-78289597I77403J1122334D01*
G01*
X200680166Y-77709597D01*
G75*
G02*
X201879903Y-76664666I1122334J-77403D01*
G01*
X201879903Y-76664666D01*
G75*
G02*
X202924834Y-77864403I-77403J-1122334D01*
G01*
X202884834Y-78444403D01*
G75*
G02*
X201685097Y-79489334I-1122334J77403D01*
G01*
G37*
D14*
X223392500Y-82867000D03*
X213232500Y-82867000D03*
D15*
X215812500Y-78867000D03*
D16*
X218312500Y-82867000D03*
G36*
G01*
X213751188Y-81164350D02*
X213751183Y-81164345D01*
G75*
G02*
X213665155Y-79575683I751317J837345D01*
G01*
X214975157Y-78115683D01*
G75*
G02*
X216563819Y-78029655I837345J-751317D01*
G01*
X216563819Y-78029655D01*
G75*
G02*
X216649847Y-79618317I-751317J-837345D01*
G01*
X215339845Y-81078317D01*
G75*
G02*
X213751183Y-81164345I-837345J751317D01*
G01*
G37*
D15*
X220852500Y-77787000D03*
G36*
G01*
X220735983Y-79489395D02*
X220735097Y-79489334D01*
G75*
G02*
X219690166Y-78289597I77403J1122334D01*
G01*
X219730166Y-77709597D01*
G75*
G02*
X220929903Y-76664666I1122334J-77403D01*
G01*
X220929903Y-76664666D01*
G75*
G02*
X221974834Y-77864403I-77403J-1122334D01*
G01*
X221934834Y-78444403D01*
G75*
G02*
X220735097Y-79489334I-1122334J77403D01*
G01*
G37*
D14*
X242442500Y-82867000D03*
X232282500Y-82867000D03*
D15*
X234862500Y-78867000D03*
D16*
X237362500Y-82867000D03*
G36*
G01*
X232801188Y-81164350D02*
X232801183Y-81164345D01*
G75*
G02*
X232715155Y-79575683I751317J837345D01*
G01*
X234025157Y-78115683D01*
G75*
G02*
X235613819Y-78029655I837345J-751317D01*
G01*
X235613819Y-78029655D01*
G75*
G02*
X235699847Y-79618317I-751317J-837345D01*
G01*
X234389845Y-81078317D01*
G75*
G02*
X232801183Y-81164345I-837345J751317D01*
G01*
G37*
D15*
X239902500Y-77787000D03*
G36*
G01*
X239785983Y-79489395D02*
X239785097Y-79489334D01*
G75*
G02*
X238740166Y-78289597I77403J1122334D01*
G01*
X238780166Y-77709597D01*
G75*
G02*
X239979903Y-76664666I1122334J-77403D01*
G01*
X239979903Y-76664666D01*
G75*
G02*
X241024834Y-77864403I-77403J-1122334D01*
G01*
X240984834Y-78444403D01*
G75*
G02*
X239785097Y-79489334I-1122334J77403D01*
G01*
G37*
D16*
X280256750Y-91122000D03*
X256380750Y-91122000D03*
D17*
X280256750Y-75882000D03*
X256380750Y-75882000D03*
D14*
X273398750Y-82867000D03*
X263238750Y-82867000D03*
D15*
X265818750Y-78867000D03*
D16*
X268318750Y-82867000D03*
G36*
G01*
X263757438Y-81164350D02*
X263757433Y-81164345D01*
G75*
G02*
X263671405Y-79575683I751317J837345D01*
G01*
X264981407Y-78115683D01*
G75*
G02*
X266570069Y-78029655I837345J-751317D01*
G01*
X266570069Y-78029655D01*
G75*
G02*
X266656097Y-79618317I-751317J-837345D01*
G01*
X265346095Y-81078317D01*
G75*
G02*
X263757433Y-81164345I-837345J751317D01*
G01*
G37*
D15*
X270858750Y-77787000D03*
G36*
G01*
X270742233Y-79489395D02*
X270741347Y-79489334D01*
G75*
G02*
X269696416Y-78289597I77403J1122334D01*
G01*
X269736416Y-77709597D01*
G75*
G02*
X270936153Y-76664666I1122334J-77403D01*
G01*
X270936153Y-76664666D01*
G75*
G02*
X271981084Y-77864403I-77403J-1122334D01*
G01*
X271941084Y-78444403D01*
G75*
G02*
X270741347Y-79489334I-1122334J77403D01*
G01*
G37*
D16*
X37369250Y-110172000D03*
X13493250Y-110172000D03*
D17*
X37369250Y-94932000D03*
X13493250Y-94932000D03*
D14*
X30511250Y-101917000D03*
X20351250Y-101917000D03*
D15*
X22931250Y-97917000D03*
D16*
X25431250Y-101917000D03*
G36*
G01*
X20869938Y-100214350D02*
X20869933Y-100214345D01*
G75*
G02*
X20783905Y-98625683I751317J837345D01*
G01*
X22093907Y-97165683D01*
G75*
G02*
X23682569Y-97079655I837345J-751317D01*
G01*
X23682569Y-97079655D01*
G75*
G02*
X23768597Y-98668317I-751317J-837345D01*
G01*
X22458595Y-100128317D01*
G75*
G02*
X20869933Y-100214345I-837345J751317D01*
G01*
G37*
D15*
X27971250Y-96837000D03*
G36*
G01*
X27854733Y-98539395D02*
X27853847Y-98539334D01*
G75*
G02*
X26808916Y-97339597I77403J1122334D01*
G01*
X26848916Y-96759597D01*
G75*
G02*
X28048653Y-95714666I1122334J-77403D01*
G01*
X28048653Y-95714666D01*
G75*
G02*
X29093584Y-96914403I-77403J-1122334D01*
G01*
X29053584Y-97494403D01*
G75*
G02*
X27853847Y-98539334I-1122334J77403D01*
G01*
G37*
D14*
X61467500Y-101917000D03*
X51307500Y-101917000D03*
D15*
X53887500Y-97917000D03*
D16*
X56387500Y-101917000D03*
G36*
G01*
X51826188Y-100214350D02*
X51826183Y-100214345D01*
G75*
G02*
X51740155Y-98625683I751317J837345D01*
G01*
X53050157Y-97165683D01*
G75*
G02*
X54638819Y-97079655I837345J-751317D01*
G01*
X54638819Y-97079655D01*
G75*
G02*
X54724847Y-98668317I-751317J-837345D01*
G01*
X53414845Y-100128317D01*
G75*
G02*
X51826183Y-100214345I-837345J751317D01*
G01*
G37*
D15*
X58927500Y-96837000D03*
G36*
G01*
X58810983Y-98539395D02*
X58810097Y-98539334D01*
G75*
G02*
X57765166Y-97339597I77403J1122334D01*
G01*
X57805166Y-96759597D01*
G75*
G02*
X59004903Y-95714666I1122334J-77403D01*
G01*
X59004903Y-95714666D01*
G75*
G02*
X60049834Y-96914403I-77403J-1122334D01*
G01*
X60009834Y-97494403D01*
G75*
G02*
X58810097Y-98539334I-1122334J77403D01*
G01*
G37*
D14*
X80517500Y-101917000D03*
X70357500Y-101917000D03*
D15*
X72937500Y-97917000D03*
D16*
X75437500Y-101917000D03*
G36*
G01*
X70876188Y-100214350D02*
X70876183Y-100214345D01*
G75*
G02*
X70790155Y-98625683I751317J837345D01*
G01*
X72100157Y-97165683D01*
G75*
G02*
X73688819Y-97079655I837345J-751317D01*
G01*
X73688819Y-97079655D01*
G75*
G02*
X73774847Y-98668317I-751317J-837345D01*
G01*
X72464845Y-100128317D01*
G75*
G02*
X70876183Y-100214345I-837345J751317D01*
G01*
G37*
D15*
X77977500Y-96837000D03*
G36*
G01*
X77860983Y-98539395D02*
X77860097Y-98539334D01*
G75*
G02*
X76815166Y-97339597I77403J1122334D01*
G01*
X76855166Y-96759597D01*
G75*
G02*
X78054903Y-95714666I1122334J-77403D01*
G01*
X78054903Y-95714666D01*
G75*
G02*
X79099834Y-96914403I-77403J-1122334D01*
G01*
X79059834Y-97494403D01*
G75*
G02*
X77860097Y-98539334I-1122334J77403D01*
G01*
G37*
D14*
X99567500Y-101917000D03*
X89407500Y-101917000D03*
D15*
X91987500Y-97917000D03*
D16*
X94487500Y-101917000D03*
G36*
G01*
X89926188Y-100214350D02*
X89926183Y-100214345D01*
G75*
G02*
X89840155Y-98625683I751317J837345D01*
G01*
X91150157Y-97165683D01*
G75*
G02*
X92738819Y-97079655I837345J-751317D01*
G01*
X92738819Y-97079655D01*
G75*
G02*
X92824847Y-98668317I-751317J-837345D01*
G01*
X91514845Y-100128317D01*
G75*
G02*
X89926183Y-100214345I-837345J751317D01*
G01*
G37*
D15*
X97027500Y-96837000D03*
G36*
G01*
X96910983Y-98539395D02*
X96910097Y-98539334D01*
G75*
G02*
X95865166Y-97339597I77403J1122334D01*
G01*
X95905166Y-96759597D01*
G75*
G02*
X97104903Y-95714666I1122334J-77403D01*
G01*
X97104903Y-95714666D01*
G75*
G02*
X98149834Y-96914403I-77403J-1122334D01*
G01*
X98109834Y-97494403D01*
G75*
G02*
X96910097Y-98539334I-1122334J77403D01*
G01*
G37*
D14*
X118617500Y-101917000D03*
X108457500Y-101917000D03*
D15*
X111037500Y-97917000D03*
D16*
X113537500Y-101917000D03*
G36*
G01*
X108976188Y-100214350D02*
X108976183Y-100214345D01*
G75*
G02*
X108890155Y-98625683I751317J837345D01*
G01*
X110200157Y-97165683D01*
G75*
G02*
X111788819Y-97079655I837345J-751317D01*
G01*
X111788819Y-97079655D01*
G75*
G02*
X111874847Y-98668317I-751317J-837345D01*
G01*
X110564845Y-100128317D01*
G75*
G02*
X108976183Y-100214345I-837345J751317D01*
G01*
G37*
D15*
X116077500Y-96837000D03*
G36*
G01*
X115960983Y-98539395D02*
X115960097Y-98539334D01*
G75*
G02*
X114915166Y-97339597I77403J1122334D01*
G01*
X114955166Y-96759597D01*
G75*
G02*
X116154903Y-95714666I1122334J-77403D01*
G01*
X116154903Y-95714666D01*
G75*
G02*
X117199834Y-96914403I-77403J-1122334D01*
G01*
X117159834Y-97494403D01*
G75*
G02*
X115960097Y-98539334I-1122334J77403D01*
G01*
G37*
D14*
X137667500Y-101917000D03*
X127507500Y-101917000D03*
D15*
X130087500Y-97917000D03*
D16*
X132587500Y-101917000D03*
G36*
G01*
X128026188Y-100214350D02*
X128026183Y-100214345D01*
G75*
G02*
X127940155Y-98625683I751317J837345D01*
G01*
X129250157Y-97165683D01*
G75*
G02*
X130838819Y-97079655I837345J-751317D01*
G01*
X130838819Y-97079655D01*
G75*
G02*
X130924847Y-98668317I-751317J-837345D01*
G01*
X129614845Y-100128317D01*
G75*
G02*
X128026183Y-100214345I-837345J751317D01*
G01*
G37*
D15*
X135127500Y-96837000D03*
G36*
G01*
X135010983Y-98539395D02*
X135010097Y-98539334D01*
G75*
G02*
X133965166Y-97339597I77403J1122334D01*
G01*
X134005166Y-96759597D01*
G75*
G02*
X135204903Y-95714666I1122334J-77403D01*
G01*
X135204903Y-95714666D01*
G75*
G02*
X136249834Y-96914403I-77403J-1122334D01*
G01*
X136209834Y-97494403D01*
G75*
G02*
X135010097Y-98539334I-1122334J77403D01*
G01*
G37*
D14*
X156717500Y-101917000D03*
X146557500Y-101917000D03*
D15*
X149137500Y-97917000D03*
D16*
X151637500Y-101917000D03*
G36*
G01*
X147076188Y-100214350D02*
X147076183Y-100214345D01*
G75*
G02*
X146990155Y-98625683I751317J837345D01*
G01*
X148300157Y-97165683D01*
G75*
G02*
X149888819Y-97079655I837345J-751317D01*
G01*
X149888819Y-97079655D01*
G75*
G02*
X149974847Y-98668317I-751317J-837345D01*
G01*
X148664845Y-100128317D01*
G75*
G02*
X147076183Y-100214345I-837345J751317D01*
G01*
G37*
D15*
X154177500Y-96837000D03*
G36*
G01*
X154060983Y-98539395D02*
X154060097Y-98539334D01*
G75*
G02*
X153015166Y-97339597I77403J1122334D01*
G01*
X153055166Y-96759597D01*
G75*
G02*
X154254903Y-95714666I1122334J-77403D01*
G01*
X154254903Y-95714666D01*
G75*
G02*
X155299834Y-96914403I-77403J-1122334D01*
G01*
X155259834Y-97494403D01*
G75*
G02*
X154060097Y-98539334I-1122334J77403D01*
G01*
G37*
D14*
X175767500Y-101917000D03*
X165607500Y-101917000D03*
D15*
X168187500Y-97917000D03*
D16*
X170687500Y-101917000D03*
G36*
G01*
X166126188Y-100214350D02*
X166126183Y-100214345D01*
G75*
G02*
X166040155Y-98625683I751317J837345D01*
G01*
X167350157Y-97165683D01*
G75*
G02*
X168938819Y-97079655I837345J-751317D01*
G01*
X168938819Y-97079655D01*
G75*
G02*
X169024847Y-98668317I-751317J-837345D01*
G01*
X167714845Y-100128317D01*
G75*
G02*
X166126183Y-100214345I-837345J751317D01*
G01*
G37*
D15*
X173227500Y-96837000D03*
G36*
G01*
X173110983Y-98539395D02*
X173110097Y-98539334D01*
G75*
G02*
X172065166Y-97339597I77403J1122334D01*
G01*
X172105166Y-96759597D01*
G75*
G02*
X173304903Y-95714666I1122334J-77403D01*
G01*
X173304903Y-95714666D01*
G75*
G02*
X174349834Y-96914403I-77403J-1122334D01*
G01*
X174309834Y-97494403D01*
G75*
G02*
X173110097Y-98539334I-1122334J77403D01*
G01*
G37*
D14*
X194817500Y-101917000D03*
X184657500Y-101917000D03*
D15*
X187237500Y-97917000D03*
D16*
X189737500Y-101917000D03*
G36*
G01*
X185176188Y-100214350D02*
X185176183Y-100214345D01*
G75*
G02*
X185090155Y-98625683I751317J837345D01*
G01*
X186400157Y-97165683D01*
G75*
G02*
X187988819Y-97079655I837345J-751317D01*
G01*
X187988819Y-97079655D01*
G75*
G02*
X188074847Y-98668317I-751317J-837345D01*
G01*
X186764845Y-100128317D01*
G75*
G02*
X185176183Y-100214345I-837345J751317D01*
G01*
G37*
D15*
X192277500Y-96837000D03*
G36*
G01*
X192160983Y-98539395D02*
X192160097Y-98539334D01*
G75*
G02*
X191115166Y-97339597I77403J1122334D01*
G01*
X191155166Y-96759597D01*
G75*
G02*
X192354903Y-95714666I1122334J-77403D01*
G01*
X192354903Y-95714666D01*
G75*
G02*
X193399834Y-96914403I-77403J-1122334D01*
G01*
X193359834Y-97494403D01*
G75*
G02*
X192160097Y-98539334I-1122334J77403D01*
G01*
G37*
D14*
X213867500Y-101917000D03*
X203707500Y-101917000D03*
D15*
X206287500Y-97917000D03*
D16*
X208787500Y-101917000D03*
G36*
G01*
X204226188Y-100214350D02*
X204226183Y-100214345D01*
G75*
G02*
X204140155Y-98625683I751317J837345D01*
G01*
X205450157Y-97165683D01*
G75*
G02*
X207038819Y-97079655I837345J-751317D01*
G01*
X207038819Y-97079655D01*
G75*
G02*
X207124847Y-98668317I-751317J-837345D01*
G01*
X205814845Y-100128317D01*
G75*
G02*
X204226183Y-100214345I-837345J751317D01*
G01*
G37*
D15*
X211327500Y-96837000D03*
G36*
G01*
X211210983Y-98539395D02*
X211210097Y-98539334D01*
G75*
G02*
X210165166Y-97339597I77403J1122334D01*
G01*
X210205166Y-96759597D01*
G75*
G02*
X211404903Y-95714666I1122334J-77403D01*
G01*
X211404903Y-95714666D01*
G75*
G02*
X212449834Y-96914403I-77403J-1122334D01*
G01*
X212409834Y-97494403D01*
G75*
G02*
X211210097Y-98539334I-1122334J77403D01*
G01*
G37*
D14*
X232917500Y-101917000D03*
X222757500Y-101917000D03*
D15*
X225337500Y-97917000D03*
D16*
X227837500Y-101917000D03*
G36*
G01*
X223276188Y-100214350D02*
X223276183Y-100214345D01*
G75*
G02*
X223190155Y-98625683I751317J837345D01*
G01*
X224500157Y-97165683D01*
G75*
G02*
X226088819Y-97079655I837345J-751317D01*
G01*
X226088819Y-97079655D01*
G75*
G02*
X226174847Y-98668317I-751317J-837345D01*
G01*
X224864845Y-100128317D01*
G75*
G02*
X223276183Y-100214345I-837345J751317D01*
G01*
G37*
D15*
X230377500Y-96837000D03*
G36*
G01*
X230260983Y-98539395D02*
X230260097Y-98539334D01*
G75*
G02*
X229215166Y-97339597I77403J1122334D01*
G01*
X229255166Y-96759597D01*
G75*
G02*
X230454903Y-95714666I1122334J-77403D01*
G01*
X230454903Y-95714666D01*
G75*
G02*
X231499834Y-96914403I-77403J-1122334D01*
G01*
X231459834Y-97494403D01*
G75*
G02*
X230260097Y-98539334I-1122334J77403D01*
G01*
G37*
D16*
X275494250Y-110172000D03*
X251618250Y-110172000D03*
D17*
X275494250Y-94932000D03*
X251618250Y-94932000D03*
D14*
X268636250Y-101917000D03*
X258476250Y-101917000D03*
D15*
X261056250Y-97917000D03*
D16*
X263556250Y-101917000D03*
G36*
G01*
X258994938Y-100214350D02*
X258994933Y-100214345D01*
G75*
G02*
X258908905Y-98625683I751317J837345D01*
G01*
X260218907Y-97165683D01*
G75*
G02*
X261807569Y-97079655I837345J-751317D01*
G01*
X261807569Y-97079655D01*
G75*
G02*
X261893597Y-98668317I-751317J-837345D01*
G01*
X260583595Y-100128317D01*
G75*
G02*
X258994933Y-100214345I-837345J751317D01*
G01*
G37*
D15*
X266096250Y-96837000D03*
G36*
G01*
X265979733Y-98539395D02*
X265978847Y-98539334D01*
G75*
G02*
X264933916Y-97339597I77403J1122334D01*
G01*
X264973916Y-96759597D01*
G75*
G02*
X266173653Y-95714666I1122334J-77403D01*
G01*
X266173653Y-95714666D01*
G75*
G02*
X267218584Y-96914403I-77403J-1122334D01*
G01*
X267178584Y-97494403D01*
G75*
G02*
X265978847Y-98539334I-1122334J77403D01*
G01*
G37*
D14*
X328167500Y-101917000D03*
X318007500Y-101917000D03*
D15*
X320587500Y-97917000D03*
D16*
X323087500Y-101917000D03*
G36*
G01*
X318526188Y-100214350D02*
X318526183Y-100214345D01*
G75*
G02*
X318440155Y-98625683I751317J837345D01*
G01*
X319750157Y-97165683D01*
G75*
G02*
X321338819Y-97079655I837345J-751317D01*
G01*
X321338819Y-97079655D01*
G75*
G02*
X321424847Y-98668317I-751317J-837345D01*
G01*
X320114845Y-100128317D01*
G75*
G02*
X318526183Y-100214345I-837345J751317D01*
G01*
G37*
D15*
X325627500Y-96837000D03*
G36*
G01*
X325510983Y-98539395D02*
X325510097Y-98539334D01*
G75*
G02*
X324465166Y-97339597I77403J1122334D01*
G01*
X324505166Y-96759597D01*
G75*
G02*
X325704903Y-95714666I1122334J-77403D01*
G01*
X325704903Y-95714666D01*
G75*
G02*
X326749834Y-96914403I-77403J-1122334D01*
G01*
X326709834Y-97494403D01*
G75*
G02*
X325510097Y-98539334I-1122334J77403D01*
G01*
G37*
D14*
X20986250Y-120967000D03*
X10826250Y-120967000D03*
D15*
X13406250Y-116967000D03*
D16*
X15906250Y-120967000D03*
G36*
G01*
X11344938Y-119264350D02*
X11344933Y-119264345D01*
G75*
G02*
X11258905Y-117675683I751317J837345D01*
G01*
X12568907Y-116215683D01*
G75*
G02*
X14157569Y-116129655I837345J-751317D01*
G01*
X14157569Y-116129655D01*
G75*
G02*
X14243597Y-117718317I-751317J-837345D01*
G01*
X12933595Y-119178317D01*
G75*
G02*
X11344933Y-119264345I-837345J751317D01*
G01*
G37*
D15*
X18446250Y-115887000D03*
G36*
G01*
X18329733Y-117589395D02*
X18328847Y-117589334D01*
G75*
G02*
X17283916Y-116389597I77403J1122334D01*
G01*
X17323916Y-115809597D01*
G75*
G02*
X18523653Y-114764666I1122334J-77403D01*
G01*
X18523653Y-114764666D01*
G75*
G02*
X19568584Y-115964403I-77403J-1122334D01*
G01*
X19528584Y-116544403D01*
G75*
G02*
X18328847Y-117589334I-1122334J77403D01*
G01*
G37*
D14*
X44798750Y-120967000D03*
X34638750Y-120967000D03*
D15*
X37218750Y-116967000D03*
D16*
X39718750Y-120967000D03*
G36*
G01*
X35157438Y-119264350D02*
X35157433Y-119264345D01*
G75*
G02*
X35071405Y-117675683I751317J837345D01*
G01*
X36381407Y-116215683D01*
G75*
G02*
X37970069Y-116129655I837345J-751317D01*
G01*
X37970069Y-116129655D01*
G75*
G02*
X38056097Y-117718317I-751317J-837345D01*
G01*
X36746095Y-119178317D01*
G75*
G02*
X35157433Y-119264345I-837345J751317D01*
G01*
G37*
D15*
X42258750Y-115887000D03*
G36*
G01*
X42142233Y-117589395D02*
X42141347Y-117589334D01*
G75*
G02*
X41096416Y-116389597I77403J1122334D01*
G01*
X41136416Y-115809597D01*
G75*
G02*
X42336153Y-114764666I1122334J-77403D01*
G01*
X42336153Y-114764666D01*
G75*
G02*
X43381084Y-115964403I-77403J-1122334D01*
G01*
X43341084Y-116544403D01*
G75*
G02*
X42141347Y-117589334I-1122334J77403D01*
G01*
G37*
D14*
X68611250Y-120967000D03*
X58451250Y-120967000D03*
D15*
X61031250Y-116967000D03*
D16*
X63531250Y-120967000D03*
G36*
G01*
X58969938Y-119264350D02*
X58969933Y-119264345D01*
G75*
G02*
X58883905Y-117675683I751317J837345D01*
G01*
X60193907Y-116215683D01*
G75*
G02*
X61782569Y-116129655I837345J-751317D01*
G01*
X61782569Y-116129655D01*
G75*
G02*
X61868597Y-117718317I-751317J-837345D01*
G01*
X60558595Y-119178317D01*
G75*
G02*
X58969933Y-119264345I-837345J751317D01*
G01*
G37*
D15*
X66071250Y-115887000D03*
G36*
G01*
X65954733Y-117589395D02*
X65953847Y-117589334D01*
G75*
G02*
X64908916Y-116389597I77403J1122334D01*
G01*
X64948916Y-115809597D01*
G75*
G02*
X66148653Y-114764666I1122334J-77403D01*
G01*
X66148653Y-114764666D01*
G75*
G02*
X67193584Y-115964403I-77403J-1122334D01*
G01*
X67153584Y-116544403D01*
G75*
G02*
X65953847Y-117589334I-1122334J77403D01*
G01*
G37*
D14*
X211486250Y-120967000D03*
X201326250Y-120967000D03*
D15*
X203906250Y-116967000D03*
D16*
X206406250Y-120967000D03*
G36*
G01*
X201844938Y-119264350D02*
X201844933Y-119264345D01*
G75*
G02*
X201758905Y-117675683I751317J837345D01*
G01*
X203068907Y-116215683D01*
G75*
G02*
X204657569Y-116129655I837345J-751317D01*
G01*
X204657569Y-116129655D01*
G75*
G02*
X204743597Y-117718317I-751317J-837345D01*
G01*
X203433595Y-119178317D01*
G75*
G02*
X201844933Y-119264345I-837345J751317D01*
G01*
G37*
D15*
X208946250Y-115887000D03*
G36*
G01*
X208829733Y-117589395D02*
X208828847Y-117589334D01*
G75*
G02*
X207783916Y-116389597I77403J1122334D01*
G01*
X207823916Y-115809597D01*
G75*
G02*
X209023653Y-114764666I1122334J-77403D01*
G01*
X209023653Y-114764666D01*
G75*
G02*
X210068584Y-115964403I-77403J-1122334D01*
G01*
X210028584Y-116544403D01*
G75*
G02*
X208828847Y-117589334I-1122334J77403D01*
G01*
G37*
D14*
X235298750Y-120967000D03*
X225138750Y-120967000D03*
D15*
X227718750Y-116967000D03*
D16*
X230218750Y-120967000D03*
G36*
G01*
X225657438Y-119264350D02*
X225657433Y-119264345D01*
G75*
G02*
X225571405Y-117675683I751317J837345D01*
G01*
X226881407Y-116215683D01*
G75*
G02*
X228470069Y-116129655I837345J-751317D01*
G01*
X228470069Y-116129655D01*
G75*
G02*
X228556097Y-117718317I-751317J-837345D01*
G01*
X227246095Y-119178317D01*
G75*
G02*
X225657433Y-119264345I-837345J751317D01*
G01*
G37*
D15*
X232758750Y-115887000D03*
G36*
G01*
X232642233Y-117589395D02*
X232641347Y-117589334D01*
G75*
G02*
X231596416Y-116389597I77403J1122334D01*
G01*
X231636416Y-115809597D01*
G75*
G02*
X232836153Y-114764666I1122334J-77403D01*
G01*
X232836153Y-114764666D01*
G75*
G02*
X233881084Y-115964403I-77403J-1122334D01*
G01*
X233841084Y-116544403D01*
G75*
G02*
X232641347Y-117589334I-1122334J77403D01*
G01*
G37*
D14*
X282923750Y-120967000D03*
X272763750Y-120967000D03*
D15*
X275343750Y-116967000D03*
D16*
X277843750Y-120967000D03*
G36*
G01*
X273282438Y-119264350D02*
X273282433Y-119264345D01*
G75*
G02*
X273196405Y-117675683I751317J837345D01*
G01*
X274506407Y-116215683D01*
G75*
G02*
X276095069Y-116129655I837345J-751317D01*
G01*
X276095069Y-116129655D01*
G75*
G02*
X276181097Y-117718317I-751317J-837345D01*
G01*
X274871095Y-119178317D01*
G75*
G02*
X273282433Y-119264345I-837345J751317D01*
G01*
G37*
D15*
X280383750Y-115887000D03*
G36*
G01*
X280267233Y-117589395D02*
X280266347Y-117589334D01*
G75*
G02*
X279221416Y-116389597I77403J1122334D01*
G01*
X279261416Y-115809597D01*
G75*
G02*
X280461153Y-114764666I1122334J-77403D01*
G01*
X280461153Y-114764666D01*
G75*
G02*
X281506084Y-115964403I-77403J-1122334D01*
G01*
X281466084Y-116544403D01*
G75*
G02*
X280266347Y-117589334I-1122334J77403D01*
G01*
G37*
D14*
X309117500Y-120967000D03*
X298957500Y-120967000D03*
D15*
X301537500Y-116967000D03*
D16*
X304037500Y-120967000D03*
G36*
G01*
X299476188Y-119264350D02*
X299476183Y-119264345D01*
G75*
G02*
X299390155Y-117675683I751317J837345D01*
G01*
X300700157Y-116215683D01*
G75*
G02*
X302288819Y-116129655I837345J-751317D01*
G01*
X302288819Y-116129655D01*
G75*
G02*
X302374847Y-117718317I-751317J-837345D01*
G01*
X301064845Y-119178317D01*
G75*
G02*
X299476183Y-119264345I-837345J751317D01*
G01*
G37*
D15*
X306577500Y-115887000D03*
G36*
G01*
X306460983Y-117589395D02*
X306460097Y-117589334D01*
G75*
G02*
X305415166Y-116389597I77403J1122334D01*
G01*
X305455166Y-115809597D01*
G75*
G02*
X306654903Y-114764666I1122334J-77403D01*
G01*
X306654903Y-114764666D01*
G75*
G02*
X307699834Y-115964403I-77403J-1122334D01*
G01*
X307659834Y-116544403D01*
G75*
G02*
X306460097Y-117589334I-1122334J77403D01*
G01*
G37*
D14*
X328167500Y-120967000D03*
X318007500Y-120967000D03*
D15*
X320587500Y-116967000D03*
D16*
X323087500Y-120967000D03*
G36*
G01*
X318526188Y-119264350D02*
X318526183Y-119264345D01*
G75*
G02*
X318440155Y-117675683I751317J837345D01*
G01*
X319750157Y-116215683D01*
G75*
G02*
X321338819Y-116129655I837345J-751317D01*
G01*
X321338819Y-116129655D01*
G75*
G02*
X321424847Y-117718317I-751317J-837345D01*
G01*
X320114845Y-119178317D01*
G75*
G02*
X318526183Y-119264345I-837345J751317D01*
G01*
G37*
D15*
X325627500Y-115887000D03*
G36*
G01*
X325510983Y-117589395D02*
X325510097Y-117589334D01*
G75*
G02*
X324465166Y-116389597I77403J1122334D01*
G01*
X324505166Y-115809597D01*
G75*
G02*
X325704903Y-114764666I1122334J-77403D01*
G01*
X325704903Y-114764666D01*
G75*
G02*
X326749834Y-115964403I-77403J-1122334D01*
G01*
X326709834Y-116544403D01*
G75*
G02*
X325510097Y-117589334I-1122334J77403D01*
G01*
G37*
D14*
X347217500Y-120967000D03*
X337057500Y-120967000D03*
D15*
X339637500Y-116967000D03*
D16*
X342137500Y-120967000D03*
G36*
G01*
X337576188Y-119264350D02*
X337576183Y-119264345D01*
G75*
G02*
X337490155Y-117675683I751317J837345D01*
G01*
X338800157Y-116215683D01*
G75*
G02*
X340388819Y-116129655I837345J-751317D01*
G01*
X340388819Y-116129655D01*
G75*
G02*
X340474847Y-117718317I-751317J-837345D01*
G01*
X339164845Y-119178317D01*
G75*
G02*
X337576183Y-119264345I-837345J751317D01*
G01*
G37*
D15*
X344677500Y-115887000D03*
G36*
G01*
X344560983Y-117589395D02*
X344560097Y-117589334D01*
G75*
G02*
X343515166Y-116389597I77403J1122334D01*
G01*
X343555166Y-115809597D01*
G75*
G02*
X344754903Y-114764666I1122334J-77403D01*
G01*
X344754903Y-114764666D01*
G75*
G02*
X345799834Y-115964403I-77403J-1122334D01*
G01*
X345759834Y-116544403D01*
G75*
G02*
X344560097Y-117589334I-1122334J77403D01*
G01*
G37*
D18*
X258808000Y-4638000D03*
X263658000Y-4638000D03*
D19*
X263958000Y-1608000D03*
X258508000Y-1608000D03*
D10*
X335153000Y-5588000D03*
D11*
X335153000Y-3048000D03*
D20*
X22050000Y-24567000D03*
X22050000Y-27867000D03*
X60150000Y-24567000D03*
X60150000Y-27867000D03*
X79200000Y-24567000D03*
X79200000Y-27867000D03*
X98250000Y-24567000D03*
X98250000Y-27867000D03*
X117300000Y-24567000D03*
X117300000Y-27867000D03*
X145875000Y-24567000D03*
X145875000Y-27867000D03*
X164925000Y-24567000D03*
X164925000Y-27867000D03*
X183975000Y-24567000D03*
X183975000Y-27867000D03*
X203025000Y-24567000D03*
X203025000Y-27867000D03*
X231600000Y-24567000D03*
X231600000Y-27867000D03*
X250650000Y-24567000D03*
X250650000Y-27867000D03*
X269700000Y-24567000D03*
X269700000Y-27867000D03*
X288750000Y-24567000D03*
X288750000Y-27867000D03*
X312562500Y-24567000D03*
X312562500Y-27867000D03*
X331612500Y-24567000D03*
X331612500Y-27867000D03*
X350662500Y-24567000D03*
X350662500Y-27867000D03*
X22050000Y-43617000D03*
X22050000Y-46917000D03*
X41100000Y-43617000D03*
X41100000Y-46917000D03*
X60150000Y-43617000D03*
X60150000Y-46917000D03*
X79200000Y-43617000D03*
X79200000Y-46917000D03*
X98250000Y-43617000D03*
X98250000Y-46917000D03*
X117300000Y-43617000D03*
X117300000Y-46917000D03*
X136350000Y-43617000D03*
X136350000Y-46917000D03*
X155400000Y-43617000D03*
X155400000Y-46917000D03*
X174450000Y-43617000D03*
X174450000Y-46917000D03*
X193500000Y-43617000D03*
X193500000Y-46917000D03*
X212550000Y-43617000D03*
X212550000Y-46917000D03*
X231600000Y-43617000D03*
X231600000Y-46917000D03*
X250650000Y-43617000D03*
X250650000Y-46917000D03*
X288750000Y-43617000D03*
X288750000Y-46917000D03*
X312562500Y-43617000D03*
X312562500Y-46917000D03*
X331612500Y-43617000D03*
X331612500Y-46917000D03*
X350662500Y-43617000D03*
X350662500Y-46917000D03*
X31575000Y-62667000D03*
X31575000Y-65967000D03*
X50625000Y-62667000D03*
X50625000Y-65967000D03*
X69675000Y-62667000D03*
X69675000Y-65967000D03*
X88725000Y-62667000D03*
X88725000Y-65967000D03*
X107775000Y-62667000D03*
X107775000Y-65967000D03*
X126825000Y-62667000D03*
X126825000Y-65967000D03*
X145875000Y-62667000D03*
X145875000Y-65967000D03*
X164925000Y-62667000D03*
X164925000Y-65967000D03*
X183975000Y-62667000D03*
X183975000Y-65967000D03*
X203025000Y-62667000D03*
X203025000Y-65967000D03*
X222075000Y-62667000D03*
X222075000Y-65967000D03*
X241125000Y-62667000D03*
X241125000Y-65967000D03*
X260175000Y-62667000D03*
X260175000Y-65967000D03*
X288750000Y-62667000D03*
X288750000Y-65967000D03*
X312562500Y-62667000D03*
X312562500Y-65967000D03*
X331612500Y-62667000D03*
X331612500Y-65967000D03*
X350662500Y-62667000D03*
X350662500Y-65967000D03*
X36337500Y-81717000D03*
X36337500Y-85017000D03*
X55387500Y-81717000D03*
X55387500Y-85017000D03*
X74437500Y-81717000D03*
X74437500Y-85017000D03*
X93487500Y-81717000D03*
X93487500Y-85017000D03*
X112537500Y-81717000D03*
X112537500Y-85017000D03*
X131587500Y-81717000D03*
X131587500Y-85017000D03*
X150637500Y-81717000D03*
X150637500Y-85017000D03*
X169687500Y-81717000D03*
X169687500Y-85017000D03*
X188737500Y-81717000D03*
X188737500Y-85017000D03*
X207787500Y-81717000D03*
X207787500Y-85017000D03*
X226837500Y-81717000D03*
X226837500Y-85017000D03*
X245887500Y-81717000D03*
X245887500Y-85017000D03*
X288750000Y-81717000D03*
X288750000Y-85017000D03*
X45862500Y-100767000D03*
X45862500Y-104067000D03*
X64912500Y-100767000D03*
X64912500Y-104067000D03*
X83962500Y-100767000D03*
X83962500Y-104067000D03*
X103012500Y-100767000D03*
X103012500Y-104067000D03*
X122062500Y-100767000D03*
X122062500Y-104067000D03*
X141112500Y-100767000D03*
X141112500Y-104067000D03*
X160162500Y-100767000D03*
X160162500Y-104067000D03*
X179212500Y-100767000D03*
X179212500Y-104067000D03*
X198262500Y-100767000D03*
X198262500Y-104067000D03*
X217312500Y-100767000D03*
X217312500Y-104067000D03*
X236362500Y-100767000D03*
X236362500Y-104067000D03*
X288750000Y-100767000D03*
X288750000Y-104067000D03*
X331612500Y-100767000D03*
X331612500Y-104067000D03*
X26812500Y-119817000D03*
X26812500Y-123117000D03*
X50625000Y-119817000D03*
X50625000Y-123117000D03*
X74437500Y-119817000D03*
X74437500Y-123117000D03*
X193500000Y-119817000D03*
X193500000Y-123117000D03*
X217312500Y-119817000D03*
X217312500Y-123117000D03*
X241125000Y-119817000D03*
X241125000Y-123117000D03*
X264937500Y-119817000D03*
X264937500Y-123117000D03*
X288750000Y-119817000D03*
X288750000Y-123117000D03*
X312562500Y-119817000D03*
X312562500Y-123117000D03*
X331612500Y-119817000D03*
X331612500Y-123117000D03*
X350662500Y-119817000D03*
X350662500Y-123117000D03*
M02*
