G04 #@! TF.GenerationSoftware,KiCad,Pcbnew,(5.1.12)-1*
G04 #@! TF.CreationDate,2023-01-19T19:38:23-07:00*
G04 #@! TF.ProjectId,keyboard,6b657962-6f61-4726-942e-6b696361645f,rev?*
G04 #@! TF.SameCoordinates,Original*
G04 #@! TF.FileFunction,Legend,Top*
G04 #@! TF.FilePolarity,Positive*
%FSLAX46Y46*%
G04 Gerber Fmt 4.6, Leading zero omitted, Abs format (unit mm)*
G04 Created by KiCad (PCBNEW (5.1.12)-1) date 2023-01-19 19:38:23*
%MOMM*%
%LPD*%
G01*
G04 APERTURE LIST*
%ADD10C,0.120000*%
%ADD11C,0.150000*%
G04 APERTURE END LIST*
D10*
X308610000Y-65463000D02*
X311335000Y-65463000D01*
X311335000Y-65463000D02*
X311335000Y-65203000D01*
X308610000Y-65463000D02*
X305885000Y-65463000D01*
X305885000Y-65463000D02*
X305885000Y-65203000D01*
X308610000Y-60013000D02*
X311335000Y-60013000D01*
X311335000Y-60013000D02*
X311335000Y-60273000D01*
X308610000Y-60013000D02*
X305885000Y-60013000D01*
X305885000Y-60013000D02*
X305885000Y-60273000D01*
X305885000Y-60273000D02*
X304210000Y-60273000D01*
X304642000Y-85080000D02*
X292042000Y-85080000D01*
X304642000Y-90180000D02*
X304642000Y-88930000D01*
X292042000Y-90180000D02*
X304642000Y-90180000D01*
X304642000Y-86330000D02*
X304642000Y-85080000D01*
X317138164Y-60981000D02*
X317353836Y-60981000D01*
X317138164Y-61701000D02*
X317353836Y-61701000D01*
X324123164Y-60981000D02*
X324338836Y-60981000D01*
X324123164Y-61701000D02*
X324338836Y-61701000D01*
X327219000Y-65211000D02*
X329879000Y-65211000D01*
X327219000Y-62611000D02*
X327219000Y-65211000D01*
X329879000Y-62611000D02*
X329879000Y-65211000D01*
X327219000Y-62611000D02*
X329879000Y-62611000D01*
X327219000Y-61341000D02*
X327219000Y-60011000D01*
X327219000Y-60011000D02*
X328549000Y-60011000D01*
X312447000Y-73032252D02*
X312447000Y-72509748D01*
X313917000Y-73032252D02*
X313917000Y-72509748D01*
X339831000Y-72663164D02*
X339831000Y-72878836D01*
X339111000Y-72663164D02*
X339111000Y-72878836D01*
X337545000Y-72663164D02*
X337545000Y-72878836D01*
X336825000Y-72663164D02*
X336825000Y-72878836D01*
X335259000Y-72663164D02*
X335259000Y-72878836D01*
X334539000Y-72663164D02*
X334539000Y-72878836D01*
X332973000Y-72663164D02*
X332973000Y-72878836D01*
X332253000Y-72663164D02*
X332253000Y-72878836D01*
X330687000Y-72663164D02*
X330687000Y-72878836D01*
X329967000Y-72663164D02*
X329967000Y-72878836D01*
X328274000Y-72663164D02*
X328274000Y-72878836D01*
X327554000Y-72663164D02*
X327554000Y-72878836D01*
X325988000Y-72663164D02*
X325988000Y-72878836D01*
X325268000Y-72663164D02*
X325268000Y-72878836D01*
X311384836Y-58399000D02*
X311169164Y-58399000D01*
X311384836Y-57679000D02*
X311169164Y-57679000D01*
X293262164Y-90572000D02*
X293477836Y-90572000D01*
X293262164Y-91292000D02*
X293477836Y-91292000D01*
X302406164Y-90572000D02*
X302621836Y-90572000D01*
X302406164Y-91292000D02*
X302621836Y-91292000D01*
D11*
X307848095Y-58630380D02*
X307848095Y-59439904D01*
X307895714Y-59535142D01*
X307943333Y-59582761D01*
X308038571Y-59630380D01*
X308229047Y-59630380D01*
X308324285Y-59582761D01*
X308371904Y-59535142D01*
X308419523Y-59439904D01*
X308419523Y-58630380D01*
X308848095Y-58725619D02*
X308895714Y-58678000D01*
X308990952Y-58630380D01*
X309229047Y-58630380D01*
X309324285Y-58678000D01*
X309371904Y-58725619D01*
X309419523Y-58820857D01*
X309419523Y-58916095D01*
X309371904Y-59058952D01*
X308800476Y-59630380D01*
X309419523Y-59630380D01*
X297465809Y-91156190D02*
X297465809Y-91632380D01*
X297132476Y-90632380D02*
X297465809Y-91156190D01*
X297799142Y-90632380D01*
X298656285Y-91632380D02*
X298084857Y-91632380D01*
X298370571Y-91632380D02*
X298370571Y-90632380D01*
X298275333Y-90775238D01*
X298180095Y-90870476D01*
X298084857Y-90918095D01*
X317079333Y-60633380D02*
X316746000Y-60157190D01*
X316507904Y-60633380D02*
X316507904Y-59633380D01*
X316888857Y-59633380D01*
X316984095Y-59681000D01*
X317031714Y-59728619D01*
X317079333Y-59823857D01*
X317079333Y-59966714D01*
X317031714Y-60061952D01*
X316984095Y-60109571D01*
X316888857Y-60157190D01*
X316507904Y-60157190D01*
X317460285Y-59728619D02*
X317507904Y-59681000D01*
X317603142Y-59633380D01*
X317841238Y-59633380D01*
X317936476Y-59681000D01*
X317984095Y-59728619D01*
X318031714Y-59823857D01*
X318031714Y-59919095D01*
X317984095Y-60061952D01*
X317412666Y-60633380D01*
X318031714Y-60633380D01*
X324064333Y-60633380D02*
X323731000Y-60157190D01*
X323492904Y-60633380D02*
X323492904Y-59633380D01*
X323873857Y-59633380D01*
X323969095Y-59681000D01*
X324016714Y-59728619D01*
X324064333Y-59823857D01*
X324064333Y-59966714D01*
X324016714Y-60061952D01*
X323969095Y-60109571D01*
X323873857Y-60157190D01*
X323492904Y-60157190D01*
X325016714Y-60633380D02*
X324445285Y-60633380D01*
X324731000Y-60633380D02*
X324731000Y-59633380D01*
X324635761Y-59776238D01*
X324540523Y-59871476D01*
X324445285Y-59919095D01*
X328215666Y-58463380D02*
X328215666Y-59177666D01*
X328168047Y-59320523D01*
X328072809Y-59415761D01*
X327929952Y-59463380D01*
X327834714Y-59463380D01*
X328644238Y-58558619D02*
X328691857Y-58511000D01*
X328787095Y-58463380D01*
X329025190Y-58463380D01*
X329120428Y-58511000D01*
X329168047Y-58558619D01*
X329215666Y-58653857D01*
X329215666Y-58749095D01*
X329168047Y-58891952D01*
X328596619Y-59463380D01*
X329215666Y-59463380D01*
X311859142Y-73413857D02*
X311906761Y-73461476D01*
X311954380Y-73604333D01*
X311954380Y-73699571D01*
X311906761Y-73842428D01*
X311811523Y-73937666D01*
X311716285Y-73985285D01*
X311525809Y-74032904D01*
X311382952Y-74032904D01*
X311192476Y-73985285D01*
X311097238Y-73937666D01*
X311002000Y-73842428D01*
X310954380Y-73699571D01*
X310954380Y-73604333D01*
X311002000Y-73461476D01*
X311049619Y-73413857D01*
X311954380Y-72461476D02*
X311954380Y-73032904D01*
X311954380Y-72747190D02*
X310954380Y-72747190D01*
X311097238Y-72842428D01*
X311192476Y-72937666D01*
X311240095Y-73032904D01*
X310954380Y-72128142D02*
X310954380Y-71461476D01*
X311954380Y-71890047D01*
X340988142Y-73413857D02*
X341035761Y-73461476D01*
X341083380Y-73604333D01*
X341083380Y-73699571D01*
X341035761Y-73842428D01*
X340940523Y-73937666D01*
X340845285Y-73985285D01*
X340654809Y-74032904D01*
X340511952Y-74032904D01*
X340321476Y-73985285D01*
X340226238Y-73937666D01*
X340131000Y-73842428D01*
X340083380Y-73699571D01*
X340083380Y-73604333D01*
X340131000Y-73461476D01*
X340178619Y-73413857D01*
X341083380Y-72461476D02*
X341083380Y-73032904D01*
X341083380Y-72747190D02*
X340083380Y-72747190D01*
X340226238Y-72842428D01*
X340321476Y-72937666D01*
X340369095Y-73032904D01*
X340083380Y-71604333D02*
X340083380Y-71794809D01*
X340131000Y-71890047D01*
X340178619Y-71937666D01*
X340321476Y-72032904D01*
X340511952Y-72080523D01*
X340892904Y-72080523D01*
X340988142Y-72032904D01*
X341035761Y-71985285D01*
X341083380Y-71890047D01*
X341083380Y-71699571D01*
X341035761Y-71604333D01*
X340988142Y-71556714D01*
X340892904Y-71509095D01*
X340654809Y-71509095D01*
X340559571Y-71556714D01*
X340511952Y-71604333D01*
X340464333Y-71699571D01*
X340464333Y-71890047D01*
X340511952Y-71985285D01*
X340559571Y-72032904D01*
X340654809Y-72080523D01*
X338702142Y-73413857D02*
X338749761Y-73461476D01*
X338797380Y-73604333D01*
X338797380Y-73699571D01*
X338749761Y-73842428D01*
X338654523Y-73937666D01*
X338559285Y-73985285D01*
X338368809Y-74032904D01*
X338225952Y-74032904D01*
X338035476Y-73985285D01*
X337940238Y-73937666D01*
X337845000Y-73842428D01*
X337797380Y-73699571D01*
X337797380Y-73604333D01*
X337845000Y-73461476D01*
X337892619Y-73413857D01*
X338797380Y-72461476D02*
X338797380Y-73032904D01*
X338797380Y-72747190D02*
X337797380Y-72747190D01*
X337940238Y-72842428D01*
X338035476Y-72937666D01*
X338083095Y-73032904D01*
X337797380Y-71556714D02*
X337797380Y-72032904D01*
X338273571Y-72080523D01*
X338225952Y-72032904D01*
X338178333Y-71937666D01*
X338178333Y-71699571D01*
X338225952Y-71604333D01*
X338273571Y-71556714D01*
X338368809Y-71509095D01*
X338606904Y-71509095D01*
X338702142Y-71556714D01*
X338749761Y-71604333D01*
X338797380Y-71699571D01*
X338797380Y-71937666D01*
X338749761Y-72032904D01*
X338702142Y-72080523D01*
X336416142Y-73413857D02*
X336463761Y-73461476D01*
X336511380Y-73604333D01*
X336511380Y-73699571D01*
X336463761Y-73842428D01*
X336368523Y-73937666D01*
X336273285Y-73985285D01*
X336082809Y-74032904D01*
X335939952Y-74032904D01*
X335749476Y-73985285D01*
X335654238Y-73937666D01*
X335559000Y-73842428D01*
X335511380Y-73699571D01*
X335511380Y-73604333D01*
X335559000Y-73461476D01*
X335606619Y-73413857D01*
X336511380Y-72461476D02*
X336511380Y-73032904D01*
X336511380Y-72747190D02*
X335511380Y-72747190D01*
X335654238Y-72842428D01*
X335749476Y-72937666D01*
X335797095Y-73032904D01*
X335844714Y-71604333D02*
X336511380Y-71604333D01*
X335463761Y-71842428D02*
X336178047Y-72080523D01*
X336178047Y-71461476D01*
X334130142Y-73413857D02*
X334177761Y-73461476D01*
X334225380Y-73604333D01*
X334225380Y-73699571D01*
X334177761Y-73842428D01*
X334082523Y-73937666D01*
X333987285Y-73985285D01*
X333796809Y-74032904D01*
X333653952Y-74032904D01*
X333463476Y-73985285D01*
X333368238Y-73937666D01*
X333273000Y-73842428D01*
X333225380Y-73699571D01*
X333225380Y-73604333D01*
X333273000Y-73461476D01*
X333320619Y-73413857D01*
X334225380Y-72461476D02*
X334225380Y-73032904D01*
X334225380Y-72747190D02*
X333225380Y-72747190D01*
X333368238Y-72842428D01*
X333463476Y-72937666D01*
X333511095Y-73032904D01*
X333225380Y-72128142D02*
X333225380Y-71509095D01*
X333606333Y-71842428D01*
X333606333Y-71699571D01*
X333653952Y-71604333D01*
X333701571Y-71556714D01*
X333796809Y-71509095D01*
X334034904Y-71509095D01*
X334130142Y-71556714D01*
X334177761Y-71604333D01*
X334225380Y-71699571D01*
X334225380Y-71985285D01*
X334177761Y-72080523D01*
X334130142Y-72128142D01*
X331844142Y-73413857D02*
X331891761Y-73461476D01*
X331939380Y-73604333D01*
X331939380Y-73699571D01*
X331891761Y-73842428D01*
X331796523Y-73937666D01*
X331701285Y-73985285D01*
X331510809Y-74032904D01*
X331367952Y-74032904D01*
X331177476Y-73985285D01*
X331082238Y-73937666D01*
X330987000Y-73842428D01*
X330939380Y-73699571D01*
X330939380Y-73604333D01*
X330987000Y-73461476D01*
X331034619Y-73413857D01*
X331939380Y-72461476D02*
X331939380Y-73032904D01*
X331939380Y-72747190D02*
X330939380Y-72747190D01*
X331082238Y-72842428D01*
X331177476Y-72937666D01*
X331225095Y-73032904D01*
X331034619Y-72080523D02*
X330987000Y-72032904D01*
X330939380Y-71937666D01*
X330939380Y-71699571D01*
X330987000Y-71604333D01*
X331034619Y-71556714D01*
X331129857Y-71509095D01*
X331225095Y-71509095D01*
X331367952Y-71556714D01*
X331939380Y-72128142D01*
X331939380Y-71509095D01*
X329431142Y-73413857D02*
X329478761Y-73461476D01*
X329526380Y-73604333D01*
X329526380Y-73699571D01*
X329478761Y-73842428D01*
X329383523Y-73937666D01*
X329288285Y-73985285D01*
X329097809Y-74032904D01*
X328954952Y-74032904D01*
X328764476Y-73985285D01*
X328669238Y-73937666D01*
X328574000Y-73842428D01*
X328526380Y-73699571D01*
X328526380Y-73604333D01*
X328574000Y-73461476D01*
X328621619Y-73413857D01*
X329526380Y-72461476D02*
X329526380Y-73032904D01*
X329526380Y-72747190D02*
X328526380Y-72747190D01*
X328669238Y-72842428D01*
X328764476Y-72937666D01*
X328812095Y-73032904D01*
X329526380Y-71509095D02*
X329526380Y-72080523D01*
X329526380Y-71794809D02*
X328526380Y-71794809D01*
X328669238Y-71890047D01*
X328764476Y-71985285D01*
X328812095Y-72080523D01*
X327145142Y-72937666D02*
X327192761Y-72985285D01*
X327240380Y-73128142D01*
X327240380Y-73223380D01*
X327192761Y-73366238D01*
X327097523Y-73461476D01*
X327002285Y-73509095D01*
X326811809Y-73556714D01*
X326668952Y-73556714D01*
X326478476Y-73509095D01*
X326383238Y-73461476D01*
X326288000Y-73366238D01*
X326240380Y-73223380D01*
X326240380Y-73128142D01*
X326288000Y-72985285D01*
X326335619Y-72937666D01*
X327240380Y-72461476D02*
X327240380Y-72271000D01*
X327192761Y-72175761D01*
X327145142Y-72128142D01*
X327002285Y-72032904D01*
X326811809Y-71985285D01*
X326430857Y-71985285D01*
X326335619Y-72032904D01*
X326288000Y-72080523D01*
X326240380Y-72175761D01*
X326240380Y-72366238D01*
X326288000Y-72461476D01*
X326335619Y-72509095D01*
X326430857Y-72556714D01*
X326668952Y-72556714D01*
X326764190Y-72509095D01*
X326811809Y-72461476D01*
X326859428Y-72366238D01*
X326859428Y-72175761D01*
X326811809Y-72080523D01*
X326764190Y-72032904D01*
X326668952Y-71985285D01*
X311110333Y-59556142D02*
X311062714Y-59603761D01*
X310919857Y-59651380D01*
X310824619Y-59651380D01*
X310681761Y-59603761D01*
X310586523Y-59508523D01*
X310538904Y-59413285D01*
X310491285Y-59222809D01*
X310491285Y-59079952D01*
X310538904Y-58889476D01*
X310586523Y-58794238D01*
X310681761Y-58699000D01*
X310824619Y-58651380D01*
X310919857Y-58651380D01*
X311062714Y-58699000D01*
X311110333Y-58746619D01*
X312015095Y-58651380D02*
X311538904Y-58651380D01*
X311491285Y-59127571D01*
X311538904Y-59079952D01*
X311634142Y-59032333D01*
X311872238Y-59032333D01*
X311967476Y-59079952D01*
X312015095Y-59127571D01*
X312062714Y-59222809D01*
X312062714Y-59460904D01*
X312015095Y-59556142D01*
X311967476Y-59603761D01*
X311872238Y-59651380D01*
X311634142Y-59651380D01*
X311538904Y-59603761D01*
X311491285Y-59556142D01*
X293203333Y-92559142D02*
X293155714Y-92606761D01*
X293012857Y-92654380D01*
X292917619Y-92654380D01*
X292774761Y-92606761D01*
X292679523Y-92511523D01*
X292631904Y-92416285D01*
X292584285Y-92225809D01*
X292584285Y-92082952D01*
X292631904Y-91892476D01*
X292679523Y-91797238D01*
X292774761Y-91702000D01*
X292917619Y-91654380D01*
X293012857Y-91654380D01*
X293155714Y-91702000D01*
X293203333Y-91749619D01*
X293536666Y-91654380D02*
X294155714Y-91654380D01*
X293822380Y-92035333D01*
X293965238Y-92035333D01*
X294060476Y-92082952D01*
X294108095Y-92130571D01*
X294155714Y-92225809D01*
X294155714Y-92463904D01*
X294108095Y-92559142D01*
X294060476Y-92606761D01*
X293965238Y-92654380D01*
X293679523Y-92654380D01*
X293584285Y-92606761D01*
X293536666Y-92559142D01*
X302347333Y-92559142D02*
X302299714Y-92606761D01*
X302156857Y-92654380D01*
X302061619Y-92654380D01*
X301918761Y-92606761D01*
X301823523Y-92511523D01*
X301775904Y-92416285D01*
X301728285Y-92225809D01*
X301728285Y-92082952D01*
X301775904Y-91892476D01*
X301823523Y-91797238D01*
X301918761Y-91702000D01*
X302061619Y-91654380D01*
X302156857Y-91654380D01*
X302299714Y-91702000D01*
X302347333Y-91749619D01*
X302728285Y-91749619D02*
X302775904Y-91702000D01*
X302871142Y-91654380D01*
X303109238Y-91654380D01*
X303204476Y-91702000D01*
X303252095Y-91749619D01*
X303299714Y-91844857D01*
X303299714Y-91940095D01*
X303252095Y-92082952D01*
X302680666Y-92654380D01*
X303299714Y-92654380D01*
M02*
