G04 #@! TF.GenerationSoftware,KiCad,Pcbnew,(5.1.12)-1*
G04 #@! TF.CreationDate,2023-01-21T13:53:20-07:00*
G04 #@! TF.ProjectId,keyboard,6b657962-6f61-4726-942e-6b696361645f,rev?*
G04 #@! TF.SameCoordinates,Original*
G04 #@! TF.FileFunction,Paste,Top*
G04 #@! TF.FilePolarity,Positive*
%FSLAX46Y46*%
G04 Gerber Fmt 4.6, Leading zero omitted, Abs format (unit mm)*
G04 Created by KiCad (PCBNEW (5.1.12)-1) date 2023-01-21 13:53:20*
%MOMM*%
%LPD*%
G01*
G04 APERTURE LIST*
%ADD10R,1.825000X0.700000*%
%ADD11R,2.000000X1.460000*%
%ADD12R,0.400000X1.750000*%
%ADD13R,1.425000X2.500000*%
%ADD14R,5.600000X2.100000*%
%ADD15R,2.000000X1.500000*%
%ADD16R,2.000000X3.800000*%
G04 APERTURE END LIST*
G36*
G01*
X228155000Y-6522500D02*
X228155000Y-6177500D01*
G75*
G02*
X228302500Y-6030000I147500J0D01*
G01*
X228597500Y-6030000D01*
G75*
G02*
X228745000Y-6177500I0J-147500D01*
G01*
X228745000Y-6522500D01*
G75*
G02*
X228597500Y-6670000I-147500J0D01*
G01*
X228302500Y-6670000D01*
G75*
G02*
X228155000Y-6522500I0J147500D01*
G01*
G37*
G36*
G01*
X227185000Y-6522500D02*
X227185000Y-6177500D01*
G75*
G02*
X227332500Y-6030000I147500J0D01*
G01*
X227627500Y-6030000D01*
G75*
G02*
X227775000Y-6177500I0J-147500D01*
G01*
X227775000Y-6522500D01*
G75*
G02*
X227627500Y-6670000I-147500J0D01*
G01*
X227332500Y-6670000D01*
G75*
G02*
X227185000Y-6522500I0J147500D01*
G01*
G37*
G36*
G01*
X198184000Y-8336500D02*
X198184000Y-8681500D01*
G75*
G02*
X198036500Y-8829000I-147500J0D01*
G01*
X197741500Y-8829000D01*
G75*
G02*
X197594000Y-8681500I0J147500D01*
G01*
X197594000Y-8336500D01*
G75*
G02*
X197741500Y-8189000I147500J0D01*
G01*
X198036500Y-8189000D01*
G75*
G02*
X198184000Y-8336500I0J-147500D01*
G01*
G37*
G36*
G01*
X199154000Y-8336500D02*
X199154000Y-8681500D01*
G75*
G02*
X199006500Y-8829000I-147500J0D01*
G01*
X198711500Y-8829000D01*
G75*
G02*
X198564000Y-8681500I0J147500D01*
G01*
X198564000Y-8336500D01*
G75*
G02*
X198711500Y-8189000I147500J0D01*
G01*
X199006500Y-8189000D01*
G75*
G02*
X199154000Y-8336500I0J-147500D01*
G01*
G37*
G36*
G01*
X266614000Y-5542500D02*
X266614000Y-5887500D01*
G75*
G02*
X266466500Y-6035000I-147500J0D01*
G01*
X266171500Y-6035000D01*
G75*
G02*
X266024000Y-5887500I0J147500D01*
G01*
X266024000Y-5542500D01*
G75*
G02*
X266171500Y-5395000I147500J0D01*
G01*
X266466500Y-5395000D01*
G75*
G02*
X266614000Y-5542500I0J-147500D01*
G01*
G37*
G36*
G01*
X267584000Y-5542500D02*
X267584000Y-5887500D01*
G75*
G02*
X267436500Y-6035000I-147500J0D01*
G01*
X267141500Y-6035000D01*
G75*
G02*
X266994000Y-5887500I0J147500D01*
G01*
X266994000Y-5542500D01*
G75*
G02*
X267141500Y-5395000I147500J0D01*
G01*
X267436500Y-5395000D01*
G75*
G02*
X267584000Y-5542500I0J-147500D01*
G01*
G37*
G36*
G01*
X296375000Y-2613000D02*
X296715000Y-2613000D01*
G75*
G02*
X296855000Y-2753000I0J-140000D01*
G01*
X296855000Y-3033000D01*
G75*
G02*
X296715000Y-3173000I-140000J0D01*
G01*
X296375000Y-3173000D01*
G75*
G02*
X296235000Y-3033000I0J140000D01*
G01*
X296235000Y-2753000D01*
G75*
G02*
X296375000Y-2613000I140000J0D01*
G01*
G37*
G36*
G01*
X296375000Y-1653000D02*
X296715000Y-1653000D01*
G75*
G02*
X296855000Y-1793000I0J-140000D01*
G01*
X296855000Y-2073000D01*
G75*
G02*
X296715000Y-2213000I-140000J0D01*
G01*
X296375000Y-2213000D01*
G75*
G02*
X296235000Y-2073000I0J140000D01*
G01*
X296235000Y-1793000D01*
G75*
G02*
X296375000Y-1653000I140000J0D01*
G01*
G37*
G36*
G01*
X297772000Y-2613000D02*
X298112000Y-2613000D01*
G75*
G02*
X298252000Y-2753000I0J-140000D01*
G01*
X298252000Y-3033000D01*
G75*
G02*
X298112000Y-3173000I-140000J0D01*
G01*
X297772000Y-3173000D01*
G75*
G02*
X297632000Y-3033000I0J140000D01*
G01*
X297632000Y-2753000D01*
G75*
G02*
X297772000Y-2613000I140000J0D01*
G01*
G37*
G36*
G01*
X297772000Y-1653000D02*
X298112000Y-1653000D01*
G75*
G02*
X298252000Y-1793000I0J-140000D01*
G01*
X298252000Y-2073000D01*
G75*
G02*
X298112000Y-2213000I-140000J0D01*
G01*
X297772000Y-2213000D01*
G75*
G02*
X297632000Y-2073000I0J140000D01*
G01*
X297632000Y-1793000D01*
G75*
G02*
X297772000Y-1653000I140000J0D01*
G01*
G37*
G36*
G01*
X326015000Y-2309000D02*
X326015000Y-2009000D01*
G75*
G02*
X326165000Y-1859000I150000J0D01*
G01*
X327465000Y-1859000D01*
G75*
G02*
X327615000Y-2009000I0J-150000D01*
G01*
X327615000Y-2309000D01*
G75*
G02*
X327465000Y-2459000I-150000J0D01*
G01*
X326165000Y-2459000D01*
G75*
G02*
X326015000Y-2309000I0J150000D01*
G01*
G37*
G36*
G01*
X326015000Y-3579000D02*
X326015000Y-3279000D01*
G75*
G02*
X326165000Y-3129000I150000J0D01*
G01*
X327465000Y-3129000D01*
G75*
G02*
X327615000Y-3279000I0J-150000D01*
G01*
X327615000Y-3579000D01*
G75*
G02*
X327465000Y-3729000I-150000J0D01*
G01*
X326165000Y-3729000D01*
G75*
G02*
X326015000Y-3579000I0J150000D01*
G01*
G37*
G36*
G01*
X326015000Y-4849000D02*
X326015000Y-4549000D01*
G75*
G02*
X326165000Y-4399000I150000J0D01*
G01*
X327465000Y-4399000D01*
G75*
G02*
X327615000Y-4549000I0J-150000D01*
G01*
X327615000Y-4849000D01*
G75*
G02*
X327465000Y-4999000I-150000J0D01*
G01*
X326165000Y-4999000D01*
G75*
G02*
X326015000Y-4849000I0J150000D01*
G01*
G37*
G36*
G01*
X326015000Y-6119000D02*
X326015000Y-5819000D01*
G75*
G02*
X326165000Y-5669000I150000J0D01*
G01*
X327465000Y-5669000D01*
G75*
G02*
X327615000Y-5819000I0J-150000D01*
G01*
X327615000Y-6119000D01*
G75*
G02*
X327465000Y-6269000I-150000J0D01*
G01*
X326165000Y-6269000D01*
G75*
G02*
X326015000Y-6119000I0J150000D01*
G01*
G37*
G36*
G01*
X318815000Y-6119000D02*
X318815000Y-5819000D01*
G75*
G02*
X318965000Y-5669000I150000J0D01*
G01*
X320265000Y-5669000D01*
G75*
G02*
X320415000Y-5819000I0J-150000D01*
G01*
X320415000Y-6119000D01*
G75*
G02*
X320265000Y-6269000I-150000J0D01*
G01*
X318965000Y-6269000D01*
G75*
G02*
X318815000Y-6119000I0J150000D01*
G01*
G37*
G36*
G01*
X318815000Y-4849000D02*
X318815000Y-4549000D01*
G75*
G02*
X318965000Y-4399000I150000J0D01*
G01*
X320265000Y-4399000D01*
G75*
G02*
X320415000Y-4549000I0J-150000D01*
G01*
X320415000Y-4849000D01*
G75*
G02*
X320265000Y-4999000I-150000J0D01*
G01*
X318965000Y-4999000D01*
G75*
G02*
X318815000Y-4849000I0J150000D01*
G01*
G37*
G36*
G01*
X318815000Y-3579000D02*
X318815000Y-3279000D01*
G75*
G02*
X318965000Y-3129000I150000J0D01*
G01*
X320265000Y-3129000D01*
G75*
G02*
X320415000Y-3279000I0J-150000D01*
G01*
X320415000Y-3579000D01*
G75*
G02*
X320265000Y-3729000I-150000J0D01*
G01*
X318965000Y-3729000D01*
G75*
G02*
X318815000Y-3579000I0J150000D01*
G01*
G37*
G36*
G01*
X318815000Y-2309000D02*
X318815000Y-2009000D01*
G75*
G02*
X318965000Y-1859000I150000J0D01*
G01*
X320265000Y-1859000D01*
G75*
G02*
X320415000Y-2009000I0J-150000D01*
G01*
X320415000Y-2309000D01*
G75*
G02*
X320265000Y-2459000I-150000J0D01*
G01*
X318965000Y-2459000D01*
G75*
G02*
X318815000Y-2309000I0J150000D01*
G01*
G37*
D10*
X258245500Y-3308000D03*
G36*
G01*
X259158000Y-792800D02*
X259158000Y-3273200D01*
G75*
G02*
X258773200Y-3658000I-384800J0D01*
G01*
X258242800Y-3658000D01*
G75*
G02*
X257858000Y-3273200I0J384800D01*
G01*
X257858000Y-792800D01*
G75*
G02*
X258242800Y-408000I384800J0D01*
G01*
X258773200Y-408000D01*
G75*
G02*
X259158000Y-792800I0J-384800D01*
G01*
G37*
G36*
G01*
X264608000Y-792800D02*
X264608000Y-3273200D01*
G75*
G02*
X264223200Y-3658000I-384800J0D01*
G01*
X263692800Y-3658000D01*
G75*
G02*
X263308000Y-3273200I0J384800D01*
G01*
X263308000Y-792800D01*
G75*
G02*
X263692800Y-408000I384800J0D01*
G01*
X264223200Y-408000D01*
G75*
G02*
X264608000Y-792800I0J-384800D01*
G01*
G37*
X264220500Y-3308000D03*
D11*
X264133000Y-4638000D03*
X258333000Y-4638000D03*
D12*
X262533000Y-4433000D03*
X261883000Y-4433000D03*
X261233000Y-4433000D03*
X260583000Y-4433000D03*
X259933000Y-4433000D03*
D13*
X262195500Y-1358000D03*
X260270500Y-1358000D03*
D14*
X311967000Y-9779000D03*
X302967000Y-9779000D03*
G36*
G01*
X289146000Y-4570000D02*
X289146000Y-3795000D01*
G75*
G02*
X289196000Y-3745000I50000J0D01*
G01*
X289296000Y-3745000D01*
G75*
G02*
X289346000Y-3795000I0J-50000D01*
G01*
X289346000Y-4570000D01*
G75*
G02*
X289296000Y-4620000I-50000J0D01*
G01*
X289196000Y-4620000D01*
G75*
G02*
X289146000Y-4570000I0J50000D01*
G01*
G37*
G36*
G01*
X289546000Y-4570000D02*
X289546000Y-3795000D01*
G75*
G02*
X289596000Y-3745000I50000J0D01*
G01*
X289696000Y-3745000D01*
G75*
G02*
X289746000Y-3795000I0J-50000D01*
G01*
X289746000Y-4570000D01*
G75*
G02*
X289696000Y-4620000I-50000J0D01*
G01*
X289596000Y-4620000D01*
G75*
G02*
X289546000Y-4570000I0J50000D01*
G01*
G37*
G36*
G01*
X289946000Y-4570000D02*
X289946000Y-3795000D01*
G75*
G02*
X289996000Y-3745000I50000J0D01*
G01*
X290096000Y-3745000D01*
G75*
G02*
X290146000Y-3795000I0J-50000D01*
G01*
X290146000Y-4570000D01*
G75*
G02*
X290096000Y-4620000I-50000J0D01*
G01*
X289996000Y-4620000D01*
G75*
G02*
X289946000Y-4570000I0J50000D01*
G01*
G37*
G36*
G01*
X290346000Y-4570000D02*
X290346000Y-3795000D01*
G75*
G02*
X290396000Y-3745000I50000J0D01*
G01*
X290496000Y-3745000D01*
G75*
G02*
X290546000Y-3795000I0J-50000D01*
G01*
X290546000Y-4570000D01*
G75*
G02*
X290496000Y-4620000I-50000J0D01*
G01*
X290396000Y-4620000D01*
G75*
G02*
X290346000Y-4570000I0J50000D01*
G01*
G37*
G36*
G01*
X290746000Y-4570000D02*
X290746000Y-3795000D01*
G75*
G02*
X290796000Y-3745000I50000J0D01*
G01*
X290896000Y-3745000D01*
G75*
G02*
X290946000Y-3795000I0J-50000D01*
G01*
X290946000Y-4570000D01*
G75*
G02*
X290896000Y-4620000I-50000J0D01*
G01*
X290796000Y-4620000D01*
G75*
G02*
X290746000Y-4570000I0J50000D01*
G01*
G37*
G36*
G01*
X291146000Y-4570000D02*
X291146000Y-3795000D01*
G75*
G02*
X291196000Y-3745000I50000J0D01*
G01*
X291296000Y-3745000D01*
G75*
G02*
X291346000Y-3795000I0J-50000D01*
G01*
X291346000Y-4570000D01*
G75*
G02*
X291296000Y-4620000I-50000J0D01*
G01*
X291196000Y-4620000D01*
G75*
G02*
X291146000Y-4570000I0J50000D01*
G01*
G37*
G36*
G01*
X291546000Y-4570000D02*
X291546000Y-3795000D01*
G75*
G02*
X291596000Y-3745000I50000J0D01*
G01*
X291696000Y-3745000D01*
G75*
G02*
X291746000Y-3795000I0J-50000D01*
G01*
X291746000Y-4570000D01*
G75*
G02*
X291696000Y-4620000I-50000J0D01*
G01*
X291596000Y-4620000D01*
G75*
G02*
X291546000Y-4570000I0J50000D01*
G01*
G37*
G36*
G01*
X291946000Y-4570000D02*
X291946000Y-3795000D01*
G75*
G02*
X291996000Y-3745000I50000J0D01*
G01*
X292096000Y-3745000D01*
G75*
G02*
X292146000Y-3795000I0J-50000D01*
G01*
X292146000Y-4570000D01*
G75*
G02*
X292096000Y-4620000I-50000J0D01*
G01*
X291996000Y-4620000D01*
G75*
G02*
X291946000Y-4570000I0J50000D01*
G01*
G37*
G36*
G01*
X292346000Y-4570000D02*
X292346000Y-3795000D01*
G75*
G02*
X292396000Y-3745000I50000J0D01*
G01*
X292496000Y-3745000D01*
G75*
G02*
X292546000Y-3795000I0J-50000D01*
G01*
X292546000Y-4570000D01*
G75*
G02*
X292496000Y-4620000I-50000J0D01*
G01*
X292396000Y-4620000D01*
G75*
G02*
X292346000Y-4570000I0J50000D01*
G01*
G37*
G36*
G01*
X292746000Y-4570000D02*
X292746000Y-3795000D01*
G75*
G02*
X292796000Y-3745000I50000J0D01*
G01*
X292896000Y-3745000D01*
G75*
G02*
X292946000Y-3795000I0J-50000D01*
G01*
X292946000Y-4570000D01*
G75*
G02*
X292896000Y-4620000I-50000J0D01*
G01*
X292796000Y-4620000D01*
G75*
G02*
X292746000Y-4570000I0J50000D01*
G01*
G37*
G36*
G01*
X293146000Y-4570000D02*
X293146000Y-3795000D01*
G75*
G02*
X293196000Y-3745000I50000J0D01*
G01*
X293296000Y-3745000D01*
G75*
G02*
X293346000Y-3795000I0J-50000D01*
G01*
X293346000Y-4570000D01*
G75*
G02*
X293296000Y-4620000I-50000J0D01*
G01*
X293196000Y-4620000D01*
G75*
G02*
X293146000Y-4570000I0J50000D01*
G01*
G37*
G36*
G01*
X293546000Y-4570000D02*
X293546000Y-3795000D01*
G75*
G02*
X293596000Y-3745000I50000J0D01*
G01*
X293696000Y-3745000D01*
G75*
G02*
X293746000Y-3795000I0J-50000D01*
G01*
X293746000Y-4570000D01*
G75*
G02*
X293696000Y-4620000I-50000J0D01*
G01*
X293596000Y-4620000D01*
G75*
G02*
X293546000Y-4570000I0J50000D01*
G01*
G37*
G36*
G01*
X293946000Y-4570000D02*
X293946000Y-3795000D01*
G75*
G02*
X293996000Y-3745000I50000J0D01*
G01*
X294096000Y-3745000D01*
G75*
G02*
X294146000Y-3795000I0J-50000D01*
G01*
X294146000Y-4570000D01*
G75*
G02*
X294096000Y-4620000I-50000J0D01*
G01*
X293996000Y-4620000D01*
G75*
G02*
X293946000Y-4570000I0J50000D01*
G01*
G37*
G36*
G01*
X294346000Y-4570000D02*
X294346000Y-3795000D01*
G75*
G02*
X294396000Y-3745000I50000J0D01*
G01*
X294496000Y-3745000D01*
G75*
G02*
X294546000Y-3795000I0J-50000D01*
G01*
X294546000Y-4570000D01*
G75*
G02*
X294496000Y-4620000I-50000J0D01*
G01*
X294396000Y-4620000D01*
G75*
G02*
X294346000Y-4570000I0J50000D01*
G01*
G37*
G36*
G01*
X294846000Y-5070000D02*
X294846000Y-4970000D01*
G75*
G02*
X294896000Y-4920000I50000J0D01*
G01*
X295671000Y-4920000D01*
G75*
G02*
X295721000Y-4970000I0J-50000D01*
G01*
X295721000Y-5070000D01*
G75*
G02*
X295671000Y-5120000I-50000J0D01*
G01*
X294896000Y-5120000D01*
G75*
G02*
X294846000Y-5070000I0J50000D01*
G01*
G37*
G36*
G01*
X294846000Y-5470000D02*
X294846000Y-5370000D01*
G75*
G02*
X294896000Y-5320000I50000J0D01*
G01*
X295671000Y-5320000D01*
G75*
G02*
X295721000Y-5370000I0J-50000D01*
G01*
X295721000Y-5470000D01*
G75*
G02*
X295671000Y-5520000I-50000J0D01*
G01*
X294896000Y-5520000D01*
G75*
G02*
X294846000Y-5470000I0J50000D01*
G01*
G37*
G36*
G01*
X294846000Y-5870000D02*
X294846000Y-5770000D01*
G75*
G02*
X294896000Y-5720000I50000J0D01*
G01*
X295671000Y-5720000D01*
G75*
G02*
X295721000Y-5770000I0J-50000D01*
G01*
X295721000Y-5870000D01*
G75*
G02*
X295671000Y-5920000I-50000J0D01*
G01*
X294896000Y-5920000D01*
G75*
G02*
X294846000Y-5870000I0J50000D01*
G01*
G37*
G36*
G01*
X294846000Y-6270000D02*
X294846000Y-6170000D01*
G75*
G02*
X294896000Y-6120000I50000J0D01*
G01*
X295671000Y-6120000D01*
G75*
G02*
X295721000Y-6170000I0J-50000D01*
G01*
X295721000Y-6270000D01*
G75*
G02*
X295671000Y-6320000I-50000J0D01*
G01*
X294896000Y-6320000D01*
G75*
G02*
X294846000Y-6270000I0J50000D01*
G01*
G37*
G36*
G01*
X294846000Y-6670000D02*
X294846000Y-6570000D01*
G75*
G02*
X294896000Y-6520000I50000J0D01*
G01*
X295671000Y-6520000D01*
G75*
G02*
X295721000Y-6570000I0J-50000D01*
G01*
X295721000Y-6670000D01*
G75*
G02*
X295671000Y-6720000I-50000J0D01*
G01*
X294896000Y-6720000D01*
G75*
G02*
X294846000Y-6670000I0J50000D01*
G01*
G37*
G36*
G01*
X294846000Y-7070000D02*
X294846000Y-6970000D01*
G75*
G02*
X294896000Y-6920000I50000J0D01*
G01*
X295671000Y-6920000D01*
G75*
G02*
X295721000Y-6970000I0J-50000D01*
G01*
X295721000Y-7070000D01*
G75*
G02*
X295671000Y-7120000I-50000J0D01*
G01*
X294896000Y-7120000D01*
G75*
G02*
X294846000Y-7070000I0J50000D01*
G01*
G37*
G36*
G01*
X294846000Y-7470000D02*
X294846000Y-7370000D01*
G75*
G02*
X294896000Y-7320000I50000J0D01*
G01*
X295671000Y-7320000D01*
G75*
G02*
X295721000Y-7370000I0J-50000D01*
G01*
X295721000Y-7470000D01*
G75*
G02*
X295671000Y-7520000I-50000J0D01*
G01*
X294896000Y-7520000D01*
G75*
G02*
X294846000Y-7470000I0J50000D01*
G01*
G37*
G36*
G01*
X294846000Y-7870000D02*
X294846000Y-7770000D01*
G75*
G02*
X294896000Y-7720000I50000J0D01*
G01*
X295671000Y-7720000D01*
G75*
G02*
X295721000Y-7770000I0J-50000D01*
G01*
X295721000Y-7870000D01*
G75*
G02*
X295671000Y-7920000I-50000J0D01*
G01*
X294896000Y-7920000D01*
G75*
G02*
X294846000Y-7870000I0J50000D01*
G01*
G37*
G36*
G01*
X294846000Y-8270000D02*
X294846000Y-8170000D01*
G75*
G02*
X294896000Y-8120000I50000J0D01*
G01*
X295671000Y-8120000D01*
G75*
G02*
X295721000Y-8170000I0J-50000D01*
G01*
X295721000Y-8270000D01*
G75*
G02*
X295671000Y-8320000I-50000J0D01*
G01*
X294896000Y-8320000D01*
G75*
G02*
X294846000Y-8270000I0J50000D01*
G01*
G37*
G36*
G01*
X294846000Y-8670000D02*
X294846000Y-8570000D01*
G75*
G02*
X294896000Y-8520000I50000J0D01*
G01*
X295671000Y-8520000D01*
G75*
G02*
X295721000Y-8570000I0J-50000D01*
G01*
X295721000Y-8670000D01*
G75*
G02*
X295671000Y-8720000I-50000J0D01*
G01*
X294896000Y-8720000D01*
G75*
G02*
X294846000Y-8670000I0J50000D01*
G01*
G37*
G36*
G01*
X294846000Y-9070000D02*
X294846000Y-8970000D01*
G75*
G02*
X294896000Y-8920000I50000J0D01*
G01*
X295671000Y-8920000D01*
G75*
G02*
X295721000Y-8970000I0J-50000D01*
G01*
X295721000Y-9070000D01*
G75*
G02*
X295671000Y-9120000I-50000J0D01*
G01*
X294896000Y-9120000D01*
G75*
G02*
X294846000Y-9070000I0J50000D01*
G01*
G37*
G36*
G01*
X294846000Y-9470000D02*
X294846000Y-9370000D01*
G75*
G02*
X294896000Y-9320000I50000J0D01*
G01*
X295671000Y-9320000D01*
G75*
G02*
X295721000Y-9370000I0J-50000D01*
G01*
X295721000Y-9470000D01*
G75*
G02*
X295671000Y-9520000I-50000J0D01*
G01*
X294896000Y-9520000D01*
G75*
G02*
X294846000Y-9470000I0J50000D01*
G01*
G37*
G36*
G01*
X294846000Y-9870000D02*
X294846000Y-9770000D01*
G75*
G02*
X294896000Y-9720000I50000J0D01*
G01*
X295671000Y-9720000D01*
G75*
G02*
X295721000Y-9770000I0J-50000D01*
G01*
X295721000Y-9870000D01*
G75*
G02*
X295671000Y-9920000I-50000J0D01*
G01*
X294896000Y-9920000D01*
G75*
G02*
X294846000Y-9870000I0J50000D01*
G01*
G37*
G36*
G01*
X294846000Y-10270000D02*
X294846000Y-10170000D01*
G75*
G02*
X294896000Y-10120000I50000J0D01*
G01*
X295671000Y-10120000D01*
G75*
G02*
X295721000Y-10170000I0J-50000D01*
G01*
X295721000Y-10270000D01*
G75*
G02*
X295671000Y-10320000I-50000J0D01*
G01*
X294896000Y-10320000D01*
G75*
G02*
X294846000Y-10270000I0J50000D01*
G01*
G37*
G36*
G01*
X294346000Y-11445000D02*
X294346000Y-10670000D01*
G75*
G02*
X294396000Y-10620000I50000J0D01*
G01*
X294496000Y-10620000D01*
G75*
G02*
X294546000Y-10670000I0J-50000D01*
G01*
X294546000Y-11445000D01*
G75*
G02*
X294496000Y-11495000I-50000J0D01*
G01*
X294396000Y-11495000D01*
G75*
G02*
X294346000Y-11445000I0J50000D01*
G01*
G37*
G36*
G01*
X293946000Y-11445000D02*
X293946000Y-10670000D01*
G75*
G02*
X293996000Y-10620000I50000J0D01*
G01*
X294096000Y-10620000D01*
G75*
G02*
X294146000Y-10670000I0J-50000D01*
G01*
X294146000Y-11445000D01*
G75*
G02*
X294096000Y-11495000I-50000J0D01*
G01*
X293996000Y-11495000D01*
G75*
G02*
X293946000Y-11445000I0J50000D01*
G01*
G37*
G36*
G01*
X293546000Y-11445000D02*
X293546000Y-10670000D01*
G75*
G02*
X293596000Y-10620000I50000J0D01*
G01*
X293696000Y-10620000D01*
G75*
G02*
X293746000Y-10670000I0J-50000D01*
G01*
X293746000Y-11445000D01*
G75*
G02*
X293696000Y-11495000I-50000J0D01*
G01*
X293596000Y-11495000D01*
G75*
G02*
X293546000Y-11445000I0J50000D01*
G01*
G37*
G36*
G01*
X293146000Y-11445000D02*
X293146000Y-10670000D01*
G75*
G02*
X293196000Y-10620000I50000J0D01*
G01*
X293296000Y-10620000D01*
G75*
G02*
X293346000Y-10670000I0J-50000D01*
G01*
X293346000Y-11445000D01*
G75*
G02*
X293296000Y-11495000I-50000J0D01*
G01*
X293196000Y-11495000D01*
G75*
G02*
X293146000Y-11445000I0J50000D01*
G01*
G37*
G36*
G01*
X292746000Y-11445000D02*
X292746000Y-10670000D01*
G75*
G02*
X292796000Y-10620000I50000J0D01*
G01*
X292896000Y-10620000D01*
G75*
G02*
X292946000Y-10670000I0J-50000D01*
G01*
X292946000Y-11445000D01*
G75*
G02*
X292896000Y-11495000I-50000J0D01*
G01*
X292796000Y-11495000D01*
G75*
G02*
X292746000Y-11445000I0J50000D01*
G01*
G37*
G36*
G01*
X292346000Y-11445000D02*
X292346000Y-10670000D01*
G75*
G02*
X292396000Y-10620000I50000J0D01*
G01*
X292496000Y-10620000D01*
G75*
G02*
X292546000Y-10670000I0J-50000D01*
G01*
X292546000Y-11445000D01*
G75*
G02*
X292496000Y-11495000I-50000J0D01*
G01*
X292396000Y-11495000D01*
G75*
G02*
X292346000Y-11445000I0J50000D01*
G01*
G37*
G36*
G01*
X291946000Y-11445000D02*
X291946000Y-10670000D01*
G75*
G02*
X291996000Y-10620000I50000J0D01*
G01*
X292096000Y-10620000D01*
G75*
G02*
X292146000Y-10670000I0J-50000D01*
G01*
X292146000Y-11445000D01*
G75*
G02*
X292096000Y-11495000I-50000J0D01*
G01*
X291996000Y-11495000D01*
G75*
G02*
X291946000Y-11445000I0J50000D01*
G01*
G37*
G36*
G01*
X291546000Y-11445000D02*
X291546000Y-10670000D01*
G75*
G02*
X291596000Y-10620000I50000J0D01*
G01*
X291696000Y-10620000D01*
G75*
G02*
X291746000Y-10670000I0J-50000D01*
G01*
X291746000Y-11445000D01*
G75*
G02*
X291696000Y-11495000I-50000J0D01*
G01*
X291596000Y-11495000D01*
G75*
G02*
X291546000Y-11445000I0J50000D01*
G01*
G37*
G36*
G01*
X291146000Y-11445000D02*
X291146000Y-10670000D01*
G75*
G02*
X291196000Y-10620000I50000J0D01*
G01*
X291296000Y-10620000D01*
G75*
G02*
X291346000Y-10670000I0J-50000D01*
G01*
X291346000Y-11445000D01*
G75*
G02*
X291296000Y-11495000I-50000J0D01*
G01*
X291196000Y-11495000D01*
G75*
G02*
X291146000Y-11445000I0J50000D01*
G01*
G37*
G36*
G01*
X290746000Y-11445000D02*
X290746000Y-10670000D01*
G75*
G02*
X290796000Y-10620000I50000J0D01*
G01*
X290896000Y-10620000D01*
G75*
G02*
X290946000Y-10670000I0J-50000D01*
G01*
X290946000Y-11445000D01*
G75*
G02*
X290896000Y-11495000I-50000J0D01*
G01*
X290796000Y-11495000D01*
G75*
G02*
X290746000Y-11445000I0J50000D01*
G01*
G37*
G36*
G01*
X290346000Y-11445000D02*
X290346000Y-10670000D01*
G75*
G02*
X290396000Y-10620000I50000J0D01*
G01*
X290496000Y-10620000D01*
G75*
G02*
X290546000Y-10670000I0J-50000D01*
G01*
X290546000Y-11445000D01*
G75*
G02*
X290496000Y-11495000I-50000J0D01*
G01*
X290396000Y-11495000D01*
G75*
G02*
X290346000Y-11445000I0J50000D01*
G01*
G37*
G36*
G01*
X289946000Y-11445000D02*
X289946000Y-10670000D01*
G75*
G02*
X289996000Y-10620000I50000J0D01*
G01*
X290096000Y-10620000D01*
G75*
G02*
X290146000Y-10670000I0J-50000D01*
G01*
X290146000Y-11445000D01*
G75*
G02*
X290096000Y-11495000I-50000J0D01*
G01*
X289996000Y-11495000D01*
G75*
G02*
X289946000Y-11445000I0J50000D01*
G01*
G37*
G36*
G01*
X289546000Y-11445000D02*
X289546000Y-10670000D01*
G75*
G02*
X289596000Y-10620000I50000J0D01*
G01*
X289696000Y-10620000D01*
G75*
G02*
X289746000Y-10670000I0J-50000D01*
G01*
X289746000Y-11445000D01*
G75*
G02*
X289696000Y-11495000I-50000J0D01*
G01*
X289596000Y-11495000D01*
G75*
G02*
X289546000Y-11445000I0J50000D01*
G01*
G37*
G36*
G01*
X289146000Y-11445000D02*
X289146000Y-10670000D01*
G75*
G02*
X289196000Y-10620000I50000J0D01*
G01*
X289296000Y-10620000D01*
G75*
G02*
X289346000Y-10670000I0J-50000D01*
G01*
X289346000Y-11445000D01*
G75*
G02*
X289296000Y-11495000I-50000J0D01*
G01*
X289196000Y-11495000D01*
G75*
G02*
X289146000Y-11445000I0J50000D01*
G01*
G37*
G36*
G01*
X287971000Y-10270000D02*
X287971000Y-10170000D01*
G75*
G02*
X288021000Y-10120000I50000J0D01*
G01*
X288796000Y-10120000D01*
G75*
G02*
X288846000Y-10170000I0J-50000D01*
G01*
X288846000Y-10270000D01*
G75*
G02*
X288796000Y-10320000I-50000J0D01*
G01*
X288021000Y-10320000D01*
G75*
G02*
X287971000Y-10270000I0J50000D01*
G01*
G37*
G36*
G01*
X287971000Y-9870000D02*
X287971000Y-9770000D01*
G75*
G02*
X288021000Y-9720000I50000J0D01*
G01*
X288796000Y-9720000D01*
G75*
G02*
X288846000Y-9770000I0J-50000D01*
G01*
X288846000Y-9870000D01*
G75*
G02*
X288796000Y-9920000I-50000J0D01*
G01*
X288021000Y-9920000D01*
G75*
G02*
X287971000Y-9870000I0J50000D01*
G01*
G37*
G36*
G01*
X287971000Y-9470000D02*
X287971000Y-9370000D01*
G75*
G02*
X288021000Y-9320000I50000J0D01*
G01*
X288796000Y-9320000D01*
G75*
G02*
X288846000Y-9370000I0J-50000D01*
G01*
X288846000Y-9470000D01*
G75*
G02*
X288796000Y-9520000I-50000J0D01*
G01*
X288021000Y-9520000D01*
G75*
G02*
X287971000Y-9470000I0J50000D01*
G01*
G37*
G36*
G01*
X287971000Y-9070000D02*
X287971000Y-8970000D01*
G75*
G02*
X288021000Y-8920000I50000J0D01*
G01*
X288796000Y-8920000D01*
G75*
G02*
X288846000Y-8970000I0J-50000D01*
G01*
X288846000Y-9070000D01*
G75*
G02*
X288796000Y-9120000I-50000J0D01*
G01*
X288021000Y-9120000D01*
G75*
G02*
X287971000Y-9070000I0J50000D01*
G01*
G37*
G36*
G01*
X287971000Y-8670000D02*
X287971000Y-8570000D01*
G75*
G02*
X288021000Y-8520000I50000J0D01*
G01*
X288796000Y-8520000D01*
G75*
G02*
X288846000Y-8570000I0J-50000D01*
G01*
X288846000Y-8670000D01*
G75*
G02*
X288796000Y-8720000I-50000J0D01*
G01*
X288021000Y-8720000D01*
G75*
G02*
X287971000Y-8670000I0J50000D01*
G01*
G37*
G36*
G01*
X287971000Y-8270000D02*
X287971000Y-8170000D01*
G75*
G02*
X288021000Y-8120000I50000J0D01*
G01*
X288796000Y-8120000D01*
G75*
G02*
X288846000Y-8170000I0J-50000D01*
G01*
X288846000Y-8270000D01*
G75*
G02*
X288796000Y-8320000I-50000J0D01*
G01*
X288021000Y-8320000D01*
G75*
G02*
X287971000Y-8270000I0J50000D01*
G01*
G37*
G36*
G01*
X287971000Y-7870000D02*
X287971000Y-7770000D01*
G75*
G02*
X288021000Y-7720000I50000J0D01*
G01*
X288796000Y-7720000D01*
G75*
G02*
X288846000Y-7770000I0J-50000D01*
G01*
X288846000Y-7870000D01*
G75*
G02*
X288796000Y-7920000I-50000J0D01*
G01*
X288021000Y-7920000D01*
G75*
G02*
X287971000Y-7870000I0J50000D01*
G01*
G37*
G36*
G01*
X287971000Y-7470000D02*
X287971000Y-7370000D01*
G75*
G02*
X288021000Y-7320000I50000J0D01*
G01*
X288796000Y-7320000D01*
G75*
G02*
X288846000Y-7370000I0J-50000D01*
G01*
X288846000Y-7470000D01*
G75*
G02*
X288796000Y-7520000I-50000J0D01*
G01*
X288021000Y-7520000D01*
G75*
G02*
X287971000Y-7470000I0J50000D01*
G01*
G37*
G36*
G01*
X287971000Y-7070000D02*
X287971000Y-6970000D01*
G75*
G02*
X288021000Y-6920000I50000J0D01*
G01*
X288796000Y-6920000D01*
G75*
G02*
X288846000Y-6970000I0J-50000D01*
G01*
X288846000Y-7070000D01*
G75*
G02*
X288796000Y-7120000I-50000J0D01*
G01*
X288021000Y-7120000D01*
G75*
G02*
X287971000Y-7070000I0J50000D01*
G01*
G37*
G36*
G01*
X287971000Y-6670000D02*
X287971000Y-6570000D01*
G75*
G02*
X288021000Y-6520000I50000J0D01*
G01*
X288796000Y-6520000D01*
G75*
G02*
X288846000Y-6570000I0J-50000D01*
G01*
X288846000Y-6670000D01*
G75*
G02*
X288796000Y-6720000I-50000J0D01*
G01*
X288021000Y-6720000D01*
G75*
G02*
X287971000Y-6670000I0J50000D01*
G01*
G37*
G36*
G01*
X287971000Y-6270000D02*
X287971000Y-6170000D01*
G75*
G02*
X288021000Y-6120000I50000J0D01*
G01*
X288796000Y-6120000D01*
G75*
G02*
X288846000Y-6170000I0J-50000D01*
G01*
X288846000Y-6270000D01*
G75*
G02*
X288796000Y-6320000I-50000J0D01*
G01*
X288021000Y-6320000D01*
G75*
G02*
X287971000Y-6270000I0J50000D01*
G01*
G37*
G36*
G01*
X287971000Y-5870000D02*
X287971000Y-5770000D01*
G75*
G02*
X288021000Y-5720000I50000J0D01*
G01*
X288796000Y-5720000D01*
G75*
G02*
X288846000Y-5770000I0J-50000D01*
G01*
X288846000Y-5870000D01*
G75*
G02*
X288796000Y-5920000I-50000J0D01*
G01*
X288021000Y-5920000D01*
G75*
G02*
X287971000Y-5870000I0J50000D01*
G01*
G37*
G36*
G01*
X287971000Y-5470000D02*
X287971000Y-5370000D01*
G75*
G02*
X288021000Y-5320000I50000J0D01*
G01*
X288796000Y-5320000D01*
G75*
G02*
X288846000Y-5370000I0J-50000D01*
G01*
X288846000Y-5470000D01*
G75*
G02*
X288796000Y-5520000I-50000J0D01*
G01*
X288021000Y-5520000D01*
G75*
G02*
X287971000Y-5470000I0J50000D01*
G01*
G37*
G36*
G01*
X287971000Y-5070000D02*
X287971000Y-4970000D01*
G75*
G02*
X288021000Y-4920000I50000J0D01*
G01*
X288796000Y-4920000D01*
G75*
G02*
X288846000Y-4970000I0J-50000D01*
G01*
X288846000Y-5070000D01*
G75*
G02*
X288796000Y-5120000I-50000J0D01*
G01*
X288021000Y-5120000D01*
G75*
G02*
X287971000Y-5070000I0J50000D01*
G01*
G37*
G36*
G01*
X291941283Y-8549717D02*
X291941283Y-7965283D01*
G75*
G02*
X292191283Y-7715283I250000J0D01*
G01*
X292775717Y-7715283D01*
G75*
G02*
X293025717Y-7965283I0J-250000D01*
G01*
X293025717Y-8549717D01*
G75*
G02*
X292775717Y-8799717I-250000J0D01*
G01*
X292191283Y-8799717D01*
G75*
G02*
X291941283Y-8549717I0J250000D01*
G01*
G37*
G36*
G01*
X291941283Y-7274717D02*
X291941283Y-6690283D01*
G75*
G02*
X292191283Y-6440283I250000J0D01*
G01*
X292775717Y-6440283D01*
G75*
G02*
X293025717Y-6690283I0J-250000D01*
G01*
X293025717Y-7274717D01*
G75*
G02*
X292775717Y-7524717I-250000J0D01*
G01*
X292191283Y-7524717D01*
G75*
G02*
X291941283Y-7274717I0J250000D01*
G01*
G37*
G36*
G01*
X290666283Y-8549717D02*
X290666283Y-7965283D01*
G75*
G02*
X290916283Y-7715283I250000J0D01*
G01*
X291500717Y-7715283D01*
G75*
G02*
X291750717Y-7965283I0J-250000D01*
G01*
X291750717Y-8549717D01*
G75*
G02*
X291500717Y-8799717I-250000J0D01*
G01*
X290916283Y-8799717D01*
G75*
G02*
X290666283Y-8549717I0J250000D01*
G01*
G37*
G36*
G01*
X290666283Y-7274717D02*
X290666283Y-6690283D01*
G75*
G02*
X290916283Y-6440283I250000J0D01*
G01*
X291500717Y-6440283D01*
G75*
G02*
X291750717Y-6690283I0J-250000D01*
G01*
X291750717Y-7274717D01*
G75*
G02*
X291500717Y-7524717I-250000J0D01*
G01*
X290916283Y-7524717D01*
G75*
G02*
X290666283Y-7274717I0J250000D01*
G01*
G37*
D15*
X272313000Y-3542000D03*
X272313000Y-8142000D03*
X272313000Y-5842000D03*
D16*
X278613000Y-5842000D03*
G36*
G01*
X292808000Y-13886000D02*
X292808000Y-13546000D01*
G75*
G02*
X292948000Y-13406000I140000J0D01*
G01*
X293228000Y-13406000D01*
G75*
G02*
X293368000Y-13546000I0J-140000D01*
G01*
X293368000Y-13886000D01*
G75*
G02*
X293228000Y-14026000I-140000J0D01*
G01*
X292948000Y-14026000D01*
G75*
G02*
X292808000Y-13886000I0J140000D01*
G01*
G37*
G36*
G01*
X291848000Y-13886000D02*
X291848000Y-13546000D01*
G75*
G02*
X291988000Y-13406000I140000J0D01*
G01*
X292268000Y-13406000D01*
G75*
G02*
X292408000Y-13546000I0J-140000D01*
G01*
X292408000Y-13886000D01*
G75*
G02*
X292268000Y-14026000I-140000J0D01*
G01*
X291988000Y-14026000D01*
G75*
G02*
X291848000Y-13886000I0J140000D01*
G01*
G37*
G36*
G01*
X292173000Y-1059000D02*
X292173000Y-719000D01*
G75*
G02*
X292313000Y-579000I140000J0D01*
G01*
X292593000Y-579000D01*
G75*
G02*
X292733000Y-719000I0J-140000D01*
G01*
X292733000Y-1059000D01*
G75*
G02*
X292593000Y-1199000I-140000J0D01*
G01*
X292313000Y-1199000D01*
G75*
G02*
X292173000Y-1059000I0J140000D01*
G01*
G37*
G36*
G01*
X291213000Y-1059000D02*
X291213000Y-719000D01*
G75*
G02*
X291353000Y-579000I140000J0D01*
G01*
X291633000Y-579000D01*
G75*
G02*
X291773000Y-719000I0J-140000D01*
G01*
X291773000Y-1059000D01*
G75*
G02*
X291633000Y-1199000I-140000J0D01*
G01*
X291353000Y-1199000D01*
G75*
G02*
X291213000Y-1059000I0J140000D01*
G01*
G37*
G36*
G01*
X292173000Y-2202000D02*
X292173000Y-1862000D01*
G75*
G02*
X292313000Y-1722000I140000J0D01*
G01*
X292593000Y-1722000D01*
G75*
G02*
X292733000Y-1862000I0J-140000D01*
G01*
X292733000Y-2202000D01*
G75*
G02*
X292593000Y-2342000I-140000J0D01*
G01*
X292313000Y-2342000D01*
G75*
G02*
X292173000Y-2202000I0J140000D01*
G01*
G37*
G36*
G01*
X291213000Y-2202000D02*
X291213000Y-1862000D01*
G75*
G02*
X291353000Y-1722000I140000J0D01*
G01*
X291633000Y-1722000D01*
G75*
G02*
X291773000Y-1862000I0J-140000D01*
G01*
X291773000Y-2202000D01*
G75*
G02*
X291633000Y-2342000I-140000J0D01*
G01*
X291353000Y-2342000D01*
G75*
G02*
X291213000Y-2202000I0J140000D01*
G01*
G37*
G36*
G01*
X330146000Y-1440000D02*
X330146000Y-1100000D01*
G75*
G02*
X330286000Y-960000I140000J0D01*
G01*
X330566000Y-960000D01*
G75*
G02*
X330706000Y-1100000I0J-140000D01*
G01*
X330706000Y-1440000D01*
G75*
G02*
X330566000Y-1580000I-140000J0D01*
G01*
X330286000Y-1580000D01*
G75*
G02*
X330146000Y-1440000I0J140000D01*
G01*
G37*
G36*
G01*
X329186000Y-1440000D02*
X329186000Y-1100000D01*
G75*
G02*
X329326000Y-960000I140000J0D01*
G01*
X329606000Y-960000D01*
G75*
G02*
X329746000Y-1100000I0J-140000D01*
G01*
X329746000Y-1440000D01*
G75*
G02*
X329606000Y-1580000I-140000J0D01*
G01*
X329326000Y-1580000D01*
G75*
G02*
X329186000Y-1440000I0J140000D01*
G01*
G37*
G36*
G01*
X330146000Y-2710000D02*
X330146000Y-2370000D01*
G75*
G02*
X330286000Y-2230000I140000J0D01*
G01*
X330566000Y-2230000D01*
G75*
G02*
X330706000Y-2370000I0J-140000D01*
G01*
X330706000Y-2710000D01*
G75*
G02*
X330566000Y-2850000I-140000J0D01*
G01*
X330286000Y-2850000D01*
G75*
G02*
X330146000Y-2710000I0J140000D01*
G01*
G37*
G36*
G01*
X329186000Y-2710000D02*
X329186000Y-2370000D01*
G75*
G02*
X329326000Y-2230000I140000J0D01*
G01*
X329606000Y-2230000D01*
G75*
G02*
X329746000Y-2370000I0J-140000D01*
G01*
X329746000Y-2710000D01*
G75*
G02*
X329606000Y-2850000I-140000J0D01*
G01*
X329326000Y-2850000D01*
G75*
G02*
X329186000Y-2710000I0J140000D01*
G01*
G37*
G36*
G01*
X339783000Y-6891000D02*
X339783000Y-7841000D01*
G75*
G02*
X339533000Y-8091000I-250000J0D01*
G01*
X339033000Y-8091000D01*
G75*
G02*
X338783000Y-7841000I0J250000D01*
G01*
X338783000Y-6891000D01*
G75*
G02*
X339033000Y-6641000I250000J0D01*
G01*
X339533000Y-6641000D01*
G75*
G02*
X339783000Y-6891000I0J-250000D01*
G01*
G37*
G36*
G01*
X341683000Y-6891000D02*
X341683000Y-7841000D01*
G75*
G02*
X341433000Y-8091000I-250000J0D01*
G01*
X340933000Y-8091000D01*
G75*
G02*
X340683000Y-7841000I0J250000D01*
G01*
X340683000Y-6891000D01*
G75*
G02*
X340933000Y-6641000I250000J0D01*
G01*
X341433000Y-6641000D01*
G75*
G02*
X341683000Y-6891000I0J-250000D01*
G01*
G37*
G36*
G01*
X338943000Y-12691000D02*
X338603000Y-12691000D01*
G75*
G02*
X338463000Y-12551000I0J140000D01*
G01*
X338463000Y-12271000D01*
G75*
G02*
X338603000Y-12131000I140000J0D01*
G01*
X338943000Y-12131000D01*
G75*
G02*
X339083000Y-12271000I0J-140000D01*
G01*
X339083000Y-12551000D01*
G75*
G02*
X338943000Y-12691000I-140000J0D01*
G01*
G37*
G36*
G01*
X338943000Y-13651000D02*
X338603000Y-13651000D01*
G75*
G02*
X338463000Y-13511000I0J140000D01*
G01*
X338463000Y-13231000D01*
G75*
G02*
X338603000Y-13091000I140000J0D01*
G01*
X338943000Y-13091000D01*
G75*
G02*
X339083000Y-13231000I0J-140000D01*
G01*
X339083000Y-13511000D01*
G75*
G02*
X338943000Y-13651000I-140000J0D01*
G01*
G37*
G36*
G01*
X341229000Y-12691000D02*
X340889000Y-12691000D01*
G75*
G02*
X340749000Y-12551000I0J140000D01*
G01*
X340749000Y-12271000D01*
G75*
G02*
X340889000Y-12131000I140000J0D01*
G01*
X341229000Y-12131000D01*
G75*
G02*
X341369000Y-12271000I0J-140000D01*
G01*
X341369000Y-12551000D01*
G75*
G02*
X341229000Y-12691000I-140000J0D01*
G01*
G37*
G36*
G01*
X341229000Y-13651000D02*
X340889000Y-13651000D01*
G75*
G02*
X340749000Y-13511000I0J140000D01*
G01*
X340749000Y-13231000D01*
G75*
G02*
X340889000Y-13091000I140000J0D01*
G01*
X341229000Y-13091000D01*
G75*
G02*
X341369000Y-13231000I0J-140000D01*
G01*
X341369000Y-13511000D01*
G75*
G02*
X341229000Y-13651000I-140000J0D01*
G01*
G37*
G36*
G01*
X343515000Y-12691000D02*
X343175000Y-12691000D01*
G75*
G02*
X343035000Y-12551000I0J140000D01*
G01*
X343035000Y-12271000D01*
G75*
G02*
X343175000Y-12131000I140000J0D01*
G01*
X343515000Y-12131000D01*
G75*
G02*
X343655000Y-12271000I0J-140000D01*
G01*
X343655000Y-12551000D01*
G75*
G02*
X343515000Y-12691000I-140000J0D01*
G01*
G37*
G36*
G01*
X343515000Y-13651000D02*
X343175000Y-13651000D01*
G75*
G02*
X343035000Y-13511000I0J140000D01*
G01*
X343035000Y-13231000D01*
G75*
G02*
X343175000Y-13091000I140000J0D01*
G01*
X343515000Y-13091000D01*
G75*
G02*
X343655000Y-13231000I0J-140000D01*
G01*
X343655000Y-13511000D01*
G75*
G02*
X343515000Y-13651000I-140000J0D01*
G01*
G37*
G36*
G01*
X345801000Y-12691000D02*
X345461000Y-12691000D01*
G75*
G02*
X345321000Y-12551000I0J140000D01*
G01*
X345321000Y-12271000D01*
G75*
G02*
X345461000Y-12131000I140000J0D01*
G01*
X345801000Y-12131000D01*
G75*
G02*
X345941000Y-12271000I0J-140000D01*
G01*
X345941000Y-12551000D01*
G75*
G02*
X345801000Y-12691000I-140000J0D01*
G01*
G37*
G36*
G01*
X345801000Y-13651000D02*
X345461000Y-13651000D01*
G75*
G02*
X345321000Y-13511000I0J140000D01*
G01*
X345321000Y-13231000D01*
G75*
G02*
X345461000Y-13091000I140000J0D01*
G01*
X345801000Y-13091000D01*
G75*
G02*
X345941000Y-13231000I0J-140000D01*
G01*
X345941000Y-13511000D01*
G75*
G02*
X345801000Y-13651000I-140000J0D01*
G01*
G37*
G36*
G01*
X348087000Y-12691000D02*
X347747000Y-12691000D01*
G75*
G02*
X347607000Y-12551000I0J140000D01*
G01*
X347607000Y-12271000D01*
G75*
G02*
X347747000Y-12131000I140000J0D01*
G01*
X348087000Y-12131000D01*
G75*
G02*
X348227000Y-12271000I0J-140000D01*
G01*
X348227000Y-12551000D01*
G75*
G02*
X348087000Y-12691000I-140000J0D01*
G01*
G37*
G36*
G01*
X348087000Y-13651000D02*
X347747000Y-13651000D01*
G75*
G02*
X347607000Y-13511000I0J140000D01*
G01*
X347607000Y-13231000D01*
G75*
G02*
X347747000Y-13091000I140000J0D01*
G01*
X348087000Y-13091000D01*
G75*
G02*
X348227000Y-13231000I0J-140000D01*
G01*
X348227000Y-13511000D01*
G75*
G02*
X348087000Y-13651000I-140000J0D01*
G01*
G37*
G36*
G01*
X350500000Y-12691000D02*
X350160000Y-12691000D01*
G75*
G02*
X350020000Y-12551000I0J140000D01*
G01*
X350020000Y-12271000D01*
G75*
G02*
X350160000Y-12131000I140000J0D01*
G01*
X350500000Y-12131000D01*
G75*
G02*
X350640000Y-12271000I0J-140000D01*
G01*
X350640000Y-12551000D01*
G75*
G02*
X350500000Y-12691000I-140000J0D01*
G01*
G37*
G36*
G01*
X350500000Y-13651000D02*
X350160000Y-13651000D01*
G75*
G02*
X350020000Y-13511000I0J140000D01*
G01*
X350020000Y-13231000D01*
G75*
G02*
X350160000Y-13091000I140000J0D01*
G01*
X350500000Y-13091000D01*
G75*
G02*
X350640000Y-13231000I0J-140000D01*
G01*
X350640000Y-13511000D01*
G75*
G02*
X350500000Y-13651000I-140000J0D01*
G01*
G37*
G36*
G01*
X298015000Y-4742000D02*
X298015000Y-4402000D01*
G75*
G02*
X298155000Y-4262000I140000J0D01*
G01*
X298435000Y-4262000D01*
G75*
G02*
X298575000Y-4402000I0J-140000D01*
G01*
X298575000Y-4742000D01*
G75*
G02*
X298435000Y-4882000I-140000J0D01*
G01*
X298155000Y-4882000D01*
G75*
G02*
X298015000Y-4742000I0J140000D01*
G01*
G37*
G36*
G01*
X297055000Y-4742000D02*
X297055000Y-4402000D01*
G75*
G02*
X297195000Y-4262000I140000J0D01*
G01*
X297475000Y-4262000D01*
G75*
G02*
X297615000Y-4402000I0J-140000D01*
G01*
X297615000Y-4742000D01*
G75*
G02*
X297475000Y-4882000I-140000J0D01*
G01*
X297195000Y-4882000D01*
G75*
G02*
X297055000Y-4742000I0J140000D01*
G01*
G37*
G36*
G01*
X352786000Y-12691000D02*
X352446000Y-12691000D01*
G75*
G02*
X352306000Y-12551000I0J140000D01*
G01*
X352306000Y-12271000D01*
G75*
G02*
X352446000Y-12131000I140000J0D01*
G01*
X352786000Y-12131000D01*
G75*
G02*
X352926000Y-12271000I0J-140000D01*
G01*
X352926000Y-12551000D01*
G75*
G02*
X352786000Y-12691000I-140000J0D01*
G01*
G37*
G36*
G01*
X352786000Y-13651000D02*
X352446000Y-13651000D01*
G75*
G02*
X352306000Y-13511000I0J140000D01*
G01*
X352306000Y-13231000D01*
G75*
G02*
X352446000Y-13091000I140000J0D01*
G01*
X352786000Y-13091000D01*
G75*
G02*
X352926000Y-13231000I0J-140000D01*
G01*
X352926000Y-13511000D01*
G75*
G02*
X352786000Y-13651000I-140000J0D01*
G01*
G37*
G36*
G01*
X319743000Y-8328000D02*
X320083000Y-8328000D01*
G75*
G02*
X320223000Y-8468000I0J-140000D01*
G01*
X320223000Y-8748000D01*
G75*
G02*
X320083000Y-8888000I-140000J0D01*
G01*
X319743000Y-8888000D01*
G75*
G02*
X319603000Y-8748000I0J140000D01*
G01*
X319603000Y-8468000D01*
G75*
G02*
X319743000Y-8328000I140000J0D01*
G01*
G37*
G36*
G01*
X319743000Y-7368000D02*
X320083000Y-7368000D01*
G75*
G02*
X320223000Y-7508000I0J-140000D01*
G01*
X320223000Y-7788000D01*
G75*
G02*
X320083000Y-7928000I-140000J0D01*
G01*
X319743000Y-7928000D01*
G75*
G02*
X319603000Y-7788000I0J140000D01*
G01*
X319603000Y-7508000D01*
G75*
G02*
X319743000Y-7368000I140000J0D01*
G01*
G37*
G36*
G01*
X266885000Y-8669000D02*
X266885000Y-9619000D01*
G75*
G02*
X266635000Y-9869000I-250000J0D01*
G01*
X266135000Y-9869000D01*
G75*
G02*
X265885000Y-9619000I0J250000D01*
G01*
X265885000Y-8669000D01*
G75*
G02*
X266135000Y-8419000I250000J0D01*
G01*
X266635000Y-8419000D01*
G75*
G02*
X266885000Y-8669000I0J-250000D01*
G01*
G37*
G36*
G01*
X268785000Y-8669000D02*
X268785000Y-9619000D01*
G75*
G02*
X268535000Y-9869000I-250000J0D01*
G01*
X268035000Y-9869000D01*
G75*
G02*
X267785000Y-9619000I0J250000D01*
G01*
X267785000Y-8669000D01*
G75*
G02*
X268035000Y-8419000I250000J0D01*
G01*
X268535000Y-8419000D01*
G75*
G02*
X268785000Y-8669000I0J-250000D01*
G01*
G37*
G36*
G01*
X301298000Y-12911000D02*
X301298000Y-13251000D01*
G75*
G02*
X301158000Y-13391000I-140000J0D01*
G01*
X300878000Y-13391000D01*
G75*
G02*
X300738000Y-13251000I0J140000D01*
G01*
X300738000Y-12911000D01*
G75*
G02*
X300878000Y-12771000I140000J0D01*
G01*
X301158000Y-12771000D01*
G75*
G02*
X301298000Y-12911000I0J-140000D01*
G01*
G37*
G36*
G01*
X302258000Y-12911000D02*
X302258000Y-13251000D01*
G75*
G02*
X302118000Y-13391000I-140000J0D01*
G01*
X301838000Y-13391000D01*
G75*
G02*
X301698000Y-13251000I0J140000D01*
G01*
X301698000Y-12911000D01*
G75*
G02*
X301838000Y-12771000I140000J0D01*
G01*
X302118000Y-12771000D01*
G75*
G02*
X302258000Y-12911000I0J-140000D01*
G01*
G37*
G36*
G01*
X310315000Y-12911000D02*
X310315000Y-13251000D01*
G75*
G02*
X310175000Y-13391000I-140000J0D01*
G01*
X309895000Y-13391000D01*
G75*
G02*
X309755000Y-13251000I0J140000D01*
G01*
X309755000Y-12911000D01*
G75*
G02*
X309895000Y-12771000I140000J0D01*
G01*
X310175000Y-12771000D01*
G75*
G02*
X310315000Y-12911000I0J-140000D01*
G01*
G37*
G36*
G01*
X311275000Y-12911000D02*
X311275000Y-13251000D01*
G75*
G02*
X311135000Y-13391000I-140000J0D01*
G01*
X310855000Y-13391000D01*
G75*
G02*
X310715000Y-13251000I0J140000D01*
G01*
X310715000Y-12911000D01*
G75*
G02*
X310855000Y-12771000I140000J0D01*
G01*
X311135000Y-12771000D01*
G75*
G02*
X311275000Y-12911000I0J-140000D01*
G01*
G37*
G36*
G01*
X266885000Y-10955000D02*
X266885000Y-11905000D01*
G75*
G02*
X266635000Y-12155000I-250000J0D01*
G01*
X266135000Y-12155000D01*
G75*
G02*
X265885000Y-11905000I0J250000D01*
G01*
X265885000Y-10955000D01*
G75*
G02*
X266135000Y-10705000I250000J0D01*
G01*
X266635000Y-10705000D01*
G75*
G02*
X266885000Y-10955000I0J-250000D01*
G01*
G37*
G36*
G01*
X268785000Y-10955000D02*
X268785000Y-11905000D01*
G75*
G02*
X268535000Y-12155000I-250000J0D01*
G01*
X268035000Y-12155000D01*
G75*
G02*
X267785000Y-11905000I0J250000D01*
G01*
X267785000Y-10955000D01*
G75*
G02*
X268035000Y-10705000I250000J0D01*
G01*
X268535000Y-10705000D01*
G75*
G02*
X268785000Y-10955000I0J-250000D01*
G01*
G37*
M02*
