G04 #@! TF.GenerationSoftware,KiCad,Pcbnew,(5.1.12)-1*
G04 #@! TF.CreationDate,2023-01-21T13:53:20-07:00*
G04 #@! TF.ProjectId,keyboard,6b657962-6f61-4726-942e-6b696361645f,rev?*
G04 #@! TF.SameCoordinates,Original*
G04 #@! TF.FileFunction,Paste,Bot*
G04 #@! TF.FilePolarity,Positive*
%FSLAX46Y46*%
G04 Gerber Fmt 4.6, Leading zero omitted, Abs format (unit mm)*
G04 Created by KiCad (PCBNEW (5.1.12)-1) date 2023-01-21 13:53:20*
%MOMM*%
%LPD*%
G01*
G04 APERTURE LIST*
%ADD10R,1.200000X0.900000*%
G04 APERTURE END LIST*
G36*
G01*
X256731000Y-8463500D02*
X256731000Y-8808500D01*
G75*
G02*
X256583500Y-8956000I-147500J0D01*
G01*
X256288500Y-8956000D01*
G75*
G02*
X256141000Y-8808500I0J147500D01*
G01*
X256141000Y-8463500D01*
G75*
G02*
X256288500Y-8316000I147500J0D01*
G01*
X256583500Y-8316000D01*
G75*
G02*
X256731000Y-8463500I0J-147500D01*
G01*
G37*
G36*
G01*
X257701000Y-8463500D02*
X257701000Y-8808500D01*
G75*
G02*
X257553500Y-8956000I-147500J0D01*
G01*
X257258500Y-8956000D01*
G75*
G02*
X257111000Y-8808500I0J147500D01*
G01*
X257111000Y-8463500D01*
G75*
G02*
X257258500Y-8316000I147500J0D01*
G01*
X257553500Y-8316000D01*
G75*
G02*
X257701000Y-8463500I0J-147500D01*
G01*
G37*
G36*
G01*
X290531000Y-3005000D02*
X290531000Y-3345000D01*
G75*
G02*
X290391000Y-3485000I-140000J0D01*
G01*
X290111000Y-3485000D01*
G75*
G02*
X289971000Y-3345000I0J140000D01*
G01*
X289971000Y-3005000D01*
G75*
G02*
X290111000Y-2865000I140000J0D01*
G01*
X290391000Y-2865000D01*
G75*
G02*
X290531000Y-3005000I0J-140000D01*
G01*
G37*
G36*
G01*
X291491000Y-3005000D02*
X291491000Y-3345000D01*
G75*
G02*
X291351000Y-3485000I-140000J0D01*
G01*
X291071000Y-3485000D01*
G75*
G02*
X290931000Y-3345000I0J140000D01*
G01*
X290931000Y-3005000D01*
G75*
G02*
X291071000Y-2865000I140000J0D01*
G01*
X291351000Y-2865000D01*
G75*
G02*
X291491000Y-3005000I0J-140000D01*
G01*
G37*
D10*
X22050000Y-24567000D03*
X22050000Y-27867000D03*
X60150000Y-24567000D03*
X60150000Y-27867000D03*
X79200000Y-24567000D03*
X79200000Y-27867000D03*
X98250000Y-24567000D03*
X98250000Y-27867000D03*
X117300000Y-24567000D03*
X117300000Y-27867000D03*
X145875000Y-24567000D03*
X145875000Y-27867000D03*
X164925000Y-24567000D03*
X164925000Y-27867000D03*
X183975000Y-24567000D03*
X183975000Y-27867000D03*
X203025000Y-24567000D03*
X203025000Y-27867000D03*
X231600000Y-24567000D03*
X231600000Y-27867000D03*
X250650000Y-24567000D03*
X250650000Y-27867000D03*
X269700000Y-24567000D03*
X269700000Y-27867000D03*
X288750000Y-24567000D03*
X288750000Y-27867000D03*
X312562500Y-24567000D03*
X312562500Y-27867000D03*
X331612500Y-24567000D03*
X331612500Y-27867000D03*
X350662500Y-24567000D03*
X350662500Y-27867000D03*
X22050000Y-43617000D03*
X22050000Y-46917000D03*
X41100000Y-43617000D03*
X41100000Y-46917000D03*
X60150000Y-43617000D03*
X60150000Y-46917000D03*
X79200000Y-43617000D03*
X79200000Y-46917000D03*
X98250000Y-43617000D03*
X98250000Y-46917000D03*
X117300000Y-43617000D03*
X117300000Y-46917000D03*
X136350000Y-43617000D03*
X136350000Y-46917000D03*
X155400000Y-43617000D03*
X155400000Y-46917000D03*
X174450000Y-43617000D03*
X174450000Y-46917000D03*
X193500000Y-43617000D03*
X193500000Y-46917000D03*
X212550000Y-43617000D03*
X212550000Y-46917000D03*
X231600000Y-43617000D03*
X231600000Y-46917000D03*
X250650000Y-43617000D03*
X250650000Y-46917000D03*
X288750000Y-43617000D03*
X288750000Y-46917000D03*
X312562500Y-43617000D03*
X312562500Y-46917000D03*
X331612500Y-43617000D03*
X331612500Y-46917000D03*
X350662500Y-43617000D03*
X350662500Y-46917000D03*
X31575000Y-62667000D03*
X31575000Y-65967000D03*
X50625000Y-62667000D03*
X50625000Y-65967000D03*
X69675000Y-62667000D03*
X69675000Y-65967000D03*
X88725000Y-62667000D03*
X88725000Y-65967000D03*
X107775000Y-62667000D03*
X107775000Y-65967000D03*
X126825000Y-62667000D03*
X126825000Y-65967000D03*
X145875000Y-62667000D03*
X145875000Y-65967000D03*
X164925000Y-62667000D03*
X164925000Y-65967000D03*
X183975000Y-62667000D03*
X183975000Y-65967000D03*
X203025000Y-62667000D03*
X203025000Y-65967000D03*
X222075000Y-62667000D03*
X222075000Y-65967000D03*
X241125000Y-62667000D03*
X241125000Y-65967000D03*
X260175000Y-62667000D03*
X260175000Y-65967000D03*
X288750000Y-62667000D03*
X288750000Y-65967000D03*
X312562500Y-62667000D03*
X312562500Y-65967000D03*
X331612500Y-62667000D03*
X331612500Y-65967000D03*
X350662500Y-62667000D03*
X350662500Y-65967000D03*
X36337500Y-81717000D03*
X36337500Y-85017000D03*
X55387500Y-81717000D03*
X55387500Y-85017000D03*
X74437500Y-81717000D03*
X74437500Y-85017000D03*
X93487500Y-81717000D03*
X93487500Y-85017000D03*
X112537500Y-81717000D03*
X112537500Y-85017000D03*
X131587500Y-81717000D03*
X131587500Y-85017000D03*
X150637500Y-81717000D03*
X150637500Y-85017000D03*
X169687500Y-81717000D03*
X169687500Y-85017000D03*
X188737500Y-81717000D03*
X188737500Y-85017000D03*
X207787500Y-81717000D03*
X207787500Y-85017000D03*
X226837500Y-81717000D03*
X226837500Y-85017000D03*
X245887500Y-81717000D03*
X245887500Y-85017000D03*
X288750000Y-81717000D03*
X288750000Y-85017000D03*
X45862500Y-100767000D03*
X45862500Y-104067000D03*
X64912500Y-100767000D03*
X64912500Y-104067000D03*
X83962500Y-100767000D03*
X83962500Y-104067000D03*
X103012500Y-100767000D03*
X103012500Y-104067000D03*
X122062500Y-100767000D03*
X122062500Y-104067000D03*
X141112500Y-100767000D03*
X141112500Y-104067000D03*
X160162500Y-100767000D03*
X160162500Y-104067000D03*
X179212500Y-100767000D03*
X179212500Y-104067000D03*
X198262500Y-100767000D03*
X198262500Y-104067000D03*
X217312500Y-100767000D03*
X217312500Y-104067000D03*
X236362500Y-100767000D03*
X236362500Y-104067000D03*
X288750000Y-100767000D03*
X288750000Y-104067000D03*
X331612500Y-100767000D03*
X331612500Y-104067000D03*
X26812500Y-119817000D03*
X26812500Y-123117000D03*
X50625000Y-119817000D03*
X50625000Y-123117000D03*
X74437500Y-119817000D03*
X74437500Y-123117000D03*
X193500000Y-119817000D03*
X193500000Y-123117000D03*
X217312500Y-119817000D03*
X217312500Y-123117000D03*
X241125000Y-119817000D03*
X241125000Y-123117000D03*
X264937500Y-119817000D03*
X264937500Y-123117000D03*
X288750000Y-119817000D03*
X288750000Y-123117000D03*
X312562500Y-119817000D03*
X312562500Y-123117000D03*
X331612500Y-119817000D03*
X331612500Y-123117000D03*
X350662500Y-119817000D03*
X350662500Y-123117000D03*
M02*
