M48
; DRILL file {KiCad (5.1.12)-1} date 01/19/23 19:38:26
; FORMAT={-:-/ absolute / inch / decimal}
; #@! TF.CreationDate,2023-01-19T19:38:26-07:00
; #@! TF.GenerationSoftware,Kicad,Pcbnew,(5.1.12)-1
; #@! TF.FileFunction,Plated,1,2,PTH
FMAT,2
INCH
T1C0.0138
T2C0.0157
T3C0.0256
T4C0.0276
T5C0.0394
T6C0.0579
%
G90
G05
T1
X11.6598Y-2.9448
X11.6598Y-2.995
X11.6598Y-3.0452
X11.71Y-2.9448
X11.71Y-2.995
X11.71Y-3.0452
X11.7602Y-2.9448
X11.7602Y-2.995
X11.7602Y-3.0452
T2
X1.02Y-2.9976
X1.66Y-2.9823
X2.42Y-2.9669
X3.245Y-2.9512
X3.865Y-2.9336
X4.705Y-2.9179
X5.335Y-2.9021
X6.07Y-2.8868
X6.875Y-2.8714
X11.125Y-2.01
X11.135Y-0.715
X11.145Y-0.495
X11.155Y-1.25
X11.195Y-0.235
X11.32Y-0.315
X11.3211Y-0.1
X11.33Y-2.6553
X11.335Y-2.86
X11.3485Y-0.135
X11.365Y-0.465
X11.3758Y-0.095
X11.405Y-0.465
X11.405Y-2.39
X11.4096Y-2.856
X11.435Y-3.365
X11.44Y-2.295
X11.53Y-2.83
X11.535Y-1.215
X11.545Y-2.725
X11.575Y-2.01
X11.595Y-0.495
X11.596Y-3.2377
X11.61Y-3.58
X11.64Y-2.71
X11.75Y-3.2403
X11.76Y-3.295
X11.85Y-2.455
X11.865Y-2.505
X11.885Y-2.705
X11.885Y-3.2676
X11.966Y-3.1563
X11.97Y-3.58
X11.985Y-3.82
X11.9933Y-3.125
X12.01Y-2.61
X12.045Y-3.425
X12.0576Y-2.625
X12.07Y-2.39
X12.0778Y-3.4468
X12.08Y-3.14
X12.11Y-3.1
X12.175Y-2.285
X12.24Y-1.9378
X12.245Y-2.05
X12.29Y-1.165
X12.295Y-2.1376
X12.31Y-3.86
X12.33Y-2.28
X12.33Y-2.765
X12.525Y-3.86
X12.76Y-2.885
X13.155Y-3.0126
X13.165Y-3.08
T5
X12.935Y-2.415
X12.935Y-2.515
T6
X0.225Y-0.275
X0.225Y-1.025
X0.2766Y-0.2175
X0.2766Y-0.9675
X0.3187Y-4.025
X0.3703Y-3.9675
X0.4125Y-1.775
X0.4641Y-1.7175
X0.4734Y-0.1978
X0.4734Y-0.9478
X0.475Y-0.175
X0.475Y-0.925
X0.5062Y-2.525
X0.5578Y-2.4675
X0.5672Y-3.9478
X0.5687Y-3.925
X0.6609Y-1.6978
X0.6625Y-1.675
X0.6937Y-3.275
X0.7453Y-3.2175
X0.7547Y-2.4478
X0.7562Y-2.425
X0.9422Y-3.1978
X0.9437Y-3.175
X0.975Y-1.025
X1.0266Y-0.9675
X1.2234Y-0.9478
X1.225Y-0.925
X1.2562Y-4.025
X1.3078Y-3.9675
X1.35Y-1.775
X1.4016Y-1.7175
X1.5047Y-3.9478
X1.5062Y-3.925
X1.5375Y-2.525
X1.5891Y-2.4675
X1.5984Y-1.6978
X1.6Y-1.675
X1.725Y-0.275
X1.725Y-1.025
X1.7766Y-0.2175
X1.7766Y-0.9675
X1.7859Y-2.4478
X1.7875Y-2.425
X1.9125Y-3.275
X1.9641Y-3.2175
X1.9734Y-0.1978
X1.9734Y-0.9478
X1.975Y-0.175
X1.975Y-0.925
X2.1Y-1.775
X2.1516Y-1.7175
X2.1609Y-3.1978
X2.1625Y-3.175
X2.1938Y-4.025
X2.2453Y-3.9675
X2.2875Y-2.525
X2.3391Y-2.4675
X2.3484Y-1.6978
X2.35Y-1.675
X2.4422Y-3.9478
X2.4438Y-3.925
X2.475Y-0.275
X2.475Y-1.025
X2.5266Y-0.2175
X2.5266Y-0.9675
X2.5359Y-2.4478
X2.5375Y-2.425
X2.6625Y-3.275
X2.7141Y-3.2175
X2.7234Y-0.1978
X2.7234Y-0.9478
X2.725Y-0.175
X2.725Y-0.925
X2.85Y-1.775
X2.9016Y-1.7175
X2.9109Y-3.1978
X2.9125Y-3.175
X3.0375Y-2.525
X3.0891Y-2.4675
X3.0984Y-1.6978
X3.1Y-1.675
X3.225Y-0.275
X3.225Y-1.025
X3.2766Y-0.2175
X3.2766Y-0.9675
X3.2859Y-2.4478
X3.2875Y-2.425
X3.4125Y-3.275
X3.4641Y-3.2175
X3.4734Y-0.1978
X3.4734Y-0.9478
X3.475Y-0.175
X3.475Y-0.925
X3.6Y-1.775
X3.6516Y-1.7175
X3.6609Y-3.1978
X3.6625Y-3.175
X3.7875Y-2.525
X3.8391Y-2.4675
X3.8484Y-1.6978
X3.85Y-1.675
X3.975Y-0.275
X3.975Y-1.025
X4.0266Y-0.2175
X4.0266Y-0.9675
X4.0359Y-2.4478
X4.0375Y-2.425
X4.1625Y-3.275
X4.2141Y-3.2175
X4.2234Y-0.1978
X4.2234Y-0.9478
X4.225Y-0.175
X4.225Y-0.925
X4.35Y-1.775
X4.4016Y-1.7175
X4.4109Y-3.1978
X4.4125Y-3.175
X4.5375Y-2.525
X4.5891Y-2.4675
X4.5984Y-1.6978
X4.6Y-1.675
X4.725Y-1.025
X4.7766Y-0.9675
X4.7859Y-2.4478
X4.7875Y-2.425
X4.9125Y-3.275
X4.9641Y-3.2175
X4.9734Y-0.9478
X4.975Y-0.925
X5.0062Y-4.025
X5.0578Y-3.9675
X5.1Y-0.275
X5.1Y-1.775
X5.1516Y-0.2175
X5.1516Y-1.7175
X5.1609Y-3.1978
X5.1625Y-3.175
X5.2547Y-3.9478
X5.2562Y-3.925
X5.2875Y-2.525
X5.3391Y-2.4675
X5.3484Y-0.1978
X5.3484Y-1.6978
X5.35Y-0.175
X5.35Y-1.675
X5.475Y-1.025
X5.5266Y-0.9675
X5.5359Y-2.4478
X5.5375Y-2.425
X5.6625Y-3.275
X5.7141Y-3.2175
X5.7234Y-0.9478
X5.725Y-0.925
X5.85Y-0.275
X5.85Y-1.775
X5.9016Y-0.2175
X5.9016Y-1.7175
X5.9109Y-3.1978
X5.9125Y-3.175
X6.0375Y-2.525
X6.0891Y-2.4675
X6.0984Y-0.1978
X6.0984Y-1.6978
X6.1Y-0.175
X6.1Y-1.675
X6.225Y-1.025
X6.2766Y-0.9675
X6.2859Y-2.4478
X6.2875Y-2.425
X6.4125Y-3.275
X6.4641Y-3.2175
X6.4734Y-0.9478
X6.475Y-0.925
X6.6Y-0.275
X6.6Y-1.775
X6.6516Y-0.2175
X6.6516Y-1.7175
X6.6609Y-3.1978
X6.6625Y-3.175
X6.7875Y-2.525
X6.8391Y-2.4675
X6.8484Y-0.1978
X6.8484Y-1.6978
X6.85Y-0.175
X6.85Y-1.675
X6.975Y-1.025
X7.0266Y-0.9675
X7.0359Y-2.4478
X7.0375Y-2.425
X7.1625Y-3.275
X7.2141Y-3.2175
X7.2234Y-0.9478
X7.225Y-0.925
X7.35Y-0.275
X7.35Y-1.775
X7.4016Y-0.2175
X7.4016Y-1.7175
X7.4109Y-3.1978
X7.4125Y-3.175
X7.5375Y-2.525
X7.5891Y-2.4675
X7.5984Y-0.1978
X7.5984Y-1.6978
X7.6Y-0.175
X7.6Y-1.675
X7.725Y-1.025
X7.7766Y-0.9675
X7.7859Y-2.4478
X7.7875Y-2.425
X7.8187Y-4.025
X7.8703Y-3.9675
X7.9125Y-3.275
X7.9641Y-3.2175
X7.9734Y-0.9478
X7.975Y-0.925
X8.0672Y-3.9478
X8.0687Y-3.925
X8.1Y-1.775
X8.1516Y-1.7175
X8.1609Y-3.1978
X8.1625Y-3.175
X8.2875Y-2.525
X8.3391Y-2.4675
X8.3484Y-1.6978
X8.35Y-1.675
X8.475Y-0.275
X8.475Y-1.025
X8.5266Y-0.2175
X8.5266Y-0.9675
X8.5359Y-2.4478
X8.5375Y-2.425
X8.6625Y-3.275
X8.7141Y-3.2175
X8.7234Y-0.1978
X8.7234Y-0.9478
X8.725Y-0.175
X8.725Y-0.925
X8.7562Y-4.025
X8.8078Y-3.9675
X8.85Y-1.775
X8.9016Y-1.7175
X8.9109Y-3.1978
X8.9125Y-3.175
X9.0047Y-3.9478
X9.0062Y-3.925
X9.0375Y-2.525
X9.0891Y-2.4675
X9.0984Y-1.6978
X9.1Y-1.675
X9.225Y-0.275
X9.225Y-1.025
X9.2766Y-0.2175
X9.2766Y-0.9675
X9.2859Y-2.4478
X9.2875Y-2.425
X9.4734Y-0.1978
X9.4734Y-0.9478
X9.475Y-0.175
X9.475Y-0.925
X9.6Y-1.775
X9.6516Y-1.7175
X9.6937Y-4.025
X9.7453Y-3.9675
X9.8484Y-1.6978
X9.85Y-1.675
X9.9422Y-3.9478
X9.9437Y-3.925
X9.975Y-0.275
X10.0266Y-0.2175
X10.0687Y-3.275
X10.1203Y-3.2175
X10.2234Y-0.1978
X10.225Y-0.175
X10.2562Y-2.525
X10.3078Y-2.4675
X10.3172Y-3.1978
X10.3187Y-3.175
X10.35Y-1.025
X10.4016Y-0.9675
X10.5047Y-2.4478
X10.5062Y-2.425
X10.5375Y-1.775
X10.5891Y-1.7175
X10.5984Y-0.9478
X10.6Y-0.925
X10.6312Y-4.025
X10.6828Y-3.9675
X10.725Y-0.275
X10.7766Y-0.2175
X10.7859Y-1.6978
X10.7875Y-1.675
X10.8797Y-3.9478
X10.8812Y-3.925
X10.9734Y-0.1978
X10.975Y-0.175
X11.6625Y-0.275
X11.6625Y-1.025
X11.6625Y-1.775
X11.6625Y-4.025
X11.7141Y-0.2175
X11.7141Y-0.9675
X11.7141Y-1.7175
X11.7141Y-3.9675
X11.9109Y-0.1978
X11.9109Y-0.9478
X11.9109Y-1.6978
X11.9109Y-3.9478
X11.9125Y-0.175
X11.9125Y-0.925
X11.9125Y-1.675
X11.9125Y-3.925
X12.4125Y-0.275
X12.4125Y-1.025
X12.4125Y-1.775
X12.4125Y-3.275
X12.4125Y-4.025
X12.4641Y-0.2175
X12.4641Y-0.9675
X12.4641Y-1.7175
X12.4641Y-3.2175
X12.4641Y-3.9675
X12.6609Y-0.1978
X12.6609Y-0.9478
X12.6609Y-1.6978
X12.6609Y-3.1978
X12.6609Y-3.9478
X12.6625Y-0.175
X12.6625Y-0.925
X12.6625Y-1.675
X12.6625Y-3.175
X12.6625Y-3.925
X13.1625Y-0.275
X13.1625Y-1.025
X13.1625Y-1.775
X13.1625Y-4.025
X13.2141Y-0.2175
X13.2141Y-0.9675
X13.2141Y-1.7175
X13.2141Y-3.9675
X13.4109Y-0.1978
X13.4109Y-0.9478
X13.4109Y-1.6978
X13.4109Y-3.9478
X13.4125Y-0.175
X13.4125Y-0.925
X13.4125Y-1.675
X13.4125Y-3.925
T3
G00X11.2768Y-0.0197
M15
G01X11.2768Y-0.0354
M16
G05
G00X11.4678Y-0.0197
M15
G01X11.4678Y-0.0354
M16
G05
T4
G00X11.265Y0.1016
M15
G01X11.265Y0.0819
M16
G05
G00X11.4796Y0.1016
M15
G01X11.4796Y0.0819
M16
G05
T0
M30
