G04 #@! TF.GenerationSoftware,KiCad,Pcbnew,(5.1.12)-1*
G04 #@! TF.CreationDate,2023-01-19T19:38:23-07:00*
G04 #@! TF.ProjectId,keyboard,6b657962-6f61-4726-942e-6b696361645f,rev?*
G04 #@! TF.SameCoordinates,Original*
G04 #@! TF.FileFunction,Soldermask,Top*
G04 #@! TF.FilePolarity,Negative*
%FSLAX46Y46*%
G04 Gerber Fmt 4.6, Leading zero omitted, Abs format (unit mm)*
G04 Created by KiCad (PCBNEW (5.1.12)-1) date 2023-01-19 19:38:23*
%MOMM*%
%LPD*%
G01*
G04 APERTURE LIST*
%ADD10C,3.987800*%
%ADD11C,3.048000*%
%ADD12C,1.750000*%
%ADD13O,1.050000X1.450000*%
%ADD14O,1.300000X1.800000*%
%ADD15R,5.600000X2.100000*%
%ADD16O,1.700000X1.700000*%
%ADD17R,1.700000X1.700000*%
G04 APERTURE END LIST*
D10*
X180968650Y-113030000D03*
X80968850Y-113030000D03*
D11*
X180968650Y-97790000D03*
X80968850Y-97790000D03*
D12*
X136048750Y-104775000D03*
X125888750Y-104775000D03*
D10*
X130968750Y-104775000D03*
D12*
X255111250Y-104775000D03*
X244951250Y-104775000D03*
D10*
X250031250Y-104775000D03*
D12*
X14605000Y-9525000D03*
X4445000Y-9525000D03*
D10*
X9525000Y-9525000D03*
D12*
X52705000Y-9525000D03*
X42545000Y-9525000D03*
D10*
X47625000Y-9525000D03*
D12*
X71755000Y-9525000D03*
X61595000Y-9525000D03*
D10*
X66675000Y-9525000D03*
D12*
X90805000Y-9525000D03*
X80645000Y-9525000D03*
D10*
X85725000Y-9525000D03*
D12*
X109855000Y-9525000D03*
X99695000Y-9525000D03*
D10*
X104775000Y-9525000D03*
D12*
X138430000Y-9525000D03*
X128270000Y-9525000D03*
D10*
X133350000Y-9525000D03*
D12*
X157480000Y-9525000D03*
X147320000Y-9525000D03*
D10*
X152400000Y-9525000D03*
D12*
X176530000Y-9525000D03*
X166370000Y-9525000D03*
D10*
X171450000Y-9525000D03*
D12*
X195580000Y-9525000D03*
X185420000Y-9525000D03*
D10*
X190500000Y-9525000D03*
D12*
X224155000Y-9525000D03*
X213995000Y-9525000D03*
D10*
X219075000Y-9525000D03*
D12*
X243205000Y-9525000D03*
X233045000Y-9525000D03*
D10*
X238125000Y-9525000D03*
D12*
X262255000Y-9525000D03*
X252095000Y-9525000D03*
D10*
X257175000Y-9525000D03*
D12*
X281305000Y-9525000D03*
X271145000Y-9525000D03*
D10*
X276225000Y-9525000D03*
D12*
X305117500Y-9525000D03*
X294957500Y-9525000D03*
D10*
X300037500Y-9525000D03*
D12*
X324167500Y-9525000D03*
X314007500Y-9525000D03*
D10*
X319087500Y-9525000D03*
D12*
X343217500Y-9525000D03*
X333057500Y-9525000D03*
D10*
X338137500Y-9525000D03*
D12*
X14605000Y-28575000D03*
X4445000Y-28575000D03*
D10*
X9525000Y-28575000D03*
D12*
X33655000Y-28575000D03*
X23495000Y-28575000D03*
D10*
X28575000Y-28575000D03*
D12*
X52705000Y-28575000D03*
X42545000Y-28575000D03*
D10*
X47625000Y-28575000D03*
D12*
X71755000Y-28575000D03*
X61595000Y-28575000D03*
D10*
X66675000Y-28575000D03*
D12*
X90805000Y-28575000D03*
X80645000Y-28575000D03*
D10*
X85725000Y-28575000D03*
D12*
X109855000Y-28575000D03*
X99695000Y-28575000D03*
D10*
X104775000Y-28575000D03*
D12*
X128905000Y-28575000D03*
X118745000Y-28575000D03*
D10*
X123825000Y-28575000D03*
D12*
X147955000Y-28575000D03*
X137795000Y-28575000D03*
D10*
X142875000Y-28575000D03*
D12*
X167005000Y-28575000D03*
X156845000Y-28575000D03*
D10*
X161925000Y-28575000D03*
D12*
X186055000Y-28575000D03*
X175895000Y-28575000D03*
D10*
X180975000Y-28575000D03*
D12*
X205105000Y-28575000D03*
X194945000Y-28575000D03*
D10*
X200025000Y-28575000D03*
D12*
X224155000Y-28575000D03*
X213995000Y-28575000D03*
D10*
X219075000Y-28575000D03*
D12*
X243205000Y-28575000D03*
X233045000Y-28575000D03*
D10*
X238125000Y-28575000D03*
X278638000Y-36830000D03*
X254762000Y-36830000D03*
D11*
X278638000Y-21590000D03*
X254762000Y-21590000D03*
D12*
X271780000Y-28575000D03*
X261620000Y-28575000D03*
D10*
X266700000Y-28575000D03*
D12*
X305117500Y-28575000D03*
X294957500Y-28575000D03*
D10*
X300037500Y-28575000D03*
D12*
X324167500Y-28575000D03*
X314007500Y-28575000D03*
D10*
X319087500Y-28575000D03*
D12*
X343217500Y-28575000D03*
X333057500Y-28575000D03*
D10*
X338137500Y-28575000D03*
D12*
X19367500Y-47625000D03*
X9207500Y-47625000D03*
D10*
X14287500Y-47625000D03*
D12*
X43180000Y-47625000D03*
X33020000Y-47625000D03*
D10*
X38100000Y-47625000D03*
D12*
X62230000Y-47625000D03*
X52070000Y-47625000D03*
D10*
X57150000Y-47625000D03*
D12*
X81280000Y-47625000D03*
X71120000Y-47625000D03*
D10*
X76200000Y-47625000D03*
D12*
X100330000Y-47625000D03*
X90170000Y-47625000D03*
D10*
X95250000Y-47625000D03*
D12*
X119380000Y-47625000D03*
X109220000Y-47625000D03*
D10*
X114300000Y-47625000D03*
D12*
X138430000Y-47625000D03*
X128270000Y-47625000D03*
D10*
X133350000Y-47625000D03*
D12*
X157480000Y-47625000D03*
X147320000Y-47625000D03*
D10*
X152400000Y-47625000D03*
D12*
X176530000Y-47625000D03*
X166370000Y-47625000D03*
D10*
X171450000Y-47625000D03*
D12*
X195580000Y-47625000D03*
X185420000Y-47625000D03*
D10*
X190500000Y-47625000D03*
D12*
X214630000Y-47625000D03*
X204470000Y-47625000D03*
D10*
X209550000Y-47625000D03*
D12*
X233680000Y-47625000D03*
X223520000Y-47625000D03*
D10*
X228600000Y-47625000D03*
D12*
X252730000Y-47625000D03*
X242570000Y-47625000D03*
D10*
X247650000Y-47625000D03*
D12*
X276542500Y-47625000D03*
X266382500Y-47625000D03*
D10*
X271462500Y-47625000D03*
D12*
X305117500Y-47625000D03*
X294957500Y-47625000D03*
D10*
X300037500Y-47625000D03*
D12*
X324167500Y-47625000D03*
X314007500Y-47625000D03*
D10*
X319087500Y-47625000D03*
D12*
X343217500Y-47625000D03*
X333057500Y-47625000D03*
D10*
X338137500Y-47625000D03*
D12*
X21748750Y-66675000D03*
X11588750Y-66675000D03*
D10*
X16668750Y-66675000D03*
D12*
X47942500Y-66675000D03*
X37782500Y-66675000D03*
D10*
X42862500Y-66675000D03*
D12*
X66992500Y-66675000D03*
X56832500Y-66675000D03*
D10*
X61912500Y-66675000D03*
D12*
X86042500Y-66675000D03*
X75882500Y-66675000D03*
D10*
X80962500Y-66675000D03*
D12*
X105092500Y-66675000D03*
X94932500Y-66675000D03*
D10*
X100012500Y-66675000D03*
D12*
X124142500Y-66675000D03*
X113982500Y-66675000D03*
D10*
X119062500Y-66675000D03*
D12*
X143192500Y-66675000D03*
X133032500Y-66675000D03*
D10*
X138112500Y-66675000D03*
D12*
X162242500Y-66675000D03*
X152082500Y-66675000D03*
D10*
X157162500Y-66675000D03*
D12*
X181292500Y-66675000D03*
X171132500Y-66675000D03*
D10*
X176212500Y-66675000D03*
D12*
X200342500Y-66675000D03*
X190182500Y-66675000D03*
D10*
X195262500Y-66675000D03*
D12*
X219392500Y-66675000D03*
X209232500Y-66675000D03*
D10*
X214312500Y-66675000D03*
D12*
X238442500Y-66675000D03*
X228282500Y-66675000D03*
D10*
X233362500Y-66675000D03*
X276256750Y-74930000D03*
X252380750Y-74930000D03*
D11*
X276256750Y-59690000D03*
X252380750Y-59690000D03*
D12*
X269398750Y-66675000D03*
X259238750Y-66675000D03*
D10*
X264318750Y-66675000D03*
X33369250Y-93980000D03*
X9493250Y-93980000D03*
D11*
X33369250Y-78740000D03*
X9493250Y-78740000D03*
D12*
X26511250Y-85725000D03*
X16351250Y-85725000D03*
D10*
X21431250Y-85725000D03*
D12*
X57467500Y-85725000D03*
X47307500Y-85725000D03*
D10*
X52387500Y-85725000D03*
D12*
X76517500Y-85725000D03*
X66357500Y-85725000D03*
D10*
X71437500Y-85725000D03*
D12*
X95567500Y-85725000D03*
X85407500Y-85725000D03*
D10*
X90487500Y-85725000D03*
D12*
X114617500Y-85725000D03*
X104457500Y-85725000D03*
D10*
X109537500Y-85725000D03*
D12*
X133667500Y-85725000D03*
X123507500Y-85725000D03*
D10*
X128587500Y-85725000D03*
D12*
X152717500Y-85725000D03*
X142557500Y-85725000D03*
D10*
X147637500Y-85725000D03*
D12*
X171767500Y-85725000D03*
X161607500Y-85725000D03*
D10*
X166687500Y-85725000D03*
D12*
X190817500Y-85725000D03*
X180657500Y-85725000D03*
D10*
X185737500Y-85725000D03*
D12*
X209867500Y-85725000D03*
X199707500Y-85725000D03*
D10*
X204787500Y-85725000D03*
D12*
X228917500Y-85725000D03*
X218757500Y-85725000D03*
D10*
X223837500Y-85725000D03*
X271494250Y-93980000D03*
X247618250Y-93980000D03*
D11*
X271494250Y-78740000D03*
X247618250Y-78740000D03*
D12*
X264636250Y-85725000D03*
X254476250Y-85725000D03*
D10*
X259556250Y-85725000D03*
D12*
X324167500Y-85725000D03*
X314007500Y-85725000D03*
D10*
X319087500Y-85725000D03*
D12*
X16986250Y-104775000D03*
X6826250Y-104775000D03*
D10*
X11906250Y-104775000D03*
D12*
X40798750Y-104775000D03*
X30638750Y-104775000D03*
D10*
X35718750Y-104775000D03*
D12*
X64611250Y-104775000D03*
X54451250Y-104775000D03*
D10*
X59531250Y-104775000D03*
D12*
X207486250Y-104775000D03*
X197326250Y-104775000D03*
D10*
X202406250Y-104775000D03*
D12*
X231298750Y-104775000D03*
X221138750Y-104775000D03*
D10*
X226218750Y-104775000D03*
D12*
X278923750Y-104775000D03*
X268763750Y-104775000D03*
D10*
X273843750Y-104775000D03*
D12*
X305117500Y-104775000D03*
X294957500Y-104775000D03*
D10*
X300037500Y-104775000D03*
D12*
X324167500Y-104775000D03*
X314007500Y-104775000D03*
D10*
X319087500Y-104775000D03*
D12*
X343217500Y-104775000D03*
X333057500Y-104775000D03*
D10*
X338137500Y-104775000D03*
G36*
G01*
X311410000Y-60983000D02*
X311410000Y-60683000D01*
G75*
G02*
X311560000Y-60533000I150000J0D01*
G01*
X312860000Y-60533000D01*
G75*
G02*
X313010000Y-60683000I0J-150000D01*
G01*
X313010000Y-60983000D01*
G75*
G02*
X312860000Y-61133000I-150000J0D01*
G01*
X311560000Y-61133000D01*
G75*
G02*
X311410000Y-60983000I0J150000D01*
G01*
G37*
G36*
G01*
X311410000Y-62253000D02*
X311410000Y-61953000D01*
G75*
G02*
X311560000Y-61803000I150000J0D01*
G01*
X312860000Y-61803000D01*
G75*
G02*
X313010000Y-61953000I0J-150000D01*
G01*
X313010000Y-62253000D01*
G75*
G02*
X312860000Y-62403000I-150000J0D01*
G01*
X311560000Y-62403000D01*
G75*
G02*
X311410000Y-62253000I0J150000D01*
G01*
G37*
G36*
G01*
X311410000Y-63523000D02*
X311410000Y-63223000D01*
G75*
G02*
X311560000Y-63073000I150000J0D01*
G01*
X312860000Y-63073000D01*
G75*
G02*
X313010000Y-63223000I0J-150000D01*
G01*
X313010000Y-63523000D01*
G75*
G02*
X312860000Y-63673000I-150000J0D01*
G01*
X311560000Y-63673000D01*
G75*
G02*
X311410000Y-63523000I0J150000D01*
G01*
G37*
G36*
G01*
X311410000Y-64793000D02*
X311410000Y-64493000D01*
G75*
G02*
X311560000Y-64343000I150000J0D01*
G01*
X312860000Y-64343000D01*
G75*
G02*
X313010000Y-64493000I0J-150000D01*
G01*
X313010000Y-64793000D01*
G75*
G02*
X312860000Y-64943000I-150000J0D01*
G01*
X311560000Y-64943000D01*
G75*
G02*
X311410000Y-64793000I0J150000D01*
G01*
G37*
G36*
G01*
X304210000Y-64793000D02*
X304210000Y-64493000D01*
G75*
G02*
X304360000Y-64343000I150000J0D01*
G01*
X305660000Y-64343000D01*
G75*
G02*
X305810000Y-64493000I0J-150000D01*
G01*
X305810000Y-64793000D01*
G75*
G02*
X305660000Y-64943000I-150000J0D01*
G01*
X304360000Y-64943000D01*
G75*
G02*
X304210000Y-64793000I0J150000D01*
G01*
G37*
G36*
G01*
X304210000Y-63523000D02*
X304210000Y-63223000D01*
G75*
G02*
X304360000Y-63073000I150000J0D01*
G01*
X305660000Y-63073000D01*
G75*
G02*
X305810000Y-63223000I0J-150000D01*
G01*
X305810000Y-63523000D01*
G75*
G02*
X305660000Y-63673000I-150000J0D01*
G01*
X304360000Y-63673000D01*
G75*
G02*
X304210000Y-63523000I0J150000D01*
G01*
G37*
G36*
G01*
X304210000Y-62253000D02*
X304210000Y-61953000D01*
G75*
G02*
X304360000Y-61803000I150000J0D01*
G01*
X305660000Y-61803000D01*
G75*
G02*
X305810000Y-61953000I0J-150000D01*
G01*
X305810000Y-62253000D01*
G75*
G02*
X305660000Y-62403000I-150000J0D01*
G01*
X304360000Y-62403000D01*
G75*
G02*
X304210000Y-62253000I0J150000D01*
G01*
G37*
G36*
G01*
X304210000Y-60983000D02*
X304210000Y-60683000D01*
G75*
G02*
X304360000Y-60533000I150000J0D01*
G01*
X305660000Y-60533000D01*
G75*
G02*
X305810000Y-60683000I0J-150000D01*
G01*
X305810000Y-60983000D01*
G75*
G02*
X305660000Y-61133000I-150000J0D01*
G01*
X304360000Y-61133000D01*
G75*
G02*
X304210000Y-60983000I0J150000D01*
G01*
G37*
D13*
X291281000Y-700000D03*
X286431000Y-700000D03*
D14*
X286131000Y2330000D03*
X291581000Y2330000D03*
D15*
X302442000Y-87630000D03*
X293442000Y-87630000D03*
G36*
G01*
X317446000Y-61511000D02*
X317446000Y-61171000D01*
G75*
G02*
X317586000Y-61031000I140000J0D01*
G01*
X317866000Y-61031000D01*
G75*
G02*
X318006000Y-61171000I0J-140000D01*
G01*
X318006000Y-61511000D01*
G75*
G02*
X317866000Y-61651000I-140000J0D01*
G01*
X317586000Y-61651000D01*
G75*
G02*
X317446000Y-61511000I0J140000D01*
G01*
G37*
G36*
G01*
X316486000Y-61511000D02*
X316486000Y-61171000D01*
G75*
G02*
X316626000Y-61031000I140000J0D01*
G01*
X316906000Y-61031000D01*
G75*
G02*
X317046000Y-61171000I0J-140000D01*
G01*
X317046000Y-61511000D01*
G75*
G02*
X316906000Y-61651000I-140000J0D01*
G01*
X316626000Y-61651000D01*
G75*
G02*
X316486000Y-61511000I0J140000D01*
G01*
G37*
G36*
G01*
X324431000Y-61511000D02*
X324431000Y-61171000D01*
G75*
G02*
X324571000Y-61031000I140000J0D01*
G01*
X324851000Y-61031000D01*
G75*
G02*
X324991000Y-61171000I0J-140000D01*
G01*
X324991000Y-61511000D01*
G75*
G02*
X324851000Y-61651000I-140000J0D01*
G01*
X324571000Y-61651000D01*
G75*
G02*
X324431000Y-61511000I0J140000D01*
G01*
G37*
G36*
G01*
X323471000Y-61511000D02*
X323471000Y-61171000D01*
G75*
G02*
X323611000Y-61031000I140000J0D01*
G01*
X323891000Y-61031000D01*
G75*
G02*
X324031000Y-61171000I0J-140000D01*
G01*
X324031000Y-61511000D01*
G75*
G02*
X323891000Y-61651000I-140000J0D01*
G01*
X323611000Y-61651000D01*
G75*
G02*
X323471000Y-61511000I0J140000D01*
G01*
G37*
D16*
X328549000Y-63881000D03*
D17*
X328549000Y-61341000D03*
G36*
G01*
X313657000Y-72321000D02*
X312707000Y-72321000D01*
G75*
G02*
X312457000Y-72071000I0J250000D01*
G01*
X312457000Y-71571000D01*
G75*
G02*
X312707000Y-71321000I250000J0D01*
G01*
X313657000Y-71321000D01*
G75*
G02*
X313907000Y-71571000I0J-250000D01*
G01*
X313907000Y-72071000D01*
G75*
G02*
X313657000Y-72321000I-250000J0D01*
G01*
G37*
G36*
G01*
X313657000Y-74221000D02*
X312707000Y-74221000D01*
G75*
G02*
X312457000Y-73971000I0J250000D01*
G01*
X312457000Y-73471000D01*
G75*
G02*
X312707000Y-73221000I250000J0D01*
G01*
X313657000Y-73221000D01*
G75*
G02*
X313907000Y-73471000I0J-250000D01*
G01*
X313907000Y-73971000D01*
G75*
G02*
X313657000Y-74221000I-250000J0D01*
G01*
G37*
G36*
G01*
X339301000Y-72971000D02*
X339641000Y-72971000D01*
G75*
G02*
X339781000Y-73111000I0J-140000D01*
G01*
X339781000Y-73391000D01*
G75*
G02*
X339641000Y-73531000I-140000J0D01*
G01*
X339301000Y-73531000D01*
G75*
G02*
X339161000Y-73391000I0J140000D01*
G01*
X339161000Y-73111000D01*
G75*
G02*
X339301000Y-72971000I140000J0D01*
G01*
G37*
G36*
G01*
X339301000Y-72011000D02*
X339641000Y-72011000D01*
G75*
G02*
X339781000Y-72151000I0J-140000D01*
G01*
X339781000Y-72431000D01*
G75*
G02*
X339641000Y-72571000I-140000J0D01*
G01*
X339301000Y-72571000D01*
G75*
G02*
X339161000Y-72431000I0J140000D01*
G01*
X339161000Y-72151000D01*
G75*
G02*
X339301000Y-72011000I140000J0D01*
G01*
G37*
G36*
G01*
X337015000Y-72971000D02*
X337355000Y-72971000D01*
G75*
G02*
X337495000Y-73111000I0J-140000D01*
G01*
X337495000Y-73391000D01*
G75*
G02*
X337355000Y-73531000I-140000J0D01*
G01*
X337015000Y-73531000D01*
G75*
G02*
X336875000Y-73391000I0J140000D01*
G01*
X336875000Y-73111000D01*
G75*
G02*
X337015000Y-72971000I140000J0D01*
G01*
G37*
G36*
G01*
X337015000Y-72011000D02*
X337355000Y-72011000D01*
G75*
G02*
X337495000Y-72151000I0J-140000D01*
G01*
X337495000Y-72431000D01*
G75*
G02*
X337355000Y-72571000I-140000J0D01*
G01*
X337015000Y-72571000D01*
G75*
G02*
X336875000Y-72431000I0J140000D01*
G01*
X336875000Y-72151000D01*
G75*
G02*
X337015000Y-72011000I140000J0D01*
G01*
G37*
G36*
G01*
X334729000Y-72971000D02*
X335069000Y-72971000D01*
G75*
G02*
X335209000Y-73111000I0J-140000D01*
G01*
X335209000Y-73391000D01*
G75*
G02*
X335069000Y-73531000I-140000J0D01*
G01*
X334729000Y-73531000D01*
G75*
G02*
X334589000Y-73391000I0J140000D01*
G01*
X334589000Y-73111000D01*
G75*
G02*
X334729000Y-72971000I140000J0D01*
G01*
G37*
G36*
G01*
X334729000Y-72011000D02*
X335069000Y-72011000D01*
G75*
G02*
X335209000Y-72151000I0J-140000D01*
G01*
X335209000Y-72431000D01*
G75*
G02*
X335069000Y-72571000I-140000J0D01*
G01*
X334729000Y-72571000D01*
G75*
G02*
X334589000Y-72431000I0J140000D01*
G01*
X334589000Y-72151000D01*
G75*
G02*
X334729000Y-72011000I140000J0D01*
G01*
G37*
G36*
G01*
X332443000Y-72971000D02*
X332783000Y-72971000D01*
G75*
G02*
X332923000Y-73111000I0J-140000D01*
G01*
X332923000Y-73391000D01*
G75*
G02*
X332783000Y-73531000I-140000J0D01*
G01*
X332443000Y-73531000D01*
G75*
G02*
X332303000Y-73391000I0J140000D01*
G01*
X332303000Y-73111000D01*
G75*
G02*
X332443000Y-72971000I140000J0D01*
G01*
G37*
G36*
G01*
X332443000Y-72011000D02*
X332783000Y-72011000D01*
G75*
G02*
X332923000Y-72151000I0J-140000D01*
G01*
X332923000Y-72431000D01*
G75*
G02*
X332783000Y-72571000I-140000J0D01*
G01*
X332443000Y-72571000D01*
G75*
G02*
X332303000Y-72431000I0J140000D01*
G01*
X332303000Y-72151000D01*
G75*
G02*
X332443000Y-72011000I140000J0D01*
G01*
G37*
G36*
G01*
X330157000Y-72971000D02*
X330497000Y-72971000D01*
G75*
G02*
X330637000Y-73111000I0J-140000D01*
G01*
X330637000Y-73391000D01*
G75*
G02*
X330497000Y-73531000I-140000J0D01*
G01*
X330157000Y-73531000D01*
G75*
G02*
X330017000Y-73391000I0J140000D01*
G01*
X330017000Y-73111000D01*
G75*
G02*
X330157000Y-72971000I140000J0D01*
G01*
G37*
G36*
G01*
X330157000Y-72011000D02*
X330497000Y-72011000D01*
G75*
G02*
X330637000Y-72151000I0J-140000D01*
G01*
X330637000Y-72431000D01*
G75*
G02*
X330497000Y-72571000I-140000J0D01*
G01*
X330157000Y-72571000D01*
G75*
G02*
X330017000Y-72431000I0J140000D01*
G01*
X330017000Y-72151000D01*
G75*
G02*
X330157000Y-72011000I140000J0D01*
G01*
G37*
G36*
G01*
X327744000Y-72971000D02*
X328084000Y-72971000D01*
G75*
G02*
X328224000Y-73111000I0J-140000D01*
G01*
X328224000Y-73391000D01*
G75*
G02*
X328084000Y-73531000I-140000J0D01*
G01*
X327744000Y-73531000D01*
G75*
G02*
X327604000Y-73391000I0J140000D01*
G01*
X327604000Y-73111000D01*
G75*
G02*
X327744000Y-72971000I140000J0D01*
G01*
G37*
G36*
G01*
X327744000Y-72011000D02*
X328084000Y-72011000D01*
G75*
G02*
X328224000Y-72151000I0J-140000D01*
G01*
X328224000Y-72431000D01*
G75*
G02*
X328084000Y-72571000I-140000J0D01*
G01*
X327744000Y-72571000D01*
G75*
G02*
X327604000Y-72431000I0J140000D01*
G01*
X327604000Y-72151000D01*
G75*
G02*
X327744000Y-72011000I140000J0D01*
G01*
G37*
G36*
G01*
X325458000Y-72971000D02*
X325798000Y-72971000D01*
G75*
G02*
X325938000Y-73111000I0J-140000D01*
G01*
X325938000Y-73391000D01*
G75*
G02*
X325798000Y-73531000I-140000J0D01*
G01*
X325458000Y-73531000D01*
G75*
G02*
X325318000Y-73391000I0J140000D01*
G01*
X325318000Y-73111000D01*
G75*
G02*
X325458000Y-72971000I140000J0D01*
G01*
G37*
G36*
G01*
X325458000Y-72011000D02*
X325798000Y-72011000D01*
G75*
G02*
X325938000Y-72151000I0J-140000D01*
G01*
X325938000Y-72431000D01*
G75*
G02*
X325798000Y-72571000I-140000J0D01*
G01*
X325458000Y-72571000D01*
G75*
G02*
X325318000Y-72431000I0J140000D01*
G01*
X325318000Y-72151000D01*
G75*
G02*
X325458000Y-72011000I140000J0D01*
G01*
G37*
G36*
G01*
X311077000Y-57869000D02*
X311077000Y-58209000D01*
G75*
G02*
X310937000Y-58349000I-140000J0D01*
G01*
X310657000Y-58349000D01*
G75*
G02*
X310517000Y-58209000I0J140000D01*
G01*
X310517000Y-57869000D01*
G75*
G02*
X310657000Y-57729000I140000J0D01*
G01*
X310937000Y-57729000D01*
G75*
G02*
X311077000Y-57869000I0J-140000D01*
G01*
G37*
G36*
G01*
X312037000Y-57869000D02*
X312037000Y-58209000D01*
G75*
G02*
X311897000Y-58349000I-140000J0D01*
G01*
X311617000Y-58349000D01*
G75*
G02*
X311477000Y-58209000I0J140000D01*
G01*
X311477000Y-57869000D01*
G75*
G02*
X311617000Y-57729000I140000J0D01*
G01*
X311897000Y-57729000D01*
G75*
G02*
X312037000Y-57869000I0J-140000D01*
G01*
G37*
G36*
G01*
X293570000Y-91102000D02*
X293570000Y-90762000D01*
G75*
G02*
X293710000Y-90622000I140000J0D01*
G01*
X293990000Y-90622000D01*
G75*
G02*
X294130000Y-90762000I0J-140000D01*
G01*
X294130000Y-91102000D01*
G75*
G02*
X293990000Y-91242000I-140000J0D01*
G01*
X293710000Y-91242000D01*
G75*
G02*
X293570000Y-91102000I0J140000D01*
G01*
G37*
G36*
G01*
X292610000Y-91102000D02*
X292610000Y-90762000D01*
G75*
G02*
X292750000Y-90622000I140000J0D01*
G01*
X293030000Y-90622000D01*
G75*
G02*
X293170000Y-90762000I0J-140000D01*
G01*
X293170000Y-91102000D01*
G75*
G02*
X293030000Y-91242000I-140000J0D01*
G01*
X292750000Y-91242000D01*
G75*
G02*
X292610000Y-91102000I0J140000D01*
G01*
G37*
G36*
G01*
X302714000Y-91102000D02*
X302714000Y-90762000D01*
G75*
G02*
X302854000Y-90622000I140000J0D01*
G01*
X303134000Y-90622000D01*
G75*
G02*
X303274000Y-90762000I0J-140000D01*
G01*
X303274000Y-91102000D01*
G75*
G02*
X303134000Y-91242000I-140000J0D01*
G01*
X302854000Y-91242000D01*
G75*
G02*
X302714000Y-91102000I0J140000D01*
G01*
G37*
G36*
G01*
X301754000Y-91102000D02*
X301754000Y-90762000D01*
G75*
G02*
X301894000Y-90622000I140000J0D01*
G01*
X302174000Y-90622000D01*
G75*
G02*
X302314000Y-90762000I0J-140000D01*
G01*
X302314000Y-91102000D01*
G75*
G02*
X302174000Y-91242000I-140000J0D01*
G01*
X301894000Y-91242000D01*
G75*
G02*
X301754000Y-91102000I0J140000D01*
G01*
G37*
M02*
