G04 #@! TF.GenerationSoftware,KiCad,Pcbnew,(5.1.12)-1*
G04 #@! TF.CreationDate,2023-01-19T19:38:23-07:00*
G04 #@! TF.ProjectId,keyboard,6b657962-6f61-4726-942e-6b696361645f,rev?*
G04 #@! TF.SameCoordinates,Original*
G04 #@! TF.FileFunction,Paste,Top*
G04 #@! TF.FilePolarity,Positive*
%FSLAX46Y46*%
G04 Gerber Fmt 4.6, Leading zero omitted, Abs format (unit mm)*
G04 Created by KiCad (PCBNEW (5.1.12)-1) date 2023-01-19 19:38:23*
%MOMM*%
%LPD*%
G01*
G04 APERTURE LIST*
%ADD10R,5.600000X2.100000*%
G04 APERTURE END LIST*
G36*
G01*
X311410000Y-60983000D02*
X311410000Y-60683000D01*
G75*
G02*
X311560000Y-60533000I150000J0D01*
G01*
X312860000Y-60533000D01*
G75*
G02*
X313010000Y-60683000I0J-150000D01*
G01*
X313010000Y-60983000D01*
G75*
G02*
X312860000Y-61133000I-150000J0D01*
G01*
X311560000Y-61133000D01*
G75*
G02*
X311410000Y-60983000I0J150000D01*
G01*
G37*
G36*
G01*
X311410000Y-62253000D02*
X311410000Y-61953000D01*
G75*
G02*
X311560000Y-61803000I150000J0D01*
G01*
X312860000Y-61803000D01*
G75*
G02*
X313010000Y-61953000I0J-150000D01*
G01*
X313010000Y-62253000D01*
G75*
G02*
X312860000Y-62403000I-150000J0D01*
G01*
X311560000Y-62403000D01*
G75*
G02*
X311410000Y-62253000I0J150000D01*
G01*
G37*
G36*
G01*
X311410000Y-63523000D02*
X311410000Y-63223000D01*
G75*
G02*
X311560000Y-63073000I150000J0D01*
G01*
X312860000Y-63073000D01*
G75*
G02*
X313010000Y-63223000I0J-150000D01*
G01*
X313010000Y-63523000D01*
G75*
G02*
X312860000Y-63673000I-150000J0D01*
G01*
X311560000Y-63673000D01*
G75*
G02*
X311410000Y-63523000I0J150000D01*
G01*
G37*
G36*
G01*
X311410000Y-64793000D02*
X311410000Y-64493000D01*
G75*
G02*
X311560000Y-64343000I150000J0D01*
G01*
X312860000Y-64343000D01*
G75*
G02*
X313010000Y-64493000I0J-150000D01*
G01*
X313010000Y-64793000D01*
G75*
G02*
X312860000Y-64943000I-150000J0D01*
G01*
X311560000Y-64943000D01*
G75*
G02*
X311410000Y-64793000I0J150000D01*
G01*
G37*
G36*
G01*
X304210000Y-64793000D02*
X304210000Y-64493000D01*
G75*
G02*
X304360000Y-64343000I150000J0D01*
G01*
X305660000Y-64343000D01*
G75*
G02*
X305810000Y-64493000I0J-150000D01*
G01*
X305810000Y-64793000D01*
G75*
G02*
X305660000Y-64943000I-150000J0D01*
G01*
X304360000Y-64943000D01*
G75*
G02*
X304210000Y-64793000I0J150000D01*
G01*
G37*
G36*
G01*
X304210000Y-63523000D02*
X304210000Y-63223000D01*
G75*
G02*
X304360000Y-63073000I150000J0D01*
G01*
X305660000Y-63073000D01*
G75*
G02*
X305810000Y-63223000I0J-150000D01*
G01*
X305810000Y-63523000D01*
G75*
G02*
X305660000Y-63673000I-150000J0D01*
G01*
X304360000Y-63673000D01*
G75*
G02*
X304210000Y-63523000I0J150000D01*
G01*
G37*
G36*
G01*
X304210000Y-62253000D02*
X304210000Y-61953000D01*
G75*
G02*
X304360000Y-61803000I150000J0D01*
G01*
X305660000Y-61803000D01*
G75*
G02*
X305810000Y-61953000I0J-150000D01*
G01*
X305810000Y-62253000D01*
G75*
G02*
X305660000Y-62403000I-150000J0D01*
G01*
X304360000Y-62403000D01*
G75*
G02*
X304210000Y-62253000I0J150000D01*
G01*
G37*
G36*
G01*
X304210000Y-60983000D02*
X304210000Y-60683000D01*
G75*
G02*
X304360000Y-60533000I150000J0D01*
G01*
X305660000Y-60533000D01*
G75*
G02*
X305810000Y-60683000I0J-150000D01*
G01*
X305810000Y-60983000D01*
G75*
G02*
X305660000Y-61133000I-150000J0D01*
G01*
X304360000Y-61133000D01*
G75*
G02*
X304210000Y-60983000I0J150000D01*
G01*
G37*
D10*
X302442000Y-87630000D03*
X293442000Y-87630000D03*
G36*
G01*
X317446000Y-61511000D02*
X317446000Y-61171000D01*
G75*
G02*
X317586000Y-61031000I140000J0D01*
G01*
X317866000Y-61031000D01*
G75*
G02*
X318006000Y-61171000I0J-140000D01*
G01*
X318006000Y-61511000D01*
G75*
G02*
X317866000Y-61651000I-140000J0D01*
G01*
X317586000Y-61651000D01*
G75*
G02*
X317446000Y-61511000I0J140000D01*
G01*
G37*
G36*
G01*
X316486000Y-61511000D02*
X316486000Y-61171000D01*
G75*
G02*
X316626000Y-61031000I140000J0D01*
G01*
X316906000Y-61031000D01*
G75*
G02*
X317046000Y-61171000I0J-140000D01*
G01*
X317046000Y-61511000D01*
G75*
G02*
X316906000Y-61651000I-140000J0D01*
G01*
X316626000Y-61651000D01*
G75*
G02*
X316486000Y-61511000I0J140000D01*
G01*
G37*
G36*
G01*
X324431000Y-61511000D02*
X324431000Y-61171000D01*
G75*
G02*
X324571000Y-61031000I140000J0D01*
G01*
X324851000Y-61031000D01*
G75*
G02*
X324991000Y-61171000I0J-140000D01*
G01*
X324991000Y-61511000D01*
G75*
G02*
X324851000Y-61651000I-140000J0D01*
G01*
X324571000Y-61651000D01*
G75*
G02*
X324431000Y-61511000I0J140000D01*
G01*
G37*
G36*
G01*
X323471000Y-61511000D02*
X323471000Y-61171000D01*
G75*
G02*
X323611000Y-61031000I140000J0D01*
G01*
X323891000Y-61031000D01*
G75*
G02*
X324031000Y-61171000I0J-140000D01*
G01*
X324031000Y-61511000D01*
G75*
G02*
X323891000Y-61651000I-140000J0D01*
G01*
X323611000Y-61651000D01*
G75*
G02*
X323471000Y-61511000I0J140000D01*
G01*
G37*
G36*
G01*
X313657000Y-72321000D02*
X312707000Y-72321000D01*
G75*
G02*
X312457000Y-72071000I0J250000D01*
G01*
X312457000Y-71571000D01*
G75*
G02*
X312707000Y-71321000I250000J0D01*
G01*
X313657000Y-71321000D01*
G75*
G02*
X313907000Y-71571000I0J-250000D01*
G01*
X313907000Y-72071000D01*
G75*
G02*
X313657000Y-72321000I-250000J0D01*
G01*
G37*
G36*
G01*
X313657000Y-74221000D02*
X312707000Y-74221000D01*
G75*
G02*
X312457000Y-73971000I0J250000D01*
G01*
X312457000Y-73471000D01*
G75*
G02*
X312707000Y-73221000I250000J0D01*
G01*
X313657000Y-73221000D01*
G75*
G02*
X313907000Y-73471000I0J-250000D01*
G01*
X313907000Y-73971000D01*
G75*
G02*
X313657000Y-74221000I-250000J0D01*
G01*
G37*
G36*
G01*
X339301000Y-72971000D02*
X339641000Y-72971000D01*
G75*
G02*
X339781000Y-73111000I0J-140000D01*
G01*
X339781000Y-73391000D01*
G75*
G02*
X339641000Y-73531000I-140000J0D01*
G01*
X339301000Y-73531000D01*
G75*
G02*
X339161000Y-73391000I0J140000D01*
G01*
X339161000Y-73111000D01*
G75*
G02*
X339301000Y-72971000I140000J0D01*
G01*
G37*
G36*
G01*
X339301000Y-72011000D02*
X339641000Y-72011000D01*
G75*
G02*
X339781000Y-72151000I0J-140000D01*
G01*
X339781000Y-72431000D01*
G75*
G02*
X339641000Y-72571000I-140000J0D01*
G01*
X339301000Y-72571000D01*
G75*
G02*
X339161000Y-72431000I0J140000D01*
G01*
X339161000Y-72151000D01*
G75*
G02*
X339301000Y-72011000I140000J0D01*
G01*
G37*
G36*
G01*
X337015000Y-72971000D02*
X337355000Y-72971000D01*
G75*
G02*
X337495000Y-73111000I0J-140000D01*
G01*
X337495000Y-73391000D01*
G75*
G02*
X337355000Y-73531000I-140000J0D01*
G01*
X337015000Y-73531000D01*
G75*
G02*
X336875000Y-73391000I0J140000D01*
G01*
X336875000Y-73111000D01*
G75*
G02*
X337015000Y-72971000I140000J0D01*
G01*
G37*
G36*
G01*
X337015000Y-72011000D02*
X337355000Y-72011000D01*
G75*
G02*
X337495000Y-72151000I0J-140000D01*
G01*
X337495000Y-72431000D01*
G75*
G02*
X337355000Y-72571000I-140000J0D01*
G01*
X337015000Y-72571000D01*
G75*
G02*
X336875000Y-72431000I0J140000D01*
G01*
X336875000Y-72151000D01*
G75*
G02*
X337015000Y-72011000I140000J0D01*
G01*
G37*
G36*
G01*
X334729000Y-72971000D02*
X335069000Y-72971000D01*
G75*
G02*
X335209000Y-73111000I0J-140000D01*
G01*
X335209000Y-73391000D01*
G75*
G02*
X335069000Y-73531000I-140000J0D01*
G01*
X334729000Y-73531000D01*
G75*
G02*
X334589000Y-73391000I0J140000D01*
G01*
X334589000Y-73111000D01*
G75*
G02*
X334729000Y-72971000I140000J0D01*
G01*
G37*
G36*
G01*
X334729000Y-72011000D02*
X335069000Y-72011000D01*
G75*
G02*
X335209000Y-72151000I0J-140000D01*
G01*
X335209000Y-72431000D01*
G75*
G02*
X335069000Y-72571000I-140000J0D01*
G01*
X334729000Y-72571000D01*
G75*
G02*
X334589000Y-72431000I0J140000D01*
G01*
X334589000Y-72151000D01*
G75*
G02*
X334729000Y-72011000I140000J0D01*
G01*
G37*
G36*
G01*
X332443000Y-72971000D02*
X332783000Y-72971000D01*
G75*
G02*
X332923000Y-73111000I0J-140000D01*
G01*
X332923000Y-73391000D01*
G75*
G02*
X332783000Y-73531000I-140000J0D01*
G01*
X332443000Y-73531000D01*
G75*
G02*
X332303000Y-73391000I0J140000D01*
G01*
X332303000Y-73111000D01*
G75*
G02*
X332443000Y-72971000I140000J0D01*
G01*
G37*
G36*
G01*
X332443000Y-72011000D02*
X332783000Y-72011000D01*
G75*
G02*
X332923000Y-72151000I0J-140000D01*
G01*
X332923000Y-72431000D01*
G75*
G02*
X332783000Y-72571000I-140000J0D01*
G01*
X332443000Y-72571000D01*
G75*
G02*
X332303000Y-72431000I0J140000D01*
G01*
X332303000Y-72151000D01*
G75*
G02*
X332443000Y-72011000I140000J0D01*
G01*
G37*
G36*
G01*
X330157000Y-72971000D02*
X330497000Y-72971000D01*
G75*
G02*
X330637000Y-73111000I0J-140000D01*
G01*
X330637000Y-73391000D01*
G75*
G02*
X330497000Y-73531000I-140000J0D01*
G01*
X330157000Y-73531000D01*
G75*
G02*
X330017000Y-73391000I0J140000D01*
G01*
X330017000Y-73111000D01*
G75*
G02*
X330157000Y-72971000I140000J0D01*
G01*
G37*
G36*
G01*
X330157000Y-72011000D02*
X330497000Y-72011000D01*
G75*
G02*
X330637000Y-72151000I0J-140000D01*
G01*
X330637000Y-72431000D01*
G75*
G02*
X330497000Y-72571000I-140000J0D01*
G01*
X330157000Y-72571000D01*
G75*
G02*
X330017000Y-72431000I0J140000D01*
G01*
X330017000Y-72151000D01*
G75*
G02*
X330157000Y-72011000I140000J0D01*
G01*
G37*
G36*
G01*
X327744000Y-72971000D02*
X328084000Y-72971000D01*
G75*
G02*
X328224000Y-73111000I0J-140000D01*
G01*
X328224000Y-73391000D01*
G75*
G02*
X328084000Y-73531000I-140000J0D01*
G01*
X327744000Y-73531000D01*
G75*
G02*
X327604000Y-73391000I0J140000D01*
G01*
X327604000Y-73111000D01*
G75*
G02*
X327744000Y-72971000I140000J0D01*
G01*
G37*
G36*
G01*
X327744000Y-72011000D02*
X328084000Y-72011000D01*
G75*
G02*
X328224000Y-72151000I0J-140000D01*
G01*
X328224000Y-72431000D01*
G75*
G02*
X328084000Y-72571000I-140000J0D01*
G01*
X327744000Y-72571000D01*
G75*
G02*
X327604000Y-72431000I0J140000D01*
G01*
X327604000Y-72151000D01*
G75*
G02*
X327744000Y-72011000I140000J0D01*
G01*
G37*
G36*
G01*
X325458000Y-72971000D02*
X325798000Y-72971000D01*
G75*
G02*
X325938000Y-73111000I0J-140000D01*
G01*
X325938000Y-73391000D01*
G75*
G02*
X325798000Y-73531000I-140000J0D01*
G01*
X325458000Y-73531000D01*
G75*
G02*
X325318000Y-73391000I0J140000D01*
G01*
X325318000Y-73111000D01*
G75*
G02*
X325458000Y-72971000I140000J0D01*
G01*
G37*
G36*
G01*
X325458000Y-72011000D02*
X325798000Y-72011000D01*
G75*
G02*
X325938000Y-72151000I0J-140000D01*
G01*
X325938000Y-72431000D01*
G75*
G02*
X325798000Y-72571000I-140000J0D01*
G01*
X325458000Y-72571000D01*
G75*
G02*
X325318000Y-72431000I0J140000D01*
G01*
X325318000Y-72151000D01*
G75*
G02*
X325458000Y-72011000I140000J0D01*
G01*
G37*
G36*
G01*
X311077000Y-57869000D02*
X311077000Y-58209000D01*
G75*
G02*
X310937000Y-58349000I-140000J0D01*
G01*
X310657000Y-58349000D01*
G75*
G02*
X310517000Y-58209000I0J140000D01*
G01*
X310517000Y-57869000D01*
G75*
G02*
X310657000Y-57729000I140000J0D01*
G01*
X310937000Y-57729000D01*
G75*
G02*
X311077000Y-57869000I0J-140000D01*
G01*
G37*
G36*
G01*
X312037000Y-57869000D02*
X312037000Y-58209000D01*
G75*
G02*
X311897000Y-58349000I-140000J0D01*
G01*
X311617000Y-58349000D01*
G75*
G02*
X311477000Y-58209000I0J140000D01*
G01*
X311477000Y-57869000D01*
G75*
G02*
X311617000Y-57729000I140000J0D01*
G01*
X311897000Y-57729000D01*
G75*
G02*
X312037000Y-57869000I0J-140000D01*
G01*
G37*
G36*
G01*
X293570000Y-91102000D02*
X293570000Y-90762000D01*
G75*
G02*
X293710000Y-90622000I140000J0D01*
G01*
X293990000Y-90622000D01*
G75*
G02*
X294130000Y-90762000I0J-140000D01*
G01*
X294130000Y-91102000D01*
G75*
G02*
X293990000Y-91242000I-140000J0D01*
G01*
X293710000Y-91242000D01*
G75*
G02*
X293570000Y-91102000I0J140000D01*
G01*
G37*
G36*
G01*
X292610000Y-91102000D02*
X292610000Y-90762000D01*
G75*
G02*
X292750000Y-90622000I140000J0D01*
G01*
X293030000Y-90622000D01*
G75*
G02*
X293170000Y-90762000I0J-140000D01*
G01*
X293170000Y-91102000D01*
G75*
G02*
X293030000Y-91242000I-140000J0D01*
G01*
X292750000Y-91242000D01*
G75*
G02*
X292610000Y-91102000I0J140000D01*
G01*
G37*
G36*
G01*
X302714000Y-91102000D02*
X302714000Y-90762000D01*
G75*
G02*
X302854000Y-90622000I140000J0D01*
G01*
X303134000Y-90622000D01*
G75*
G02*
X303274000Y-90762000I0J-140000D01*
G01*
X303274000Y-91102000D01*
G75*
G02*
X303134000Y-91242000I-140000J0D01*
G01*
X302854000Y-91242000D01*
G75*
G02*
X302714000Y-91102000I0J140000D01*
G01*
G37*
G36*
G01*
X301754000Y-91102000D02*
X301754000Y-90762000D01*
G75*
G02*
X301894000Y-90622000I140000J0D01*
G01*
X302174000Y-90622000D01*
G75*
G02*
X302314000Y-90762000I0J-140000D01*
G01*
X302314000Y-91102000D01*
G75*
G02*
X302174000Y-91242000I-140000J0D01*
G01*
X301894000Y-91242000D01*
G75*
G02*
X301754000Y-91102000I0J140000D01*
G01*
G37*
M02*
