G04 #@! TF.GenerationSoftware,KiCad,Pcbnew,(5.1.12)-1*
G04 #@! TF.CreationDate,2023-01-21T13:53:20-07:00*
G04 #@! TF.ProjectId,keyboard,6b657962-6f61-4726-942e-6b696361645f,rev?*
G04 #@! TF.SameCoordinates,Original*
G04 #@! TF.FileFunction,Legend,Top*
G04 #@! TF.FilePolarity,Positive*
%FSLAX46Y46*%
G04 Gerber Fmt 4.6, Leading zero omitted, Abs format (unit mm)*
G04 Created by KiCad (PCBNEW (5.1.12)-1) date 2023-01-21 13:53:20*
%MOMM*%
%LPD*%
G01*
G04 APERTURE LIST*
%ADD10C,0.120000*%
%ADD11C,0.100000*%
%ADD12C,0.150000*%
G04 APERTURE END LIST*
D10*
X164549000Y-15046000D02*
X164549000Y-4766000D01*
X164549000Y-4766000D02*
X161889000Y-4766000D01*
X161889000Y-4766000D02*
X161889000Y-15046000D01*
X161889000Y-15046000D02*
X164549000Y-15046000D01*
X161889000Y-14096000D02*
X155889000Y-14096000D01*
X155889000Y-14096000D02*
X155889000Y-13336000D01*
X155889000Y-13336000D02*
X161889000Y-13336000D01*
X161889000Y-14036000D02*
X155889000Y-14036000D01*
X161889000Y-13916000D02*
X155889000Y-13916000D01*
X161889000Y-13796000D02*
X155889000Y-13796000D01*
X161889000Y-13676000D02*
X155889000Y-13676000D01*
X161889000Y-13556000D02*
X155889000Y-13556000D01*
X161889000Y-13436000D02*
X155889000Y-13436000D01*
X164879000Y-14096000D02*
X164549000Y-14096000D01*
X164879000Y-13336000D02*
X164549000Y-13336000D01*
X164549000Y-12446000D02*
X161889000Y-12446000D01*
X161889000Y-11556000D02*
X155889000Y-11556000D01*
X155889000Y-11556000D02*
X155889000Y-10796000D01*
X155889000Y-10796000D02*
X161889000Y-10796000D01*
X164946071Y-11556000D02*
X164549000Y-11556000D01*
X164946071Y-10796000D02*
X164549000Y-10796000D01*
X164549000Y-9906000D02*
X161889000Y-9906000D01*
X161889000Y-9016000D02*
X155889000Y-9016000D01*
X155889000Y-9016000D02*
X155889000Y-8256000D01*
X155889000Y-8256000D02*
X161889000Y-8256000D01*
X164946071Y-9016000D02*
X164549000Y-9016000D01*
X164946071Y-8256000D02*
X164549000Y-8256000D01*
X164549000Y-7366000D02*
X161889000Y-7366000D01*
X161889000Y-6476000D02*
X155889000Y-6476000D01*
X155889000Y-6476000D02*
X155889000Y-5716000D01*
X155889000Y-5716000D02*
X161889000Y-5716000D01*
X164946071Y-6476000D02*
X164549000Y-6476000D01*
X164946071Y-5716000D02*
X164549000Y-5716000D01*
X167259000Y-13716000D02*
X167259000Y-14986000D01*
X167259000Y-14986000D02*
X165989000Y-14986000D01*
X225993000Y-4505000D02*
X225993000Y-1845000D01*
X210693000Y-4505000D02*
X225993000Y-4505000D01*
X210693000Y-1845000D02*
X225993000Y-1845000D01*
X210693000Y-4505000D02*
X210693000Y-1845000D01*
X209423000Y-4505000D02*
X208093000Y-4505000D01*
X208093000Y-4505000D02*
X208093000Y-3175000D01*
D11*
X226925000Y-6350000D02*
G75*
G03*
X226925000Y-6350000I-50000J0D01*
G01*
X199514000Y-8509000D02*
G75*
G03*
X199514000Y-8509000I-50000J0D01*
G01*
X267944000Y-5715000D02*
G75*
G03*
X267944000Y-5715000I-50000J0D01*
G01*
D10*
X296905000Y-2305164D02*
X296905000Y-2520836D01*
X296185000Y-2305164D02*
X296185000Y-2520836D01*
X298302000Y-2305164D02*
X298302000Y-2520836D01*
X297582000Y-2305164D02*
X297582000Y-2520836D01*
X180848000Y0D02*
X188468000Y0D01*
X180848000Y-13970000D02*
X180848000Y0D01*
X196088000Y-13970000D02*
X180848000Y-13970000D01*
X196088000Y0D02*
X196088000Y-13970000D01*
X188468000Y0D02*
X196088000Y0D01*
X320490000Y-1599000D02*
X318815000Y-1599000D01*
X320490000Y-1339000D02*
X320490000Y-1599000D01*
X323215000Y-1339000D02*
X320490000Y-1339000D01*
X325940000Y-1339000D02*
X325940000Y-1599000D01*
X323215000Y-1339000D02*
X325940000Y-1339000D01*
X320490000Y-6789000D02*
X320490000Y-6529000D01*
X323215000Y-6789000D02*
X320490000Y-6789000D01*
X325940000Y-6789000D02*
X325940000Y-6529000D01*
X323215000Y-6789000D02*
X325940000Y-6789000D01*
X265408000Y-2788000D02*
X265408000Y-4338000D01*
X265408000Y-2788000D02*
X265108000Y-2788000D01*
X265108000Y12000D02*
X265108000Y-2788000D01*
X257108000Y-2788000D02*
X257108000Y-4338000D01*
X257408000Y-2788000D02*
X257108000Y-2788000D01*
X257408000Y12000D02*
X257408000Y-2788000D01*
X262158000Y-6038000D02*
X262558000Y-5588000D01*
X262958000Y-6038000D02*
X262158000Y-6038000D01*
X262558000Y-5588000D02*
X262958000Y-6038000D01*
X314167000Y-8479000D02*
X314167000Y-7229000D01*
X301567000Y-12329000D02*
X314167000Y-12329000D01*
X314167000Y-12329000D02*
X314167000Y-11079000D01*
X314167000Y-7229000D02*
X301567000Y-7229000D01*
X288886000Y-4010000D02*
X288236000Y-4010000D01*
X295456000Y-11230000D02*
X295456000Y-10580000D01*
X294806000Y-11230000D02*
X295456000Y-11230000D01*
X288236000Y-11230000D02*
X288236000Y-10580000D01*
X288886000Y-11230000D02*
X288236000Y-11230000D01*
X295456000Y-4010000D02*
X295456000Y-4660000D01*
X294806000Y-4010000D02*
X295456000Y-4010000D01*
X271363000Y-2432000D02*
X277373000Y-2432000D01*
X273613000Y-9252000D02*
X277373000Y-9252000D01*
X277373000Y-2432000D02*
X277373000Y-3692000D01*
X277373000Y-9252000D02*
X277373000Y-7992000D01*
X292500164Y-14076000D02*
X292715836Y-14076000D01*
X292500164Y-13356000D02*
X292715836Y-13356000D01*
X291865164Y-1249000D02*
X292080836Y-1249000D01*
X291865164Y-529000D02*
X292080836Y-529000D01*
X291865164Y-2392000D02*
X292080836Y-2392000D01*
X291865164Y-1672000D02*
X292080836Y-1672000D01*
X329838164Y-1630000D02*
X330053836Y-1630000D01*
X329838164Y-910000D02*
X330053836Y-910000D01*
X329838164Y-2900000D02*
X330053836Y-2900000D01*
X329838164Y-2180000D02*
X330053836Y-2180000D01*
X333823000Y-1718000D02*
X335153000Y-1718000D01*
X333823000Y-3048000D02*
X333823000Y-1718000D01*
X333823000Y-4318000D02*
X336483000Y-4318000D01*
X336483000Y-4318000D02*
X336483000Y-6918000D01*
X333823000Y-4318000D02*
X333823000Y-6918000D01*
X333823000Y-6918000D02*
X336483000Y-6918000D01*
X340494252Y-6631000D02*
X339971748Y-6631000D01*
X340494252Y-8101000D02*
X339971748Y-8101000D01*
X339133000Y-12998836D02*
X339133000Y-12783164D01*
X338413000Y-12998836D02*
X338413000Y-12783164D01*
X341419000Y-12998836D02*
X341419000Y-12783164D01*
X340699000Y-12998836D02*
X340699000Y-12783164D01*
X343705000Y-12998836D02*
X343705000Y-12783164D01*
X342985000Y-12998836D02*
X342985000Y-12783164D01*
X345991000Y-12998836D02*
X345991000Y-12783164D01*
X345271000Y-12998836D02*
X345271000Y-12783164D01*
X348277000Y-12998836D02*
X348277000Y-12783164D01*
X347557000Y-12998836D02*
X347557000Y-12783164D01*
X350690000Y-12998836D02*
X350690000Y-12783164D01*
X349970000Y-12998836D02*
X349970000Y-12783164D01*
X297707164Y-4932000D02*
X297922836Y-4932000D01*
X297707164Y-4212000D02*
X297922836Y-4212000D01*
X352976000Y-12998836D02*
X352976000Y-12783164D01*
X352256000Y-12998836D02*
X352256000Y-12783164D01*
X319553000Y-8020164D02*
X319553000Y-8235836D01*
X320273000Y-8020164D02*
X320273000Y-8235836D01*
X267596252Y-8409000D02*
X267073748Y-8409000D01*
X267596252Y-9879000D02*
X267073748Y-9879000D01*
X301605836Y-12721000D02*
X301390164Y-12721000D01*
X301605836Y-13441000D02*
X301390164Y-13441000D01*
X310622836Y-12721000D02*
X310407164Y-12721000D01*
X310622836Y-13441000D02*
X310407164Y-13441000D01*
X267596252Y-10695000D02*
X267073748Y-10695000D01*
X267596252Y-12165000D02*
X267073748Y-12165000D01*
D12*
X161270666Y-15438380D02*
X161270666Y-16152666D01*
X161223047Y-16295523D01*
X161127809Y-16390761D01*
X160984952Y-16438380D01*
X160889714Y-16438380D01*
X162223047Y-15438380D02*
X161746857Y-15438380D01*
X161699238Y-15914571D01*
X161746857Y-15866952D01*
X161842095Y-15819333D01*
X162080190Y-15819333D01*
X162175428Y-15866952D01*
X162223047Y-15914571D01*
X162270666Y-16009809D01*
X162270666Y-16247904D01*
X162223047Y-16343142D01*
X162175428Y-16390761D01*
X162080190Y-16438380D01*
X161842095Y-16438380D01*
X161746857Y-16390761D01*
X161699238Y-16343142D01*
X206545380Y-3508333D02*
X207259666Y-3508333D01*
X207402523Y-3555952D01*
X207497761Y-3651190D01*
X207545380Y-3794047D01*
X207545380Y-3889285D01*
X206878714Y-2603571D02*
X207545380Y-2603571D01*
X206497761Y-2841666D02*
X207212047Y-3079761D01*
X207212047Y-2460714D01*
X226750714Y-5632380D02*
X226750714Y-4632380D01*
X226988809Y-4632380D01*
X227131666Y-4680000D01*
X227226904Y-4775238D01*
X227274523Y-4870476D01*
X227322142Y-5060952D01*
X227322142Y-5203809D01*
X227274523Y-5394285D01*
X227226904Y-5489523D01*
X227131666Y-5584761D01*
X226988809Y-5632380D01*
X226750714Y-5632380D01*
X227798333Y-5632380D02*
X227988809Y-5632380D01*
X228084047Y-5584761D01*
X228131666Y-5537142D01*
X228226904Y-5394285D01*
X228274523Y-5203809D01*
X228274523Y-4822857D01*
X228226904Y-4727619D01*
X228179285Y-4680000D01*
X228084047Y-4632380D01*
X227893571Y-4632380D01*
X227798333Y-4680000D01*
X227750714Y-4727619D01*
X227703095Y-4822857D01*
X227703095Y-5060952D01*
X227750714Y-5156190D01*
X227798333Y-5203809D01*
X227893571Y-5251428D01*
X228084047Y-5251428D01*
X228179285Y-5203809D01*
X228226904Y-5156190D01*
X228274523Y-5060952D01*
X228893571Y-4632380D02*
X228988809Y-4632380D01*
X229084047Y-4680000D01*
X229131666Y-4727619D01*
X229179285Y-4822857D01*
X229226904Y-5013333D01*
X229226904Y-5251428D01*
X229179285Y-5441904D01*
X229131666Y-5537142D01*
X229084047Y-5584761D01*
X228988809Y-5632380D01*
X228893571Y-5632380D01*
X228798333Y-5584761D01*
X228750714Y-5537142D01*
X228703095Y-5441904D01*
X228655476Y-5251428D01*
X228655476Y-5013333D01*
X228703095Y-4822857D01*
X228750714Y-4727619D01*
X228798333Y-4680000D01*
X228893571Y-4632380D01*
X197159714Y-7691380D02*
X197159714Y-6691380D01*
X197397809Y-6691380D01*
X197540666Y-6739000D01*
X197635904Y-6834238D01*
X197683523Y-6929476D01*
X197731142Y-7119952D01*
X197731142Y-7262809D01*
X197683523Y-7453285D01*
X197635904Y-7548523D01*
X197540666Y-7643761D01*
X197397809Y-7691380D01*
X197159714Y-7691380D01*
X198207333Y-7691380D02*
X198397809Y-7691380D01*
X198493047Y-7643761D01*
X198540666Y-7596142D01*
X198635904Y-7453285D01*
X198683523Y-7262809D01*
X198683523Y-6881857D01*
X198635904Y-6786619D01*
X198588285Y-6739000D01*
X198493047Y-6691380D01*
X198302571Y-6691380D01*
X198207333Y-6739000D01*
X198159714Y-6786619D01*
X198112095Y-6881857D01*
X198112095Y-7119952D01*
X198159714Y-7215190D01*
X198207333Y-7262809D01*
X198302571Y-7310428D01*
X198493047Y-7310428D01*
X198588285Y-7262809D01*
X198635904Y-7215190D01*
X198683523Y-7119952D01*
X199635904Y-7691380D02*
X199064476Y-7691380D01*
X199350190Y-7691380D02*
X199350190Y-6691380D01*
X199254952Y-6834238D01*
X199159714Y-6929476D01*
X199064476Y-6977095D01*
X267898714Y-5405380D02*
X267898714Y-4405380D01*
X268136809Y-4405380D01*
X268279666Y-4453000D01*
X268374904Y-4548238D01*
X268422523Y-4643476D01*
X268470142Y-4833952D01*
X268470142Y-4976809D01*
X268422523Y-5167285D01*
X268374904Y-5262523D01*
X268279666Y-5357761D01*
X268136809Y-5405380D01*
X267898714Y-5405380D01*
X269041571Y-4833952D02*
X268946333Y-4786333D01*
X268898714Y-4738714D01*
X268851095Y-4643476D01*
X268851095Y-4595857D01*
X268898714Y-4500619D01*
X268946333Y-4453000D01*
X269041571Y-4405380D01*
X269232047Y-4405380D01*
X269327285Y-4453000D01*
X269374904Y-4500619D01*
X269422523Y-4595857D01*
X269422523Y-4643476D01*
X269374904Y-4738714D01*
X269327285Y-4786333D01*
X269232047Y-4833952D01*
X269041571Y-4833952D01*
X268946333Y-4881571D01*
X268898714Y-4929190D01*
X268851095Y-5024428D01*
X268851095Y-5214904D01*
X268898714Y-5310142D01*
X268946333Y-5357761D01*
X269041571Y-5405380D01*
X269232047Y-5405380D01*
X269327285Y-5357761D01*
X269374904Y-5310142D01*
X269422523Y-5214904D01*
X269422523Y-5024428D01*
X269374904Y-4929190D01*
X269327285Y-4881571D01*
X269232047Y-4833952D01*
X269993952Y-4833952D02*
X269898714Y-4786333D01*
X269851095Y-4738714D01*
X269803476Y-4643476D01*
X269803476Y-4595857D01*
X269851095Y-4500619D01*
X269898714Y-4453000D01*
X269993952Y-4405380D01*
X270184428Y-4405380D01*
X270279666Y-4453000D01*
X270327285Y-4500619D01*
X270374904Y-4595857D01*
X270374904Y-4643476D01*
X270327285Y-4738714D01*
X270279666Y-4786333D01*
X270184428Y-4833952D01*
X269993952Y-4833952D01*
X269898714Y-4881571D01*
X269851095Y-4929190D01*
X269803476Y-5024428D01*
X269803476Y-5214904D01*
X269851095Y-5310142D01*
X269898714Y-5357761D01*
X269993952Y-5405380D01*
X270184428Y-5405380D01*
X270279666Y-5357761D01*
X270327285Y-5310142D01*
X270374904Y-5214904D01*
X270374904Y-5024428D01*
X270327285Y-4929190D01*
X270279666Y-4881571D01*
X270184428Y-4833952D01*
X296378333Y-1246142D02*
X296330714Y-1293761D01*
X296187857Y-1341380D01*
X296092619Y-1341380D01*
X295949761Y-1293761D01*
X295854523Y-1198523D01*
X295806904Y-1103285D01*
X295759285Y-912809D01*
X295759285Y-769952D01*
X295806904Y-579476D01*
X295854523Y-484238D01*
X295949761Y-389000D01*
X296092619Y-341380D01*
X296187857Y-341380D01*
X296330714Y-389000D01*
X296378333Y-436619D01*
X296711666Y-341380D02*
X297378333Y-341380D01*
X296949761Y-1341380D01*
X298283333Y-1246142D02*
X298235714Y-1293761D01*
X298092857Y-1341380D01*
X297997619Y-1341380D01*
X297854761Y-1293761D01*
X297759523Y-1198523D01*
X297711904Y-1103285D01*
X297664285Y-912809D01*
X297664285Y-769952D01*
X297711904Y-579476D01*
X297759523Y-484238D01*
X297854761Y-389000D01*
X297997619Y-341380D01*
X298092857Y-341380D01*
X298235714Y-389000D01*
X298283333Y-436619D01*
X299140476Y-341380D02*
X298950000Y-341380D01*
X298854761Y-389000D01*
X298807142Y-436619D01*
X298711904Y-579476D01*
X298664285Y-769952D01*
X298664285Y-1150904D01*
X298711904Y-1246142D01*
X298759523Y-1293761D01*
X298854761Y-1341380D01*
X299045238Y-1341380D01*
X299140476Y-1293761D01*
X299188095Y-1246142D01*
X299235714Y-1150904D01*
X299235714Y-912809D01*
X299188095Y-817571D01*
X299140476Y-769952D01*
X299045238Y-722333D01*
X298854761Y-722333D01*
X298759523Y-769952D01*
X298711904Y-817571D01*
X298664285Y-912809D01*
X183054666Y-14692380D02*
X183054666Y-15406666D01*
X183007047Y-15549523D01*
X182911809Y-15644761D01*
X182768952Y-15692380D01*
X182673714Y-15692380D01*
X183435619Y-14692380D02*
X184054666Y-14692380D01*
X183721333Y-15073333D01*
X183864190Y-15073333D01*
X183959428Y-15120952D01*
X184007047Y-15168571D01*
X184054666Y-15263809D01*
X184054666Y-15501904D01*
X184007047Y-15597142D01*
X183959428Y-15644761D01*
X183864190Y-15692380D01*
X183578476Y-15692380D01*
X183483238Y-15644761D01*
X183435619Y-15597142D01*
X322453095Y-7326380D02*
X322453095Y-8135904D01*
X322500714Y-8231142D01*
X322548333Y-8278761D01*
X322643571Y-8326380D01*
X322834047Y-8326380D01*
X322929285Y-8278761D01*
X322976904Y-8231142D01*
X323024523Y-8135904D01*
X323024523Y-7326380D01*
X323453095Y-7421619D02*
X323500714Y-7374000D01*
X323595952Y-7326380D01*
X323834047Y-7326380D01*
X323929285Y-7374000D01*
X323976904Y-7421619D01*
X324024523Y-7516857D01*
X324024523Y-7612095D01*
X323976904Y-7754952D01*
X323405476Y-8326380D01*
X324024523Y-8326380D01*
X266264666Y-3640380D02*
X266264666Y-4354666D01*
X266217047Y-4497523D01*
X266121809Y-4592761D01*
X265978952Y-4640380D01*
X265883714Y-4640380D01*
X267264666Y-4640380D02*
X266693238Y-4640380D01*
X266978952Y-4640380D02*
X266978952Y-3640380D01*
X266883714Y-3783238D01*
X266788476Y-3878476D01*
X266693238Y-3926095D01*
X306990809Y-13305190D02*
X306990809Y-13781380D01*
X306657476Y-12781380D02*
X306990809Y-13305190D01*
X307324142Y-12781380D01*
X308181285Y-13781380D02*
X307609857Y-13781380D01*
X307895571Y-13781380D02*
X307895571Y-12781380D01*
X307800333Y-12924238D01*
X307705095Y-13019476D01*
X307609857Y-13067095D01*
X294259095Y-2246380D02*
X294259095Y-3055904D01*
X294306714Y-3151142D01*
X294354333Y-3198761D01*
X294449571Y-3246380D01*
X294640047Y-3246380D01*
X294735285Y-3198761D01*
X294782904Y-3151142D01*
X294830523Y-3055904D01*
X294830523Y-2246380D01*
X295211476Y-2246380D02*
X295830523Y-2246380D01*
X295497190Y-2627333D01*
X295640047Y-2627333D01*
X295735285Y-2674952D01*
X295782904Y-2722571D01*
X295830523Y-2817809D01*
X295830523Y-3055904D01*
X295782904Y-3151142D01*
X295735285Y-3198761D01*
X295640047Y-3246380D01*
X295354333Y-3246380D01*
X295259095Y-3198761D01*
X295211476Y-3151142D01*
X274701095Y-794380D02*
X274701095Y-1603904D01*
X274748714Y-1699142D01*
X274796333Y-1746761D01*
X274891571Y-1794380D01*
X275082047Y-1794380D01*
X275177285Y-1746761D01*
X275224904Y-1699142D01*
X275272523Y-1603904D01*
X275272523Y-794380D01*
X276272523Y-1794380D02*
X275701095Y-1794380D01*
X275986809Y-1794380D02*
X275986809Y-794380D01*
X275891571Y-937238D01*
X275796333Y-1032476D01*
X275701095Y-1080095D01*
X292441333Y-15311380D02*
X292108000Y-14835190D01*
X291869904Y-15311380D02*
X291869904Y-14311380D01*
X292250857Y-14311380D01*
X292346095Y-14359000D01*
X292393714Y-14406619D01*
X292441333Y-14501857D01*
X292441333Y-14644714D01*
X292393714Y-14739952D01*
X292346095Y-14787571D01*
X292250857Y-14835190D01*
X291869904Y-14835190D01*
X293346095Y-14311380D02*
X292869904Y-14311380D01*
X292822285Y-14787571D01*
X292869904Y-14739952D01*
X292965142Y-14692333D01*
X293203238Y-14692333D01*
X293298476Y-14739952D01*
X293346095Y-14787571D01*
X293393714Y-14882809D01*
X293393714Y-15120904D01*
X293346095Y-15216142D01*
X293298476Y-15263761D01*
X293203238Y-15311380D01*
X292965142Y-15311380D01*
X292869904Y-15263761D01*
X292822285Y-15216142D01*
X289774333Y-1341380D02*
X289441000Y-865190D01*
X289202904Y-1341380D02*
X289202904Y-341380D01*
X289583857Y-341380D01*
X289679095Y-389000D01*
X289726714Y-436619D01*
X289774333Y-531857D01*
X289774333Y-674714D01*
X289726714Y-769952D01*
X289679095Y-817571D01*
X289583857Y-865190D01*
X289202904Y-865190D01*
X290631476Y-674714D02*
X290631476Y-1341380D01*
X290393380Y-293761D02*
X290155285Y-1008047D01*
X290774333Y-1008047D01*
X289774333Y-2611380D02*
X289441000Y-2135190D01*
X289202904Y-2611380D02*
X289202904Y-1611380D01*
X289583857Y-1611380D01*
X289679095Y-1659000D01*
X289726714Y-1706619D01*
X289774333Y-1801857D01*
X289774333Y-1944714D01*
X289726714Y-2039952D01*
X289679095Y-2087571D01*
X289583857Y-2135190D01*
X289202904Y-2135190D01*
X290107666Y-1611380D02*
X290726714Y-1611380D01*
X290393380Y-1992333D01*
X290536238Y-1992333D01*
X290631476Y-2039952D01*
X290679095Y-2087571D01*
X290726714Y-2182809D01*
X290726714Y-2420904D01*
X290679095Y-2516142D01*
X290631476Y-2563761D01*
X290536238Y-2611380D01*
X290250523Y-2611380D01*
X290155285Y-2563761D01*
X290107666Y-2516142D01*
X331684333Y-1722380D02*
X331351000Y-1246190D01*
X331112904Y-1722380D02*
X331112904Y-722380D01*
X331493857Y-722380D01*
X331589095Y-770000D01*
X331636714Y-817619D01*
X331684333Y-912857D01*
X331684333Y-1055714D01*
X331636714Y-1150952D01*
X331589095Y-1198571D01*
X331493857Y-1246190D01*
X331112904Y-1246190D01*
X332065285Y-817619D02*
X332112904Y-770000D01*
X332208142Y-722380D01*
X332446238Y-722380D01*
X332541476Y-770000D01*
X332589095Y-817619D01*
X332636714Y-912857D01*
X332636714Y-1008095D01*
X332589095Y-1150952D01*
X332017666Y-1722380D01*
X332636714Y-1722380D01*
X331684333Y-3119380D02*
X331351000Y-2643190D01*
X331112904Y-3119380D02*
X331112904Y-2119380D01*
X331493857Y-2119380D01*
X331589095Y-2167000D01*
X331636714Y-2214619D01*
X331684333Y-2309857D01*
X331684333Y-2452714D01*
X331636714Y-2547952D01*
X331589095Y-2595571D01*
X331493857Y-2643190D01*
X331112904Y-2643190D01*
X332636714Y-3119380D02*
X332065285Y-3119380D01*
X332351000Y-3119380D02*
X332351000Y-2119380D01*
X332255761Y-2262238D01*
X332160523Y-2357476D01*
X332065285Y-2405095D01*
X337486666Y-1357380D02*
X337486666Y-2071666D01*
X337439047Y-2214523D01*
X337343809Y-2309761D01*
X337200952Y-2357380D01*
X337105714Y-2357380D01*
X337915238Y-1452619D02*
X337962857Y-1405000D01*
X338058095Y-1357380D01*
X338296190Y-1357380D01*
X338391428Y-1405000D01*
X338439047Y-1452619D01*
X338486666Y-1547857D01*
X338486666Y-1643095D01*
X338439047Y-1785952D01*
X337867619Y-2357380D01*
X338486666Y-2357380D01*
X339590142Y-9403142D02*
X339542523Y-9450761D01*
X339399666Y-9498380D01*
X339304428Y-9498380D01*
X339161571Y-9450761D01*
X339066333Y-9355523D01*
X339018714Y-9260285D01*
X338971095Y-9069809D01*
X338971095Y-8926952D01*
X339018714Y-8736476D01*
X339066333Y-8641238D01*
X339161571Y-8546000D01*
X339304428Y-8498380D01*
X339399666Y-8498380D01*
X339542523Y-8546000D01*
X339590142Y-8593619D01*
X340542523Y-9498380D02*
X339971095Y-9498380D01*
X340256809Y-9498380D02*
X340256809Y-8498380D01*
X340161571Y-8641238D01*
X340066333Y-8736476D01*
X339971095Y-8784095D01*
X340875857Y-8498380D02*
X341542523Y-8498380D01*
X341113952Y-9498380D01*
X337970142Y-13533857D02*
X338017761Y-13581476D01*
X338065380Y-13724333D01*
X338065380Y-13819571D01*
X338017761Y-13962428D01*
X337922523Y-14057666D01*
X337827285Y-14105285D01*
X337636809Y-14152904D01*
X337493952Y-14152904D01*
X337303476Y-14105285D01*
X337208238Y-14057666D01*
X337113000Y-13962428D01*
X337065380Y-13819571D01*
X337065380Y-13724333D01*
X337113000Y-13581476D01*
X337160619Y-13533857D01*
X338065380Y-12581476D02*
X338065380Y-13152904D01*
X338065380Y-12867190D02*
X337065380Y-12867190D01*
X337208238Y-12962428D01*
X337303476Y-13057666D01*
X337351095Y-13152904D01*
X337065380Y-11724333D02*
X337065380Y-11914809D01*
X337113000Y-12010047D01*
X337160619Y-12057666D01*
X337303476Y-12152904D01*
X337493952Y-12200523D01*
X337874904Y-12200523D01*
X337970142Y-12152904D01*
X338017761Y-12105285D01*
X338065380Y-12010047D01*
X338065380Y-11819571D01*
X338017761Y-11724333D01*
X337970142Y-11676714D01*
X337874904Y-11629095D01*
X337636809Y-11629095D01*
X337541571Y-11676714D01*
X337493952Y-11724333D01*
X337446333Y-11819571D01*
X337446333Y-12010047D01*
X337493952Y-12105285D01*
X337541571Y-12152904D01*
X337636809Y-12200523D01*
X340256142Y-13533857D02*
X340303761Y-13581476D01*
X340351380Y-13724333D01*
X340351380Y-13819571D01*
X340303761Y-13962428D01*
X340208523Y-14057666D01*
X340113285Y-14105285D01*
X339922809Y-14152904D01*
X339779952Y-14152904D01*
X339589476Y-14105285D01*
X339494238Y-14057666D01*
X339399000Y-13962428D01*
X339351380Y-13819571D01*
X339351380Y-13724333D01*
X339399000Y-13581476D01*
X339446619Y-13533857D01*
X340351380Y-12581476D02*
X340351380Y-13152904D01*
X340351380Y-12867190D02*
X339351380Y-12867190D01*
X339494238Y-12962428D01*
X339589476Y-13057666D01*
X339637095Y-13152904D01*
X339351380Y-11676714D02*
X339351380Y-12152904D01*
X339827571Y-12200523D01*
X339779952Y-12152904D01*
X339732333Y-12057666D01*
X339732333Y-11819571D01*
X339779952Y-11724333D01*
X339827571Y-11676714D01*
X339922809Y-11629095D01*
X340160904Y-11629095D01*
X340256142Y-11676714D01*
X340303761Y-11724333D01*
X340351380Y-11819571D01*
X340351380Y-12057666D01*
X340303761Y-12152904D01*
X340256142Y-12200523D01*
X342542142Y-13533857D02*
X342589761Y-13581476D01*
X342637380Y-13724333D01*
X342637380Y-13819571D01*
X342589761Y-13962428D01*
X342494523Y-14057666D01*
X342399285Y-14105285D01*
X342208809Y-14152904D01*
X342065952Y-14152904D01*
X341875476Y-14105285D01*
X341780238Y-14057666D01*
X341685000Y-13962428D01*
X341637380Y-13819571D01*
X341637380Y-13724333D01*
X341685000Y-13581476D01*
X341732619Y-13533857D01*
X342637380Y-12581476D02*
X342637380Y-13152904D01*
X342637380Y-12867190D02*
X341637380Y-12867190D01*
X341780238Y-12962428D01*
X341875476Y-13057666D01*
X341923095Y-13152904D01*
X341970714Y-11724333D02*
X342637380Y-11724333D01*
X341589761Y-11962428D02*
X342304047Y-12200523D01*
X342304047Y-11581476D01*
X344828142Y-13533857D02*
X344875761Y-13581476D01*
X344923380Y-13724333D01*
X344923380Y-13819571D01*
X344875761Y-13962428D01*
X344780523Y-14057666D01*
X344685285Y-14105285D01*
X344494809Y-14152904D01*
X344351952Y-14152904D01*
X344161476Y-14105285D01*
X344066238Y-14057666D01*
X343971000Y-13962428D01*
X343923380Y-13819571D01*
X343923380Y-13724333D01*
X343971000Y-13581476D01*
X344018619Y-13533857D01*
X344923380Y-12581476D02*
X344923380Y-13152904D01*
X344923380Y-12867190D02*
X343923380Y-12867190D01*
X344066238Y-12962428D01*
X344161476Y-13057666D01*
X344209095Y-13152904D01*
X343923380Y-12248142D02*
X343923380Y-11629095D01*
X344304333Y-11962428D01*
X344304333Y-11819571D01*
X344351952Y-11724333D01*
X344399571Y-11676714D01*
X344494809Y-11629095D01*
X344732904Y-11629095D01*
X344828142Y-11676714D01*
X344875761Y-11724333D01*
X344923380Y-11819571D01*
X344923380Y-12105285D01*
X344875761Y-12200523D01*
X344828142Y-12248142D01*
X347114142Y-13533857D02*
X347161761Y-13581476D01*
X347209380Y-13724333D01*
X347209380Y-13819571D01*
X347161761Y-13962428D01*
X347066523Y-14057666D01*
X346971285Y-14105285D01*
X346780809Y-14152904D01*
X346637952Y-14152904D01*
X346447476Y-14105285D01*
X346352238Y-14057666D01*
X346257000Y-13962428D01*
X346209380Y-13819571D01*
X346209380Y-13724333D01*
X346257000Y-13581476D01*
X346304619Y-13533857D01*
X347209380Y-12581476D02*
X347209380Y-13152904D01*
X347209380Y-12867190D02*
X346209380Y-12867190D01*
X346352238Y-12962428D01*
X346447476Y-13057666D01*
X346495095Y-13152904D01*
X346304619Y-12200523D02*
X346257000Y-12152904D01*
X346209380Y-12057666D01*
X346209380Y-11819571D01*
X346257000Y-11724333D01*
X346304619Y-11676714D01*
X346399857Y-11629095D01*
X346495095Y-11629095D01*
X346637952Y-11676714D01*
X347209380Y-12248142D01*
X347209380Y-11629095D01*
X349527142Y-13533857D02*
X349574761Y-13581476D01*
X349622380Y-13724333D01*
X349622380Y-13819571D01*
X349574761Y-13962428D01*
X349479523Y-14057666D01*
X349384285Y-14105285D01*
X349193809Y-14152904D01*
X349050952Y-14152904D01*
X348860476Y-14105285D01*
X348765238Y-14057666D01*
X348670000Y-13962428D01*
X348622380Y-13819571D01*
X348622380Y-13724333D01*
X348670000Y-13581476D01*
X348717619Y-13533857D01*
X349622380Y-12581476D02*
X349622380Y-13152904D01*
X349622380Y-12867190D02*
X348622380Y-12867190D01*
X348765238Y-12962428D01*
X348860476Y-13057666D01*
X348908095Y-13152904D01*
X349622380Y-11629095D02*
X349622380Y-12200523D01*
X349622380Y-11914809D02*
X348622380Y-11914809D01*
X348765238Y-12010047D01*
X348860476Y-12105285D01*
X348908095Y-12200523D01*
X299585142Y-4675142D02*
X299537523Y-4722761D01*
X299394666Y-4770380D01*
X299299428Y-4770380D01*
X299156571Y-4722761D01*
X299061333Y-4627523D01*
X299013714Y-4532285D01*
X298966095Y-4341809D01*
X298966095Y-4198952D01*
X299013714Y-4008476D01*
X299061333Y-3913238D01*
X299156571Y-3818000D01*
X299299428Y-3770380D01*
X299394666Y-3770380D01*
X299537523Y-3818000D01*
X299585142Y-3865619D01*
X300537523Y-4770380D02*
X299966095Y-4770380D01*
X300251809Y-4770380D02*
X300251809Y-3770380D01*
X300156571Y-3913238D01*
X300061333Y-4008476D01*
X299966095Y-4056095D01*
X301156571Y-3770380D02*
X301251809Y-3770380D01*
X301347047Y-3818000D01*
X301394666Y-3865619D01*
X301442285Y-3960857D01*
X301489904Y-4151333D01*
X301489904Y-4389428D01*
X301442285Y-4579904D01*
X301394666Y-4675142D01*
X301347047Y-4722761D01*
X301251809Y-4770380D01*
X301156571Y-4770380D01*
X301061333Y-4722761D01*
X301013714Y-4675142D01*
X300966095Y-4579904D01*
X300918476Y-4389428D01*
X300918476Y-4151333D01*
X300966095Y-3960857D01*
X301013714Y-3865619D01*
X301061333Y-3818000D01*
X301156571Y-3770380D01*
X351813142Y-13057666D02*
X351860761Y-13105285D01*
X351908380Y-13248142D01*
X351908380Y-13343380D01*
X351860761Y-13486238D01*
X351765523Y-13581476D01*
X351670285Y-13629095D01*
X351479809Y-13676714D01*
X351336952Y-13676714D01*
X351146476Y-13629095D01*
X351051238Y-13581476D01*
X350956000Y-13486238D01*
X350908380Y-13343380D01*
X350908380Y-13248142D01*
X350956000Y-13105285D01*
X351003619Y-13057666D01*
X351908380Y-12581476D02*
X351908380Y-12391000D01*
X351860761Y-12295761D01*
X351813142Y-12248142D01*
X351670285Y-12152904D01*
X351479809Y-12105285D01*
X351098857Y-12105285D01*
X351003619Y-12152904D01*
X350956000Y-12200523D01*
X350908380Y-12295761D01*
X350908380Y-12486238D01*
X350956000Y-12581476D01*
X351003619Y-12629095D01*
X351098857Y-12676714D01*
X351336952Y-12676714D01*
X351432190Y-12629095D01*
X351479809Y-12581476D01*
X351527428Y-12486238D01*
X351527428Y-12295761D01*
X351479809Y-12200523D01*
X351432190Y-12152904D01*
X351336952Y-12105285D01*
X320000333Y-10136142D02*
X319952714Y-10183761D01*
X319809857Y-10231380D01*
X319714619Y-10231380D01*
X319571761Y-10183761D01*
X319476523Y-10088523D01*
X319428904Y-9993285D01*
X319381285Y-9802809D01*
X319381285Y-9659952D01*
X319428904Y-9469476D01*
X319476523Y-9374238D01*
X319571761Y-9279000D01*
X319714619Y-9231380D01*
X319809857Y-9231380D01*
X319952714Y-9279000D01*
X320000333Y-9326619D01*
X320905095Y-9231380D02*
X320428904Y-9231380D01*
X320381285Y-9707571D01*
X320428904Y-9659952D01*
X320524142Y-9612333D01*
X320762238Y-9612333D01*
X320857476Y-9659952D01*
X320905095Y-9707571D01*
X320952714Y-9802809D01*
X320952714Y-10040904D01*
X320905095Y-10136142D01*
X320857476Y-10183761D01*
X320762238Y-10231380D01*
X320524142Y-10231380D01*
X320428904Y-10183761D01*
X320381285Y-10136142D01*
X267168333Y-7596142D02*
X267120714Y-7643761D01*
X266977857Y-7691380D01*
X266882619Y-7691380D01*
X266739761Y-7643761D01*
X266644523Y-7548523D01*
X266596904Y-7453285D01*
X266549285Y-7262809D01*
X266549285Y-7119952D01*
X266596904Y-6929476D01*
X266644523Y-6834238D01*
X266739761Y-6739000D01*
X266882619Y-6691380D01*
X266977857Y-6691380D01*
X267120714Y-6739000D01*
X267168333Y-6786619D01*
X268025476Y-7024714D02*
X268025476Y-7691380D01*
X267787380Y-6643761D02*
X267549285Y-7358047D01*
X268168333Y-7358047D01*
X301204333Y-14708142D02*
X301156714Y-14755761D01*
X301013857Y-14803380D01*
X300918619Y-14803380D01*
X300775761Y-14755761D01*
X300680523Y-14660523D01*
X300632904Y-14565285D01*
X300585285Y-14374809D01*
X300585285Y-14231952D01*
X300632904Y-14041476D01*
X300680523Y-13946238D01*
X300775761Y-13851000D01*
X300918619Y-13803380D01*
X301013857Y-13803380D01*
X301156714Y-13851000D01*
X301204333Y-13898619D01*
X301537666Y-13803380D02*
X302156714Y-13803380D01*
X301823380Y-14184333D01*
X301966238Y-14184333D01*
X302061476Y-14231952D01*
X302109095Y-14279571D01*
X302156714Y-14374809D01*
X302156714Y-14612904D01*
X302109095Y-14708142D01*
X302061476Y-14755761D01*
X301966238Y-14803380D01*
X301680523Y-14803380D01*
X301585285Y-14755761D01*
X301537666Y-14708142D01*
X310221333Y-14708142D02*
X310173714Y-14755761D01*
X310030857Y-14803380D01*
X309935619Y-14803380D01*
X309792761Y-14755761D01*
X309697523Y-14660523D01*
X309649904Y-14565285D01*
X309602285Y-14374809D01*
X309602285Y-14231952D01*
X309649904Y-14041476D01*
X309697523Y-13946238D01*
X309792761Y-13851000D01*
X309935619Y-13803380D01*
X310030857Y-13803380D01*
X310173714Y-13851000D01*
X310221333Y-13898619D01*
X310602285Y-13898619D02*
X310649904Y-13851000D01*
X310745142Y-13803380D01*
X310983238Y-13803380D01*
X311078476Y-13851000D01*
X311126095Y-13898619D01*
X311173714Y-13993857D01*
X311173714Y-14089095D01*
X311126095Y-14231952D01*
X310554666Y-14803380D01*
X311173714Y-14803380D01*
X267168333Y-13467142D02*
X267120714Y-13514761D01*
X266977857Y-13562380D01*
X266882619Y-13562380D01*
X266739761Y-13514761D01*
X266644523Y-13419523D01*
X266596904Y-13324285D01*
X266549285Y-13133809D01*
X266549285Y-12990952D01*
X266596904Y-12800476D01*
X266644523Y-12705238D01*
X266739761Y-12610000D01*
X266882619Y-12562380D01*
X266977857Y-12562380D01*
X267120714Y-12610000D01*
X267168333Y-12657619D01*
X268120714Y-13562380D02*
X267549285Y-13562380D01*
X267835000Y-13562380D02*
X267835000Y-12562380D01*
X267739761Y-12705238D01*
X267644523Y-12800476D01*
X267549285Y-12848095D01*
M02*
