M48
; DRILL file {KiCad (5.1.12)-1} date 01/21/23 13:53:24
; FORMAT={-:-/ absolute / inch / decimal}
; #@! TF.CreationDate,2023-01-21T13:53:24-07:00
; #@! TF.GenerationSoftware,Kicad,Pcbnew,(5.1.12)-1
; #@! TF.FileFunction,Plated,1,2,PTH
FMAT,2
INCH
T1C0.0138
T2C0.0157
T3C0.0256
T4C0.0276
T5C0.0354
T6C0.0394
T7C0.0579
%
G90
G05
T1
X11.4398Y-0.2498
X11.4398Y-0.3
X11.4398Y-0.3502
X11.49Y-0.2498
X11.49Y-0.3
X11.49Y-0.3502
X11.5402Y-0.2498
X11.5402Y-0.3
X11.5402Y-0.3502
T2
X1.8539Y-1.2123
X2.585Y-1.13
X3.345Y-1.14
X4.1039Y-1.135
X5.225Y-1.2
X5.2876Y-1.185
X5.365Y-1.18
X6.26Y-1.16
X7.09Y-0.45
X8.025Y-0.2767
X8.095Y-0.27
X8.11Y-0.35
X8.66Y-0.3983
X8.6762Y-0.3624
X8.825Y-0.365
X8.92Y-0.31
X10.045Y-0.6
X10.285Y-0.28
X10.32Y-0.25
X10.38Y-0.52
X10.415Y-0.465
X10.485Y-0.545
X10.57Y-0.52
X10.635Y-0.46
X10.805Y-0.14
X10.805Y-0.545
X10.9734Y-1.3439
X11.0127Y-1.3285
X11.0248Y-0.0398
X11.05Y-0.07
X11.05Y-1.3132
X11.09Y-1.2978
X11.1113Y-0.1555
X11.13Y-1.2824
X11.1506Y-0.1541
X11.17Y-1.2551
X11.19Y-0.156
X11.21Y-1.2277
X11.2292Y-0.1535
X11.2588Y-1.2124
X11.2685Y-0.1564
X11.295Y-1.185
X11.3232Y-0.1632
X11.439Y-0.535
X11.4584Y-1.06
X11.46Y-1.155
X11.48Y-2.555
X11.495Y-3.255
X11.495Y-4.015
X11.5022Y-0.12
X11.505Y-1.065
X11.505Y-4.78
X11.515Y-0.485
X11.545Y-1.065
X11.5471Y-0.5912
X11.565Y-0.4782
X11.5745Y-0.74
X11.5848Y-0.5126
X11.585Y-1.065
X11.5865Y-0.5912
X11.588Y-0.1101
X11.62Y-0.495
X11.63Y-1.065
X11.6594Y-0.495
X11.6876Y-0.4676
X11.715Y-0.5126
X11.7424Y-0.4766
X11.7799Y-0.4647
X11.785Y-0.21
X11.81Y-0.49
X11.8244Y-0.21
X11.8637Y-0.2085
X11.9031Y-0.2085
X11.93Y-0.7839
X11.9316Y-0.1774
X11.944Y-0.2147
X11.983Y-0.2096
X12.025Y-0.21
X12.18Y-0.485
X12.405Y-0.0981
X12.4351Y-0.1773
X12.4444Y-0.0981
X12.4844Y-0.0994
X12.7617Y-0.1708
X12.805Y-0.135
X12.805Y-0.1744
X13.105Y-0.26
X13.37Y-0.45
T5
X7.2861Y-0.3346
X7.2861Y-0.4331
X7.3846Y-0.3346
X7.3846Y-0.4331
X7.4554Y-0.3346
X7.4554Y-0.4331
X7.5539Y-0.3346
X7.5539Y-0.4331
T6
X6.535Y-0.24
X6.535Y-0.34
X6.535Y-0.44
X6.535Y-0.54
X8.245Y-0.125
X8.345Y-0.125
X8.445Y-0.125
X8.545Y-0.125
X8.645Y-0.125
X8.745Y-0.125
X8.845Y-0.125
X13.195Y-0.12
X13.195Y-0.22
T7
X0.3825Y-0.9125
X0.3825Y-1.6625
X0.4341Y-0.855
X0.4341Y-1.605
X0.4762Y-4.6625
X0.5278Y-4.605
X0.57Y-2.4125
X0.6216Y-2.355
X0.6309Y-0.8353
X0.6309Y-1.5853
X0.6325Y-0.8125
X0.6325Y-1.5625
X0.6637Y-3.1625
X0.7153Y-3.105
X0.7247Y-4.5853
X0.7262Y-4.5625
X0.8184Y-2.3353
X0.82Y-2.3125
X0.8512Y-3.9125
X0.9028Y-3.855
X0.9122Y-3.0853
X0.9137Y-3.0625
X1.0997Y-3.8353
X1.1012Y-3.8125
X1.1325Y-1.6625
X1.1841Y-1.605
X1.3809Y-1.5853
X1.3825Y-1.5625
X1.4137Y-4.6625
X1.4653Y-4.605
X1.5075Y-2.4125
X1.5591Y-2.355
X1.6622Y-4.5853
X1.6637Y-4.5625
X1.695Y-3.1625
X1.7466Y-3.105
X1.7559Y-2.3353
X1.7575Y-2.3125
X1.8825Y-0.9125
X1.8825Y-1.6625
X1.9341Y-0.855
X1.9341Y-1.605
X1.9434Y-3.0853
X1.945Y-3.0625
X2.07Y-3.9125
X2.1216Y-3.855
X2.1309Y-0.8353
X2.1309Y-1.5853
X2.1325Y-0.8125
X2.1325Y-1.5625
X2.2575Y-2.4125
X2.3091Y-2.355
X2.3184Y-3.8353
X2.32Y-3.8125
X2.3512Y-4.6625
X2.4028Y-4.605
X2.445Y-3.1625
X2.4966Y-3.105
X2.5059Y-2.3353
X2.5075Y-2.3125
X2.5997Y-4.5853
X2.6012Y-4.5625
X2.6325Y-0.9125
X2.6325Y-1.6625
X2.6841Y-0.855
X2.6841Y-1.605
X2.6934Y-3.0853
X2.695Y-3.0625
X2.82Y-3.9125
X2.8716Y-3.855
X2.8809Y-0.8353
X2.8809Y-1.5853
X2.8825Y-0.8125
X2.8825Y-1.5625
X3.0075Y-2.4125
X3.0591Y-2.355
X3.0684Y-3.8353
X3.07Y-3.8125
X3.195Y-3.1625
X3.2466Y-3.105
X3.2559Y-2.3353
X3.2575Y-2.3125
X3.3825Y-0.9125
X3.3825Y-1.6625
X3.4341Y-0.855
X3.4341Y-1.605
X3.4434Y-3.0853
X3.445Y-3.0625
X3.57Y-3.9125
X3.6216Y-3.855
X3.6309Y-0.8353
X3.6309Y-1.5853
X3.6325Y-0.8125
X3.6325Y-1.5625
X3.7575Y-2.4125
X3.8091Y-2.355
X3.8184Y-3.8353
X3.82Y-3.8125
X3.945Y-3.1625
X3.9966Y-3.105
X4.0059Y-2.3353
X4.0075Y-2.3125
X4.1325Y-0.9125
X4.1325Y-1.6625
X4.1841Y-0.855
X4.1841Y-1.605
X4.1934Y-3.0853
X4.195Y-3.0625
X4.32Y-3.9125
X4.3716Y-3.855
X4.3809Y-0.8353
X4.3809Y-1.5853
X4.3825Y-0.8125
X4.3825Y-1.5625
X4.5075Y-2.4125
X4.5591Y-2.355
X4.5684Y-3.8353
X4.57Y-3.8125
X4.695Y-3.1625
X4.7466Y-3.105
X4.7559Y-2.3353
X4.7575Y-2.3125
X4.8825Y-1.6625
X4.9341Y-1.605
X4.9434Y-3.0853
X4.945Y-3.0625
X5.07Y-3.9125
X5.1216Y-3.855
X5.1309Y-1.5853
X5.1325Y-1.5625
X5.1637Y-4.6625
X5.2153Y-4.605
X5.2575Y-0.9125
X5.2575Y-2.4125
X5.3091Y-0.855
X5.3091Y-2.355
X5.3184Y-3.8353
X5.32Y-3.8125
X5.4122Y-4.5853
X5.4137Y-4.5625
X5.445Y-3.1625
X5.4966Y-3.105
X5.5059Y-0.8353
X5.5059Y-2.3353
X5.5075Y-0.8125
X5.5075Y-2.3125
X5.6325Y-1.6625
X5.6841Y-1.605
X5.6934Y-3.0853
X5.695Y-3.0625
X5.82Y-3.9125
X5.8716Y-3.855
X5.8809Y-1.5853
X5.8825Y-1.5625
X6.0075Y-0.9125
X6.0075Y-2.4125
X6.0591Y-0.855
X6.0591Y-2.355
X6.0684Y-3.8353
X6.07Y-3.8125
X6.195Y-3.1625
X6.2466Y-3.105
X6.2559Y-0.8353
X6.2559Y-2.3353
X6.2575Y-0.8125
X6.2575Y-2.3125
X6.3825Y-1.6625
X6.4341Y-1.605
X6.4434Y-3.0853
X6.445Y-3.0625
X6.57Y-3.9125
X6.6216Y-3.855
X6.6309Y-1.5853
X6.6325Y-1.5625
X6.7575Y-0.9125
X6.7575Y-2.4125
X6.8091Y-0.855
X6.8091Y-2.355
X6.8184Y-3.8353
X6.82Y-3.8125
X6.945Y-3.1625
X6.9966Y-3.105
X7.0059Y-0.8353
X7.0059Y-2.3353
X7.0075Y-0.8125
X7.0075Y-2.3125
X7.1325Y-1.6625
X7.1841Y-1.605
X7.1934Y-3.0853
X7.195Y-3.0625
X7.32Y-3.9125
X7.3716Y-3.855
X7.3809Y-1.5853
X7.3825Y-1.5625
X7.5075Y-0.9125
X7.5075Y-2.4125
X7.5591Y-0.855
X7.5591Y-2.355
X7.5684Y-3.8353
X7.57Y-3.8125
X7.695Y-3.1625
X7.7466Y-3.105
X7.7559Y-0.8353
X7.7559Y-2.3353
X7.7575Y-0.8125
X7.7575Y-2.3125
X7.8825Y-1.6625
X7.9341Y-1.605
X7.9434Y-3.0853
X7.945Y-3.0625
X7.9762Y-4.6625
X8.0278Y-4.605
X8.07Y-3.9125
X8.1216Y-3.855
X8.1309Y-1.5853
X8.1325Y-1.5625
X8.2247Y-4.5853
X8.2262Y-4.5625
X8.2575Y-2.4125
X8.3091Y-2.355
X8.3184Y-3.8353
X8.32Y-3.8125
X8.445Y-3.1625
X8.4966Y-3.105
X8.5059Y-2.3353
X8.5075Y-2.3125
X8.6325Y-0.9125
X8.6325Y-1.6625
X8.6841Y-0.855
X8.6841Y-1.605
X8.6934Y-3.0853
X8.695Y-3.0625
X8.82Y-3.9125
X8.8716Y-3.855
X8.8809Y-0.8353
X8.8809Y-1.5853
X8.8825Y-0.8125
X8.8825Y-1.5625
X8.9137Y-4.6625
X8.9653Y-4.605
X9.0075Y-2.4125
X9.0591Y-2.355
X9.0684Y-3.8353
X9.07Y-3.8125
X9.1622Y-4.5853
X9.1637Y-4.5625
X9.195Y-3.1625
X9.2466Y-3.105
X9.2559Y-2.3353
X9.2575Y-2.3125
X9.3825Y-0.9125
X9.3825Y-1.6625
X9.4341Y-0.855
X9.4341Y-1.605
X9.4434Y-3.0853
X9.445Y-3.0625
X9.6309Y-0.8353
X9.6309Y-1.5853
X9.6325Y-0.8125
X9.6325Y-1.5625
X9.7575Y-2.4125
X9.8091Y-2.355
X9.8512Y-4.6625
X9.9028Y-4.605
X10.0059Y-2.3353
X10.0075Y-2.3125
X10.0997Y-4.5853
X10.1012Y-4.5625
X10.1325Y-0.9125
X10.1841Y-0.855
X10.2262Y-3.9125
X10.2778Y-3.855
X10.3809Y-0.8353
X10.3825Y-0.8125
X10.4137Y-3.1625
X10.4653Y-3.105
X10.4747Y-3.8353
X10.4762Y-3.8125
X10.5075Y-1.6625
X10.5591Y-1.605
X10.6622Y-3.0853
X10.6637Y-3.0625
X10.695Y-2.4125
X10.7466Y-2.355
X10.7559Y-1.5853
X10.7575Y-1.5625
X10.7887Y-4.6625
X10.8403Y-4.605
X10.8825Y-0.9125
X10.9341Y-0.855
X10.9434Y-2.3353
X10.945Y-2.3125
X11.0372Y-4.5853
X11.0387Y-4.5625
X11.1309Y-0.8353
X11.1325Y-0.8125
X11.82Y-0.9125
X11.82Y-1.6625
X11.82Y-2.4125
X11.82Y-4.6625
X11.8716Y-0.855
X11.8716Y-1.605
X11.8716Y-2.355
X11.8716Y-4.605
X12.0684Y-0.8353
X12.0684Y-1.5853
X12.0684Y-2.3353
X12.0684Y-4.5853
X12.07Y-0.8125
X12.07Y-1.5625
X12.07Y-2.3125
X12.07Y-4.5625
X12.57Y-0.9125
X12.57Y-1.6625
X12.57Y-2.4125
X12.57Y-3.9125
X12.57Y-4.6625
X12.6216Y-0.855
X12.6216Y-1.605
X12.6216Y-2.355
X12.6216Y-3.855
X12.6216Y-4.605
X12.8184Y-0.8353
X12.8184Y-1.5853
X12.8184Y-2.3353
X12.8184Y-3.8353
X12.8184Y-4.5853
X12.82Y-0.8125
X12.82Y-1.5625
X12.82Y-2.3125
X12.82Y-3.8125
X12.82Y-4.5625
X13.32Y-0.9125
X13.32Y-1.6625
X13.32Y-2.4125
X13.32Y-4.6625
X13.3716Y-0.855
X13.3716Y-1.605
X13.3716Y-2.355
X13.3716Y-4.605
X13.5684Y-0.8353
X13.5684Y-1.5853
X13.5684Y-2.3353
X13.5684Y-4.5853
X13.57Y-0.8125
X13.57Y-1.5625
X13.57Y-2.3125
X13.57Y-4.5625
T3
G00X10.1893Y-0.1747
M15
G01X10.1893Y-0.1905
M16
G05
G00X10.3802Y-0.1747
M15
G01X10.3802Y-0.1905
M16
G05
T4
G00X10.1775Y-0.0535
M15
G01X10.1775Y-0.0731
M16
G05
G00X10.392Y-0.0535
M15
G01X10.392Y-0.0731
M16
G05
T0
M30
