M48
; DRILL file {KiCad (5.1.12)-1} date 01/21/23 13:53:24
; FORMAT={-:-/ absolute / inch / decimal}
; #@! TF.CreationDate,2023-01-21T13:53:24-07:00
; #@! TF.GenerationSoftware,Kicad,Pcbnew,(5.1.12)-1
; #@! TF.FileFunction,NonPlated,1,2,NPTH
FMAT,2
INCH
T1C0.0689
T2C0.0866
T3C0.1200
T4C0.1570
%
G90
G05
T1
X0.3325Y-1.0125
X0.3325Y-1.7625
X0.4262Y-4.7625
X0.52Y-2.5125
X0.6137Y-3.2625
X0.7325Y-1.0125
X0.7325Y-1.7625
X0.8012Y-4.0125
X0.8262Y-4.7625
X0.92Y-2.5125
X1.0137Y-3.2625
X1.0825Y-1.7625
X1.2012Y-4.0125
X1.3637Y-4.7625
X1.4575Y-2.5125
X1.4825Y-1.7625
X1.645Y-3.2625
X1.7637Y-4.7625
X1.8325Y-1.0125
X1.8325Y-1.7625
X1.8575Y-2.5125
X2.02Y-4.0125
X2.045Y-3.2625
X2.2075Y-2.5125
X2.2325Y-1.0125
X2.2325Y-1.7625
X2.3012Y-4.7625
X2.395Y-3.2625
X2.42Y-4.0125
X2.5825Y-1.0125
X2.5825Y-1.7625
X2.6075Y-2.5125
X2.7012Y-4.7625
X2.77Y-4.0125
X2.795Y-3.2625
X2.9575Y-2.5125
X2.9825Y-1.0125
X2.9825Y-1.7625
X3.145Y-3.2625
X3.17Y-4.0125
X3.3325Y-1.0125
X3.3325Y-1.7625
X3.3575Y-2.5125
X3.52Y-4.0125
X3.545Y-3.2625
X3.7075Y-2.5125
X3.7325Y-1.0125
X3.7325Y-1.7625
X3.895Y-3.2625
X3.92Y-4.0125
X4.0825Y-1.0125
X4.0825Y-1.7625
X4.1075Y-2.5125
X4.27Y-4.0125
X4.295Y-3.2625
X4.4575Y-2.5125
X4.4825Y-1.0125
X4.4825Y-1.7625
X4.645Y-3.2625
X4.67Y-4.0125
X4.8325Y-1.7625
X4.8575Y-2.5125
X5.02Y-4.0125
X5.045Y-3.2625
X5.1137Y-4.7625
X5.2075Y-1.0125
X5.2075Y-2.5125
X5.2325Y-1.7625
X5.395Y-3.2625
X5.42Y-4.0125
X5.5137Y-4.7625
X5.5825Y-1.7625
X5.6075Y-1.0125
X5.6075Y-2.5125
X5.77Y-4.0125
X5.795Y-3.2625
X5.9575Y-1.0125
X5.9575Y-2.5125
X5.9825Y-1.7625
X6.145Y-3.2625
X6.17Y-4.0125
X6.3325Y-1.7625
X6.3575Y-1.0125
X6.3575Y-2.5125
X6.52Y-4.0125
X6.545Y-3.2625
X6.7075Y-1.0125
X6.7075Y-2.5125
X6.7325Y-1.7625
X6.895Y-3.2625
X6.92Y-4.0125
X7.0825Y-1.7625
X7.1075Y-1.0125
X7.1075Y-2.5125
X7.27Y-4.0125
X7.295Y-3.2625
X7.4575Y-1.0125
X7.4575Y-2.5125
X7.4825Y-1.7625
X7.645Y-3.2625
X7.67Y-4.0125
X7.8325Y-1.7625
X7.8575Y-1.0125
X7.8575Y-2.5125
X7.9262Y-4.7625
X8.02Y-4.0125
X8.045Y-3.2625
X8.2075Y-2.5125
X8.2325Y-1.7625
X8.3262Y-4.7625
X8.395Y-3.2625
X8.42Y-4.0125
X8.5825Y-1.0125
X8.5825Y-1.7625
X8.6075Y-2.5125
X8.77Y-4.0125
X8.795Y-3.2625
X8.8637Y-4.7625
X8.9575Y-2.5125
X8.9825Y-1.0125
X8.9825Y-1.7625
X9.145Y-3.2625
X9.17Y-4.0125
X9.2637Y-4.7625
X9.3325Y-1.0125
X9.3325Y-1.7625
X9.3575Y-2.5125
X9.545Y-3.2625
X9.7075Y-2.5125
X9.7325Y-1.0125
X9.7325Y-1.7625
X9.8012Y-4.7625
X10.0825Y-1.0125
X10.1075Y-2.5125
X10.1762Y-4.0125
X10.2012Y-4.7625
X10.3637Y-3.2625
X10.4575Y-1.7625
X10.4825Y-1.0125
X10.5762Y-4.0125
X10.645Y-2.5125
X10.7387Y-4.7625
X10.7637Y-3.2625
X10.8325Y-1.0125
X10.8575Y-1.7625
X11.045Y-2.5125
X11.1387Y-4.7625
X11.2325Y-1.0125
X11.77Y-1.0125
X11.77Y-1.7625
X11.77Y-2.5125
X11.77Y-4.7625
X12.17Y-1.0125
X12.17Y-1.7625
X12.17Y-2.5125
X12.17Y-4.7625
X12.52Y-1.0125
X12.52Y-1.7625
X12.52Y-2.5125
X12.52Y-4.0125
X12.52Y-4.7625
X12.92Y-1.0125
X12.92Y-1.7625
X12.92Y-2.5125
X12.92Y-4.0125
X12.92Y-4.7625
X13.27Y-1.0125
X13.27Y-1.7625
X13.27Y-2.5125
X13.27Y-4.7625
X13.67Y-1.0125
X13.67Y-1.7625
X13.67Y-2.5125
X13.67Y-4.7625
T2
X7.1543Y-0.2165
X7.42Y-0.185
X7.6857Y-0.2165
T3
X0.5312Y-3.7375
X1.4712Y-3.7375
X3.3452Y-4.4875
X7.2822Y-4.4875
X9.9062Y-3.7375
X10.0937Y-2.9875
X10.1875Y-1.4875
X10.8462Y-3.7375
X11.0337Y-2.9875
X11.1275Y-1.4875
T4
X0.5312Y-4.3375
X0.5325Y-1.0125
X0.5325Y-1.7625
X0.6262Y-4.7625
X0.72Y-2.5125
X0.8137Y-3.2625
X1.0012Y-4.0125
X1.2825Y-1.7625
X1.4712Y-4.3375
X1.5637Y-4.7625
X1.6575Y-2.5125
X1.845Y-3.2625
X2.0325Y-1.0125
X2.0325Y-1.7625
X2.22Y-4.0125
X2.4075Y-2.5125
X2.5012Y-4.7625
X2.595Y-3.2625
X2.7825Y-1.0125
X2.7825Y-1.7625
X2.97Y-4.0125
X3.1575Y-2.5125
X3.345Y-3.2625
X3.3452Y-5.0875
X3.5325Y-1.0125
X3.5325Y-1.7625
X3.72Y-4.0125
X3.9075Y-2.5125
X4.095Y-3.2625
X4.2825Y-1.0125
X4.2825Y-1.7625
X4.47Y-4.0125
X4.6575Y-2.5125
X4.845Y-3.2625
X5.0325Y-1.7625
X5.22Y-4.0125
X5.3137Y-4.7625
X5.4075Y-1.0125
X5.4075Y-2.5125
X5.595Y-3.2625
X5.7825Y-1.7625
X5.97Y-4.0125
X6.1575Y-1.0125
X6.1575Y-2.5125
X6.345Y-3.2625
X6.5325Y-1.7625
X6.72Y-4.0125
X6.9075Y-1.0125
X6.9075Y-2.5125
X7.095Y-3.2625
X7.2822Y-5.0875
X7.2825Y-1.7625
X7.47Y-4.0125
X7.6575Y-1.0125
X7.6575Y-2.5125
X7.845Y-3.2625
X8.0325Y-1.7625
X8.1262Y-4.7625
X8.22Y-4.0125
X8.4075Y-2.5125
X8.595Y-3.2625
X8.7825Y-1.0125
X8.7825Y-1.7625
X8.97Y-4.0125
X9.0637Y-4.7625
X9.1575Y-2.5125
X9.345Y-3.2625
X9.5325Y-1.0125
X9.5325Y-1.7625
X9.9062Y-4.3375
X9.9075Y-2.5125
X10.0012Y-4.7625
X10.0937Y-3.5875
X10.1875Y-2.0875
X10.2825Y-1.0125
X10.3762Y-4.0125
X10.5637Y-3.2625
X10.6575Y-1.7625
X10.845Y-2.5125
X10.8462Y-4.3375
X10.9387Y-4.7625
X11.0325Y-1.0125
X11.0337Y-3.5875
X11.1275Y-2.0875
X11.97Y-1.0125
X11.97Y-1.7625
X11.97Y-2.5125
X11.97Y-4.7625
X12.72Y-1.0125
X12.72Y-1.7625
X12.72Y-2.5125
X12.72Y-4.0125
X12.72Y-4.7625
X13.47Y-1.0125
X13.47Y-1.7625
X13.47Y-2.5125
X13.47Y-4.7625
T0
M30
